<?xml version="1.0" encoding="UTF-8"?>
<svg id="Layer_2" data-name="Layer 2" xmlns="http://www.w3.org/2000/svg" viewBox="0 0 1041.17 230">
  <defs>
    <style>
      .cls-1 {
        fill: #fcbd2c;
      }
    </style>
  </defs>
  <g id="Olfactiv_Orizontal" data-name="Olfactiv Orizontal">
    <g id="Logo">
      <g id="OLFACTIV_Antipasto_Pro_" data-name="OLFACTIV (Antipasto Pro)">
        <path class="cls-1" d="M396.11,101.9c-5.85-22.78-26.54-39.75-51.32-39.75-1.44,0-2.88,.06-4.29,.17-26.89,2.18-48.36,24.6-48.36,52.72s23.21,52.81,52.65,52.81,52.97-23.87,52.97-52.81c0-4.53-.57-8.94-1.65-13.14Zm-51.24,49.78c-20.61,0-36.48-16.42-36.48-36.64,0-17.23,11.84-31.82,28.1-35.61,2.69-.62,5.49-.95,8.38-.95,22.58,0,34.68,15.9,36.24,32.88,1.78,19.45-10.26,40.32-36.24,40.32Z"/>
        <path class="cls-1" d="M479.08,150.87l-33.27-.08c-.88,0-1.58-.71-1.58-1.58V70.93c0-3.88-3.05-8.08-8.2-8.04-4.44,.03-7.97,3.78-7.97,8.22v87.8s-.39,7.96,7.07,7.96h43.95c4.3,.21,8.04-3.25,8.04-7.96s-3.49-8.04-8.04-8.04Z"/>
        <path class="cls-1" d="M569.09,62.89h-47.04c-6.44,0-8.04,5.19-8.04,7.79v88.23c0,4.43,3.47,7.96,8.04,7.96,4.03,0,8.13-3.02,8.13-7.96v-36.31h23.96c4.47,0,8.05-3.05,8.05-7.72s-3.49-8.04-8.05-8.04h-23.96v-27.79h38.91c4.65,0,7.96-3.54,7.96-8.04,0-5.06-4.15-8.12-7.96-8.12Z"/>
        <path class="cls-1" d="M670.66,156.11l-36.22-85.43c-2-4.71-6.62-7.77-11.73-7.77s-9.74,3.06-11.73,7.77l-36.22,85.43c-2.17,5.12,1.59,10.8,7.15,10.8h0c3.12,0,5.94-1.86,7.15-4.74h0c8.75-20.64,27.26-23.82,49.16-23.82,0,0-6.65-18.72-34.72-10.23l19.21-45.31,33.65,79.36c1.22,2.87,4.03,4.74,7.15,4.74,5.57,0,9.33-5.68,7.15-10.8Z"/>
        <path class="cls-1" d="M765.37,141.04c-5.6,5.43-13.76,10.64-26.25,10.64-22.5-.23-36.15-18.83-36.15-36.72,0-20.36,16.47-36.48,36.4-36.48,10.71,0,19.54,4.11,26.16,10.73,2.63,2.63,7.79,3.26,11.45-.17,3.15-3.37,2.95-8.38-.08-11.21-4.65-4.7-17.12-15.68-37.45-15.68-31.03,0-52.73,25.63-52.73,52.97s22.41,52.73,52.4,52.73c13.21,0,26.71-4.64,37.7-15.52,3.07-3.31,2.83-8.57-.16-11.37-2.94-2.73-8.04-2.94-11.29,.08Z"/>
        <path class="cls-1" d="M867.65,62.89h-59.15c-4.63,0-7.96,3.53-7.96,8.04s3.33,8.04,7.96,8.04h21.61v79.94c0,4.48,3.05,7.96,7.72,7.96s8.13-3.31,8.13-7.96V78.97h21.69c4.31,0,8.04-3.18,8.04-7.96,0-4.52-3.41-8.12-8.04-8.12Z"/>
        <path class="cls-1" d="M912.9,62.89c-4.52,0-8.05,3.33-8.05,7.96v88.06c0,4.63,3.53,7.96,8.05,7.96s8.12-3.31,8.12-7.96V70.85c0-4.64-3.61-7.96-8.12-7.96Z"/>
        <path class="cls-1" d="M1025.74,68l-30,71.13-30.53-71.13c-4.54-10.13-19.35-3.11-14.95,6.17l37.61,87.74c3.05,7.39,12.75,5.94,15.03-.24,0,0,38.26-86.48,37.53-87.5,4.16-9.89-10.67-15.76-14.7-6.17Z"/>
      </g>
      <g id="Soare">
        <circle class="cls-1" cx="115" cy="115" r="70.87"/>
        <path class="cls-1" d="M229.99,114.64c-.03-.45-.16-.88-.43-1.26-.1-.15-.22-.3-.36-.44-.07-.07-.14-.12-.21-.18-5.5-5.49-12.79-6.37-18.15-4.5,.75-.8,1.61-1.62,2.46-2.42,4-3.8,9-8.6,6.5-15.1-1.2-3-3.6-5.3-6.7-6.3-1.56-.48-3.17-.6-4.75-.4,4.48-7.24,12.64-11.9,18.24-15.17,.5-.28,.18-1.04-.37-.9-6.16,1.63-15.01,4.04-23.17,2.28,1.06-.91,1.97-2.01,2.65-3.29,1.48-2.9,1.55-6.22,.28-9.19-2.83-6.36-9.76-6.22-15.27-6.08-1.17,.03-2.36,.06-3.46,.03,5.11-2.47,9.65-8.25,9.65-16.02,.01-.09,.03-.18,.03-.27,0-.2-.03-.39-.06-.57-.08-.46-.29-.86-.59-1.19-.03-.04-.07-.09-.11-.12-.04-.04-.08-.08-.12-.11-.33-.3-.73-.51-1.19-.59-.18-.04-.37-.06-.57-.06-.09,0-.18,.02-.27,.03-7.77,0-13.55,4.54-16.02,9.64-.03-1.09,0-2.28,.03-3.45,.14-5.51,.28-12.44-6.08-15.27-2.97-1.27-6.29-1.2-9.19,.28-1.45,.77-2.67,1.82-3.65,3.08-1.95-8.29,.53-17.35,2.18-23.62,.15-.56-.61-.87-.9-.38-3.2,5.5-7.76,13.47-14.77,18,.1-1.4-.04-2.82-.46-4.2-1-3.1-3.3-5.5-6.3-6.7-6.5-2.5-11.3,2.5-15.1,6.5-.8,.85-1.62,1.71-2.42,2.46,1.87-5.36,.99-12.65-4.5-18.14-.06-.08-.11-.15-.18-.22-.13-.14-.28-.25-.44-.36-.38-.26-.81-.4-1.26-.43-.05,0-.1,0-.16-.01-.05,.01-.11,.01-.16,.01-.45,.03-.88,.17-1.26,.43-.15,.11-.31,.22-.44,.36-.07,.07-.12,.14-.18,.22-5.49,5.49-6.37,12.78-4.5,18.14-.8-.75-1.62-1.61-2.42-2.46-3.8-4-8.6-9-15.1-6.5-3,1.2-5.3,3.6-6.3,6.7-.48,1.57-.6,3.17-.4,4.75-7.24-4.48-11.9-12.64-15.17-18.24-.29-.5-1.05-.18-.9,.37,1.63,6.16,4.04,15.01,2.28,23.18-.91-1.07-2.01-1.97-3.29-2.66-2.9-1.48-6.22-1.55-9.19-.28-6.36,2.83-6.22,9.76-6.08,15.28,.03,1.16,.06,2.35,.03,3.45-2.47-5.11-8.25-9.65-16.02-9.65-.09-.01-.18-.03-.27-.03-.2,0-.39,.03-.57,.07-.46,.07-.86,.28-1.19,.58-.04,.04-.09,.07-.13,.11-.03,.04-.07,.08-.1,.12-.3,.33-.51,.73-.59,1.19-.04,.18-.06,.37-.06,.57,0,.09,.02,.18,.03,.27,0,7.77,4.54,13.55,9.64,16.02-1.09,.03-2.28,0-3.45-.03-5.51-.14-12.44-.28-15.27,6.08-1.27,2.97-1.2,6.3,.28,9.2,.77,1.44,1.82,2.66,3.08,3.64-8.29,1.95-17.36-.52-23.62-2.18-.56-.15-.87,.61-.38,.9,5.5,3.21,13.47,7.76,18,14.78-1.4-.11-2.82,.03-4.2,.45-3.1,1-5.5,3.3-6.7,6.3-2.5,6.5,2.5,11.3,6.5,15.1,.85,.8,1.71,1.62,2.46,2.42-5.36-1.87-12.65-.99-18.14,4.5-.08,.06-.15,.11-.22,.18-.14,.14-.25,.29-.36,.44-.27,.38-.4,.81-.43,1.26,0,.05,0,.11-.01,.16,.01,.06,.01,.11,.01,.16,.03,.45,.16,.88,.43,1.26,.11,.16,.22,.31,.36,.44,.07,.07,.14,.12,.22,.18,5.49,5.49,12.78,6.37,18.14,4.5-.75,.8-1.61,1.62-2.46,2.42-4,3.8-9,8.6-6.5,15.1,1.2,3,3.6,5.3,6.7,6.3,1.57,.48,3.17,.6,4.75,.4-4.48,7.24-12.64,11.91-18.24,15.17-.5,.29-.18,1.05,.37,.9,6.16-1.62,15.01-4.04,23.18-2.28-1.07,.91-1.97,2.02-2.66,3.29-1.48,2.9-1.55,6.22-.28,9.19,2.83,6.37,9.76,6.22,15.28,6.08,1.16-.03,2.35-.06,3.45-.03-5.11,2.48-9.65,8.25-9.65,16.02-.01,.09-.03,.18-.03,.28,0,.19,.03,.38,.07,.57,.07,.45,.28,.86,.58,1.18,.03,.05,.07,.09,.11,.13,.04,.04,.08,.07,.12,.11,.33,.29,.73,.5,1.19,.58,.18,.04,.37,.06,.57,.06,.09,0,.18-.02,.27-.03,7.77,0,13.55-4.54,16.02-9.64,.03,1.09,0,2.28-.03,3.45-.14,5.51-.28,12.44,6.08,15.27,2.97,1.28,6.3,1.21,9.2-.28,1.44-.77,2.66-1.82,3.64-3.08,1.95,8.29-.53,17.36-2.18,23.62-.15,.56,.61,.87,.9,.38,3.21-5.5,7.76-13.47,14.78-18-.11,1.4,.03,2.82,.45,4.2,1,3.1,3.3,5.5,6.3,6.7,6.5,2.5,11.3-2.5,15.1-6.5,.8-.85,1.62-1.71,2.42-2.46-1.87,5.36-.99,12.65,4.5,18.15,.06,.07,.11,.14,.18,.21,.13,.14,.29,.26,.44,.36,.38,.27,.81,.4,1.26,.43,.05,0,.11,.01,.16,.01,.06,0,.11-.01,.16-.01,.45-.03,.88-.16,1.26-.43,.16-.1,.31-.22,.44-.36,.07-.07,.12-.14,.18-.21,5.49-5.5,6.37-12.79,4.5-18.15,.8,.75,1.62,1.61,2.42,2.46,3.8,4,8.6,9,15.1,6.5,3-1.2,5.3-3.6,6.3-6.7,.48-1.56,.6-3.17,.4-4.75,7.24,4.48,11.91,12.64,15.17,18.24,.29,.5,1.05,.18,.9-.37-1.62-6.16-4.04-15.01-2.28-23.17,.91,1.06,2.01,1.97,3.29,2.65,2.9,1.48,6.22,1.55,9.19,.28,6.37-2.83,6.22-9.76,6.08-15.27-.03-1.17-.06-2.36-.03-3.46,2.48,5.11,8.25,9.65,16.02,9.65,.09,.01,.18,.03,.28,.03,.19,0,.38-.03,.57-.06,.45-.08,.86-.29,1.18-.59,.05-.03,.09-.07,.13-.11,.03-.03,.07-.08,.11-.12,.29-.33,.5-.73,.58-1.19,.04-.18,.06-.37,.06-.57,0-.09-.02-.18-.03-.27,0-7.77-4.54-13.55-9.64-16.02,1.09-.03,2.28,0,3.45,.03,5.51,.14,12.44,.28,15.27-6.08,1.28-2.97,1.2-6.29-.28-9.19-.77-1.45-1.82-2.67-3.08-3.65,8.29-1.95,17.36,.53,23.62,2.18,.56,.15,.87-.61,.38-.9-5.5-3.2-13.47-7.76-18-14.77,1.4,.1,2.82-.04,4.2-.46,3.1-1,5.5-3.3,6.7-6.3,2.5-6.5-2.5-11.3-6.5-15.1-.85-.8-1.71-1.62-2.46-2.42,5.36,1.87,12.65,.99,18.15-4.5,.07-.06,.14-.11,.21-.18,.14-.13,.26-.28,.36-.44,.27-.38,.4-.81,.43-1.26,0-.05,.01-.1,.01-.16,0-.05-.01-.11-.01-.16Zm-25.99,5.82c1,2.6,3.3,4.8,5.7,7,4.1,3.91,6.5,6.5,5.3,9.5-.6,1.6-1.8,2.8-3.4,3.3-1.7,.5-3.7,.2-5.4-.89-.04-.03-.08-.04-.12-.07-.67-2.57-.88-5.39-.45-8.5,.47-3.31-4.61-4.12-5.1-.7-1.1,8.2,2.6,17.2,7.5,23-7.57,.64-16.55,4.39-21.57,10.96-2.07,2.77,2.1,5.79,4.11,3.11,1.76-2.32,3.73-4.08,5.84-5.39,.19,.09,.38,.16,.59,.2,1.98,.42,3.61,1.62,4.45,3.18,.78,1.49,.78,3.18,.07,4.74-1.27,2.97-4.8,3.11-10.46,2.97-3.25-.14-6.43-.21-8.98,.92-2.11,.85-7.13,5.83-8.01,8.01-1.13,2.54-1.06,5.72-.92,8.98,.14,5.65,0,9.19-2.97,10.46-1.56,.71-3.25,.71-4.74-.07-1.55-.85-2.75-2.47-3.18-4.45-.01-.05-.03-.09-.04-.13,1.34-2.29,3.19-4.43,5.69-6.33,2.68-2.01-.35-6.17-3.11-4.1-6.57,5.02-10.32,14-10.96,21.56-5.8-4.9-14.8-8.6-23-7.5-3.42,.49-2.61,5.58,.7,5.1,2.89-.39,5.53-.24,7.95,.32,.07,.19,.16,.38,.27,.56,1.1,1.7,1.4,3.7,.9,5.4-.5,1.6-1.7,2.8-3.3,3.4-3,1.2-5.6-1.2-9.5-5.3-2.2-2.4-4.4-4.7-7-5.7-2.09-.89-9.17-.92-11.32,0-2.6,1-4.8,3.3-7,5.7-3.9,4.1-6.5,6.5-9.5,5.3-1.6-.6-2.8-1.8-3.3-3.4-.5-1.7-.2-3.7,.9-5.4,.02-.04,.04-.08,.06-.12,2.57-.67,5.39-.88,8.5-.45,3.31,.47,4.12-4.61,.7-5.1-8.2-1.1-17.2,2.6-23,7.5-.64-7.57-4.38-16.55-10.96-21.57-2.76-2.07-5.79,2.1-3.11,4.11,2.32,1.76,4.08,3.73,5.39,5.84-.08,.19-.15,.38-.2,.59-.42,1.98-1.62,3.61-3.18,4.45-1.48,.78-3.18,.78-4.74,.08-2.97-1.28-3.11-4.81-2.97-10.47,.15-3.25,.22-6.43-.92-8.98-.85-2.11-5.83-7.13-8.01-8.01-2.54-1.13-5.72-1.06-8.98-.92-5.65,.14-9.19,0-10.46-2.97-.71-1.55-.71-3.25,.07-4.74,.85-1.55,2.47-2.75,4.45-3.18,.05-.01,.09-.03,.13-.04,2.29,1.34,4.44,3.19,6.33,5.69,2.01,2.68,6.18-.35,4.1-3.11-5.02-6.57-14-10.32-21.56-10.96,4.9-5.8,8.6-14.8,7.5-23-.49-3.42-5.58-2.61-5.1,.7,.4,2.89,.24,5.53-.32,7.95-.19,.07-.38,.16-.56,.27-1.7,1.1-3.7,1.4-5.4,.9-1.6-.5-2.8-1.7-3.4-3.3-1.2-3,1.2-5.6,5.3-9.5,2.4-2.2,4.7-4.4,5.7-7,.89-2.09,.92-9.16,0-11.32-1-2.6-3.3-4.8-5.7-7-4.1-3.9-6.5-6.5-5.3-9.5,.6-1.6,1.8-2.8,3.4-3.3,1.7-.5,3.7-.2,5.4,.9,.04,.02,.08,.04,.12,.06,.67,2.57,.88,5.39,.45,8.5-.47,3.32,4.61,4.12,5.1,.7,1.1-8.2-2.6-17.2-7.5-23,7.57-.64,16.55-4.38,21.57-10.96,2.07-2.76-2.09-5.79-4.1-3.11-1.77,2.32-3.74,4.08-5.85,5.39-.18-.08-.38-.15-.59-.2-1.98-.42-3.6-1.62-4.45-3.18-.78-1.48-.78-3.18-.07-4.74,1.27-2.97,4.8-3.11,10.46-2.97,3.25,.15,6.44,.22,8.98-.92,2.12-.85,7.13-5.83,8.01-8,1.13-2.55,1.06-5.73,.92-8.99-.14-5.65,0-9.19,2.97-10.46,1.56-.71,3.25-.71,4.74,.07,1.55,.85,2.76,2.48,3.18,4.46,0,.04,.03,.08,.04,.12-1.34,2.29-3.19,4.44-5.69,6.33-2.68,2.01,.35,6.18,3.11,4.1,6.58-5.02,10.32-14,10.96-21.56,5.8,4.9,14.8,8.6,23,7.5,3.42-.49,2.62-5.58-.7-5.1-2.89,.4-5.53,.24-7.95-.32-.07-.19-.15-.38-.27-.56-1.1-1.7-1.4-3.7-.9-5.4,.5-1.6,1.7-2.8,3.3-3.4,3-1.2,5.6,1.2,9.5,5.3,2.2,2.4,4.4,4.7,7,5.7,2.1,.89,9.17,.92,11.32,0,2.6-1,4.8-3.3,7-5.7,3.9-4.1,6.5-6.5,9.5-5.3,1.6,.6,2.8,1.8,3.3,3.4,.5,1.7,.2,3.7-.9,5.4-.02,.04-.04,.08-.06,.12-2.57,.67-5.39,.88-8.5,.45-3.31-.47-4.12,4.61-.7,5.1,8.2,1.1,17.2-2.6,23-7.5,.64,7.57,4.39,16.55,10.96,21.57,2.77,2.07,5.79-2.09,3.11-4.1-2.32-1.76-4.08-3.74-5.39-5.85,.08-.18,.16-.38,.2-.59,.42-1.98,1.62-3.6,3.18-4.45,1.49-.78,3.18-.78,4.74-.07,2.97,1.27,3.11,4.81,2.97,10.46-.14,3.25-.21,6.44,.92,8.98,.85,2.12,5.83,7.14,8.01,8.01,2.54,1.13,5.72,1.06,8.98,.92,5.65-.14,9.19,0,10.46,2.97,.71,1.56,.71,3.25-.07,4.74-.85,1.55-2.47,2.76-4.45,3.18-.05,.01-.09,.03-.13,.04-2.29-1.34-4.43-3.19-6.33-5.69-2.01-2.68-6.17,.35-4.1,3.11,5.02,6.58,14,10.32,21.56,10.96-4.9,5.8-8.6,14.8-7.5,23,.49,3.42,5.58,2.62,5.1-.7-.39-2.89-.24-5.53,.32-7.95,.19-.07,.38-.15,.56-.27,1.7-1.1,3.7-1.4,5.4-.9,1.6,.5,2.8,1.7,3.4,3.3,1.2,3-1.2,5.6-5.3,9.5-2.4,2.2-4.7,4.4-5.7,7-.89,2.1-.92,9.17,0,11.32Z"/>
      </g>
    </g>
  </g>
</svg>