<svg xmlns="http://www.w3.org/2000/svg" xml:space="preserve" style="fill-rule:evenodd;clip-rule:evenodd;stroke-linejoin:round;stroke-miterlimit:1.41421" viewBox="0 0 2290 531"><path d="M0 51.944c-3.268-5.848-4.3-9.288-4.3-14.276 0-4.988 1.72-8.772 4.816-12.384l10.836-12.555c4.3-4.988 6.192-9.116 6.192-17.372 0-8.084-2.752-12.384-10.492-12.384h-22.015v-18.92H15.48c20.295 0 27.863 9.46 27.863 28.208 0 11.868-3.956 19.608-10.147 27.519l-7.224 9.116c-3.097 3.956-4.472 5.332-4.472 7.568 0 2.408 1.032 4.816 5.332 12.212l23.047 39.215H20.124L0 51.944Z" style="fill:#1f4391;fill-rule:nonzero" transform="translate(62.346 156.945) scale(4.16667)"/><path d="M0-22.703c0-6.708 0-13.416-.344-19.952-.516-8.772-3.44-11.695-8.084-11.695h-1.376c-4.644 0-7.568 2.923-8.084 11.695-.343 6.536-.343 13.244-.343 19.952V0c0 6.708 0 13.416.343 19.952.516 8.772 3.44 11.696 8.084 11.696h1.376c4.644 0 7.568-2.924 8.084-11.696C0 13.416 0 6.708 0 0v-22.703Zm25.8-6.88V6.88c0 3.268 0 6.02-.516 14.448-1.376 22.016-15.48 30.959-31.82 30.959h-5.16c-16.34 0-30.443-8.943-31.819-30.959-.516-8.428-.516-11.18-.516-14.448v-36.463c0-3.268 0-6.02.516-14.448 1.376-22.016 15.479-30.959 31.819-30.959h5.16c16.34 0 30.444 8.943 31.82 30.959.516 8.428.516 11.18.516 14.448" style="fill:#1f4391;fill-rule:nonzero" transform="translate(485.89 312.457) scale(4.16667)"/><path d="M0-124.698v29.412c0 12.039.859 23.219 2.752 35.603l5.504 35.259c.172 1.032.515 2.064 1.548 2.064 1.031 0 1.376-1.032 1.548-2.064l5.16-33.539c2.063-13.932 3.095-25.284 3.095-37.323v-29.412h25.799v27.863c0 11.697-1.031 25.972-3.095 36.464L34.398-18.92C31.819-4.988 25.799 0 15.308 0H4.987C-5.332 0-11.008-4.816-13.76-18.404l-7.912-40.247c-2.236-11.524-3.44-24.94-3.44-38.184v-27.863H0Z" style="fill:#e31e25;fill-rule:nonzero" transform="translate(762.52 526.74) scale(4.16667)"/><path d="M280.849 596h25.8v123.838h-25.8z" style="fill:#e31e25" transform="translate(-153.269 -2476.17) scale(4.16667)"/><path d="M0 85.998h23.22c8.256 0 10.836-3.956 10.836-13.244 0-8.083-3.956-15.135-14.104-24.595-12.9-12.04-18.92-21.328-18.92-35.775C1.032-7.568 9.804-18.92 30.1-18.92h25.799V0H35.432c-6.02 0-8.6 2.924-8.6 11.18 0 9.115 2.407 12.727 12.04 22.187 15.48 15.136 20.983 23.22 20.983 40.763 0 20.296-11.524 30.788-32.164 30.788H0v-18.92Z" style="fill:#e31e25;fill-rule:nonzero" transform="translate(1176.74 86) scale(4.16667)"/><path d="M391.958 596h25.8v123.838h-25.8z" style="fill:#e31e25" transform="translate(-153.269 -2476.17) scale(4.16667)"/><path d="M0-22.703c0-6.708 0-13.416-.344-19.952-.516-8.772-3.44-11.695-8.084-11.695h-1.376c-4.644 0-7.568 2.923-8.084 11.695-.343 6.536-.343 13.244-.343 19.952V0c0 6.708 0 13.416.343 19.952.516 8.772 3.44 11.696 8.084 11.696h1.376c4.644 0 7.568-2.924 8.084-11.696C0 13.416 0 6.708 0 0v-22.703Zm25.8-6.88V6.88c0 3.268 0 6.02-.517 14.448C23.907 43.344 9.804 52.287-6.536 52.287h-5.16c-16.339 0-30.444-8.943-31.82-30.959-.515-8.428-.515-11.18-.515-14.448v-36.463c0-3.268 0-6.02.515-14.448 1.376-22.016 15.481-30.959 31.82-30.959h5.16c16.34 0 30.443 8.943 31.819 30.959.517 8.428.517 11.18.517 14.448" style="fill:#e31e25;fill-rule:nonzero" transform="translate(1833.195 312.457) scale(4.16667)"/><path d="M0-123.838h42.14c18.231 0 24.767 7.052 25.97 23.048.689 8.599.689 16.683.689 26.315V0h-25.8v-70.863c0-9.287 0-14.791-.516-22.532-.688-9.803-3.44-11.523-9.976-11.523H25.8V0H0v-123.838Z" style="fill:#e31e25;fill-rule:nonzero" transform="translate(2003.045 523.157) scale(4.16667)"/></svg>