<svg xmlns="http://www.w3.org/2000/svg" width="150.602" height="68.545"><g data-name="Group 38"><g data-name="Group 1"><path data-name="Path 1" d="M15.947 46.22a8.756 8.756 0 00-5.388-2.1c-2.209 0-3.718 1.293-3.718 3.232 0 1.993 2.478 2.963 5.01 3.987 3.556 1.4 7.974 3.34 7.974 8.189 0 6.088-4.849 8.62-10.021 8.62a12.517 12.517 0 01-9.805-4.364l3.663-3.178c1.886 1.939 3.771 2.963 6.088 2.963 2.37 0 4.525-1.185 4.525-3.717 0-2.1-2.478-3.071-5.172-4.149-3.556-1.454-7.6-3.07-7.6-7.919 0-5.549 4.364-8.189 9.051-8.189a12.844 12.844 0 018.62 3.125z"/><path data-name="Path 2" d="M122.587 65.689a13.434 13.434 0 01-8.674 2.855c-7.865 0-13.953-5.711-13.953-14.276a14.041 14.041 0 0114.169-14.277 13.727 13.727 0 018.189 2.586l-2.694 4.364a9.21 9.21 0 00-5.495-1.94c-4.741 0-8.513 4.148-8.513 9.267 0 5.549 3.987 9.266 8.513 9.266a9.955 9.955 0 005.657-1.94z"/><path data-name="Path 3" d="M150.602 54.268a13.907 13.907 0 01-14.007 14.276c-8.081 0-14.008-6.3-14.008-14.276s5.926-14.277 14.008-14.277a13.907 13.907 0 0114.007 14.277zm-14.007-9.267c-4.849 0-8.351 4.148-8.351 9.267 0 5.064 3.5 9.266 8.351 9.266s8.35-4.2 8.35-9.266c0-5.118-3.502-9.267-8.35-9.267z"/><path data-name="Path 4" d="M35.326 62.49a6.8 6.8 0 01-3.071.755c-2.425 0-3.287-1.509-3.448-4.095-.053-.808-.053-1.454-.053-2.155V45.142h7.488v-4.794h-7.488v-6.311l-5.435 3.59-.114 2.72v17.778a15.1 15.1 0 00.808 5.388c1.077 2.8 3.556 4.633 7.488 4.633a11.927 11.927 0 005.441-1.293z"/><path data-name="Path 5" d="M96.858 62.503a6.8 6.8 0 01-3.071.755c-2.425 0-3.287-1.508-3.448-4.095-.054-.808-.054-1.455-.054-2.155V45.155h7.489V40.36h-7.492v-6.31l-5.434 3.59-.114 2.72v17.779a15.11 15.11 0 00.808 5.387c1.077 2.8 3.556 4.633 7.488 4.633a11.929 11.929 0 005.441-1.293z"/><path data-name="Path 6" d="M78.161 40.315a7.958 7.958 0 00-6.294 4.3l-.161-4.256h-5.279v27.527h5.549V49.302c1.506-2.636 3.551-4.2 6.186-4.2v-.009h3.6v-4.776z"/><path data-name="Path 7" d="M51.7 40.36l-8.986-.005v4.666l8.2-.022a13.277 13.277 0 011.355.087c3.049.58 4.368 2.719 4.368 6.043v.8a28.342 28.342 0 00-5.333-.584c-5.926 0-12.068 2.123-12.068 8.865 0 5.733 4.633 8.281 9.7 8.281a9.793 9.793 0 007.973-3.344l.162 2.707h5.118v-16.3C62.19 44.719 59.22 40.502 51.7 40.36zm4.942 20.8c-2.048 1.7-4.256 2.972-6.9 2.972-2.694 0-5.064-1.167-5.064-4.193 0-3.822 4.148-4.671 7.327-4.671a22.872 22.872 0 014.633.478z"/></g><path data-name="Path 8" d="M89.325 7.999l-.718-.373h.014l-.022-2.531C88.512 2.245 85.446-.014 81.685 0h-18.29s2.537 5.379 16.758 7.1a32.724 32.724 0 01-22.369-1.5l.008 3.982v.444l-.008 3.982a32.719 32.719 0 0122.373-1.5c-14.227 1.723-16.766 7.1-16.766 7.1h18.291c3.761.014 6.826-2.244 6.913-5.095l.023-2.527.708-.368 3.495-1.815z"/></g></svg>