<?xml version="1.0" encoding="UTF-8" standalone="no"?>
<!-- Generator: Adobe Illustrator 22.1.0, SVG Export Plug-In . SVG Version: 6.00 Build 0)  -->

<svg
   version="1.1"
   id="Layer_1"
   x="0px"
   y="0px"
   viewBox="0 0 531.29999 117.00436"
   xml:space="preserve"
   sodipodi:docname="logo.svg"
   width="531.29999"
   height="117.00436"
   inkscape:version="1.1 (ce6663b3b7, 2021-05-25)"
   xmlns:inkscape="http://www.inkscape.org/namespaces/inkscape"
   xmlns:sodipodi="http://sodipodi.sourceforge.net/DTD/sodipodi-0.dtd"
   xmlns="http://www.w3.org/2000/svg"
   xmlns:svg="http://www.w3.org/2000/svg"><defs
   id="defs46" /><sodipodi:namedview
   id="namedview44"
   pagecolor="#ffffff"
   bordercolor="#111111"
   borderopacity="1"
   inkscape:pageshadow="0"
   inkscape:pageopacity="0"
   inkscape:pagecheckerboard="1"
   showgrid="false"
   fit-margin-top="0"
   fit-margin-left="0"
   fit-margin-right="0"
   fit-margin-bottom="0"
   inkscape:zoom="0.85342757"
   inkscape:cx="304.65386"
   inkscape:cy="152.9128"
   inkscape:window-width="1920"
   inkscape:window-height="1012"
   inkscape:window-x="0"
   inkscape:window-y="0"
   inkscape:window-maximized="1"
   inkscape:current-layer="Layer_1" />
<style
   type="text/css"
   id="style2">
	.st0{fill:url(#SVGID_1_);}
	.st1{fill:#FFFFFF;}
	.st2{fill:url(#SVGID_2_);}
	.st3{fill:url(#SVGID_3_);}
	.st4{fill:#1B1464;}
	.st5{fill:url(#SVGID_4_);}
</style>
<g
   id="g41"
   transform="translate(-2.6,-6.095636)">
	<g
   id="g18">
		<path
   class="st4"
   d="m 178,61.1 c -6,-5.4 -11.1,-5.7 -13.4,-5.7 -2.5,0 -5.6,0.4 -7.8,2.8 -1.2,1.2 -2,3 -2,5 0,1.9 0.6,3.4 1.8,4.4 1.9,1.8 4.7,2.5 10.1,4.5 l 6,2.3 c 3.5,1.3 7.8,3.1 10.9,6.1 4.7,4.4 5.9,10.2 5.9,14.8 0,8.3 -2.9,15.4 -7.1,19.7 -7.1,7.4 -17.3,8.1 -22.6,8.1 -5.7,0 -10.8,-0.8 -15.8,-3.3 -4.1,-2 -8.7,-5.7 -11.7,-8.7 l 9.6,-13.2 c 2,2 5.3,4.8 7.4,6.1 3.1,1.9 6.3,2.9 10.1,2.9 2.4,0 5.7,-0.5 8.4,-2.8 1.6,-1.3 2.9,-3.5 2.9,-6.5 0,-2.6 -1.1,-4.3 -2.8,-5.7 -2.2,-1.8 -7.1,-3.6 -9.3,-4.4 L 152,85.2 c -3.7,-1.3 -8,-3 -11.1,-6.3 -4.2,-4.4 -4.8,-10.1 -4.8,-13.9 0,-7.1 2.2,-13 6.9,-17.9 5.6,-5.7 12.3,-7.3 19.7,-7.3 5.5,0 14.4,1 23.7,7.9 z"
   id="path4" />
		<path
   class="st4"
   d="m 231.3,55.9 v 66.6 H 212.5 V 55.9 H 194.8 V 40.2 H 249 v 15.7 z"
   id="path6" />
		<path
   class="st4"
   d="m 278.1,40.2 v 82.3 H 259.3 V 40.2 Z"
   id="path8" />
		<path
   class="st4"
   d="M 341.4,56.3 H 315 v 15.9 h 24.4 v 16 H 315 v 34.3 H 296.2 V 40.2 h 45.2 z"
   id="path10" />
		<path
   class="st4"
   d="m 373.1,40.2 v 66.2 h 25.3 v 16 H 354.3 V 40.2 Z"
   id="path12" />
		<path
   class="st4"
   d="m 455,56.2 h -27.2 v 15.9 h 25.9 v 16 h -25.9 v 18.2 H 455 v 16 h -46 v -82 h 46 z"
   id="path14" />
		<path
   class="st4"
   d="m 498.8,40.2 c 10.4,0 16.8,3.4 20.7,7.1 3.4,3.3 7.1,9.2 7.1,18.2 0,5.1 -1.1,11.5 -6.3,16.6 -2.8,2.7 -6.8,5.1 -11.4,6.2 l 25,33.3 H 511 L 489,89.5 v 32.1 H 470.2 V 40.2 Z m -9.7,37 h 4.3 c 3.4,0 8.1,-0.4 11.2,-3.5 1.3,-1.3 3.1,-3.9 3.1,-7.9 0,-4.6 -2.2,-7.1 -3.8,-8.3 -3.1,-2.3 -7.9,-2.6 -10.4,-2.6 h -4.4 z"
   id="path16" />
	</g>
	<g
   id="g39">
		<radialGradient
   id="SVGID_1_"
   cx="57.941502"
   cy="64.570801"
   r="56.963799"
   gradientUnits="userSpaceOnUse">
			<stop
   offset="1.700680e-03"
   style="stop-color:#46A1F7"
   id="stop20" />
			<stop
   offset="0.1887"
   style="stop-color:#499DF7"
   id="stop22" />
			<stop
   offset="0.3934"
   style="stop-color:#518FF8"
   id="stop24" />
			<stop
   offset="0.6065"
   style="stop-color:#5F7AFA"
   id="stop26" />
			<stop
   offset="0.8239"
   style="stop-color:#725BFD"
   id="stop28" />
			<stop
   offset="0.9989"
   style="stop-color:#853DFF"
   id="stop30" />
		</radialGradient>
		<path
   class="st0"
   d="M 113.3,85.8 C 113.3,68 106.5,54.1 90,46.1 c -2.9,-1.4 -5.9,-2.5 -8.9,-3.5 -1,-0.5 -2.2,-0.8 -3.4,-1 -0.7,-0.1 -1.4,-0.3 -2.1,-0.4 -1.6,-0.3 -3.2,-0.6 -4.9,-0.9 -0.2,0 -0.3,0 -0.5,-0.1 -2.6,-0.4 -5.3,-0.6 -8,-0.7 C 57.1,27.9 46.9,14.2 27.3,14.5 27.2,13.9 27.1,13.4 27,12.8 25.7,7.8 20.4,5 15.3,6.5 10.3,8 7.4,13.3 8.9,18.4 c 1.5,5.1 6.8,7.9 11.9,6.4 2.7,-0.8 4.8,-2.7 5.9,-5.1 16.4,-0.6 25.4,9.9 30.3,19.8 -3.8,0 -7.6,0.2 -11.4,0.8 -0.2,0 -0.3,0 -0.5,0.1 -1.6,0.2 -3.3,0.5 -4.9,0.9 -0.7,0.1 -1.4,0.3 -2.1,0.4 -1.2,0.2 -2.4,0.5 -3.4,1 -3,0.9 -6,2 -8.9,3.5 C 9.3,54.1 2.6,68 2.6,85.8 c 0,1 0,2 0,2.9 0,5.3 1,10.1 2.9,14.3 3.7,8.8 11.1,14.4 22.4,16.9 0.4,0.1 0.9,0.2 1.3,0.3 3.5,0.7 7.1,1.3 10.6,1.7 0,0 0,0 0,0 1,0.1 1.9,0.2 2.9,0.3 0.3,0 0.5,0.1 0.8,0.1 0.8,0.1 1.5,0.1 2.3,0.2 0.4,0 0.9,0.1 1.3,0.1 0.7,0 1.3,0.1 2,0.1 0.6,0 1.1,0.1 1.7,0.1 0.6,0 1.2,0 1.8,0.1 0.6,0 1.2,0.1 1.8,0.1 0.6,0 1.2,0 1.8,0 0.6,0 1.2,0 1.8,0 0.6,0 1.2,0 1.8,0 0.6,0 1.2,0 1.8,0 0.6,0 1.2,0 1.8,-0.1 0.6,0 1.2,0 1.8,-0.1 0.6,0 1.1,-0.1 1.7,-0.1 0.7,0 1.3,-0.1 2,-0.1 0.4,0 0.9,-0.1 1.3,-0.1 0.8,-0.1 1.5,-0.1 2.3,-0.2 0.3,0 0.5,-0.1 0.8,-0.1 1,-0.1 1.9,-0.2 2.9,-0.3 0,0 0,0 0,0 3.5,-0.4 7.1,-1 10.6,-1.7 0.4,-0.1 0.9,-0.2 1.3,-0.3 11.4,-2.5 18.7,-8.1 22.4,-16.9 1.9,-4.2 3,-9 2.9,-14.3 -0.1,-0.9 -0.1,-1.9 -0.1,-2.9 z m -8.9,3.8 c -1,11.8 -6.1,18 -17.2,20.9 -1.2,0.3 -2.4,0.5 -3.6,0.8 -8.1,1.6 -16.2,3 -24.6,2.7 -0.3,0 -0.7,0 -1,0 0,0 -0.1,0 -0.1,0 0,0 -0.1,0 -0.1,0 -0.3,0 -0.7,0 -1,0 -8.5,0.3 -16.6,-1.1 -24.6,-2.7 C 31,111 29.8,110.8 28.6,110.5 17.5,107.6 12.5,101.4 11.4,89.6 11.3,87 11.3,84.4 11.5,81.8 12.5,66.5 22.4,55.2 37.3,51.6 44.2,49.9 51,49 57.9,48.9 c 6.9,0.1 13.8,1 20.6,2.7 14.9,3.7 24.7,15 25.8,30.2 0.2,2.6 0.2,5.2 0.1,7.8 z"
   id="path33"
   style="fill:url(#SVGID_1_)" />
		<path
   class="st4"
   d="M 38.9,72.1 C 33.2,72 28.6,75 27,79.8 c -0.8,2.4 -1.1,4.9 1.4,6.3 2.6,1.5 4.8,0.6 6.7,-1.7 3.6,-4.6 3.7,-4.6 7.5,0.1 1.7,2.1 3.8,2.9 6.3,1.8 2.7,-1.3 2.6,-3.7 1.8,-6.2 -1.6,-4.8 -6.2,-8 -11.8,-8 z"
   id="path35" />
		<path
   class="st4"
   d="m 77,72.1 c -5.8,0 -10,2.9 -11.7,8 -0.8,2.4 -1,4.8 1.7,6.2 2.4,1.2 4.5,0.6 6.3,-1.6 3.7,-4.6 3.8,-4.6 7.9,0.1 1.8,2.1 3.9,2.8 6.3,1.4 2.2,-1.3 2.4,-3.5 1.6,-5.8 C 87.4,75.1 83,72 77,72.1 Z"
   id="path37" />
	</g>
</g>
</svg>
