<?xml version="1.0" encoding="UTF-8"?>
<!DOCTYPE svg PUBLIC "-//W3C//DTD SVG 1.0//EN" "http://www.w3.org/TR/2001/REC-SVG-20010904/DTD/svg10.dtd">
<!-- Creator: CorelDRAW 2020 (64-Bit) -->
<svg xmlns="http://www.w3.org/2000/svg" xml:space="preserve" width="406px" height="98px" version="1.0" style="shape-rendering:geometricPrecision; text-rendering:geometricPrecision; image-rendering:optimizeQuality; fill-rule:evenodd; clip-rule:evenodd"
viewBox="0 0 9.73 2.36"
 xmlns:xlink="http://www.w3.org/1999/xlink"
 xmlns:xodm="http://www.corel.com/coreldraw/odm/2003">
 <defs>
  <style type="text/css">
   <![CDATA[
    .fil1 {fill:#162731}
    .fil0 {fill:#FD6602}
    .fil2 {fill:#2B2A29;fill-rule:nonzero}
   ]]>
  </style>
 </defs>
 <g id="Layer_x0020_1">
  <metadata id="CorelCorpID_0Corel-Layer"/>
  <polygon class="fil0" points="0,0.42 1.93,0.42 1.93,1.62 2.36,1.63 2.36,0 0,0 "/>
  <polygon class="fil1" points="0,2.36 2.35,2.36 2.36,1.94 0.42,1.94 0.42,0.73 0.01,0.73 "/>
  <polygon class="fil0" points="0.77,1.59 1.58,1.59 1.59,0.78 0.77,0.77 "/>
  <g id="_1623488279472">
   <path class="fil2" d="M2.93 2.02c0,0.02 0,0.04 0.01,0.05 0.01,0.01 0.02,0.01 0.04,0.01l0.04 0 0 0.05 -0.05 0c-0.03,0 -0.06,-0.01 -0.07,-0.03 -0.02,-0.01 -0.03,-0.04 -0.03,-0.08l0 -0.47 0.06 0 0 0.47zm0.54 -0.15c0,-0.03 -0.01,-0.06 -0.03,-0.08 -0.01,-0.02 -0.04,-0.03 -0.07,-0.03 -0.02,0 -0.04,0.01 -0.06,0.01 -0.02,0.01 -0.04,0.02 -0.05,0.03l-0.04 -0.03c0.01,-0.02 0.03,-0.03 0.06,-0.04 0.02,-0.01 0.05,-0.02 0.08,-0.02 0.04,0 0.07,0.01 0.09,0.02 0.03,0.01 0.05,0.03 0.06,0.05 0.01,0.03 0.02,0.05 0.02,0.09l0 0.26 -0.06 0 0 -0.26zm-0.12 0.27c-0.05,0 -0.09,-0.01 -0.11,-0.03 -0.03,-0.03 -0.05,-0.06 -0.05,-0.1 0,-0.04 0.02,-0.07 0.04,-0.09 0.03,-0.02 0.06,-0.03 0.11,-0.03l0.13 0 0.01 0.05 -0.14 0c-0.03,0 -0.05,0.01 -0.07,0.02 -0.01,0.01 -0.02,0.03 -0.02,0.05 0,0.02 0.01,0.04 0.03,0.06 0.02,0.01 0.04,0.02 0.08,0.02 0.03,0 0.06,-0.01 0.08,-0.02 0.02,0 0.03,-0.01 0.03,-0.03l0.01 0.06c-0.01,0.01 -0.02,0.01 -0.03,0.02 -0.02,0.01 -0.03,0.01 -0.05,0.02 -0.01,0 -0.03,0 -0.05,0zm0.8 0c-0.04,0 -0.07,-0.01 -0.1,-0.02 -0.03,-0.01 -0.05,-0.03 -0.06,-0.06 -0.01,-0.03 -0.02,-0.06 -0.02,-0.1l0 -0.07c0,-0.04 0.01,-0.07 0.02,-0.1 0.01,-0.03 0.03,-0.05 0.06,-0.06 0.03,-0.01 0.06,-0.02 0.1,-0.02 0.02,0 0.04,0 0.06,0.01 0.02,0 0.04,0.01 0.05,0.02 0.02,0.01 0.03,0.02 0.04,0.04l0 0 -0.04 0.04 0 0c-0.01,-0.02 -0.03,-0.03 -0.05,-0.04 -0.02,-0.01 -0.04,-0.02 -0.06,-0.02 -0.04,0 -0.07,0.01 -0.09,0.04 -0.02,0.02 -0.03,0.05 -0.03,0.09l0 0.07c0,0.04 0.01,0.07 0.03,0.09 0.02,0.03 0.05,0.04 0.09,0.04 0.03,0 0.05,-0.01 0.06,-0.02 0.02,0 0.04,-0.02 0.05,-0.03l0 0 0.04 0.03 0 0c-0.01,0.02 -0.02,0.03 -0.04,0.04 -0.01,0.01 -0.03,0.02 -0.05,0.02 -0.02,0.01 -0.04,0.01 -0.06,0.01zm0.51 0c-0.03,0 -0.07,-0.01 -0.09,-0.02 -0.03,-0.02 -0.05,-0.04 -0.06,-0.06 -0.01,-0.03 -0.02,-0.06 -0.02,-0.1l0 -0.07c0,-0.04 0.01,-0.07 0.02,-0.1 0.01,-0.02 0.03,-0.04 0.06,-0.06 0.02,-0.01 0.06,-0.02 0.09,-0.02 0.04,0 0.07,0.01 0.09,0.02 0.03,0.02 0.05,0.04 0.06,0.06 0.02,0.03 0.02,0.06 0.02,0.1l0 0.07c0,0.04 0,0.07 -0.02,0.1 -0.01,0.02 -0.03,0.04 -0.06,0.06 -0.02,0.01 -0.05,0.02 -0.09,0.02zm0 -0.05c0.04,0 0.07,-0.02 0.09,-0.04 0.02,-0.02 0.03,-0.05 0.03,-0.09l0 -0.07c0,-0.04 -0.01,-0.07 -0.03,-0.09 -0.02,-0.02 -0.05,-0.04 -0.09,-0.04 -0.04,0 -0.06,0.02 -0.08,0.04 -0.02,0.02 -0.03,0.05 -0.03,0.09l0 0.07c0,0.04 0.01,0.07 0.03,0.09 0.02,0.02 0.04,0.04 0.08,0.04zm0.92 -0.21c0,-0.04 -0.01,-0.06 -0.03,-0.09 -0.01,-0.02 -0.04,-0.03 -0.07,-0.03 -0.03,0 -0.06,0.01 -0.08,0.03 -0.01,0.02 -0.02,0.05 -0.02,0.09l-0.03 -0.06c0.02,-0.04 0.04,-0.06 0.06,-0.08 0.02,-0.02 0.05,-0.03 0.09,-0.03 0.03,0 0.05,0.01 0.07,0.02 0.02,0.01 0.04,0.03 0.05,0.06 0.01,0.02 0.02,0.05 0.02,0.09l0 0.25 -0.06 0 0 -0.25zm-0.52 -0.16l0.06 0 0 0.41 -0.06 0 0 -0.41zm0.26 0.16c0,-0.04 -0.01,-0.06 -0.03,-0.09 -0.01,-0.02 -0.04,-0.03 -0.07,-0.03 -0.03,0 -0.06,0.01 -0.08,0.03 -0.01,0.02 -0.02,0.05 -0.02,0.08l-0.01 -0.08c0.01,-0.03 0.03,-0.05 0.05,-0.06 0.03,-0.01 0.05,-0.02 0.08,-0.02 0.03,0 0.05,0.01 0.08,0.02 0.02,0.01 0.03,0.03 0.04,0.06 0.01,0.02 0.02,0.05 0.02,0.09l0 0.25 -0.06 0 0 -0.25zm0.81 -0.01c0,-0.03 -0.01,-0.06 -0.03,-0.08 -0.02,-0.02 -0.04,-0.03 -0.08,-0.03 -0.02,0 -0.04,0.01 -0.05,0.01 -0.02,0.01 -0.04,0.02 -0.05,0.03l-0.05 -0.03c0.02,-0.02 0.04,-0.03 0.07,-0.04 0.02,-0.01 0.05,-0.02 0.08,-0.02 0.04,0 0.07,0.01 0.09,0.02 0.03,0.01 0.04,0.03 0.06,0.05 0.01,0.03 0.02,0.05 0.02,0.09l0 0.26 -0.06 0 0 -0.26zm-0.12 0.27c-0.05,0 -0.09,-0.01 -0.12,-0.03 -0.02,-0.03 -0.04,-0.06 -0.04,-0.1 0,-0.04 0.01,-0.07 0.04,-0.09 0.02,-0.02 0.06,-0.03 0.1,-0.03l0.14 0 0.01 0.05 -0.15 0c-0.02,0 -0.04,0.01 -0.06,0.02 -0.01,0.01 -0.02,0.03 -0.02,0.05 0,0.02 0.01,0.04 0.03,0.06 0.02,0.01 0.04,0.02 0.07,0.02 0.04,0 0.07,-0.01 0.09,-0.02 0.02,0 0.03,-0.01 0.03,-0.03l0.01 0.06c-0.01,0.01 -0.02,0.01 -0.04,0.02 -0.01,0.01 -0.02,0.01 -0.04,0.02 -0.02,0 -0.03,0 -0.05,0zm0.41 -0.42l0.06 0 0 0.41 -0.06 0 0 -0.41zm0.28 0.16c0,-0.04 -0.01,-0.06 -0.03,-0.09 -0.02,-0.02 -0.05,-0.03 -0.08,-0.03 -0.04,0 -0.07,0.01 -0.08,0.03 -0.02,0.02 -0.03,0.05 -0.03,0.08l-0.01 -0.08c0.01,-0.03 0.03,-0.05 0.06,-0.06 0.02,-0.01 0.05,-0.02 0.08,-0.02 0.05,0 0.08,0.02 0.11,0.04 0.02,0.03 0.03,0.08 0.03,0.13l0 0.25 -0.05 0 0 -0.25zm0.55 -0.33l0.06 0 0 0.58 -0.06 0 0 -0.58zm-0.13 0.59c-0.03,0 -0.06,-0.01 -0.08,-0.02 -0.02,-0.01 -0.04,-0.03 -0.05,-0.06 -0.01,-0.02 -0.01,-0.05 -0.01,-0.09l0 -0.09c0,-0.04 0,-0.07 0.01,-0.09 0.01,-0.03 0.03,-0.05 0.05,-0.06 0.02,-0.01 0.05,-0.02 0.08,-0.02 0.03,0 0.06,0.01 0.08,0.02 0.02,0.01 0.04,0.03 0.06,0.06l-0.01 0.08c0,-0.02 -0.01,-0.04 -0.01,-0.05 -0.01,-0.02 -0.02,-0.03 -0.04,-0.04 -0.02,-0.01 -0.04,-0.02 -0.06,-0.02 -0.03,0 -0.06,0.01 -0.08,0.03 -0.02,0.02 -0.03,0.05 -0.03,0.09l0 0.09c0,0.04 0.01,0.07 0.03,0.09 0.02,0.02 0.05,0.03 0.08,0.03 0.02,0 0.04,-0.01 0.06,-0.02 0.02,-0.01 0.03,-0.02 0.04,-0.04 0,-0.01 0.01,-0.03 0.01,-0.05l0 0.09c-0.01,0.02 -0.02,0.04 -0.04,0.05 -0.03,0.01 -0.06,0.02 -0.09,0.02zm0.68 -0.27c0,-0.03 -0.01,-0.06 -0.03,-0.08 -0.02,-0.02 -0.04,-0.03 -0.08,-0.03 -0.02,0 -0.04,0.01 -0.06,0.01 -0.02,0.01 -0.03,0.02 -0.05,0.03l-0.04 -0.03c0.02,-0.02 0.04,-0.03 0.06,-0.04 0.03,-0.01 0.06,-0.02 0.09,-0.02 0.03,0 0.06,0.01 0.09,0.02 0.02,0.01 0.04,0.03 0.05,0.05 0.02,0.03 0.02,0.05 0.02,0.09l0 0.26 -0.05 0 0 -0.26zm-0.13 0.27c-0.04,0 -0.08,-0.01 -0.11,-0.03 -0.03,-0.03 -0.04,-0.06 -0.04,-0.1 0,-0.04 0.01,-0.07 0.04,-0.09 0.02,-0.02 0.06,-0.03 0.1,-0.03l0.14 0 0.01 0.05 -0.15 0c-0.03,0 -0.05,0.01 -0.06,0.02 -0.02,0.01 -0.02,0.03 -0.02,0.05 0,0.02 0.01,0.04 0.02,0.06 0.02,0.01 0.05,0.02 0.08,0.02 0.04,0 0.07,-0.01 0.09,-0.02 0.02,0 0.03,-0.01 0.03,-0.03l0 0.06c0,0.01 -0.01,0.01 -0.03,0.02 -0.01,0.01 -0.03,0.01 -0.04,0.02 -0.02,0 -0.04,0 -0.06,0z"/>
   <path class="fil2" d="M2.96 0.3l0.18 0 0 0.84 -0.18 0 0 -0.84zm-0.24 -0.07l0.66 0 0 0.16 -0.66 0 0 -0.16zm1.15 0l0.11 0 0.35 0.91 -0.18 0 -0.22 -0.62 -0.22 0.62 -0.18 0 0.34 -0.91zm-0.18 0.6l0.48 0 0 0.16 -0.48 0 0 -0.16zm1.01 0.15l0.3 0c0.04,0 0.07,-0.01 0.09,-0.03 0.02,-0.02 0.03,-0.05 0.03,-0.08l0 -0.01c0,-0.02 -0.01,-0.04 -0.01,-0.05 -0.01,-0.02 -0.03,-0.03 -0.05,-0.04 -0.02,-0.01 -0.04,-0.01 -0.06,-0.01l-0.3 0 0 -0.17 0.3 0c0.03,0 0.06,-0.01 0.08,-0.03 0.02,-0.01 0.03,-0.04 0.03,-0.07l0 0c0,-0.03 -0.01,-0.05 -0.03,-0.07 -0.02,-0.02 -0.05,-0.03 -0.08,-0.03l-0.3 0 0 -0.16 0.3 0c0.06,0 0.11,0.01 0.15,0.03 0.04,0.02 0.08,0.05 0.1,0.08 0.02,0.04 0.03,0.08 0.03,0.14l0 0c0,0.03 -0.01,0.06 -0.02,0.09 -0.01,0.03 -0.03,0.05 -0.06,0.07 -0.03,0.02 -0.06,0.03 -0.1,0.03 0.04,0.01 0.08,0.02 0.11,0.04 0.02,0.02 0.05,0.04 0.06,0.07 0.02,0.04 0.02,0.07 0.02,0.11l0 0c0,0.05 -0.01,0.1 -0.03,0.14 -0.02,0.03 -0.05,0.06 -0.1,0.08 -0.04,0.02 -0.09,0.03 -0.15,0.03l-0.31 0 0 -0.16zm-0.07 -0.75l0.17 0 0 0.91 -0.17 0 0 -0.91zm1.01 0l0.18 0 0 0.91 -0.18 0 0 -0.91zm0.08 0.75l0.53 0 0 0.16 -0.53 0 0 -0.16zm1.13 0.17c-0.06,0 -0.12,-0.01 -0.17,-0.04 -0.05,-0.03 -0.09,-0.07 -0.12,-0.12 -0.03,-0.05 -0.04,-0.11 -0.04,-0.18l0 -0.25c0,-0.07 0.01,-0.13 0.04,-0.18 0.03,-0.05 0.07,-0.09 0.12,-0.12 0.05,-0.03 0.11,-0.04 0.17,-0.04 0.07,0 0.13,0.01 0.18,0.04 0.05,0.03 0.09,0.07 0.12,0.12 0.02,0.05 0.04,0.11 0.04,0.18l0 0.25c0,0.07 -0.02,0.13 -0.04,0.18 -0.03,0.05 -0.07,0.09 -0.12,0.12 -0.05,0.03 -0.11,0.04 -0.18,0.04zm0 -0.17c0.03,0 0.06,-0.01 0.09,-0.02 0.02,-0.01 0.04,-0.03 0.05,-0.06 0.01,-0.02 0.02,-0.05 0.02,-0.08l0 -0.27c0,-0.03 -0.01,-0.06 -0.02,-0.08 -0.01,-0.03 -0.03,-0.05 -0.05,-0.06 -0.03,-0.01 -0.06,-0.02 -0.09,-0.02 -0.03,0 -0.05,0.01 -0.08,0.02 -0.02,0.01 -0.04,0.03 -0.05,0.06 -0.01,0.02 -0.02,0.05 -0.02,0.08l0 0.27c0,0.03 0.01,0.06 0.02,0.08 0.01,0.03 0.03,0.05 0.05,0.06 0.03,0.01 0.05,0.02 0.08,0.02zm1 0.17c-0.07,0 -0.13,-0.01 -0.18,-0.04 -0.05,-0.03 -0.09,-0.06 -0.12,-0.12 -0.02,-0.05 -0.03,-0.11 -0.03,-0.18l0 -0.58 0.17 0 0 0.59c0,0.05 0.01,0.09 0.04,0.12 0.03,0.03 0.07,0.04 0.12,0.04 0.05,0 0.09,-0.01 0.12,-0.04 0.03,-0.03 0.04,-0.07 0.04,-0.12l0 -0.59 0.17 0 0 0.58c0,0.07 -0.01,0.13 -0.04,0.18 -0.02,0.06 -0.06,0.09 -0.11,0.12 -0.05,0.03 -0.11,0.04 -0.18,0.04zm0.76 -0.54l0.32 0c0.02,0 0.03,-0.01 0.04,-0.01 0.02,-0.01 0.03,-0.03 0.04,-0.04 0,-0.02 0.01,-0.04 0.01,-0.06l0 0c0,-0.02 -0.01,-0.04 -0.01,-0.06 -0.01,-0.01 -0.02,-0.02 -0.03,-0.03 -0.02,-0.01 -0.03,-0.02 -0.05,-0.02l-0.32 0 0 -0.16 0.33 0c0.05,0 0.1,0.01 0.13,0.03 0.04,0.02 0.07,0.06 0.09,0.1 0.02,0.04 0.03,0.09 0.03,0.14l0 0c0,0.06 -0.01,0.1 -0.03,0.14 -0.02,0.05 -0.05,0.08 -0.09,0.1 -0.03,0.02 -0.08,0.03 -0.13,0.03l-0.33 0 0 -0.16zm-0.07 -0.38l0.17 0 0 0.91 -0.17 0 0 -0.91zm0.26 0.52l0.19 -0.03 0.24 0.42 -0.21 0 -0.22 -0.39zm0.93 0.39l-0.18 0 0 -0.91 0.18 0 0 0.91z"/>
   <path class="fil2" d="M8.95 1.72l0.05 0 0 0.41 -0.05 0 0 -0.41zm0.24 0.07c-0.01,-0.01 -0.02,-0.01 -0.03,-0.02 -0.01,0 -0.03,-0.01 -0.05,-0.01 -0.03,0 -0.06,0.01 -0.08,0.03 -0.02,0.02 -0.03,0.05 -0.03,0.08l0 -0.08c0.01,-0.03 0.03,-0.04 0.06,-0.06 0.02,-0.01 0.05,-0.02 0.08,-0.02 0.02,0 0.03,0 0.05,0.01 0.01,0 0.03,0.01 0.04,0.02l-0.04 0.05zm0.37 0.35c-0.04,0 -0.07,-0.01 -0.1,-0.02 -0.02,-0.02 -0.04,-0.04 -0.05,-0.06 -0.02,-0.03 -0.02,-0.06 -0.02,-0.1l0 -0.07c0,-0.04 0,-0.07 0.02,-0.1 0.01,-0.02 0.03,-0.04 0.05,-0.06 0.03,-0.01 0.06,-0.02 0.1,-0.02 0.03,0 0.06,0.01 0.09,0.02 0.03,0.02 0.05,0.04 0.06,0.06 0.01,0.03 0.02,0.06 0.02,0.1l0 0.07c0,0.04 -0.01,0.07 -0.02,0.1 -0.01,0.02 -0.03,0.04 -0.06,0.06 -0.03,0.01 -0.06,0.02 -0.09,0.02zm0 -0.05c0.03,0 0.06,-0.02 0.08,-0.04 0.02,-0.02 0.03,-0.05 0.03,-0.09l0 -0.07c0,-0.04 -0.01,-0.07 -0.03,-0.09 -0.02,-0.02 -0.05,-0.04 -0.08,-0.04 -0.04,0 -0.07,0.02 -0.09,0.04 -0.02,0.02 -0.03,0.05 -0.03,0.09l0 0.07c0,0.04 0.01,0.07 0.03,0.09 0.02,0.02 0.05,0.04 0.09,0.04z"/>
   <circle class="fil0" cx="8.34" cy="1.91" r="0.13"/>
  </g>
 </g>
</svg>
