<?xml version="1.0" encoding="utf-8"?>
<!-- Generator: Adobe Illustrator 26.0.2, SVG Export Plug-In . SVG Version: 6.00 Build 0)  -->
<svg version="1.1" id="Layer_1" xmlns="http://www.w3.org/2000/svg" xmlns:xlink="http://www.w3.org/1999/xlink" x="0px" y="0px"
	 viewBox="0 0 313.9 68.6" style="enable-background:new 0 0 313.9 68.6;" xml:space="preserve">
<style type="text/css">
	.st0{fill:#F59E2A;}
	.st1{fill:url(#SVGID_1_);}
	.st2{fill:#F17600;}
	.st3{opacity:0.9;}
	.st4{fill:url(#SVGID_00000026859717874481031700000006105543205744340151_);}
</style>
<g>
	<g>
		<polygon class="st0" points="297.4,21.8 293.7,33.5 307.1,33.5 305.5,38.2 280.8,38.2 290.2,3.9 313.9,3.9 312.6,8.6 301,8.7 
			298.6,17.4 307.5,17.4 306.2,21.8 		"/>
		<path class="st0" d="M82.2,3.9c-5.5,10.7-13.8,25.4-18.4,34.2H69l4.3-7.3l8.5,0l-0.5,7.3H92l0.3-34.2H82.2z M81.8,27h-6.5
			l7.5-14.1L81.8,27z"/>
		<path d="M241.1,4c-1.4-0.4-3-0.6-4.8-0.6c-1.8,0-3.5,0.2-5.1,0.6c-11.2,2.8-19,14.5-16.4,26.5c1,4.4,3.6,6.8,7.6,7.8
			c0.4,0.1,0.9,0.2,1.4,0.3c2.8,0.4,5.4,0.3,7.9-0.3c9.1-2.1,15.8-10.4,16.6-22C248.8,9.8,246.2,5.5,241.1,4z M236.8,12.9
			c-1.5,6.2-3.3,12.4-5.5,18.5c-0.2,0.5-0.8,0.9-1.5,1.3c-1.7,0.8-3.7,0.2-4.5-1.5l-0.1-0.2c-0.4-0.8-0.5-1.8-0.3-2.7
			c1.8-5.9,3.5-10.8,5.6-16.5c0.1-0.3,0.3-0.6,0.6-0.9c2-1.9,5.5-1.6,5.7,1.1C236.9,12.3,236.9,12.6,236.8,12.9z"/>
		<path d="M272.4,3.9h-16.6l-9.5,34.2h11.3l3.8-13.6c0,0,2.9,0,4.5,0c5.7,0.1,10.9-1.9,14.2-7c0,0,0-0.1,0.1-0.1
			C283.9,11.6,279.4,3.9,272.4,3.9z M262.5,20.1c0.9-3.5,3-11.8,3-11.8s1.4-0.2,2,0c1.2,0.3,2.7,1.4,3,2.5
			C271.9,15.7,268.2,20.9,262.5,20.1z"/>
		<polygon points="134.1,3.9 124.4,38.2 117.1,38.2 108.5,17.8 102.8,38.2 98.4,38.2 108,3.9 115.2,3.9 123.4,26.3 129.6,3.9 		"/>
		<path d="M85.2,3.9c-5.5,10.7-13.8,25.4-18.4,34.2H72l4.3-7.3l8.5,0l-0.5,7.3H95l0.3-34.2H85.2z M84.8,27h-6.5l7.5-14.1L84.8,27z"
			/>
		<polygon points="174.2,21.8 170.5,33.5 183.9,33.5 182.3,38.2 157.6,38.2 167,3.9 190.7,3.9 189.4,8.6 177.8,8.7 175.4,17.4 
			184.3,17.4 183,21.8 		"/>
		<polygon points="294.4,21.8 290.7,33.5 304.1,33.5 302.5,38.2 277.8,38.2 287.2,3.9 310.9,3.9 309.6,8.6 298,8.7 295.6,17.4 
			304.5,17.4 303.2,21.8 		"/>
		<polygon points="164.5,3.9 147.7,38.2 135.5,38.2 138.8,3.9 148.8,3.9 147.6,29.1 161.1,3.9 		"/>
		<polygon points="209.9,38.2 185.8,38.2 195.2,3.9 206.2,3.9 197.2,33.7 211.8,33.7 		"/>
	</g>
	<g>
		<g>
			<g>
				<radialGradient id="SVGID_1_" cx="27.3232" cy="33.3257" r="29.7264" gradientUnits="userSpaceOnUse">
					<stop  offset="0" style="stop-color:#FFD200"/>
					<stop  offset="1" style="stop-color:#FD6A00"/>
				</radialGradient>
				<path class="st1" d="M30,65.9c-1.1,0-2.2-0.4-3.1-1.1l-24.2-19c-1.9-1.5-2.5-4.1-1.4-6.3l17.8-36c0.9-1.7,2.6-2.8,4.6-2.8
					c1.1,0,2.2,0.4,3,1l25.1,18.8c2,1.5,2.6,4.2,1.5,6.4L34.6,63.2C33.7,64.8,32,65.9,30,65.9C30,65.9,30,65.9,30,65.9z"/>
				<path class="st2" d="M23.7,1.5c0.9,0,1.8,0.3,2.6,0.9l25.1,18.8c1.7,1.3,2.2,3.6,1.3,5.5L33.9,62.8c-0.8,1.5-2.3,2.3-3.9,2.3
					c-0.9,0-1.9-0.3-2.7-0.9l-24.2-19C1.5,44,1,41.7,1.9,39.9l17.8-36C20.5,2.4,22.1,1.5,23.7,1.5 M23.7,0c-2.2,0-4.3,1.2-5.2,3.3
					l-17.8,36c-1.2,2.5-0.5,5.5,1.6,7.2l24.2,19c1,0.8,2.3,1.2,3.6,1.2c2.2,0,4.2-1.2,5.2-3.2L54,27.4c1.3-2.5,0.6-5.6-1.7-7.4
					L27.2,1.2C26.1,0.4,24.9,0,23.7,0L23.7,0z"/>
			</g>
			<g class="st3">
				
					<radialGradient id="SVGID_00000018923706951554041950000015177851624055843724_" cx="27.3168" cy="22.2926" r="23.4423" fx="26.0713" fy="16.8161" gradientUnits="userSpaceOnUse">
					<stop  offset="8.422206e-02" style="stop-color:#FFCD00"/>
					<stop  offset="1" style="stop-color:#FFFDD8"/>
				</radialGradient>
				<path style="fill:url(#SVGID_00000018923706951554041950000015177851624055843724_);" d="M53,25.7C48,23.3,42.3,22,36.3,22
					C21,22,7.8,30.6,1.7,43.1c-0.3-1-0.2-2.2,0.3-3.2l17.8-36c1.2-2.4,4.3-3.2,6.5-1.5l25.1,18.8C52.8,22.3,53.4,24,53,25.7z"/>
			</g>
		</g>
		<g>
			<path d="M76.5,50.4l-2.6,13.3h-3l0.3-1.4c-1.1,1-2.6,1.5-4.3,1.5c-3.3,0-5.9-2.2-5.9-5.9c0-4.5,3.2-7.8,7.5-7.8
				c2.1,0,3.6,0.7,4.5,2.1l0.4-2H76.5z M72.2,56.2c0-2.1-1.3-3.3-3.5-3.3c-2.6,0-4.6,2-4.6,5c0,2.1,1.3,3.3,3.5,3.3
				C70.2,61.2,72.2,59.2,72.2,56.2z"/>
			<path d="M92.7,54.7c0,0.5-0.1,1-0.2,1.6l-1.5,7.4h-3.1l1.4-7.3c0.1-0.4,0.1-0.7,0.1-1c0-1.5-0.8-2.4-2.7-2.4
				c-2.3,0-3.8,1.2-4.4,3.8L81,63.7h-3.1l2.6-13.3h3l-0.3,1.5c1.2-1.1,2.8-1.6,4.6-1.6C90.8,50.2,92.7,51.8,92.7,54.7z"/>
			<path d="M110,50.4l-8.4,13.3h-3.2l-3.1-13.3h3.1l2.2,9.9l6.2-9.9H110z"/>
			<path d="M122.6,58H112c0.1,2.1,1.3,3.3,3.8,3.3c1.5,0,2.9-0.5,3.8-1.4L121,62c-1.4,1.2-3.4,1.8-5.5,1.8c-4,0-6.6-2.3-6.6-5.9
				c0-4.5,3.2-7.8,7.7-7.8c3.7,0,6.1,2.2,6.1,5.8C122.8,56.7,122.8,57.4,122.6,58z M112.3,55.9h7.6c0-2-1.3-3.2-3.4-3.2
				C114.4,52.7,112.9,53.9,112.3,55.9z"/>
			<path d="M128,45.2h3.1l-3.7,18.5h-3.1L128,45.2z"/>
			<path d="M131.7,58c0-4.5,3.3-7.8,7.9-7.8c3.9,0,6.5,2.3,6.5,5.8c0,4.5-3.3,7.8-7.9,7.8C134.2,63.9,131.7,61.5,131.7,58z
				 M143,56.2c0-2.1-1.3-3.3-3.5-3.3c-2.6,0-4.6,2-4.6,5c0,2.1,1.3,3.3,3.5,3.3C141,61.2,143,59.2,143,56.2z"/>
			<path d="M163.2,56.1c0,4.5-3.2,7.8-7.5,7.8c-2.1,0-3.7-0.7-4.6-2.1l-1.3,6.8h-3.1l3.6-18.2h3l-0.3,1.4c1.1-1,2.6-1.5,4.3-1.5
				C160.6,50.2,163.2,52.4,163.2,56.1z M160.1,56.2c0-2.1-1.3-3.3-3.5-3.3c-2.6,0-4.6,2-4.6,5c0,2.1,1.3,3.3,3.5,3.3
				C158.1,61.2,160.1,59.2,160.1,56.2z"/>
			<path d="M178.6,58H168c0,2.1,1.3,3.3,3.8,3.3c1.5,0,2.9-0.5,3.8-1.4L177,62c-1.4,1.2-3.4,1.8-5.5,1.8c-4,0-6.6-2.3-6.6-5.9
				c0-4.5,3.2-7.8,7.7-7.8c3.7,0,6.1,2.2,6.1,5.8C178.8,56.7,178.7,57.4,178.6,58z M168.3,55.9h7.6c0-2-1.3-3.2-3.4-3.2
				C170.4,52.7,168.8,53.9,168.3,55.9z"/>
			<path d="M181.5,55.5h6.9l-0.5,2.6H181L181.5,55.5z"/>
			<path d="M190.5,58c0-4.5,3.3-7.8,7.9-7.8c3.9,0,6.5,2.3,6.5,5.8c0,4.5-3.3,7.8-7.9,7.8C193.1,63.9,190.5,61.5,190.5,58z
				 M201.8,56.2c0-2.1-1.3-3.3-3.5-3.3c-2.6,0-4.6,2-4.6,5c0,2.1,1.3,3.3,3.5,3.3C199.9,61.2,201.8,59.2,201.8,56.2z"/>
			<path d="M212.8,49.7l-0.2,0.7h3.6l-0.5,2.5h-3.6l-2.1,10.7h-3.1l2.1-10.7h-2.2l0.5-2.5h2.2l0.2-0.9c0.6-2.8,2.4-4.5,5.4-4.5
				c1.1,0,2.2,0.3,2.9,0.8l-1.3,2.3c-0.4-0.3-1-0.5-1.6-0.5C213.8,47.5,213.1,48.2,212.8,49.7z"/>
			<path d="M229.3,58h-10.6c0,2.1,1.3,3.3,3.8,3.3c1.5,0,2.9-0.5,3.8-1.4l1.3,2.2c-1.4,1.2-3.4,1.8-5.5,1.8c-4,0-6.6-2.3-6.6-5.9
				c0-4.5,3.2-7.8,7.7-7.8c3.7,0,6.1,2.2,6.1,5.8C229.5,56.7,229.4,57.4,229.3,58z M219,55.9h7.6c0-2-1.3-3.2-3.4-3.2
				C221.1,52.7,219.6,53.9,219,55.9z"/>
			<path d="M241.4,50.2l-0.6,3c-0.3,0-0.5-0.1-0.8-0.1c-2.4,0-4.1,1.2-4.6,4l-1.3,6.6H231l2.6-13.3h3l-0.4,1.7
				C237.5,50.7,239.2,50.2,241.4,50.2z"/>
			<path d="M246.3,59.2c0,0.2,0,0.4,0,0.6c0,0.9,0.5,1.5,1.6,1.5c0.6,0,1.2-0.2,1.7-0.5l0.6,2.3c-1,0.6-2.1,0.8-3.2,0.8
				c-2.3,0-3.8-1.3-3.8-3.6c0-0.3,0-0.7,0.1-1l1.3-6.3h-2.2l0.5-2.5h2.2l0.6-3h3.1l-0.6,3h3.6l-0.5,2.5h-3.6L246.3,59.2z"/>
			<path d="M265.8,58h-10.6c0,2.1,1.3,3.3,3.8,3.3c1.5,0,2.9-0.5,3.8-1.4l1.3,2.2c-1.4,1.2-3.4,1.8-5.5,1.8c-4,0-6.6-2.3-6.6-5.9
				c0-4.5,3.2-7.8,7.7-7.8c3.7,0,6.1,2.2,6.1,5.8C266,56.7,265.9,57.4,265.8,58z M255.5,55.9h7.6c0-2-1.3-3.2-3.4-3.2
				C257.6,52.7,256.1,53.9,255.5,55.9z"/>
			<path d="M266.8,61.9c0-1.3,1-2.2,2.2-2.2c1.1,0,1.9,0.8,1.9,1.9c0,1.3-1,2.2-2.1,2.2C267.7,63.9,266.8,63.1,266.8,61.9z"/>
			<path d="M284,50.2l-0.6,3c-0.3,0-0.5-0.1-0.8-0.1c-2.4,0-4.1,1.2-4.6,4l-1.3,6.6h-3.1l2.6-13.3h3l-0.4,1.7
				C280.1,50.7,281.8,50.2,284,50.2z"/>
			<path d="M284,58c0-4.5,3.3-7.8,7.9-7.8c3.9,0,6.5,2.3,6.5,5.8c0,4.5-3.3,7.8-7.9,7.8C286.5,63.9,284,61.5,284,58z M295.3,56.2
				c0-2.1-1.3-3.3-3.5-3.3c-2.6,0-4.6,2-4.6,5c0,2.1,1.3,3.3,3.5,3.3C293.3,61.2,295.3,59.2,295.3,56.2z"/>
		</g>
	</g>
</g>
</svg>
