<?xml version="1.0" encoding="UTF-8"?>
<!DOCTYPE svg PUBLIC "-//W3C//DTD SVG 1.1//EN" "http://www.w3.org/Graphics/SVG/1.1/DTD/svg11.dtd">
<!-- Creator: CorelDRAW 2021 (64-Bit) -->
<svg xmlns="http://www.w3.org/2000/svg" xml:space="preserve" width="2300px" height="1110px" version="1.1" style="shape-rendering:geometricPrecision; text-rendering:geometricPrecision; image-rendering:optimizeQuality; fill-rule:evenodd; clip-rule:evenodd"
viewBox="0 0 2300 1110"
 xmlns:xlink="http://www.w3.org/1999/xlink"
 xmlns:xodm="http://www.corel.com/coreldraw/odm/2003">
 <defs>
  <style type="text/css">
   <![CDATA[
    .fil2 {fill:#221E1F}
    .fil1 {fill:#221E1F;fill-rule:nonzero}
    .fil0 {fill:#E08519;fill-rule:nonzero}
   ]]>
  </style>
 </defs>
 <g id="Layer_x0020_1">
  <metadata id="CorelCorpID_0Corel-Layer"/>
  <g id="_2491364683424">
   <g>
    <g>
     <g>
      <path class="fil0" d="M825.07 635.93c-3.54,19.02 -6.39,35.57 -8.75,49.73 -2.36,14.15 -4.12,26.21 -5.49,36.15 -1.28,10.04 -2.26,18.18 -2.85,24.67 -0.5,5.55 -2.85,10.43 -7.18,14.64 -4.22,4.21 -9.72,7.46 -16.3,9.85 -6.59,2.3 -13.76,3.54 -21.32,3.54l-4.72 0c-6.39,0.09 -11.99,-1.34 -17,-4.3 -5.01,-2.87 -8.85,-6.7 -11.6,-11.29 -2.65,-4.59 -3.73,-9.27 -3.24,-14.16 0,-0.38 0.1,-0.76 0.29,-1.24 0.21,-0.57 0.3,-1.05 0.3,-1.63 1.48,-5.93 3.24,-13.1 5.21,-21.52 1.87,-8.42 3.92,-18.36 5.99,-30.03l10.02 -56.15c4.72,-25.05 8.45,-46.29 11.3,-63.59 2.85,-17.41 4.92,-31.67 6.09,-42.95 1.19,-11.19 1.68,-20.18 1.48,-26.97 -0.2,-4.69 0.49,-9.37 2.07,-13.96 1.66,-4.69 4.61,-8.61 8.84,-11.86 4.22,-3.26 10.02,-5.17 17.38,-5.65 4.03,-0.58 7.77,-1.15 11.01,-1.72 3.24,-0.57 6.48,-1.15 9.62,-1.73 6.78,-1.24 12.98,-0.76 18.48,1.44 5.61,2.2 9.92,5.45 13.17,9.76 3.14,4.3 4.61,8.99 4.31,14.06 -0.28,1.15 -0.58,2.58 -0.78,4.3 -0.29,1.72 -0.39,3.35 -0.39,4.79 -1.18,5.16 -2.56,11.28 -3.93,18.26 -1.48,7.08 -3.14,15.31 -4.91,24.77l-17.1 92.79zm47.16 -251.66l0 0c0,4.79 -1.08,10.05 -3.34,15.5 -2.16,5.55 -5.4,10.71 -9.82,15.69 -4.33,4.97 -9.73,8.99 -16.21,12.14 -6.49,3.15 -13.95,4.79 -22.5,4.88 -6.78,0 -13.27,-1.05 -19.46,-3.15 -6.19,-2.21 -11.2,-5.46 -15.13,-9.95 -3.93,-4.5 -5.99,-10.24 -6.09,-17.31 0,-4.59 1.08,-9.56 3.14,-14.83 2.17,-5.35 5.31,-10.52 9.73,-15.4 4.32,-4.88 9.83,-8.89 16.51,-11.96 6.68,-3.15 14.54,-4.77 23.68,-4.87 6.97,0 13.45,1.05 19.44,3.25 5.91,2.2 10.72,5.45 14.35,9.76 3.73,4.3 5.6,9.76 5.7,16.25zm-152.68 168.15l0 0c0,14.73 -1.67,30.22 -5.01,46.39 -3.44,16.16 -8.26,32.23 -14.64,48.3 -6.39,16.07 -14.25,31.27 -23.39,45.72 -9.14,14.44 -19.54,27.36 -31.24,38.64 -10.61,10.42 -22.5,19.32 -35.57,26.88 -13.07,7.55 -27.01,13.29 -42.05,17.41 -15.04,4.11 -30.85,6.11 -47.36,6.21 -5.6,0.1 -11.98,-0.1 -19.06,-0.48 -7.17,-0.28 -15.13,-1.34 -23.97,-2.96 -0.88,5.64 -1.87,11.1 -3.05,16.35 -1.08,5.27 -2.26,10.72 -3.44,16.36 -1.18,6.03 -2.36,11.96 -3.54,17.69 -1.18,5.84 -2.35,11.58 -3.53,17.32 -1.77,9.56 -3.14,18.17 -4.13,25.91 -0.98,7.75 -1.77,14.16 -2.36,19.42 -0.59,6.22 -2.85,11.77 -6.58,16.64 -3.83,4.79 -8.84,8.61 -15.33,11.29 -6.38,2.77 -13.76,3.92 -22.3,3.64l-4.13 0c-6.58,-0.1 -12.77,-1.35 -18.47,-3.83 -5.7,-2.39 -10.12,-5.64 -13.36,-9.56 -3.25,-4.03 -4.42,-8.32 -3.54,-13.01 2.36,-8.71 4.72,-18.37 7.07,-28.98 2.36,-10.62 4.72,-21.43 7.08,-32.43 0.59,-3.16 1.27,-6.31 1.96,-9.47 0.69,-3.15 1.28,-6.3 1.58,-9.47 0,-0.28 0.19,-0.95 0.49,-2 0.29,-1.06 0.68,-2.3 1.27,-3.73 0.29,-0.86 0.5,-1.82 0.6,-2.88 0.09,-1.05 0.29,-2 0.58,-2.87l-0.58 0.58 37.13 -186.51c1.19,-6.02 2.07,-11.67 2.85,-16.93 0.78,-5.26 1.58,-10.32 2.46,-15.21 0.59,-4.01 1.28,-8.13 2.16,-12.34 0.79,-4.3 1.67,-8.98 2.55,-14.05 0.89,-1.73 1.38,-3.45 1.58,-4.98 0.19,-1.52 0.19,-2.77 0.19,-3.63 2.26,-11.86 3.73,-22.38 4.33,-31.56 0.59,-9.28 0.78,-16.93 0.39,-22.96 0.2,-3.73 1.18,-7.66 2.95,-11.67 1.77,-4.01 4.52,-7.55 8.26,-10.62 3.73,-2.96 8.64,-4.97 14.73,-5.83 3.83,-0.28 7.47,-0.67 11.01,-1.24 3.44,-0.48 6.67,-1.05 9.63,-1.63 6.97,-1.05 13.45,-0.67 19.54,1.24 6,1.92 10.81,4.88 14.35,8.8 3.63,3.93 5.31,8.42 5.01,13.49 -0.89,4.02 -1.77,7.84 -2.65,11.67 -0.89,3.82 -1.77,7.55 -2.65,11.28 4.71,-6.69 9.92,-13.1 15.52,-19.42 5.7,-6.21 11.89,-11.75 18.66,-16.73 2.36,-1.91 6.4,-4.3 12.1,-7.36 5.79,-3.07 13.35,-5.74 22.79,-8.23 9.44,-2.49 20.73,-3.82 34.09,-3.92 18.18,0 33.9,3.63 47.17,10.9 13.26,7.28 23.58,17.98 30.84,32.14 7.27,14.16 10.91,31.56 11.01,52.22zm-207.51 59.12l0 0c-2.56,8.12 -4.92,17.02 -7.28,26.77 -2.25,9.66 -4.51,19.51 -6.48,29.37 -2.06,9.94 -3.93,19.22 -5.6,28.02 -1.57,8.8 -3.05,16.25 -4.22,22.57 -0.88,1.63 -1.48,3.35 -1.87,5.07 -0.29,1.73 -0.49,3.92 -0.49,6.41l-1.77 0c5.6,3.06 11.79,5.73 18.87,8.22 6.97,2.4 15.03,3.74 24.17,3.83 9.13,-0.09 17.29,-1.15 24.46,-3.35 7.17,-2.11 13.46,-4.88 18.86,-8.22 5.41,-3.45 10.13,-6.99 14.05,-10.71 3.93,-3.73 7.18,-7.18 9.83,-10.43 6.39,-7.56 11.89,-16.06 16.6,-25.54 4.72,-9.56 8.65,-19.51 11.89,-29.94 3.24,-10.42 5.8,-20.85 7.77,-31.18 1.97,-10.23 3.44,-19.99 4.32,-29.17 0.88,-9.18 1.28,-17.21 1.28,-24.2 0,-11.09 -1.28,-21.13 -3.94,-30.31 -2.65,-9.18 -6.87,-16.45 -12.57,-22 -5.7,-5.55 -13.16,-8.42 -22.4,-8.52 -10.52,0.1 -21.02,4.21 -31.44,12.34 -10.52,8.23 -20.34,19.99 -29.67,35.39 -9.24,15.3 -17.4,33.86 -24.37,55.58zm-149.74 68.76l0 0c0.59,5.17 1.18,10.04 1.77,14.82 0.59,4.69 1.17,9.09 1.76,13.11 0.3,1.24 0.49,2.68 0.6,4.2 0.1,1.63 0.29,2.87 0.59,3.83 0.88,6.51 1.66,11.96 2.26,16.36 0.68,4.4 1.27,8.32 1.86,11.67 0.69,5.36 -0.59,10.43 -3.93,15.2 -3.34,4.69 -8.16,8.52 -14.34,11.38 -6.19,2.87 -13.26,4.31 -21.23,4.21l-1.77 -0.57 -6.48 0c-7.76,0.19 -14.74,-0.86 -20.93,-3.16 -6.19,-2.2 -11.2,-5.35 -14.93,-9.46 -3.73,-4.11 -5.7,-8.8 -6,-14.26 0,-1.71 -0.09,-4.2 -0.39,-7.17 -0.19,-2.96 -0.49,-6.12 -0.78,-9.37 -0.3,-2.97 -0.6,-6.6 -0.89,-10.81 -0.3,-4.3 -0.59,-8.51 -0.88,-12.62 -0.3,-3.55 -0.59,-7.56 -0.88,-11.96 -0.31,-4.4 -0.6,-8.42 -0.89,-11.96 -0.3,-4.88 -0.59,-9.47 -0.89,-13.87 -0.29,-4.4 -0.58,-8.79 -0.88,-13.01l-123.8 0 -12.97 26.31c-2.36,4.59 -4.62,9.18 -6.77,13.87 -2.17,4.69 -4.43,9.18 -6.79,13.49 -3.53,7.17 -6.78,13.86 -9.53,19.89 -2.85,6.02 -5.21,11.19 -6.97,15.5 -2.36,5.83 -6.1,10.9 -11.1,15.29 -5.02,4.5 -11.01,7.94 -18.09,10.43 -6.96,2.4 -14.73,3.64 -23.28,3.44 -1.18,-0.28 -2.07,-0.48 -2.85,-0.48 -0.79,-0.09 -1.58,-0.09 -2.46,-0.09 -5.79,-0.09 -11.1,-1.43 -15.71,-4.01 -4.72,-2.59 -8.06,-5.74 -10.23,-9.67 -2.06,-3.92 -2.06,-7.94 0,-12.05 5.7,-9.37 11.69,-19.41 17.88,-30.22 6.19,-10.81 12.38,-21.81 18.67,-33.19 6.3,-11.29 12.39,-22.58 18.28,-33.67l14.14 -25.25c6,-10.8 12.88,-23.53 20.73,-38.26 7.87,-14.63 16.22,-30.22 25.06,-46.96 8.75,-16.64 17.59,-33.38 26.34,-50.31 8.84,-16.84 17.19,-32.9 25.05,-48.21 7.86,-15.2 14.74,-28.78 20.73,-40.64 3.24,-5.74 7.96,-10.72 14.15,-14.83 6.19,-4.01 13.26,-7.17 21.22,-9.28 7.96,-2.1 16.22,-3.06 24.77,-2.87 2.05,0.29 4.12,0.48 6.19,0.48 2.05,0.1 4.12,0.1 6.18,0.1 8.16,0 15.82,1.24 22.99,3.63 7.27,2.39 13.17,5.84 17.88,10.33 4.62,4.4 7.37,9.76 8.06,15.87 0.59,8.05 1.17,16.08 1.87,24.21 0.59,8.03 1.38,16.25 2.26,24.57 0,1.44 0.1,2.88 0.3,4.31 0.19,1.44 0.29,2.88 0.29,4.31 0.29,1.43 0.49,3.06 0.59,4.88 0.1,1.72 0.29,3.35 0.58,4.87 0,1.15 0.1,2.21 0.3,3.16 0.19,0.95 0.29,2 0.29,3.16l23 201.33zm-190.42 -67.05l0 0c11.7,0.19 21.42,0.29 29.19,0.38 7.76,0.1 14.25,0.2 19.45,0.2 5.2,0 9.83,0 13.85,0 4.61,0 8.85,0 12.58,0 3.74,0 7.47,-0.1 11.2,-0.2 3.63,-0.09 7.76,-0.19 12.18,-0.38 -0.88,-9.47 -1.66,-19.03 -2.36,-28.69 -0.68,-9.67 -1.47,-19.23 -2.35,-28.69 -0.89,-9.76 -1.87,-19.42 -2.95,-28.89 -1.08,-9.56 -2.06,-19.03 -2.94,-28.5 -1.19,-9.19 -2.07,-17.13 -2.76,-23.72 -0.59,-6.6 -1.08,-11.86 -1.38,-15.88l0 -0.57c-0.29,0.28 -0.49,0.57 -0.58,0.86 -0.1,0.28 -0.3,0.57 -0.59,0.86 -1.77,2.87 -3.44,5.73 -5.02,8.7 -1.57,2.87 -3.24,5.93 -5,9.08 -2.36,4.31 -4.72,8.43 -6.88,12.34 -2.27,3.93 -4.32,7.47 -6.1,10.62 -1.46,2.59 -2.75,4.97 -3.92,7.18 -1.08,2.2 -1.97,4.01 -2.56,5.45l-53.06 99.85z"/>
     </g>
    </g>
    <path class="fil1" d="M2074.06 629.22c-0.28,2.58 -0.58,5.08 -0.97,7.46 -0.3,2.39 -0.79,4.88 -1.39,7.46 -1.76,10.23 -3.63,20.85 -5.39,31.85 -1.77,11 -3.34,21.62 -4.53,31.94 -1.17,10.34 -1.86,19.71 -1.86,28.03 -0.2,5.26 -1.96,10.14 -5.11,14.64 -3.04,4.49 -7.47,8.22 -12.97,11.09 -5.6,2.87 -12.19,4.4 -19.65,4.68 -7.56,-0.09 -14.64,-1.43 -21.02,-4.2 -6.39,-2.77 -11.5,-6.41 -15.13,-11.1 -3.64,-4.68 -5.21,-9.85 -4.53,-15.68 0.2,-1.72 0.3,-3.16 0.39,-4.21 0.1,-1.06 0.31,-2.58 0.6,-4.79 0.38,-2.2 0.98,-5.93 1.96,-11.09 -5.41,7.36 -11.19,14.54 -17.39,21.43 -6.29,6.88 -13.07,13.01 -20.44,18.55 -7.36,5.45 -15.52,9.85 -24.46,13.01 -8.94,3.25 -18.77,4.88 -29.67,4.98 -13.36,0 -25.94,-2.11 -37.83,-6.22 -11.89,-4.12 -22.4,-10.34 -31.54,-18.65 -9.23,-8.23 -16.41,-18.46 -21.62,-30.81 -5.3,-12.33 -7.95,-26.68 -8.05,-43.03 0,-3.16 0.39,-8.71 1.27,-16.36 0.88,-7.75 2.56,-17.12 5.02,-28.03 2.46,-11 5.99,-22.95 10.51,-35.95 4.62,-12.92 10.51,-26.31 17.78,-39.99 7.27,-13.77 16.12,-27.16 26.72,-40.36 11.11,-13.1 24.07,-24.58 38.91,-34.43 14.84,-9.85 31.05,-17.6 48.54,-23.15 17.49,-5.55 35.67,-8.32 54.63,-8.41 6.78,0 12.87,0.38 18.27,1.04 5.41,0.68 10.32,1.54 14.75,2.4 2.65,-13.4 4.51,-24.39 5.69,-33.19 1.09,-8.7 1.38,-16.07 0.79,-21.9 -0.19,-5.07 0.98,-9.96 3.44,-14.63 2.45,-4.69 6.09,-8.71 11,-12.06 4.91,-3.35 10.91,-5.54 17.99,-6.6 0.98,-0.28 2.26,-0.57 3.92,-0.86 1.57,-0.28 3.05,-0.57 4.32,-0.86 5.8,-0.95 11.5,-1.15 16.9,-0.58 5.51,0.68 10.33,1.92 14.55,3.93 4.22,2.01 7.47,4.59 9.62,7.75 2.17,3.06 2.76,6.69 1.97,10.7 -1.08,3.17 -1.97,6.7 -2.55,10.72 -0.59,4.01 -1.38,8.52 -2.17,13.39 -0.59,2.87 -1.17,5.93 -1.76,9.09 -0.6,3.24 -1.19,6.69 -1.77,10.43 -0.3,2 -0.69,4.1 -1.18,6.4 -0.5,2.2 -0.89,4.5 -1.18,6.79 -1.18,5.17 -2.35,10.9 -3.54,17.22l-31.84 172.16zm-198.65 26.4l0 0c0,13.29 1.56,25.06 4.61,35.29 3.04,10.23 7.46,18.27 13.37,24.1 5.88,5.84 13.06,8.8 21.51,8.9 5.6,0.1 11.89,-1.53 18.76,-4.78 6.98,-3.26 14.16,-8.71 21.62,-16.45 7.37,-7.75 14.54,-18.27 21.51,-31.57 3.06,-5.74 5.81,-12.05 8.45,-18.84 2.56,-6.79 5.02,-14.73 7.57,-23.82 2.46,-9.08 5.11,-19.89 7.87,-32.41 2.84,-12.64 5.99,-27.46 9.43,-44.67 3.53,-17.22 7.56,-37.4 12.08,-60.46 -5.5,-1.53 -10.81,-2.67 -15.81,-3.63 -5.02,-1.05 -10.23,-1.53 -15.44,-1.53 -13.26,0.1 -25.15,2.59 -35.76,7.46 -10.51,4.97 -19.85,11.58 -27.9,19.9 -8.06,8.32 -15.03,17.69 -20.93,28.12 -5.89,10.42 -10.81,21.23 -14.83,32.32 -3.94,11.19 -7.18,22 -9.53,32.62 -2.36,10.52 -4.04,20.08 -5.11,28.69 -0.99,8.52 -1.47,15.5 -1.47,20.76zm-377.89 -93.16l0 0c1.37,-7.84 2.75,-16.16 4.12,-24.68 1.39,-8.6 2.46,-17.12 3.35,-25.53 0.89,-8.42 1.37,-16.36 1.37,-23.63l0 -3.44c-0.19,-4.5 0.59,-8.9 2.46,-13.3 1.96,-4.3 5.02,-8.03 9.24,-11.18 4.22,-3.07 9.72,-5.08 16.6,-5.93 2.94,-0.3 5.7,-0.58 8.25,-0.96 2.66,-0.29 5.41,-0.77 8.26,-1.34 0.39,0 0.88,-0.1 1.47,-0.29 0.69,-0.19 1.18,-0.29 1.47,-0.29 6.49,-0.67 12.58,0 18.38,2.01 5.89,2.01 10.61,4.98 14.15,8.8 3.53,3.83 5.1,8.04 4.62,12.72 -0.3,1.62 -0.4,2.39 -0.3,2.3 0.1,0 0.2,-0.2 0.4,-0.48 0.1,-0.29 0.1,0 0,0.86 -0.1,0.86 -0.6,3.06 -1.29,6.5 1.48,-1.71 3.25,-3.54 5.21,-5.44 1.86,-1.92 3.93,-3.74 6,-5.47 11.89,-8.98 25.44,-15.97 40.57,-21.04 15.14,-4.96 31.25,-7.54 48.44,-7.64 7.57,0 15.33,0.57 23.39,1.72 7.96,1.15 15.81,3.06 23.38,5.83 7.56,2.68 14.34,6.41 20.44,11 6.09,4.68 10.9,10.43 14.54,17.41 3.54,6.98 5.4,15.21 5.5,24.87 0,3.34 -0.2,7.17 -0.59,11.48 -0.49,4.29 -1.17,9.46 -2.16,15.59 -0.88,6.02 -2.16,13.39 -3.73,22.09 -1.18,6.12 -2.36,12.72 -3.54,19.7 -1.18,6.89 -2.36,13.77 -3.54,20.47 -1.18,6.79 -2.45,13.48 -3.83,19.89 -1.37,6.51 -2.65,13.01 -3.83,19.61 -1.18,6.22 -2.56,13.58 -4.03,21.9 -1.47,8.42 -2.94,17.13 -4.42,26.4 -1.47,9.28 -2.76,18.27 -3.93,27.17 -1.08,8.8 -1.87,16.93 -2.36,24.19 -0.49,5.75 -2.85,10.9 -6.97,15.31 -4.23,4.49 -9.63,8.03 -16.21,10.52 -6.69,2.58 -13.86,3.83 -21.62,3.92l-5.31 0c-6.58,0.09 -12.67,-1.05 -18.08,-3.54 -5.5,-2.48 -9.62,-5.73 -12.47,-9.94 -2.85,-4.12 -3.74,-8.62 -2.46,-13.4 1.97,-6.02 4.02,-13.39 6.19,-22.09 2.16,-8.7 4.42,-19.42 6.87,-32.23 2.56,-12.82 5.21,-28.32 8.16,-46.49l7.07 -37.78c2.76,-14.05 4.82,-26.68 6.39,-37.88 1.67,-11.09 2.46,-20.84 2.46,-29.16 0.1,-9.18 -0.99,-16.55 -3.24,-22.29 -2.26,-5.73 -5.89,-9.95 -11.01,-12.62 -5.11,-2.77 -11.89,-4.03 -20.53,-4.03 -7.57,0.1 -15.33,1.82 -23.39,5.36 -8.06,3.44 -15.81,8.14 -23.29,13.88 -7.46,5.83 -14.14,12.14 -19.94,19.12 -4.52,5.83 -8.44,12.63 -11.7,20.38 -3.34,7.74 -6.18,15.97 -8.44,24.77 -2.36,8.7 -4.33,17.4 -5.99,26.2 -1.67,8.8 -3.25,17.03 -4.52,24.87l-10.61 67.05c-1.48,8.8 -2.56,16.45 -3.24,23.15 -0.7,6.69 -1.19,12.62 -1.48,18.07 -0.49,5.55 -2.85,10.43 -7.17,14.64 -4.23,4.21 -9.73,7.46 -16.31,9.84 -6.58,2.3 -13.76,3.55 -21.32,3.55l-4.72 0c-6.78,0.1 -12.87,-1.15 -18.37,-3.64 -5.51,-2.58 -9.73,-5.83 -12.68,-9.85 -2.94,-4.11 -4.02,-8.42 -3.14,-12.82 2.95,-10.23 5.5,-20.85 7.76,-31.85 2.26,-11.09 4.42,-22.95 6.38,-35.77l18.87 -107.12zm-77.81 -107.13l0 0c7.17,-2 13.75,-1.9 19.74,0.29 5.9,2.2 10.52,5.55 13.76,10.14 3.34,4.59 4.51,9.47 3.63,14.83 -1.37,6.21 -3.04,13.86 -4.9,22.86 -1.97,8.98 -4.23,19.89 -6.89,32.71 -2.55,12.72 -5.5,27.92 -8.84,45.43l-10.61 56.24c-2.75,15.78 -5.11,30.41 -7.08,43.99 -1.86,13.59 -3.34,25.45 -4.31,35.59 -1.09,10.13 -1.58,18.07 -1.58,23.71 -0.1,4.79 -2.07,9.09 -5.8,12.83 -3.73,3.72 -8.55,6.59 -14.54,8.79 -5.99,2.2 -12.38,3.45 -19.16,3.63 -6.98,0.1 -13.36,-0.95 -19.05,-3.24 -5.71,-2.3 -10.23,-5.46 -13.57,-9.38 -3.33,-3.92 -4.81,-8.32 -4.52,-13.2 0.3,-4.98 0.89,-10.52 1.67,-16.64 0.89,-6.12 1.87,-12.25 3.05,-18.36 -5.99,8.12 -12.57,16.16 -19.56,24.01 -7.07,7.93 -14.72,15.11 -22.98,21.61 -8.26,6.5 -17.29,11.67 -27.03,15.59 -9.72,3.82 -20.34,5.83 -31.82,5.93 -12.38,0 -24.27,-1.91 -35.87,-5.84 -11.49,-3.92 -21.91,-9.85 -31.15,-17.89 -9.23,-7.93 -16.5,-17.88 -21.9,-30.02 -5.41,-12.05 -8.26,-26.31 -8.36,-42.67 -0.1,-5.45 0.69,-13.48 2.36,-24.29 1.67,-10.71 4.52,-23.24 8.75,-37.4 4.22,-14.25 10.11,-29.26 17.77,-45.05 7.67,-15.87 17.5,-31.56 29.48,-47.14 11.9,-15.51 26.54,-30.04 43.63,-43.53 3.54,-2.68 8.35,-5.83 14.34,-9.36 6.09,-3.64 13.37,-7.08 22.01,-10.62 8.55,-3.45 18.48,-6.32 29.57,-8.62 11.11,-2.29 23.59,-3.43 37.24,-3.53 9.24,0 17.49,0.57 24.87,1.71 7.36,1.16 14.24,2.59 20.42,4.41 6.2,1.82 12.2,3.82 17.79,5.93l9.44 -3.45zm-44.8 37.3l0 0c-5.31,-1.81 -11.21,-3.53 -17.5,-5.07 -6.39,-1.52 -13.16,-2.29 -20.23,-2.38 -14.94,0.09 -28.11,3.24 -39.5,9.27 -11.4,6.12 -21.33,14.16 -29.67,24.3 -8.36,10.14 -15.34,21.32 -21.04,33.66 -5.69,12.43 -10.21,24.97 -13.55,37.69 -3.34,12.72 -5.8,24.77 -7.28,36.06 -1.47,11.29 -2.15,20.85 -2.15,28.88 0,13.11 1.27,24.68 4.02,34.72 2.66,10.04 6.98,17.99 12.97,23.72 5.99,5.65 13.86,8.61 23.68,8.71 5.7,0.09 11.89,-1.05 18.47,-3.45 6.49,-2.39 13.27,-6.31 20.14,-11.85 6.78,-5.55 13.66,-13.11 20.34,-22.58 5.31,-6.98 10.03,-15.59 14.15,-25.73 4.22,-10.13 8.06,-22.19 11.6,-36.34 3.53,-14.16 6.87,-30.8 10.21,-49.83l15.34 -79.78zm-439.79 -39.02l0 0c2.65,-13.97 4.62,-25.63 5.99,-35.19 1.38,-9.47 2.26,-17.42 2.85,-23.91 0.49,-5.84 2.56,-11.1 6.29,-15.79 3.74,-4.78 8.84,-8.51 15.13,-11.28 6.29,-2.78 13.46,-4.02 21.62,-3.93l10.61 0c6.98,-0.09 13.17,1.15 18.67,3.64 5.5,2.58 9.73,5.83 12.58,9.94 2.85,4.03 3.82,8.32 2.94,12.83 -1.57,5.45 -3.54,12.62 -5.79,21.61 -2.27,8.99 -4.63,19.51 -7.27,31.37 -2.65,11.87 -5.41,24.78 -8.16,38.84 -2.95,15.58 -5.89,31.47 -8.84,47.81 -2.95,16.36 -5.9,32.72 -8.84,49.17 -2.95,16.64 -6,33 -9.14,49.16 -3.15,16.08 -6.19,32.04 -9.14,47.83 -1.18,6.4 -2.16,12.14 -2.95,17.4 -0.79,5.16 -1.18,9.57 -1.18,13.01 0,5.93 0.89,10.13 2.56,12.62 1.77,2.49 4.23,3.83 7.46,4.02 9.63,0.57 18.18,0.86 25.55,1.05 7.37,0.1 14.05,0.1 19.85,0.1 14.93,0 27.8,-0.77 38.51,-2.29 10.81,-1.44 19.95,-3.35 27.51,-5.75 5.7,-1.81 11.11,-2.2 16.41,-1.14 5.31,1.05 9.53,3.06 12.77,6.12 3.25,3.16 4.53,6.79 3.83,11.09 -0.29,0.58 -0.58,1.25 -0.88,2.11 -0.29,0.76 -0.59,1.62 -0.88,2.48l0.59 0c-1.87,5.84 -5.31,11 -10.42,15.59 -5.1,4.59 -11.29,8.23 -18.47,10.91 -7.17,2.77 -14.84,4.21 -22.99,4.49 -12.28,-0.38 -24.96,-0.76 -38.13,-1.15 -13.16,-0.28 -26.42,-0.57 -39.69,-0.86 -13.26,-0.18 -26.23,-0.28 -38.91,-0.28 -9.33,0 -17.68,0.1 -25.05,0.38 -7.27,0.19 -13.85,0.48 -19.75,0.76 -6.58,-0.28 -12.67,-1.81 -18.27,-4.49 -5.6,-2.78 -9.82,-6.21 -12.78,-10.52 -2.95,-4.21 -3.83,-8.8 -2.56,-13.68 2.36,-6.6 4.82,-15.02 7.38,-24.96 2.55,-10.04 5.11,-20.95 7.66,-32.71 2.55,-11.67 5.01,-23.53 7.37,-35.3l35.96 -191.1z"/>
    <path class="fil2" d="M2099.3 154.97c27.51,-29.51 37.42,-43.95 24.03,-51.48 -67.08,-2.94 -111.03,75.25 -115.41,76.44 -51.79,-39.87 -192.74,-133.5 -289.54,-140.96 -19.42,-1.19 -5.87,13.66 2.28,28.39 6.26,6.87 -34.46,16.28 -42.62,4.37 -74.46,-153.67 243.27,-18.33 324.38,60.34 51.07,-69.12 145.3,-71.21 158.85,-47.14 11.14,19.8 -0.97,51.97 -27.47,80.15 -10.4,9.87 -38.44,0.07 -34.5,-10.11z"/>
    <path class="fil2" d="M1947.48 212.95c-0.34,-4.82 18.93,-9.88 23.81,-0.25 13.52,26.71 33.64,87.75 16.25,120.82 -3.36,6.38 -21.09,7.95 -22,1.19 -0.34,-49.27 -4.82,-71.81 -18.06,-121.76z"/>
    <path class="fil2" d="M1898.55 231.09c-0.28,-3.83 17.86,-7.84 21.72,-0.21 10.72,21.18 26.67,69.61 12.88,95.83 -2.66,5.06 -19.56,6.3 -20.29,0.94 -0.25,-39.08 -3.82,-56.95 -14.31,-96.56z"/>
    <path class="fil2" d="M2005.73 222.1c-0.27,-3.82 17.86,-7.83 21.73,-0.2 10.72,21.17 26.67,69.61 12.88,95.82 -2.66,5.06 -19.57,6.31 -20.29,0.94 -0.26,-39.07 -3.82,-56.94 -14.32,-96.56z"/>
    <path class="fil2" d="M2214.83 415.06l12.28 0c5.86,0 9.86,-0.88 11.99,-2.57 2.14,-1.69 3.22,-3.95 3.22,-6.77 0,-1.8 -0.53,-3.42 -1.55,-4.85 -1.03,-1.41 -2.46,-2.49 -4.28,-3.18 -1.84,-0.72 -5.21,-1.06 -10.17,-1.06l-11.49 0 0 18.43zm-10.12 34.33l0 0 0 -61.02 21.53 0c7.38,0 12.71,0.54 16,1.67 3.29,1.13 5.91,3.11 7.88,5.9 1.95,2.83 2.93,5.8 2.93,8.96 0,4.46 -1.64,8.34 -4.9,11.65 -3.28,3.31 -7.62,5.15 -13.02,5.56 2.21,0.9 4,1.98 5.32,3.24 2.53,2.41 5.61,6.44 9.28,12.11l7.64 11.93 -12.36 0 -5.56 -9.63c-4.38,-7.54 -7.88,-12.28 -10.57,-14.18 -1.85,-1.41 -4.56,-2.11 -8.12,-2.11l-5.93 0 0 25.92 -10.12 0zm25.56 -78.7l0 0c-8.2,0 -16.15,2.06 -23.9,6.13 -7.75,4.08 -13.81,9.94 -18.19,17.5 -4.38,7.6 -6.56,15.51 -6.56,23.74 0,8.16 2.16,15.98 6.46,23.48 4.29,7.49 10.3,13.34 18.03,17.52 7.72,4.18 15.76,6.29 24.16,6.29 8.38,0 16.45,-2.11 24.18,-6.29 7.72,-4.18 13.7,-10.03 17.97,-17.52 4.27,-7.5 6.4,-15.32 6.4,-23.48 0,-8.23 -2.16,-16.14 -6.51,-23.74 -4.34,-7.56 -10.4,-13.42 -18.18,-17.5 -7.78,-4.07 -15.74,-6.13 -23.86,-6.13zm0 -9.39l0 0c9.78,0 19.32,2.44 28.65,7.32 9.31,4.9 16.58,11.87 21.78,20.98 5.19,9.09 7.8,18.58 7.8,28.46 0,9.78 -2.56,19.17 -7.7,28.17 -5.11,9.03 -12.31,16.04 -21.53,21.02 -9.25,5 -18.9,7.49 -29,7.49 -10.09,0 -19.76,-2.49 -28.99,-7.49 -9.25,-4.98 -16.45,-11.99 -21.58,-21.02 -5.17,-9 -7.73,-18.39 -7.73,-28.17 0,-9.88 2.61,-19.37 7.83,-28.46 5.22,-9.11 12.49,-16.08 21.82,-20.98 9.31,-4.88 18.88,-7.32 28.65,-7.32z"/>
    <path class="fil1" d="M1793.61 934.56l-3.78 19.33 -15.4 0 -2.9 14.11 15.61 0 -10.71 53.22c-0.77,3.76 -1.33,7.24 -1.7,10.45 -0.33,3.19 -0.52,6.3 -0.52,9.31 -0.04,3.62 0.71,6.95 2.22,10.03 1.53,3.08 3.95,5.57 7.3,7.45 3.34,1.89 7.76,2.87 13.24,2.93 2.71,0 5.35,-0.21 7.87,-0.58 2.54,-0.36 4.69,-0.83 6.4,-1.37l0.9 -14.33c-1.23,0.32 -2.61,0.54 -4.09,0.69 -1.49,0.1 -3.06,0.17 -4.61,0.17 -3.58,-0.03 -6.18,-0.94 -7.82,-2.75 -1.67,-1.77 -2.49,-4.27 -2.45,-7.45 0,-2.72 0.22,-5.44 0.59,-8.18 0.38,-2.79 0.86,-5.62 1.42,-8.54l10.04 -51.05 25.88 0 2.89 -14.11 -25.87 0 4.91 -25.19 -19.42 5.86zm-99.94 -23.89l0 0c-0.45,3.34 -0.45,6.59 0.07,9.7 0.53,3.12 1.68,5.91 3.43,8.4 1.74,2.49 4.24,4.45 7.47,5.94 3.19,1.44 7.28,2.21 12.24,2.25 5.16,-0.04 9.81,-1.13 13.94,-3.3 4.13,-2.17 7.54,-5.21 10.25,-9.12 2.72,-3.95 4.54,-8.55 5.47,-13.87l-11.59 0c-0.61,2.43 -1.61,4.78 -3.06,7.02 -1.41,2.25 -3.34,4.06 -5.72,5.51 -2.42,1.44 -5.36,2.21 -8.85,2.24 -2.91,-0.03 -5.31,-0.69 -7.21,-1.99 -1.9,-1.3 -3.28,-3.08 -4.17,-5.29 -0.89,-2.2 -1.26,-4.7 -1.12,-7.49l-11.15 0zm32.57 88.39l0 0c-1.38,7.02 -3.46,13.47 -6.21,19.27 -2.71,5.79 -5.91,10.81 -9.55,15.02 -3.61,4.23 -7.44,7.49 -11.41,9.81 -4.02,2.27 -7.97,3.43 -11.87,3.47 -3.58,-0.04 -6.55,-0.69 -8.93,-1.99 -2.37,-1.27 -4.27,-3.04 -5.68,-5.22 -1.42,-2.2 -2.41,-4.71 -3.02,-7.45 -0.63,-2.75 -0.89,-5.61 -0.89,-8.58 0.08,-5.86 0.97,-11.59 2.72,-17.16 1.71,-5.57 4.13,-10.83 7.25,-15.68 3.12,-4.84 6.8,-9.15 11,-12.85 4.24,-3.68 8.89,-6.58 13.91,-8.68 5.06,-2.1 10.37,-3.15 15.99,-3.18 3.12,0 5.72,0.18 7.8,0.5 2.12,0.32 3.84,0.66 5.14,1.02l-6.25 31.7zm11.38 59.95l0 0c-0.15,-3.95 -0.07,-8.55 0.22,-13.79 0.3,-5.21 0.83,-10.79 1.57,-16.76 0.74,-5.94 1.71,-11.98 2.89,-18.1l10.94 -54.72c-2.49,-0.81 -5.32,-1.53 -8.52,-2.15 -3.19,-0.61 -6.54,-1.08 -10.03,-1.44 -3.5,-0.37 -6.99,-0.54 -10.46,-0.54 -9.4,0.03 -18.03,1.47 -25.84,4.3 -7.8,2.83 -14.77,6.7 -20.78,11.62 -6.07,4.96 -11.19,10.61 -15.36,17.01 -4.16,6.37 -7.32,13.18 -9.48,20.38 -2.15,7.2 -3.28,14.47 -3.28,21.83 0.04,6.72 1.31,12.66 3.84,17.87 2.52,5.21 6.1,9.31 10.71,12.31 4.64,2.97 10.11,4.5 16.47,4.56 5.13,0.04 10.19,-0.9 15.09,-2.81 4.91,-1.93 9.63,-5.08 14.13,-9.42 4.53,-4.34 8.77,-10.1 12.72,-17.3l0.44 0c-0.66,5.51 -1.26,10.57 -1.7,15.28 -0.48,4.7 -0.71,8.65 -0.75,11.87l17.18 0zm-189.42 0l0 0 9.82 -51.04c1.26,-6.51 3.27,-12.34 5.99,-17.48 2.68,-5.11 5.8,-9.49 9.33,-13.03 3.53,-3.59 7.14,-6.31 10.9,-8.15 3.71,-1.88 7.25,-2.82 10.59,-2.82 4.2,0.04 7.59,0.83 10.04,2.43 2.49,1.55 4.28,3.76 5.36,6.51 1.08,2.75 1.59,5.93 1.56,9.52 0,2.21 -0.15,4.49 -0.45,6.8 -0.29,2.36 -0.66,4.56 -1.11,6.67l-11.83 60.59 18.52 0 12.05 -61.25c0.37,-1.92 0.7,-3.87 1,-5.9 0.29,-2.03 0.56,-3.97 0.75,-5.86 0.15,-1.92 0.26,-3.66 0.26,-5.18 -0.04,-5.54 -0.86,-10.16 -2.46,-13.93 -1.6,-3.76 -3.75,-6.77 -6.39,-9.06 -2.69,-2.24 -5.62,-3.87 -8.85,-4.88 -3.21,-0.97 -6.47,-1.48 -9.75,-1.44 -5.28,0 -10.37,0.9 -15.24,2.67 -4.87,1.78 -9.41,4.38 -13.58,7.82 -4.19,3.4 -7.87,7.6 -11.11,12.53l-0.45 0 2.68 -20.64 -16.51 0c-0.63,4.34 -1.34,9.05 -2.15,14.16 -0.78,5.1 -1.75,10.6 -2.99,16.46l-14.49 74.5 18.51 0zm-90.12 -148.34l0 0c-0.45,3.34 -0.45,6.59 0.07,9.7 0.52,3.12 1.68,5.91 3.42,8.4 1.75,2.49 4.24,4.45 7.48,5.94 3.19,1.44 7.28,2.21 12.23,2.25 5.17,-0.04 9.82,-1.13 13.94,-3.3 4.13,-2.17 7.55,-5.21 10.26,-9.12 2.72,-3.95 4.54,-8.55 5.46,-13.87l-11.59 0c-0.6,2.43 -1.6,4.78 -3.05,7.02 -1.42,2.25 -3.34,4.06 -5.72,5.51 -2.43,1.44 -5.36,2.21 -8.86,2.24 -2.9,-0.03 -5.31,-0.69 -7.21,-1.99 -1.9,-1.3 -3.28,-3.08 -4.17,-5.29 -0.88,-2.2 -1.25,-4.7 -1.11,-7.49l-11.15 0zm32.57 88.39l0 0c-1.38,7.02 -3.46,13.47 -6.21,19.27 -2.72,5.79 -5.91,10.81 -9.56,15.02 -3.6,4.23 -7.43,7.49 -11.41,9.81 -4.02,2.27 -7.96,3.43 -11.86,3.47 -3.58,-0.04 -6.55,-0.69 -8.93,-1.99 -2.37,-1.27 -4.27,-3.04 -5.69,-5.22 -1.41,-2.2 -2.41,-4.71 -3.01,-7.45 -0.63,-2.75 -0.89,-5.61 -0.89,-8.58 0.07,-5.86 0.97,-11.59 2.71,-17.16 1.71,-5.57 4.13,-10.83 7.25,-15.68 3.12,-4.84 6.81,-9.15 11.01,-12.85 4.24,-3.68 8.89,-6.58 13.9,-8.68 5.07,-2.1 10.38,-3.15 15.99,-3.18 3.13,0 5.73,0.18 7.81,0.5 2.12,0.32 3.84,0.66 5.13,1.02l-6.24 31.7zm11.38 59.95l0 0c-0.15,-3.95 -0.08,-8.55 0.22,-13.79 0.3,-5.21 0.82,-10.79 1.56,-16.76 0.75,-5.94 1.71,-11.98 2.9,-18.1l10.94 -54.72c-2.5,-0.81 -5.33,-1.53 -8.52,-2.15 -3.19,-0.61 -6.54,-1.08 -10.04,-1.44 -3.49,-0.37 -6.99,-0.54 -10.45,-0.54 -9.41,0.03 -18.03,1.47 -25.84,4.3 -7.81,2.83 -14.77,6.7 -20.78,11.62 -6.07,4.96 -11.2,10.61 -15.36,17.01 -4.16,6.37 -7.33,13.18 -9.49,20.38 -2.15,7.2 -3.27,14.47 -3.27,21.83 0.04,6.72 1.3,12.66 3.83,17.87 2.52,5.21 6.1,9.31 10.72,12.31 4.64,2.97 10.11,4.5 16.47,4.56 5.12,0.04 10.18,-0.9 15.09,-2.81 4.91,-1.93 9.63,-5.08 14.13,-9.42 4.53,-4.34 8.77,-10.1 12.72,-17.3l0.44 0c-0.66,5.51 -1.27,10.57 -1.71,15.28 -0.48,4.7 -0.7,8.65 -0.74,11.87l17.18 0zm-176.25 -5l0 0c1.67,1.27 3.83,2.43 6.54,3.51 2.72,1.08 5.77,2 9.22,2.68 3.47,0.69 7.1,1.08 11.01,1.19 5.73,0 11.08,-0.79 16.06,-2.31 4.94,-1.52 9.33,-3.8 13.13,-6.77 3.75,-2.93 6.69,-6.58 8.85,-10.89 2.12,-4.31 3.2,-9.24 3.24,-14.77 -0.04,-3.91 -0.9,-7.53 -2.6,-10.87 -1.68,-3.32 -4.06,-6.4 -7.08,-9.19 -3.04,-2.78 -6.58,-5.28 -10.63,-7.53 -3.2,-1.73 -5.91,-3.43 -8.07,-5.17 -2.19,-1.77 -3.87,-3.62 -4.98,-5.64 -1.12,-2 -1.67,-4.28 -1.67,-6.78 0.04,-3.07 0.85,-5.79 2.49,-8.17 1.64,-2.36 3.9,-4.24 6.76,-5.62 2.87,-1.34 6.18,-2.02 9.94,-2.06 2.67,0 5.2,0.25 7.58,0.76 2.38,0.47 4.5,1.09 6.4,1.81 1.89,0.73 3.48,1.45 4.75,2.21l5.13 -13.68c-1.37,-0.91 -3.15,-1.74 -5.42,-2.5 -2.27,-0.8 -4.87,-1.45 -7.82,-1.96 -2.89,-0.47 -5.98,-0.75 -9.29,-0.75 -7.65,0.07 -14.38,1.51 -20.23,4.34 -5.84,2.82 -10.45,6.7 -13.75,11.58 -3.32,4.89 -4.99,10.42 -5.07,16.65 0.05,5.36 1.72,10.28 5.03,14.8 3.31,4.56 8.1,8.51 14.4,11.92 3.67,1.98 6.64,3.94 8.84,5.85 2.19,1.92 3.75,3.98 4.72,6.16 0.93,2.13 1.41,4.6 1.38,7.31 0,3.15 -0.85,6.01 -2.53,8.62 -1.68,2.57 -4.06,4.63 -7.14,6.15 -3.05,1.56 -6.65,2.35 -10.86,2.39 -2.94,-0.04 -5.84,-0.36 -8.73,-1.02 -2.91,-0.65 -5.62,-1.48 -8.11,-2.46 -2.49,-0.98 -4.61,-1.98 -6.36,-3.04l-5.13 13.25zm-66.93 -100.12l0 0 -10.49 53.87c-1.15,5.82 -2.98,11.11 -5.46,15.81 -2.49,4.7 -5.4,8.76 -8.7,12.12 -3.31,3.37 -6.78,5.94 -10.38,7.75 -3.61,1.81 -7.1,2.76 -10.48,2.76 -4.21,-0.04 -7.62,-0.8 -10.15,-2.32 -2.57,-1.53 -4.42,-3.66 -5.58,-6.38 -1.12,-2.7 -1.71,-5.89 -1.68,-9.55 0,-2.28 0.15,-4.67 0.49,-7.2 0.34,-2.57 0.85,-5.29 1.52,-8.22l11.38 -58.64 -18.52 0 -11.59 59.51c-0.67,3.47 -1.16,6.62 -1.5,9.52 -0.33,2.9 -0.51,5.58 -0.51,8.07 0.03,5.94 0.85,10.89 2.49,14.84 1.6,3.95 3.76,7.05 6.5,9.3 2.72,2.28 5.73,3.91 9.08,4.9 3.34,0.93 6.76,1.4 10.26,1.36 4.8,-0.02 9.48,-0.9 14.09,-2.7 4.61,-1.78 9,-4.32 13.09,-7.62 4.09,-3.32 7.74,-7.23 10.97,-11.83l0.44 0 -2.89 19.77 16.72 0c0.57,-4.35 1.23,-9.09 2.05,-14.19 0.79,-5.11 1.75,-10.57 2.86,-16.43l14.51 -74.5 -18.52 0zm-139.21 105.12l0 0 8.93 -46.27c1.19,-6.18 2.93,-11.87 5.21,-17.15 2.26,-5.25 4.93,-9.85 8.02,-13.76 3.12,-3.94 6.51,-6.98 10.19,-9.19 3.72,-2.17 7.55,-3.3 11.6,-3.33 1,0 1.94,0.03 2.79,0.14 0.86,0.08 1.56,0.19 2.12,0.3l3.57 -17.81c-0.71,-0.11 -1.52,-0.22 -2.5,-0.29 -0.92,-0.11 -1.81,-0.14 -2.63,-0.14 -4.84,0.03 -9.34,1.15 -13.46,3.32 -4.12,2.21 -7.84,5.18 -11.16,8.94 -3.27,3.81 -6.09,8.11 -8.39,12.93l-0.68 0c0.55,-4.02 1.08,-7.89 1.53,-11.66 0.48,-3.76 0.92,-7.46 1.38,-11.15l-16.3 0c-0.37,3.3 -0.81,6.96 -1.34,11 -0.52,4.03 -1.15,8.3 -1.85,12.75 -0.7,4.49 -1.49,9.01 -2.38,13.61l-13.16 67.76 18.51 0zm-60.01 -124.45l0 0 -3.79 19.33 -15.4 0 -2.89 14.11 15.61 0 -10.71 53.22c-0.77,3.76 -1.33,7.24 -1.71,10.45 -0.33,3.19 -0.52,6.3 -0.52,9.31 -0.03,3.62 0.71,6.95 2.23,10.03 1.53,3.08 3.95,5.57 7.3,7.45 3.34,1.89 7.76,2.87 13.24,2.93 2.71,0 5.35,-0.21 7.87,-0.58 2.53,-0.36 4.69,-0.83 6.4,-1.37l0.89 -14.33c-1.22,0.32 -2.6,0.54 -4.09,0.69 -1.48,0.1 -3.05,0.17 -4.6,0.17 -3.58,-0.03 -6.18,-0.94 -7.82,-2.75 -1.67,-1.77 -2.49,-4.27 -2.45,-7.45 0,-2.72 0.22,-5.44 0.59,-8.18 0.37,-2.79 0.85,-5.62 1.41,-8.54l10.04 -51.05 25.89 0 2.89 -14.11 -25.88 0 4.92 -25.19 -19.42 5.86zm-128.96 124.45l0 0 9.82 -51.04c1.26,-6.51 3.28,-12.34 5.99,-17.48 2.68,-5.11 5.8,-9.49 9.33,-13.03 3.54,-3.59 7.14,-6.31 10.9,-8.15 3.72,-1.88 7.25,-2.82 10.59,-2.82 4.21,0.04 7.59,0.83 10.04,2.43 2.49,1.55 4.28,3.76 5.36,6.51 1.08,2.75 1.6,5.93 1.56,9.52 0,2.21 -0.15,4.49 -0.45,6.8 -0.29,2.36 -0.66,4.56 -1.11,6.67l-11.83 60.59 18.53 0 12.04 -61.25c0.37,-1.92 0.7,-3.87 1.01,-5.9 0.28,-2.03 0.55,-3.97 0.74,-5.86 0.15,-1.92 0.26,-3.66 0.26,-5.18 -0.04,-5.54 -0.86,-10.16 -2.46,-13.93 -1.6,-3.76 -3.75,-6.77 -6.39,-9.06 -2.68,-2.24 -5.61,-3.87 -8.85,-4.88 -3.21,-0.97 -6.47,-1.48 -9.74,-1.44 -5.29,0 -10.38,0.9 -15.25,2.67 -4.87,1.78 -9.4,4.38 -13.58,7.82 -4.19,3.4 -7.87,7.6 -11.1,12.53l-0.46 0 2.69 -20.64 -16.52 0c-0.63,4.34 -1.34,9.05 -2.15,14.16 -0.78,5.1 -1.75,10.6 -2.98,16.46l-14.5 74.5 18.51 0zm-45.73 -79.93l0 0c-0.04,4.06 -1.38,7.39 -4.02,10 -2.6,2.6 -6.28,4.62 -10.97,6.08 -4.72,1.45 -10.18,2.42 -16.43,3 -6.28,0.54 -13.05,0.77 -20.34,0.69 1.12,-4.17 2.75,-8.22 4.91,-12.17 2.16,-3.94 4.76,-7.49 7.77,-10.64 3.05,-3.19 6.47,-5.68 10.26,-7.56 3.8,-1.85 7.89,-2.82 12.32,-2.86 3.3,0 6.16,0.51 8.65,1.55 2.45,1.02 4.4,2.54 5.77,4.49 1.37,1.96 2.08,4.38 2.08,7.21l0 0.21zm1.34 60.38l0 0c-2.24,1.19 -4.79,2.36 -7.66,3.48 -2.9,1.12 -6.1,2.02 -9.67,2.75 -3.53,0.76 -7.43,1.12 -11.68,1.15 -5.61,0 -10.48,-1.19 -14.64,-3.54 -4.13,-2.39 -7.29,-5.91 -9.45,-10.57 -0.82,-1.96 -1.45,-4.16 -1.86,-6.66 -0.44,-2.53 -0.66,-5 -0.74,-7.38 -0.04,-2.4 0.08,-4.38 0.37,-5.95 8.03,0.15 15.62,-0.07 22.79,-0.68 7.22,-0.58 13.8,-1.63 19.75,-3.19 5.98,-1.52 11.15,-3.62 15.5,-6.26 4.39,-2.64 7.77,-5.97 10.15,-9.95 2.42,-3.99 3.61,-8.73 3.65,-14.23 0,-5.07 -1.23,-9.58 -3.65,-13.64 -2.42,-4.06 -5.98,-7.24 -10.7,-9.64 -4.69,-2.38 -10.49,-3.61 -17.33,-3.64 -6.99,0.03 -13.46,1.37 -19.49,3.98 -6.02,2.6 -11.45,6.15 -16.28,10.68 -4.83,4.49 -8.96,9.62 -12.42,15.41 -3.46,5.76 -6.1,11.88 -7.91,18.25 -1.83,6.4 -2.76,12.8 -2.8,19.22 0,5.86 0.78,11.32 2.41,16.43 1.61,5.06 4.06,9.59 7.41,13.46 3.34,3.88 7.58,6.92 12.78,9.09 5.18,2.21 11.32,3.34 18.45,3.36 4.87,-0.02 9.48,-0.43 13.91,-1.19 4.42,-0.76 8.48,-1.77 12.19,-3.04 3.68,-1.3 6.89,-2.68 9.6,-4.23l-2.68 -13.47zm-166.89 -27.29l0 0c1.46,-7.35 3.54,-13.86 6.33,-19.55 2.74,-5.64 5.95,-10.43 9.51,-14.33 3.61,-3.87 7.33,-6.8 11.2,-8.8 3.9,-1.98 7.66,-3 11.34,-3 3.9,0.04 7.18,0.79 9.85,2.24 2.64,1.46 4.8,3.37 6.4,5.76 1.6,2.38 2.75,4.99 3.46,7.85 0.7,2.83 1.07,5.65 1.04,8.47 0,5.54 -0.78,11.04 -2.27,16.44 -1.49,5.42 -3.61,10.49 -6.32,15.27 -2.72,4.77 -5.92,9.02 -9.56,12.67 -3.68,3.69 -7.7,6.58 -12.04,8.69 -4.4,2.06 -8.97,3.15 -13.76,3.19 -4.36,0 -8.3,-0.48 -11.75,-1.46 -3.5,-0.94 -6.4,-2.35 -8.78,-4.19l5.35 -29.25zm-17.4 89.83l0 0 8.7 -45.38 0.45 0c2.12,1.23 5.1,2.35 8.97,3.29 3.87,0.95 8.7,1.46 14.46,1.48 7.22,-0.02 14.02,-1.34 20.37,-3.94 6.36,-2.57 12.16,-6.15 17.37,-10.71 5.23,-4.6 9.74,-9.92 13.53,-15.97 3.76,-6.08 6.69,-12.59 8.74,-19.61 2.04,-6.99 3.09,-14.23 3.13,-21.65 0,-4.89 -0.63,-9.59 -1.9,-14.08 -1.27,-4.52 -3.28,-8.58 -5.95,-12.16 -2.68,-3.59 -6.1,-6.44 -10.3,-8.54 -4.21,-2.11 -9.26,-3.19 -15.1,-3.22 -4.95,0.03 -9.74,0.9 -14.43,2.71 -4.68,1.78 -9.11,4.31 -13.23,7.6 -4.13,3.29 -7.84,7.24 -11.16,11.84l-0.44 0 3.12 -19.77 -16.95 0c-0.53,3.58 -1.12,7.46 -1.75,11.66 -0.67,4.16 -1.34,8.47 -2.08,12.88 -0.71,4.42 -1.46,8.73 -2.2,12.97l-21.64 110.6 18.29 0zm-76.52 -122.92l0 0c-0.04,4.06 -1.38,7.39 -4.02,10 -2.6,2.6 -6.28,4.62 -10.97,6.08 -4.72,1.45 -10.19,2.42 -16.43,3 -6.28,0.54 -13.05,0.77 -20.34,0.69 1.12,-4.17 2.75,-8.22 4.91,-12.17 2.15,-3.94 4.76,-7.49 7.77,-10.64 3.05,-3.19 6.47,-5.68 10.26,-7.56 3.8,-1.85 7.88,-2.82 12.31,-2.86 3.31,0 6.17,0.51 8.66,1.55 2.45,1.02 4.39,2.54 5.77,4.49 1.37,1.96 2.08,4.38 2.08,7.21l0 0.21zm1.33 60.38l0 0c-2.23,1.19 -4.79,2.36 -7.65,3.48 -2.9,1.12 -6.1,2.02 -9.67,2.75 -3.53,0.76 -7.44,1.12 -11.67,1.15 -5.62,0 -10.5,-1.19 -14.65,-3.54 -4.13,-2.39 -7.29,-5.91 -9.45,-10.57 -0.82,-1.96 -1.45,-4.16 -1.86,-6.66 -0.45,-2.53 -0.67,-5 -0.75,-7.38 -0.03,-2.4 0.08,-4.38 0.37,-5.95 8.04,0.15 15.62,-0.07 22.8,-0.68 7.22,-0.58 13.8,-1.63 19.74,-3.19 5.99,-1.52 11.16,-3.62 15.5,-6.26 4.4,-2.64 7.78,-5.97 10.16,-9.95 2.42,-3.99 3.61,-8.73 3.65,-14.23 0,-5.07 -1.23,-9.58 -3.65,-13.64 -2.42,-4.06 -5.98,-7.24 -10.71,-9.64 -4.68,-2.38 -10.48,-3.61 -17.33,-3.64 -6.99,0.03 -13.46,1.37 -19.48,3.98 -6.02,2.6 -11.45,6.15 -16.28,10.68 -4.84,4.49 -8.97,9.62 -12.42,15.41 -3.46,5.76 -6.1,11.88 -7.92,18.25 -1.83,6.4 -2.75,12.8 -2.79,19.22 0,5.86 0.78,11.32 2.41,16.43 1.61,5.06 4.06,9.59 7.4,13.46 3.35,3.88 7.59,6.92 12.79,9.09 5.17,2.21 11.31,3.34 18.45,3.36 4.87,-0.02 9.48,-0.43 13.91,-1.19 4.42,-0.76 8.48,-1.77 12.19,-3.04 3.68,-1.3 6.88,-2.68 9.6,-4.23l-2.69 -13.47zm-107.75 19.55l0 0 30.35 -154.2 -18.53 0 -30.12 154.2 18.3 0zm-75.63 -93.17l0 0c4.84,0.03 8.89,1.01 12.12,2.86 3.27,1.85 5.84,4.27 7.78,7.23 1.9,2.98 3.26,6.13 4.12,9.53 0.82,3.36 1.23,6.58 1.19,9.7 0,4.96 -0.63,9.88 -1.9,14.8 -1.22,4.96 -3.01,9.63 -5.31,14.08 -2.31,4.42 -5.02,8.36 -8.22,11.84 -3.17,3.43 -6.69,6.15 -10.56,8.14 -3.86,1.99 -7.99,3.01 -12.39,3.05 -5.31,-0.04 -9.85,-1.34 -13.63,-3.85 -3.8,-2.53 -6.71,-6 -8.7,-10.42 -2.05,-4.41 -3.06,-9.52 -3.1,-15.27 -0.03,-4.86 0.53,-9.74 1.72,-14.62 1.14,-4.89 2.86,-9.57 5.09,-13.98 2.23,-4.45 4.94,-8.4 8.11,-11.83 3.19,-3.48 6.76,-6.19 10.74,-8.23 3.97,-1.98 8.3,-3 12.94,-3.03zm2 -14.33l0 0c-7.02,0.03 -13.56,1.22 -19.66,3.62 -6.1,2.38 -11.61,5.68 -16.51,9.91 -4.91,4.2 -9.15,9.12 -12.65,14.73 -3.52,5.61 -6.2,11.69 -8.1,18.21 -1.89,6.52 -2.82,13.25 -2.87,20.2 0,5.97 0.94,11.54 2.8,16.72 1.85,5.21 4.57,9.81 8.17,13.75 3.58,3.99 8,7.06 13.25,9.31 5.2,2.24 11.19,3.41 17.96,3.43 7.25,-0.02 13.94,-1.3 20.11,-3.76 6.13,-2.46 11.68,-5.83 16.54,-10.17 4.87,-4.3 9.04,-9.26 12.5,-14.88 3.45,-5.61 6.07,-11.58 7.88,-17.91 1.82,-6.34 2.76,-12.78 2.76,-19.29 0,-5.66 -0.83,-11.08 -2.49,-16.3 -1.64,-5.21 -4.21,-9.87 -7.63,-14.04 -3.45,-4.13 -7.81,-7.42 -13.13,-9.85 -5.31,-2.38 -11.63,-3.65 -18.93,-3.68zm-81.19 89.03l0 0c-1.86,0.91 -4.06,1.78 -6.55,2.68 -2.5,0.91 -5.28,1.63 -8.33,2.25 -3.08,0.62 -6.47,0.9 -10.11,0.94 -5.87,-0.04 -10.82,-1.19 -14.76,-3.51 -3.98,-2.28 -6.99,-5.53 -9,-9.7 -2.01,-4.21 -3.01,-9.12 -3.01,-14.81 0,-4.99 0.71,-9.95 2.04,-14.87 1.38,-4.93 3.35,-9.59 5.95,-14.01 2.6,-4.41 5.76,-8.32 9.48,-11.72 3.76,-3.45 7.96,-6.13 12.72,-8.08 4.72,-1.95 9.93,-2.97 15.54,-3.01 4.02,0.04 7.56,0.44 10.56,1.24 3.05,0.76 5.61,1.66 7.73,2.67l5.36 -14.33c-1.15,-0.62 -2.87,-1.26 -5.1,-1.96 -2.26,-0.68 -4.87,-1.3 -7.88,-1.81 -3.01,-0.5 -6.17,-0.76 -9.55,-0.79 -7.77,0.03 -15.06,1.26 -21.79,3.73 -6.73,2.42 -12.79,5.83 -18.23,10.17 -5.42,4.38 -10.07,9.44 -13.94,15.23 -3.9,5.8 -6.87,12.06 -8.92,18.8 -2.08,6.73 -3.12,13.71 -3.16,20.92 0,5.64 0.85,10.89 2.57,15.82 1.71,4.92 4.27,9.22 7.73,12.99 3.42,3.73 7.74,6.65 12.94,8.8 5.21,2.1 11.3,3.19 18.26,3.21 4.83,-0.02 9.3,-0.39 13.31,-1.11 4.01,-0.69 7.55,-1.57 10.56,-2.54 3.05,-1.01 5.5,-1.95 7.35,-2.86l-1.77 -14.34zm-88.8 -104.45l0 0c3.64,-0.08 6.59,-1.2 8.85,-3.41 2.27,-2.21 3.46,-5.14 3.64,-8.76 0,-2.21 -0.44,-4.12 -1.33,-5.83 -0.9,-1.7 -2.16,-3 -3.8,-3.98 -1.64,-0.97 -3.57,-1.48 -5.8,-1.48 -2.26,0.04 -4.28,0.55 -6.09,1.59 -1.83,1.05 -3.28,2.5 -4.39,4.31 -1.08,1.84 -1.67,3.91 -1.79,6.26 0,2.17 0.45,4.13 1.34,5.83 0.86,1.66 2.08,3 3.64,3.98 1.57,0.98 3.43,1.45 5.51,1.49l0.22 0zm-16.29 122.92l0 0 20.76 -105.12 -18.53 0 -20.74 105.12 18.51 0zm-109.54 -46.84l0 0c1.46,-7.35 3.53,-13.86 6.33,-19.55 2.74,-5.64 5.95,-10.43 9.51,-14.33 3.61,-3.87 7.32,-6.8 11.19,-8.8 3.91,-1.98 7.67,-3 11.34,-3 3.91,0.04 7.18,0.79 9.86,2.24 2.64,1.46 4.8,3.37 6.4,5.76 1.59,2.38 2.75,4.99 3.45,7.85 0.71,2.83 1.07,5.65 1.05,8.47 0,5.54 -0.79,11.04 -2.27,16.44 -1.49,5.42 -3.61,10.49 -6.32,15.27 -2.73,4.77 -5.92,9.02 -9.57,12.67 -3.67,3.69 -7.69,6.58 -12.04,8.69 -4.39,2.06 -8.96,3.15 -13.75,3.19 -4.36,0 -8.3,-0.48 -11.75,-1.46 -3.5,-0.94 -6.41,-2.35 -8.79,-4.19l5.36 -29.25zm-17.4 89.83l0 0 8.7 -45.38 0.45 0c2.12,1.23 5.09,2.35 8.96,3.29 3.87,0.95 8.7,1.46 14.47,1.48 7.21,-0.02 14.01,-1.34 20.37,-3.94 6.36,-2.57 12.16,-6.15 17.37,-10.71 5.23,-4.6 9.73,-9.92 13.53,-15.97 3.76,-6.08 6.69,-12.59 8.74,-19.61 2.04,-6.99 3.08,-14.23 3.12,-21.65 0,-4.89 -0.63,-9.59 -1.9,-14.08 -1.26,-4.52 -3.27,-8.58 -5.94,-12.16 -2.69,-3.59 -6.1,-6.44 -10.31,-8.54 -4.2,-2.11 -9.25,-3.19 -15.09,-3.22 -4.95,0.03 -9.74,0.9 -14.43,2.71 -4.68,1.78 -9.11,4.31 -13.23,7.6 -4.13,3.29 -7.85,7.24 -11.16,11.84l-0.44 0 3.12 -19.77 -16.96 0c-0.52,3.58 -1.11,7.46 -1.75,11.66 -0.67,4.16 -1.33,8.47 -2.08,12.88 -0.71,4.42 -1.45,8.73 -2.2,12.97l-21.63 110.6 18.29 0zm-47.75 -102.94l0 0c-1.37,7.02 -3.45,13.47 -6.17,19.27 -2.74,5.79 -5.94,10.81 -9.59,15.02 -3.61,4.23 -7.43,7.49 -11.41,9.81 -4.02,2.27 -7.97,3.43 -11.86,3.47 -3.58,-0.04 -6.55,-0.69 -8.93,-1.99 -2.37,-1.27 -4.27,-3.04 -5.69,-5.22 -1.41,-2.2 -2.41,-4.71 -3.01,-7.45 -0.64,-2.75 -0.9,-5.61 -0.9,-8.58 0.09,-5.86 0.98,-11.59 2.73,-17.16 1.71,-5.57 4.12,-10.83 7.24,-15.68 3.13,-4.84 6.81,-9.15 11.01,-12.85 4.24,-3.68 8.89,-6.58 13.9,-8.68 5.07,-2.1 10.38,-3.15 16,-3.18 3.12,0 5.72,0.18 7.8,0.5 2.12,0.32 3.84,0.66 5.14,1.02l-6.26 31.7zm11.39 59.95l0 0c-0.16,-3.95 -0.07,-8.55 0.22,-13.79 0.3,-5.21 0.82,-10.79 1.57,-16.76 0.74,-5.94 1.7,-11.98 2.89,-18.1l10.93 -54.72c-2.48,-0.81 -5.32,-1.53 -8.51,-2.15 -3.2,-0.61 -6.54,-1.08 -10.04,-1.44 -3.49,-0.37 -6.99,-0.54 -10.46,-0.54 -9.4,0.03 -18.03,1.47 -25.83,4.3 -7.81,2.83 -14.77,6.7 -20.78,11.62 -6.07,4.96 -11.2,10.61 -15.36,17.01 -4.16,6.37 -7.33,13.18 -9.49,20.38 -2.15,7.2 -3.27,14.47 -3.27,21.83 0.04,6.72 1.3,12.66 3.84,17.87 2.52,5.21 6.09,9.31 10.7,12.31 4.64,2.97 10.12,4.5 16.48,4.56 5.12,0.04 10.18,-0.9 15.08,-2.81 4.92,-1.93 9.64,-5.08 14.14,-9.42 4.53,-4.34 8.77,-10.1 12.72,-17.3l0.44 0c-0.66,5.51 -1.27,10.57 -1.71,15.28 -0.48,4.7 -0.7,8.65 -0.74,11.87l17.18 0z"/>
    <path class="fil1" d="M2094.34 979.08c-0.04,4.06 -1.37,7.39 -4.02,10 -2.6,2.6 -6.27,4.62 -10.96,6.08 -4.73,1.45 -10.19,2.42 -16.44,3 -6.28,0.54 -13.05,0.77 -20.33,0.69 1.11,-4.17 2.74,-8.22 4.9,-12.17 2.16,-3.94 4.76,-7.49 7.77,-10.64 3.05,-3.19 6.48,-5.68 10.26,-7.56 3.8,-1.85 7.89,-2.82 12.32,-2.86 3.3,0 6.16,0.51 8.66,1.55 2.45,1.02 4.38,2.54 5.76,4.49 1.38,1.96 2.08,4.38 2.08,7.21l0 0.21zm1.34 60.38l0 0c-2.23,1.19 -4.8,2.36 -7.66,3.48 -2.9,1.12 -6.09,2.02 -9.67,2.75 -3.53,0.76 -7.43,1.12 -11.67,1.15 -5.62,0 -10.49,-1.19 -14.65,-3.54 -4.13,-2.39 -7.29,-5.91 -9.44,-10.57 -0.83,-1.96 -1.46,-4.16 -1.87,-6.66 -0.44,-2.53 -0.66,-5 -0.75,-7.38 -0.03,-2.4 0.09,-4.38 0.38,-5.95 8.03,0.15 15.62,-0.07 22.79,-0.68 7.22,-0.58 13.8,-1.63 19.75,-3.19 5.99,-1.52 11.15,-3.62 15.5,-6.26 4.39,-2.64 7.77,-5.97 10.15,-9.95 2.43,-3.99 3.61,-8.73 3.65,-14.23 0,-5.07 -1.22,-9.58 -3.65,-13.64 -2.42,-4.06 -5.98,-7.24 -10.7,-9.64 -4.68,-2.38 -10.49,-3.61 -17.33,-3.64 -6.99,0.03 -13.46,1.37 -19.49,3.98 -6.02,2.6 -11.45,6.15 -16.28,10.68 -4.83,4.49 -8.96,9.62 -12.42,15.41 -3.46,5.76 -6.1,11.88 -7.91,18.25 -1.83,6.4 -2.76,12.8 -2.8,19.22 0,5.86 0.79,11.32 2.42,16.43 1.6,5.06 4.05,9.59 7.4,13.46 3.34,3.88 7.58,6.92 12.79,9.09 5.17,2.21 11.3,3.34 18.44,3.36 4.87,-0.02 9.48,-0.43 13.91,-1.19 4.42,-0.76 8.48,-1.77 12.19,-3.04 3.68,-1.3 6.89,-2.68 9.6,-4.23l-2.68 -13.47zm-115.78 -104.9l0 0 -3.79 19.33 -15.4 0 -2.9 14.11 15.62 0 -10.72 53.22c-0.77,3.76 -1.33,7.24 -1.7,10.45 -0.33,3.19 -0.52,6.3 -0.52,9.31 -0.03,3.62 0.71,6.95 2.22,10.03 1.53,3.08 3.95,5.57 7.3,7.45 3.35,1.89 7.77,2.87 13.24,2.93 2.71,0 5.35,-0.21 7.87,-0.58 2.54,-0.36 4.7,-0.83 6.4,-1.37l0.9 -14.33c-1.23,0.32 -2.6,0.54 -4.09,0.69 -1.49,0.1 -3.06,0.17 -4.61,0.17 -3.58,-0.03 -6.18,-0.94 -7.82,-2.75 -1.66,-1.77 -2.48,-4.27 -2.45,-7.45 0,-2.72 0.22,-5.44 0.59,-8.18 0.38,-2.79 0.86,-5.62 1.42,-8.54l10.04 -51.05 25.88 0 2.9 -14.11 -25.88 0 4.91 -25.19 -19.41 5.86zm-67.38 64.5l0 0c-1.37,7.02 -3.46,13.47 -6.17,19.27 -2.75,5.79 -5.94,10.81 -9.59,15.02 -3.61,4.23 -7.43,7.49 -11.41,9.81 -4.02,2.27 -7.97,3.43 -11.86,3.47 -3.58,-0.04 -6.56,-0.69 -8.94,-1.99 -2.37,-1.27 -4.26,-3.04 -5.68,-5.22 -1.42,-2.2 -2.41,-4.71 -3.02,-7.45 -0.63,-2.75 -0.89,-5.61 -0.89,-8.58 0.08,-5.86 0.98,-11.59 2.72,-17.16 1.71,-5.57 4.13,-10.83 7.25,-15.68 3.12,-4.84 6.8,-9.15 11.01,-12.85 4.23,-3.68 8.89,-6.58 13.9,-8.68 5.06,-2.1 10.38,-3.15 15.99,-3.18 3.12,0 5.73,0.18 7.81,0.5 2.11,0.32 3.83,0.66 5.13,1.02l-6.25 31.7zm11.38 59.95l0 0c-0.15,-3.95 -0.07,-8.55 0.22,-13.79 0.3,-5.21 0.83,-10.79 1.57,-16.76 0.74,-5.94 1.71,-11.98 2.89,-18.1l10.94 -54.72c-2.49,-0.81 -5.32,-1.53 -8.51,-2.15 -3.2,-0.61 -6.54,-1.08 -10.04,-1.44 -3.5,-0.37 -6.99,-0.54 -10.46,-0.54 -9.4,0.03 -18.03,1.47 -25.84,4.3 -7.8,2.83 -14.76,6.7 -20.78,11.62 -6.07,4.96 -11.19,10.61 -15.36,17.01 -4.16,6.37 -7.32,13.18 -9.48,20.38 -2.15,7.2 -3.28,14.47 -3.28,21.83 0.05,6.72 1.31,12.66 3.84,17.87 2.52,5.21 6.1,9.31 10.71,12.31 4.64,2.97 10.11,4.5 16.47,4.56 5.13,0.04 10.19,-0.9 15.09,-2.81 4.91,-1.93 9.64,-5.08 14.13,-9.42 4.54,-4.34 8.77,-10.1 12.72,-17.3l0.45 0c-0.67,5.51 -1.27,10.57 -1.71,15.28 -0.48,4.7 -0.71,8.65 -0.74,11.87l17.17 0z"/>
   </g>
  </g>
 </g>
</svg>
