<svg id="Layer_1" data-name="Layer 1" xmlns="http://www.w3.org/2000/svg" viewBox="0 0 1241.88 258.45"><defs><style>.cls-1{fill:#ed1c24;}.cls-2{fill:#231f20;}</style></defs><title>Artboard 1</title><path class="cls-1" d="M206.45,161.57s0,0,0,0l0,0Z"/><path class="cls-1" d="M278.35,64.75a7.51,7.51,0,0,1-.67-.9l0,.08-.47-.56v.12l-.38-.4a54,54,0,0,0-20.68-10.57c-12.48-3.45-25.25-4.18-38.12-3.88-4.93.11-9.85.41-14.78.62a36,36,0,0,1-8.07,1c-4.14.62-8.28,1.16-12.4,1.87a202.38,202.38,0,0,0-27.89,6.66c-2.1.68-1.91.62-1.17,2.43Q160,76.6,166.28,92c.75,1.83.76,1.82,2.8,1.22.43-.12.89-.18,1.33-.28a161.42,161.42,0,0,1,23.66-5.7,112.23,112.23,0,0,1,23.57-1.8,32.68,32.68,0,0,1,11.13,2.14,12.52,12.52,0,0,1,4.85,3.3,8.08,8.08,0,0,1,2.55,4.7,28.17,28.17,0,0,1,.29,4.77c0,1.06-.32,1.44-1.42,1.49-5.62.25-11.22.75-16.82,1.3a202.1,202.1,0,0,0-30.74,5.14c-8.87,2.28-17.4,5.4-25.13,10.42-14.42,9.37-19.76,22.83-17.79,39.59.37,3.18,1.37,6.21,2,9.33a57.07,57.07,0,0,0,5.25,9.57c5.27,7.11,12.27,11.94,20.27,15.42a96.11,96.11,0,0,0,23.9,6.52,184.89,184.89,0,0,0,25.43,2c7.45.09,14.89,0,22.32-.66,14.26-1.17,28.35-3.31,42-7.71,1.44-.46,2.88-1,4.3-1.51,1.83-.69,1.82-.73,1.85-2.62,0-.23,0-.45,0-.68q0-41.53,0-83.06A79.17,79.17,0,0,0,290,86.32C288,78.09,284.43,70.76,278.35,64.75Zm-41.89,97.79c0,1.18-.29,1.77-1.58,1.94a76,76,0,0,1-15.22.59,38.06,38.06,0,0,1-9.17-1.58,11.47,11.47,0,0,1-3.32-1.46c-.3-.05-.66,0-.71-.44a10.82,10.82,0,0,1-6.82-7.58c-1.8-6.21.58-11.72,6.25-14.86a34.62,34.62,0,0,1,11-3.52,162.88,162.88,0,0,1,17.9-1.65c1.42-.09,1.63.08,1.68,1.44,0,.84,0,1.67-.07,2.51C236.42,146.13,236.41,154.33,236.46,162.54Z"/><path class="cls-1" d="M732.06,77.08s0,0,0,0h0Z"/><path class="cls-1" d="M732.91,78.36c-.34-.37-.84-.65-.84-1.25-.51,0-.41-.27-.16-.56a113.74,113.74,0,0,0-10.31-7.12c-9.9-5.71-20.7-8.14-32-8.67a79.72,79.72,0,0,0-18.36,1.61,29.44,29.44,0,0,1-5.15,1.51,5,5,0,0,1-.25-2.38q0-25.28,0-50.56c0-.76.09-1.51.15-2.27-.05-.52-.14-1-.15-1.58,0-2.26.25-2.18-2.25-2.18h-.69q-22.7,0-45.4,0c-3.37,0-2.9-.47-2.9,2.87q0,85.79,0,171.56c0,.54,0,1.07,0,1.6-.07.83.35,1.19,1.07,1.49a26.42,26.42,0,0,1,4.22,1.66,180.14,180.14,0,0,0,20.4,4.75q8.88,1.44,17.86,2.11a170.61,170.61,0,0,0,19.84.31c10.36-.45,20.57-1.93,30.37-5.49,12.29-4.46,22.48-11.66,29.59-22.85a66.3,66.3,0,0,0,8.75-23.09,95.49,95.49,0,0,0,1.64-16.77c.21-13.15-2-25.73-9.33-37A56.16,56.16,0,0,0,732.91,78.36Zm-37.46,60a28.38,28.38,0,0,1-4.62,10.1,18.59,18.59,0,0,1-14.38,7.68,31.74,31.74,0,0,1-5.25-.06,10.8,10.8,0,0,1-1.13,0c-4.21-.15-4.26-.21-4.26-4.35V98.75c0-2.61,0-2.64,2.45-3.21,5.29-1.24,10.52-1.31,15.63.84a13.89,13.89,0,0,1,5.23,3.53,16.08,16.08,0,0,1,4.49,6.23,34.38,34.38,0,0,1,3.1,12.09A59.78,59.78,0,0,1,695.45,138.4Z"/><path class="cls-1" d="M967.6,166.26q0-29,0-58a33.83,33.83,0,0,0-1.31-9.44,23.83,23.83,0,0,0-5.25-9.5,3.27,3.27,0,0,1-.94-1.27,35.56,35.56,0,0,0-12.31-7.14,70.42,70.42,0,0,0-20.11-3.64,151.35,151.35,0,0,0-40.78,3q-5.77,1.3-11.43,3.06c-1,.3-1.46.7-1.33,1.73a10.84,10.84,0,0,1,0,1.14v81.64c0,.46,0,.92,0,1.37,0,.77.29,1.08,1.06,1.1a24.93,24.93,0,0,1,4.32.13l25.31-.08c1.52,0,3,0,4.57,0,1.92,0,1.92,0,2-1.86,0-.53,0-1.06,0-1.6V107c0-.6,0-1.21,0-1.82a1.29,1.29,0,0,1,1.11-1.47c3.73-.79,7.49-1.39,11.27-.36a8.33,8.33,0,0,1,5.15,3.52c1.55,1.92,1.56,4.23,1.56,6.5q0,27,0,54c0,.61,0,1.22,0,1.82-.06.89.34,1.19,1.2,1.19a21.47,21.47,0,0,1,4.09.11c9.21,0,18.41,0,27.62-.09,1.33,0,3,.63,3.92-.39S967.59,167.54,967.6,166.26Z"/><path class="cls-1" d="M403.19,81c-.06-1.71-.06-1.75-1.8-1.75q-16.75,0-33.53,0c-1.75,0-1.75,0-1.79,1.75,0,.53,0,1.06,0,1.6v51.1c0,3.34-.06,6.69,0,10,0,1.18-.44,1.68-1.49,1.82-3.63.47-7.25.93-10.87-.05a6.54,6.54,0,0,1-5.81-5.27,12.91,12.91,0,0,1-.33-3.16q0-25.89,0-51.78a6,6,0,0,1,.19-2.26,9.19,9.19,0,0,1-.16-2.72c0-.78-.32-1.11-1.09-1.06-.38,0-.76,0-1.14,0H312.79l-1.36,0c-.52,0-.86.25-.87.82s0,.91,0,1.37q0,28.05,0,56.09a45.82,45.82,0,0,0,1,9.28,27.55,27.55,0,0,0,11.57,17.9c1.37.95,2.75,1.88,4.13,2.82a4.16,4.16,0,0,1,1.95.56,63.53,63.53,0,0,0,18.15,4.1,128.63,128.63,0,0,0,19.13.28c11.39-.58,22.7-1.91,33.62-5.46,3.88-1.25,3.13-.78,3.13-4.39q0-38.32,0-76.64a11.67,11.67,0,0,1,.14-3C403.29,82.39,403.22,81.71,403.19,81Z"/><path class="cls-1" d="M577.91,91.29a3.68,3.68,0,0,1-1.12-1.38.76.76,0,0,1-.47-.5l0,.1-.42-.45a46.62,46.62,0,0,0-11.72-7.33,60.12,60.12,0,0,0-46-.52c-12.92,5-21.27,14.56-25.37,27.76a54.37,54.37,0,0,0-2.08,20.27c1.26,17.13,9.7,29.65,24.22,38.36.38.06.91-.2,1,.47,1-.31,1.75.32,2.55.65a56.07,56.07,0,0,0,19.32,3.91c8.2.29,16.24-.59,23.92-3.64,15.56-6.18,24.68-17.68,27.76-34a54,54,0,0,0-1.9-27.65A41.91,41.91,0,0,0,577.91,91.29ZM552.1,136.13a16.85,16.85,0,0,1-2.7,6,10.82,10.82,0,0,1-12.61,3.55c-2.32-.24-3.79-1.79-5.09-3.49a16.12,16.12,0,0,1-3-7.09,52.69,52.69,0,0,1,.5-23,13.82,13.82,0,0,1,4.24-7.14c4.1-3.57,12.23-3.22,15.55,1.51a13,13,0,0,1,3.05,6.27A51,51,0,0,1,552.1,136.13Z"/><path class="cls-1" d="M576.78,89.89s0,0,0,0,0,0,0,0Z"/><path class="cls-1" d="M516,168.08h0Z"/><polygon class="cls-1" points="848.5 92.21 848.5 92.21 848.5 92.21 848.5 92.21"/><path class="cls-1" d="M845.74,89.9l0,0s0,0,0,0Z"/><path class="cls-1" d="M849.51,94.28c-.47-.58-1.37-1-1-2.07-1.47-.11-2-1.35-2.74-2.29a.74.74,0,0,1-.48-.51l0,.1-.42-.44a46.64,46.64,0,0,0-11.52-7.26c-15.47-6.37-31.12-6.6-46.62-.42C774,86.45,765.77,96,761.83,109a53.63,53.63,0,0,0,.36,32.56A42.35,42.35,0,0,0,778,163.39c1.53,1.11,3.12,2.14,4.69,3.21,3.9,1.69,7.75,3.51,11.94,4.4,13.89,2.93,27.49,2.47,40.46-3.92a41.45,41.45,0,0,0,21.71-25.19,54,54,0,0,0-.1-34.46A41.84,41.84,0,0,0,849.51,94.28ZM821,136.36a16.29,16.29,0,0,1-2.65,5.75,10.82,10.82,0,0,1-12.61,3.55c-1.78,0-2.92-1.16-4-2.28-2.6-2.58-3.7-5.94-4.24-9.41a56.58,56.58,0,0,1,.32-20.39,17.37,17.37,0,0,1,2.1-5.52A11,11,0,0,1,818,106.42a12.65,12.65,0,0,1,3,6A51,51,0,0,1,821,136.36Z"/><path class="cls-1" d="M480.7,143.5c-.07-1.68-.06-1.69-1.64-1.26-3,.83-6,1.48-9.16.91-3.8-.37-5.56-2.09-5.58-5.8-.06-10.63,0-21.26,0-31.89,0-1.73.06-1.76,1.82-1.77,4.18,0,8.35,0,12.53,0,2.08,0,2.09,0,2.1-2.16,0-5.31,0-10.63,0-16a8.69,8.69,0,0,1,.17-2.49,5.51,5.51,0,0,1-.21-2c-.06-1.73-.07-1.75-1.8-1.77-3.11,0-6.23,0-9.34-.07a2,2,0,0,1-.43.14c-4.84.43-4.84.42-4.84-4.38,0-5.15,0-10.31,0-15.46a8,8,0,0,1,.17-2.49c-.6-1.56.16-3.28-.51-4.93-11.68,2.76-23.27,5.51-34.87,8.22-1.06.25-1.23.85-1.23,1.8q0,7.65,0,15.29c0,1.83,0,1.85-1.91,1.87-2.58,0-5.17,0-7.76,0-1.11,0-1.46.4-1.42,1.47.07,1.44,0,2.89,0,4.33,0,5.63,0,11.26,0,16.89,0,1.63,0,1.63,1.62,1.67l3.64.12c1.34,0,2.68-.07,4,0,1.78,0,1.78,0,1.8,1.91,0,.6,0,1.19,0,1.79,0,.91,0,1.82,0,2.73v30.11a49.46,49.46,0,0,0,1.88,14c1.76,6,5.12,10.8,10.66,13.92.65.37,1.25.86,1.87,1.29.29.07.61.1.68.47a2,2,0,0,1,1.32.09c11.16,3.56,22.3,2.57,33.43-.19.29-.07.57-.2.86-.3,2.16-.74,2.17-.73,2.17-3,0-5.69,0-11.39,0-17.08a5.74,5.74,0,0,1,.21-2.47C480.48,145.78,480.76,144.63,480.7,143.5Z"/><path class="cls-1" d="M443,169.89l0,0h0Z"/><path class="cls-2" d="M1213.22,117.21c-3.18-15.38-11.94-26.48-26.67-32.28a59.15,59.15,0,0,0-43.44-.31c-13.82,5.14-22.66,15.16-26.65,29.37a53.53,53.53,0,0,0-.8,25.74c3.23,15.34,11.89,26.37,26.48,32.51,7.11,3,14.58,4.13,22.8,4.09a54.76,54.76,0,0,0,15.47-1.93c16-4.45,26.88-14.32,31.78-30.35A53.57,53.57,0,0,0,1213.22,117.21Zm-37.33,23.19a20,20,0,0,1-1.84,4.4c-4.11,7.32-15.25,7.23-19.25-.11a21.82,21.82,0,0,1-2.4-7.08,52.63,52.63,0,0,1,.62-21.5,18.29,18.29,0,0,1,.89-2.58c2.4-5.67,7-8.18,13-7.11a10.2,10.2,0,0,1,7.14,5.2,22.79,22.79,0,0,1,2.74,8.63,43.31,43.31,0,0,1,.48,7.64A44.12,44.12,0,0,1,1175.89,140.4Z"/><path class="cls-2" d="M168.26,240.77c-10.92-2.94-20.74-8.15-30-14.57-14.62-10.18-26.93-22.75-37.82-36.76-.16-.21-.46-.41-.2-.92l12.48-7.35c-4.66,1-9.19,2.22-13.72,3.45-1.83.5-1.84.51-3-1A218.29,218.29,0,0,1,83.6,164.25c-.21-.37-.61-.7-.34-1.33,1.89-1.18,4.15-1.92,6.37-3.47-2.51.35-4.63.55-6.71,1-1.17.25-1.63-.22-2.11-1.11q-5-9.24-9.18-18.85c-.51-1.16-.24-1.54.86-1.95,4.56-1.68,9.09-3.44,13.62-5.19a4.9,4.9,0,0,0,2.32-1.25c-6,.85-12,1.68-17.88,2.58-1.09.16-1.45-.3-1.8-1.2-1.85-4.82-3.52-9.7-5.1-14.62-.37-1.15,0-1.58,1-2a48.46,48.46,0,0,0,6.34-3,1.46,1.46,0,0,0,1-.36c-.47-.09-.94-.37-1.21.29a6,6,0,0,0-1.12.1c-1.84.48-3.69.91-5.49,1.51-1.2.41-1.61,0-1.87-1.1-.55-2.37-1.21-4.71-1.77-7.08a141.33,141.33,0,0,1-3-16.59c-.19-1.64-.14-1.66,1.37-2,2.54-.48,5.09-.9,7.61-1.45,2-.43,4-.55,5.86-1.48H69.63c-3.73,0-7.46,0-11.18,0-1.07,0-1.55-.32-1.58-1.38,0-.61-.13-1.21-.16-1.82A129,129,0,0,1,57.13,62c.38-3.38.36-3.32,3.74-4,2.17-.47,4.44-.58,6.72-1.61-3.32-.15-6.4.18-9.58-.25.66-2.8,1.27-5.36,1.9-8.05-.27.18-.45.23-.5.34-.33.68-.65,1.37-.94,2.07A70.12,70.12,0,0,0,54,67.81a3.53,3.53,0,0,1-1.45,2.64c-6.52,4.87-13,9.8-19.49,14.7-.39.29-.72.86-1.44.48a93.74,93.74,0,0,1,4.09-27.44C30.65,67.64,29,78,28.23,88.7L14.62,85.28c-.94-.23-.82-.86-.7-1.6a147.75,147.75,0,0,1,3.2-15.15,2.61,2.61,0,0,0,.07-1.92,84.83,84.83,0,0,0-4.07,10.63,6.58,6.58,0,0,1-2.25,3.29,51.52,51.52,0,0,0-5.69,5l5.68-1.41a4.55,4.55,0,0,1,0,.84A114.12,114.12,0,0,0,7.32,109a3.27,3.27,0,0,1-1.14,2.34c-2.07,2.07-4.12,4.17-6.18,6.25,2.48-.72,4.54-2.25,7-3.12a7.49,7.49,0,0,1,.16,1,115.36,115.36,0,0,0,2.66,24.44,2.06,2.06,0,0,1-.61,2,14.5,14.5,0,0,0-2.29,2.77,5.69,5.69,0,0,0,2.62-.47c1-.28,1.29.06,1.54,1a105,105,0,0,0,4.69,14,1.63,1.63,0,0,1-.67,2.28A11.58,11.58,0,0,0,12.31,164c1.58,0,2.8.07,4,0a1.87,1.87,0,0,1,2.07,1.29,205,205,0,0,0,19.13,31.28c10.79,15,23.14,28.44,38,39.47,15.32,11.36,32.11,19.35,51.23,21.74,3.62.45,7.26,1,10.54.52a122,122,0,0,1-13.9-2.35,110.86,110.86,0,0,1-37.25-17.15C70.86,228.18,58.14,215,47,200.17c-.23-.3-.5-.57-.42-1a2.07,2.07,0,0,1,1.27-.38c4.92-.52,9.85-.95,14.75-1.56a3.3,3.3,0,0,1,3.54,1.65,181.65,181.65,0,0,0,29.34,32.4c10.1,8.68,21,16.06,33.47,21,8.14,3.21,16.53,5.18,25.34,4.81a34.49,34.49,0,0,0,12.86-2.63,2.05,2.05,0,0,0,1.68-.87c-.79.61-1.86.08-2.65.72a54,54,0,0,1-19.26-.63c-10.16-2.18-19.42-6.47-28.17-11.94C103.8,232.36,91.23,220.39,80,206.93c-3.51-4.2-6.85-8.53-10-13.13l15.07-15.41c.56.82,1,1.44,1.4,2.06a200.07,200.07,0,0,0,21.89,27.44c10.59,11,22.26,20.71,35.84,27.91,9.42,5,19.3,8.53,30.06,9.17a40.5,40.5,0,0,0,17.24-2.37,3.82,3.82,0,0,0,2.2-1.09l-3.75.9A54.94,54.94,0,0,1,168.26,240.77ZM62.48,133a4.32,4.32,0,0,1,.44.78c2,5.81,4.41,11.49,7,17.06.42.89.45,1.44-.37,2.13-5.28,4.48-10.5,9-15.71,13.5-.54,0-.65-.41-.81-.72q-4.29-8.44-7.89-17.19c-.39-.95-.51-1.57.45-2.32,5.51-4.31,11-8.69,16.44-13.05A2.9,2.9,0,0,1,62.48,133Zm-3.1-10.13q.81,2.73,1.69,5.43a1.35,1.35,0,0,1-.51,1.77c-5.79,4.17-11.55,8.38-17.27,12.53-.76-.19-.75-.81-.93-1.27-2.21-5.91-4-11.94-5.68-18a2.36,2.36,0,0,1,.65-2.81c5.64-4.87,11.19-9.83,16.78-14.76a1.32,1.32,0,0,1,1.07-.51C56.33,111.16,57.65,117.07,59.38,122.87ZM32.79,90.08c6.51-4.75,13-9.58,19.43-14.38a7.26,7.26,0,0,1,.87-.45c0,.71,0,1.16,0,1.61a119.72,119.72,0,0,0,1.19,22.06A3.47,3.47,0,0,1,53,102.46c-5.39,4.69-10.67,9.51-16,14.27-.43.38-.75,1-1.59,1a94.84,94.84,0,0,1-2-9.93,143.14,143.14,0,0,1-1.65-15.18A2.51,2.51,0,0,1,32.79,90.08Zm-20,28.83a147.28,147.28,0,0,1,.38-29.09,4.66,4.66,0,0,1,.2-.69,5.41,5.41,0,0,1,2.39.55C19.45,90.8,23.12,92,26.83,93.1A1.65,1.65,0,0,1,28.25,95a106.92,106.92,0,0,0,1,14.53q.64,5.2,1.66,10.34a3.27,3.27,0,0,1,.05,2c-5.69-.59-11.27-1.19-16.85-1.74C13.26,120,12.86,119.79,12.79,118.91ZM17.53,145a140.78,140.78,0,0,1-4.27-21.9c0-.21-.11-.47.52-.78l6.82.92c3.39.47,6.77.94,10.17,1.38.63.08,1.12.16,1.31.95,1.52,6.5,3.45,12.89,5.68,19.49-6.42.34-12.49.65-18.56,1C18.33,146.13,17.79,146,17.53,145Zm10.3,25.63a122.44,122.44,0,0,1-8.67-20.52,3.09,3.09,0,0,1,0-.78c6.41,0,12.79,0,19.17,0a1.27,1.27,0,0,1,1.37.9c2.43,6.38,5.22,12.6,8.42,19.05-6.44.72-12.55,1.39-18.65,2.1A1.37,1.37,0,0,1,27.83,170.66Zm17,24.65c-.7.12-1.31.2-1.81-.51-4.53-6.47-8.84-13.07-12.72-19.86.32-.68.84-.45,1.24-.47,5.54-.29,11.09-.47,16.63-.86a3,3,0,0,1,3.32,1.89c2.68,5.2,5.76,10.18,8.92,15.1a3.37,3.37,0,0,1,.92,2Zm36.8-19.83c-4.65,4.39-9.24,8.83-13.85,13.25a6.77,6.77,0,0,1-.85.62c-.7-1.06-1.37-2-2-3.06q-4.47-6.89-8.43-14.08c-.43-.77-.71-1.34.14-2.13,5.15-4.74,10.23-9.54,15.29-14.29a1.38,1.38,0,0,1,.81.87c2.82,5.64,5.85,11.17,9.18,16.53A1.51,1.51,0,0,1,81.6,175.48Z"/><path class="cls-2" d="M1109.33,81.79c-3.86-.44-7.71-.84-11.59-.91a170,170,0,0,0-37.19,3.17,120.52,120.52,0,0,0-11.7,2.93c-2.26.7-2.1.23-2.11,2.73v84.2a6.37,6.37,0,0,0,2.57.25h32.17c2.69,0,2.4.19,2.4-2.49q0-30.69,0-61.38c0-.53,0-1.06,0-1.59-.06-.94.36-1.32,1.28-1.51a32,32,0,0,1,8.84-.61,32.87,32.87,0,0,1,10,2c2.16-8.61,4.25-17,6.4-25.39C1110.66,82.17,1110.26,81.9,1109.33,81.79Z"/><path class="cls-2" d="M297.31,137.4q0-15.18,0-30.36A71.36,71.36,0,0,0,295,88.53c-2.53-9.46-7.31-17.49-15.2-23.48-.63-.48-1.16-1.22-2.1-1.2,0-.32-.22-.38-.45-.48l.47.56s0,0,0,0a6.16,6.16,0,0,0,.65.87c6.08,6,9.69,13.34,11.67,21.57a79.17,79.17,0,0,1,1.91,18.54q0,41.54,0,83.06c0,.23,0,.45,0,.68,0,1.89,0,1.93-1.85,2.62-1.42.55-2.86,1.05-4.3,1.51-13.68,4.4-27.77,6.54-42,7.71-7.43.61-14.87.75-22.32.66a184.89,184.89,0,0,1-25.43-2,96.11,96.11,0,0,1-23.9-6.52c-8-3.48-15-8.31-20.27-15.42a57.07,57.07,0,0,1-5.25-9.57,126.93,126.93,0,0,1-13.8-17.23c-14.61-21.49-24.76-44.71-27-70.91a74.3,74.3,0,0,1,1.89-25.11c.47-1.82,1.35-3.54,1.47-5.46.67-.37.58-1.05.78-1.7-.34.59-.84,1-.82,1.66a5.11,5.11,0,0,0-1.1,1.95,54.84,54.84,0,0,0-4.26,15.79,95.48,95.48,0,0,0,1.57,31.08A149.34,149.34,0,0,0,122,141.37c10.1,17.87,22.77,33.61,39,46.31,8.74,6.84,18.19,12.43,28.87,15.72,7.89,2.44,15.9,3.44,24.07,1.59a18,18,0,0,1,4.74-.41c4.48.16,9,.41,13.46.34a238.77,238.77,0,0,0,39-3.59,128.88,128.88,0,0,0,24-6.34c2.67-1,2.16-.62,2.16-3.25Q297.33,164.58,297.31,137.4Z"/><path class="cls-2" d="M1009.82,136.88a23.32,23.32,0,0,0-14.11,4.46c-10.72,7.78-10.7,22.46,0,30.23A23.11,23.11,0,0,0,1009,176c7,.18,13.19-2,18.06-7.19a17.72,17.72,0,0,0,0-24.76C1022.35,139.11,1016.51,136.93,1009.82,136.88Z"/><path class="cls-2" d="M184.61,223.1c-15.58-6.66-29.15-16.32-41.32-28a191.31,191.31,0,0,1-46.08-69.36C89.32,105.57,85,84.73,86.3,62.92a85.14,85.14,0,0,1,5.59-26.44C99.82,16.6,113.79,4,135.4.71c.95-.45,2.09,0,3-.71h-3.19l.18.63a7.36,7.36,0,0,0-3.61-.11c-11.91,1.43-22.37,6-31,14.46C93,22.62,88,31.94,85,42.31,80.42,57.54,80.27,73,82.38,88.63a160.47,160.47,0,0,0,11.3,40.71c11.87,28.29,29,52.83,52.46,72.73,11.45,9.7,24,17.61,38.14,22.82a75.77,75.77,0,0,0,20.78,4.85l-.2.12a1.22,1.22,0,0,1,.37-.05,19.42,19.42,0,0,0,5.22.07l-4.69-.56A91.61,91.61,0,0,1,184.61,223.1Z"/><path class="cls-2" d="M750.7,103.57a52,52,0,0,0-16.65-25.36c-.56-.47-1-1.37-2-1.13a.36.36,0,0,0-.18-.53c-.25.29-.35.53.16.56,0,.6.5.88.84,1.25A56.16,56.16,0,0,1,739,86.05c7.28,11.29,9.54,23.87,9.33,37a95.49,95.49,0,0,1-1.64,16.77,66.3,66.3,0,0,1-8.75,23.09c-7.11,11.19-17.3,18.39-29.59,22.85-9.8,3.56-20,5-30.37,5.49a170.61,170.61,0,0,1-19.84-.31q-9-.66-17.86-2.11a180.14,180.14,0,0,1-20.4-4.75,1.61,1.61,0,0,0,1.29,2.21c.51.13,1,.35,1.5.53A151.47,151.47,0,0,0,656,194a169.35,169.35,0,0,0,33,.57,97.13,97.13,0,0,0,23.4-4.66c19.17-6.55,32-19.27,37.8-38.85,2.93-9.94,3.7-20.15,3.32-30.46A65.59,65.59,0,0,0,750.7,103.57Z"/><path class="cls-2" d="M408.48,86a12.5,12.5,0,0,1,0-1.37c.11-1.13-.22-1.7-1.5-1.58s-2.43,0-3.65,0a11.67,11.67,0,0,0-.14,3q0,38.33,0,76.64c0,3.61.75,3.14-3.13,4.39-10.92,3.55-22.23,4.88-33.62,5.46a128.63,128.63,0,0,1-19.13-.28,63.53,63.53,0,0,1-18.15-4.1,4.16,4.16,0,0,0-1.95-.56,26.31,26.31,0,0,0,8.08,4.58c7.1,2.78,14.54,3.81,22.09,4.1a164,164,0,0,0,32.3-1.85,93.43,93.43,0,0,0,16.82-4c2.39-.86,1.94-.6,2-2.88V86Z"/><path class="cls-2" d="M100.15,56.88a1.52,1.52,0,0,0,.12,1.28,56.69,56.69,0,0,1,7.27-14.56,41.25,41.25,0,0,1,24.62-16.86c9-2.17,18-1.42,26.75,1.24,13.88,4.19,25.6,12,36.11,21.84a1.66,1.66,0,0,1,.2.4,36,36,0,0,0,8.07-1A103,103,0,0,0,171.68,25c-9.43-4.59-19.31-7.3-29.9-6.75a40.86,40.86,0,0,0-27.56,12C106.76,37.63,102.61,46.81,100.15,56.88Z"/><path class="cls-2" d="M579.57,91.61c-.83-.68-1.51-1.67-2.76-1.71.1-.41-.22-.43-.49-.49a.76.76,0,0,0,.47.5,3.68,3.68,0,0,0,1.12,1.38,41.91,41.91,0,0,1,9.76,16,54,54,0,0,1,1.9,27.65c-3.08,16.35-12.2,27.85-27.76,34-7.68,3-15.72,3.93-23.92,3.64a56.07,56.07,0,0,1-19.32-3.91c-.8-.33-1.57-1-2.55-.65-.08-.67-.61-.41-1-.47.17.49.55.55,1,.48a15.4,15.4,0,0,0,5.15,3.12c16.26,7,32.65,7.23,48.88.2,11.4-4.94,19-13.72,23-25.46a54.16,54.16,0,0,0,1.29-30.35A42.76,42.76,0,0,0,579.57,91.61Z"/><path class="cls-2" d="M850.55,93.37c-.57-.53-1-1.42-2-1.16-.37-1.4-1.5-1.91-2.72-2.3.1-.41-.23-.43-.5-.5a.74.74,0,0,0,.48.51c.76.94,1.27,2.18,2.74,2.29-.36,1,.54,1.49,1,2.07a41.84,41.84,0,0,1,7.14,13.15,54,54,0,0,1,.1,34.46A41.45,41.45,0,0,1,835,167.08c-13,6.39-26.57,6.85-40.46,3.92-4.19-.89-8-2.71-11.94-4.4a28.56,28.56,0,0,0,7.54,4.63c15.92,6.89,32,7.14,48,.52C850,166.86,857.91,158,862,145.9a54,54,0,0,0,.44-33.41A42,42,0,0,0,850.55,93.37Z"/><path class="cls-2" d="M972.2,104.65c-1.65-7.26-5.45-13-12.09-16.57a3.27,3.27,0,0,0,.94,1.27,23.83,23.83,0,0,1,5.25,9.5,33.83,33.83,0,0,1,1.31,9.44q0,29,0,58c0,1.28.53,2.86-.29,3.76s-2.59.38-3.92.39c-9.21.06-18.41.07-27.62.09,0,.46,0,.92,0,1.37,0,2.37-.38,2.32,2.35,2.32h32.63c2.16,0,2.18,0,2.18-2.05q0-30,0-60A34.16,34.16,0,0,0,972.2,104.65Z"/><path class="cls-2" d="M923.77,103.34c-3.78-1-7.54-.43-11.27.36a1.29,1.29,0,0,0-1.11,1.47c0,.61,0,1.22,0,1.82v60c0,.54,0,1.07,0,1.6,0,1.82,0,1.83-2,1.86-1.52,0-3,0-4.57,0l-25.31.08c0,.83,0,1.67,0,2.51s.34,1.23,1.2,1.18c.53,0,1.07,0,1.6,0h31.26c3,0,3,0,3-3V109.84c0-2.16,0-2.16,2.13-2.63a28.17,28.17,0,0,1,10.19-.35A8.33,8.33,0,0,0,923.77,103.34Z"/><path class="cls-2" d="M480.91,83.07a8.69,8.69,0,0,0-.17,2.49c0,5.32,0,10.64,0,16,0,2.14,0,2.16-2.1,2.16-4.18,0-8.35,0-12.53,0-1.76,0-1.81,0-1.82,1.77,0,10.63,0,21.26,0,31.89,0,3.71,1.78,5.43,5.58,5.8a6.8,6.8,0,0,1-.39-2.45q0-15.87,0-31.73c0-1.56,0-1.59,1.67-1.6H484c2.17,0,2,.2,2-1.92,0-5.78,0-11.56,0-17.34,0-1.64.34-3.31-.27-4.93A36,36,0,0,0,480.91,83.07Z"/><path class="cls-2" d="M347.59,137.1a12.91,12.91,0,0,0,.33,3.16,6.54,6.54,0,0,0,5.81,5.27,12.46,12.46,0,0,1-.74-4.92q0-27.36,0-54.71c0-.53,0-1.07,0-1.59.11-1-.41-1.3-1.34-1.26-1.29,0-2.58,0-3.87,0a6,6,0,0,0-.19,2.26Q347.6,111.21,347.59,137.1Z"/><path class="cls-2" d="M671.22,62.37c0-.91,0-1.82,0-2.73V11.52c0-.54,0-1.07,0-1.6.1-1-.41-1.31-1.35-1.27-1.29.06-2.58,0-3.87,0-.06.76-.15,1.51-.15,2.27q0,25.28,0,50.56a5,5,0,0,0,.25,2.38A29.44,29.44,0,0,0,671.22,62.37Z"/><path class="cls-2" d="M485.75,145.7,481,146.87a5.74,5.74,0,0,0-.21,2.47c0,5.69,0,11.39,0,17.08,0,2.31,0,2.3-2.17,3-.29.1-.57.23-.86.3-11.13,2.76-22.27,3.75-33.43.19a2,2,0,0,0-1.32-.09c-.07-.37-.39-.4-.68-.47a1,1,0,0,0,.67.48h0a17.7,17.7,0,0,0,7.73,4.11c11.38,3.18,22.66,2.24,33.87-1,1.32-.39,1.44-1.22,1.44-2.39,0-7.74,0-15.48,0-23.23A3.18,3.18,0,0,0,485.75,145.7Z"/><path class="cls-2" d="M170.41,93c.46,1.13,1,2.24,1.37,3.37s.73,1.4,2,1a155.55,155.55,0,0,1,27.59-6.64c10.76-1.57,21.54-2.77,32.28.23a12.52,12.52,0,0,0-4.85-3.3,32.68,32.68,0,0,0-11.13-2.14,112.23,112.23,0,0,0-23.57,1.8A161.42,161.42,0,0,0,170.41,93Z"/><path class="cls-2" d="M464.29,75c0,4.8,0,4.81,4.84,4.38a2,2,0,0,0,.43-.14V55.88a33.79,33.79,0,0,0-5.1,1.14,8,8,0,0,0-.17,2.49C464.28,64.66,464.29,69.82,464.29,75Z"/><path class="cls-2" d="M426.07,103.69c-1.34,0-2.68,0-4,0,0,.82,0,1.64,0,2.45s.26,1.21,1.13,1.19c1.56,0,3.12,0,4.68,0,0-.6.05-1.19,0-1.79C427.85,103.72,427.85,103.7,426.07,103.69Z"/><path class="cls-2" d="M212.34,230.11l0-.47a12.6,12.6,0,0,1-1.92.24Z"/><path class="cls-2" d="M99.71,59.16c.38,0,.16-.42.32-.6a1.63,1.63,0,0,0,.21-.34c-.16.1-.35.18-.43.33A1.9,1.9,0,0,0,99.71,59.16Z"/><path class="cls-2" d="M100.24,58.22l0,0s0,0,0,0,0,0,0,0Z"/><polygon class="cls-2" points="99.4 60.8 99.36 60.59 99.27 60.78 99.4 60.8"/><path class="cls-2" d="M844.89,89.07l.42.44C845.34,89.2,845.13,89.11,844.89,89.07Z"/><path class="cls-2" d="M575.93,89.06l.42.45C576.39,89.19,576.17,89.11,575.93,89.06Z"/><path class="cls-2" d="M205.89,139.15c-5.67,3.14-8,8.65-6.25,14.86a10.82,10.82,0,0,0,6.82,7.58c0,.44.41.39.71.44-.19-.21-.23-.66-.68-.45.17-.76-.45-1.2-.73-1.76a12.62,12.62,0,0,1,4.47-16.38,24,24,0,0,1,6.41-2.82c6.46-1.83,13.1-2.35,19.76-2.69,0-.84.1-1.67.07-2.51-.05-1.36-.26-1.53-1.68-1.44a162.88,162.88,0,0,0-17.9,1.65A34.62,34.62,0,0,0,205.89,139.15Z"/><path class="cls-2" d="M665.81,98.75v53.07c0,4.14.05,4.2,4.26,4.35a10.8,10.8,0,0,0,1.13,0q0-27.1,0-54.21c0-1.94,0-2,1.83-2.47a26.61,26.61,0,0,1,16.11.47,13.89,13.89,0,0,0-5.23-3.53c-5.11-2.15-10.34-2.08-15.63-.84C665.82,96.11,665.81,96.14,665.81,98.75Z"/><path class="cls-2" d="M531.7,142.17c1.3,1.7,2.77,3.25,5.09,3.49a21.27,21.27,0,0,1-2.8-7.17,55.84,55.84,0,0,1-.33-18.6,23.63,23.63,0,0,1,2.06-7.19c2.22-4.46,5.77-6.72,10.82-6.43l2.5.14c-3.32-4.73-11.45-5.08-15.55-1.51a13.82,13.82,0,0,0-4.24,7.14,52.69,52.69,0,0,0-.5,23A16.12,16.12,0,0,0,531.7,142.17Z"/><path class="cls-2" d="M801.69,143.38c1.12,1.12,2.26,2.29,4,2.28a21.46,21.46,0,0,1-2.79-7.17,55.63,55.63,0,0,1-.3-18.83,23.55,23.55,0,0,1,2.13-7.17c2.19-4.26,5.64-6.44,10.5-6.23.91,0,1.81.1,2.72.16a11,11,0,0,0-18.12,1.64,17.37,17.37,0,0,0-2.1,5.52,56.58,56.58,0,0,0-.32,20.39C798,137.44,799.09,140.8,801.69,143.38Z"/><path class="cls-2" d="M1229.3,77.17a12.79,12.79,0,1,1-12.42,12.76A12.61,12.61,0,0,1,1229.3,77.17Zm0,23.66a10.89,10.89,0,0,0,0-21.77c-5.84,0-10.34,4.79-10.34,10.87S1223.46,100.83,1229.3,100.83Zm-4.15-16.1h-1.27V83.07H1230a3.89,3.89,0,0,1,4.12,4.08,3.57,3.57,0,0,1-2.57,3.62v.07a1.58,1.58,0,0,1,.71.74l1.58,3.17a.92.92,0,0,0,1,.45h.35v1.59h-1c-1,0-1.48-.11-2-1.06l-1.9-3.73a1.19,1.19,0,0,0-1.27-.77h-1.89v5.56h-2Zm4.53,5a2.3,2.3,0,0,0,2.43-2.53,2.24,2.24,0,0,0-2.43-2.42h-2.56v5Z"/></svg>