<?xml version="1.0" encoding="utf-8"?>
<!-- Generator: Adobe Illustrator 16.0.3, SVG Export Plug-In . SVG Version: 6.00 Build 0)  -->
<!DOCTYPE svg PUBLIC "-//W3C//DTD SVG 1.1//EN" "http://www.w3.org/Graphics/SVG/1.1/DTD/svg11.dtd">
<svg version="1.1" id="Layer_1" xmlns="http://www.w3.org/2000/svg" xmlns:xlink="http://www.w3.org/1999/xlink" x="0px" y="0px"
	 width="129.625px" height="66px" viewBox="0 0 129.625 66" enable-background="new 0 0 129.625 66" xml:space="preserve">
<linearGradient id="SVGID_1_" gradientUnits="userSpaceOnUse" x1="66.6724" y1="14.2461" x2="66.6724" y2="1.1289">
	<stop  offset="0" style="stop-color:#6A6A72"/>
	<stop  offset="0.3817" style="stop-color:#D4D6DC"/>
	<stop  offset="0.5645" style="stop-color:#8D9092"/>
	<stop  offset="0.828" style="stop-color:#D4D6DC"/>
	<stop  offset="1" style="stop-color:#88868B"/>
</linearGradient>
<path fill="url(#SVGID_1_)" d="M103.383,9.06h-27.82V7.891c0-0.5-0.407-0.907-0.909-0.907h-5.76V1.129h-4.447v5.855h-5.76
	c-0.501,0-0.908,0.406-0.908,0.907V9.06H29.96c-0.501,0-0.907,0.406-0.907,0.906v3.373c0,0.5,0.406,0.907,0.907,0.907h73.423
	c0.5,0,0.908-0.406,0.908-0.907V9.966C104.291,9.466,103.883,9.06,103.383,9.06"/>
<path fill="#00B0F0" d="M32.192,29.597c-0.438,0.313-0.861,0.647-1.282,1.012l0.665-14.658L32.192,29.597z"/>
<path fill="#00B0F0" d="M37.96,27.022c-0.348,0.068-0.696,0.15-1.03,0.245l0.523-9.342L37.96,27.022z"/>
<path fill="#00B0F0" d="M43.825,26.982c-0.321-0.068-0.651-0.124-0.991-0.163l0.494-10.868L43.825,26.982z"/>
<path fill="#00B0F0" d="M49.923,30.755c-0.108-0.146-0.219-0.283-0.331-0.421c-0.318-0.381-0.656-0.734-1.025-1.051l0.64-11.357
	L49.923,30.755z"/>
<path fill="#00B0F0" d="M55.703,29.725c-0.013,0.007-0.025,0.018-0.039,0.03c-0.472,0.424-0.896,0.889-1.274,1.391l0.687-15.194
	L55.703,29.725z"/>
<path fill="#00B0F0" d="M61.466,26.982c-0.352,0.061-0.695,0.142-1.03,0.236l0.523-9.293L61.466,26.982z"/>
<path fill="#00B0F0" d="M67.332,27.017c-0.328-0.064-0.657-0.124-0.997-0.167l0.495-10.899L67.332,27.017z"/>
<polygon fill="#00B0F0" points="73.291,28.295 72.129,28.295 72.711,17.925 "/>
<polygon fill="#00B0F0" points="79.088,27.159 78.076,27.159 78.582,15.951 "/>
<path fill="#00B0F0" d="M85.065,28.699c-0.305-0.433-0.695-0.79-1.149-1.052l0.548-9.723L85.065,28.699z"/>
<path fill="#00B0F0" d="M90.829,26.819c-0.335,0.035-0.666,0.082-0.992,0.143l0.497-11.011L90.829,26.819z"/>
<path fill="#00B0F0" d="M102.89,33.783c-0.378-1.034-0.871-1.964-1.485-2.801v-0.004l0.678-15.027L102.89,33.783z"/>
<path fill="#00B0F0" d="M96.75,27.484c-0.338-0.128-0.69-0.235-1.051-0.325l0.519-9.234L96.75,27.484z"/>
<g>
	<g>
		<g>
			<path fill="#4D4D4D" d="M0.625,55.801V19.292h10.501c2.081,0,3.882,0.207,5.404,0.62c1.522,0.412,2.782,1.018,3.78,1.819
				c0.998,0.799,1.741,1.775,2.232,2.928c0.49,1.151,0.735,2.46,0.735,3.922c0,0.962-0.168,1.893-0.503,2.786
				c-0.335,0.895-0.822,1.72-1.458,2.477c-0.637,0.756-1.415,1.416-2.335,1.973c-0.92,0.56-1.974,0.985-3.161,1.277
				c2.874,0.431,5.083,1.385,6.631,2.864c1.548,1.479,2.323,3.43,2.323,5.856c0,1.548-0.276,2.942-0.826,4.179
				c-0.551,1.24-1.351,2.289-2.399,3.149c-1.05,0.858-2.34,1.517-3.871,1.973s-3.268,0.685-5.211,0.685H0.625z M3.256,36.372h7.921
				c1.686,0,3.126-0.213,4.322-0.646c1.195-0.429,2.175-0.997,2.941-1.702c0.764-0.705,1.328-1.504,1.689-2.399
				c0.361-0.894,0.541-1.815,0.541-2.761c0-2.459-0.777-4.321-2.334-5.585c-1.557-1.265-3.96-1.896-7.21-1.896h-7.87V36.372z
				 M3.256,38.308v15.376h9.159c3.217,0,5.642-0.69,7.276-2.075c1.633-1.386,2.451-3.333,2.451-5.843
				c0-1.155-0.219-2.19-0.658-3.109c-0.439-0.921-1.07-1.704-1.896-2.35c-0.826-0.645-1.84-1.139-3.045-1.482
				c-1.204-0.345-2.572-0.517-4.103-0.517H3.256z"/>
		</g>
		<g>
			<path fill="#4D4D4D" d="M48.381,55.801c-0.516,0-0.834-0.242-0.955-0.724l-0.361-3.275c-0.706,0.688-1.405,1.306-2.103,1.858
				c-0.697,0.549-1.424,1.013-2.18,1.391c-0.757,0.381-1.574,0.668-2.451,0.864c-0.877,0.199-1.84,0.299-2.89,0.299
				c-0.877,0-1.729-0.13-2.555-0.389c-0.826-0.258-1.556-0.653-2.193-1.188c-0.636-0.531-1.148-1.215-1.535-2.05
				c-0.386-0.834-0.581-1.837-0.581-3.006c0-1.084,0.311-2.089,0.929-3.018c0.619-0.928,1.587-1.737,2.902-2.425
				c1.316-0.688,3.01-1.24,5.084-1.652c2.072-0.412,4.562-0.652,7.468-0.722v-2.683c0-2.373-0.511-4.2-1.534-5.483
				c-1.024-1.28-2.542-1.921-4.554-1.921c-1.239,0-2.293,0.171-3.161,0.516c-0.868,0.345-1.604,0.723-2.207,1.135
				c-0.601,0.413-1.092,0.792-1.47,1.135c-0.379,0.345-0.696,0.516-0.955,0.516c-0.344,0-0.602-0.153-0.773-0.463l-0.44-0.749
				c1.343-1.341,2.752-2.356,4.232-3.044c1.479-0.688,3.155-1.033,5.032-1.033c1.375,0,2.579,0.22,3.611,0.659
				c1.033,0.438,1.888,1.067,2.568,1.883c0.679,0.816,1.19,1.806,1.534,2.967c0.344,1.16,0.517,2.455,0.517,3.883v16.719H48.381z
				 M38.061,54.434c0.997,0,1.914-0.108,2.747-0.324c0.835-0.214,1.608-0.516,2.323-0.9c0.713-0.39,1.38-0.85,2-1.383
				c0.619-0.532,1.229-1.108,1.831-1.729v-6.681c-2.442,0.067-4.545,0.253-6.308,0.554c-1.764,0.302-3.216,0.711-4.36,1.225
				c-1.144,0.517-1.986,1.133-2.528,1.847c-0.542,0.712-0.813,1.526-0.813,2.438c0,0.86,0.142,1.604,0.425,2.232
				c0.284,0.628,0.658,1.143,1.123,1.547c0.465,0.405,1.005,0.702,1.625,0.889C36.745,54.339,37.39,54.434,38.061,54.434z"/>
		</g>
		<g>
			<path fill="#4D4D4D" d="M64.326,29.69c1.117,0,2.154,0.138,3.108,0.414c0.955,0.274,1.811,0.662,2.567,1.16h6.58v0.853
				c0,0.429-0.242,0.661-0.722,0.695l-3.896,0.285c0.48,0.654,0.852,1.388,1.108,2.205c0.259,0.818,0.388,1.69,0.388,2.618
				c0,1.24-0.224,2.363-0.671,3.368c-0.447,1.009-1.07,1.868-1.871,2.58c-0.799,0.715-1.76,1.27-2.877,1.665
				c-1.117,0.396-2.357,0.593-3.715,0.593c-1.48,0-2.821-0.224-4.025-0.67c-0.723,0.41-1.29,0.903-1.703,1.471
				c-0.412,0.566-0.62,1.117-0.62,1.65c0,0.739,0.259,1.307,0.775,1.702c0.516,0.398,1.2,0.684,2.051,0.864
				c0.852,0.182,1.823,0.297,2.916,0.349c1.092,0.054,2.202,0.108,3.328,0.168c1.126,0.061,2.236,0.167,3.328,0.322
				c1.093,0.155,2.064,0.428,2.916,0.814c0.852,0.387,1.536,0.925,2.052,1.624c0.516,0.696,0.773,1.62,0.773,2.772
				c0,1.065-0.268,2.091-0.8,3.07c-0.533,0.98-1.303,1.85-2.309,2.605c-1.006,0.759-2.223,1.365-3.651,1.82
				c-1.427,0.455-3.028,0.684-4.798,0.684c-1.807,0-3.389-0.185-4.748-0.554c-1.36-0.369-2.499-0.87-3.419-1.497
				c-0.921-0.629-1.613-1.356-2.077-2.182c-0.464-0.825-0.696-1.7-0.696-2.631c0-1.358,0.446-2.528,1.341-3.511
				c0.894-0.978,2.124-1.734,3.69-2.269c-0.861-0.292-1.544-0.712-2.052-1.265c-0.507-0.549-0.76-1.316-0.76-2.294
				c0-0.363,0.067-0.741,0.207-1.135c0.137-0.397,0.343-0.79,0.619-1.177c0.275-0.387,0.606-0.752,0.993-1.094
				c0.387-0.346,0.839-0.656,1.355-0.931c-1.222-0.705-2.172-1.643-2.852-2.812c-0.68-1.17-1.019-2.537-1.019-4.104
				c0-1.237,0.219-2.359,0.658-3.365c0.438-1.006,1.058-1.87,1.857-2.593c0.8-0.722,1.767-1.28,2.903-1.677
				C61.693,29.888,62.949,29.69,64.326,29.69z M73.846,57.529c0-0.81-0.211-1.458-0.632-1.948c-0.421-0.49-0.985-0.873-1.689-1.147
				c-0.706-0.274-1.518-0.469-2.439-0.581c-0.92-0.112-1.883-0.192-2.89-0.246c-1.005-0.05-2.016-0.104-3.031-0.153
				c-1.015-0.053-1.96-0.154-2.838-0.31c-0.654,0.257-1.26,0.553-1.819,0.89c-0.56,0.336-1.037,0.714-1.432,1.135
				c-0.396,0.422-0.705,0.886-0.928,1.394c-0.224,0.506-0.336,1.062-0.336,1.664c0,0.756,0.193,1.458,0.581,2.102
				c0.387,0.646,0.955,1.205,1.703,1.677c0.749,0.473,1.664,0.849,2.749,1.124c1.083,0.275,2.33,0.413,3.74,0.413
				c1.307,0,2.525-0.147,3.651-0.439c1.127-0.292,2.106-0.704,2.941-1.238c0.833-0.534,1.487-1.169,1.961-1.91
				C73.609,59.215,73.846,58.406,73.846,57.529z M64.326,44.448c1.101,0,2.081-0.158,2.94-0.478
				c0.859-0.318,1.583-0.763,2.168-1.327c0.584-0.569,1.027-1.249,1.329-2.039c0.302-0.793,0.452-1.67,0.452-2.633
				c0-0.962-0.154-1.844-0.464-2.645c-0.31-0.799-0.762-1.483-1.355-2.05c-0.594-0.569-1.316-1.007-2.167-1.317
				c-0.853-0.308-1.819-0.464-2.903-0.464c-1.084,0-2.056,0.156-2.916,0.464c-0.86,0.31-1.587,0.748-2.181,1.317
				c-0.593,0.567-1.043,1.251-1.354,2.05c-0.31,0.801-0.465,1.683-0.465,2.645c0,0.963,0.155,1.84,0.465,2.633
				c0.311,0.79,0.762,1.47,1.354,2.039c0.593,0.564,1.32,1.009,2.181,1.327C62.27,44.29,63.242,44.448,64.326,44.448z"/>
		</g>
		<g>
			<path fill="#4D4D4D" d="M80.656,55.801V30.129h1.342c0.446,0,0.706,0.214,0.774,0.644l0.232,3.871
				c1.169-1.479,2.532-2.67,4.088-3.574c1.558-0.903,3.29-1.355,5.199-1.355c1.411,0,2.653,0.225,3.728,0.672
				c1.075,0.447,1.965,1.092,2.67,1.935c0.705,0.843,1.238,1.857,1.6,3.045c0.361,1.186,0.541,2.527,0.541,4.025v16.408h-2.45
				V39.393c0-2.41-0.551-4.296-1.652-5.664c-1.101-1.369-2.787-2.052-5.058-2.052c-1.685,0-3.251,0.434-4.695,1.302
				c-1.445,0.87-2.735,2.061-3.87,3.573v19.248H80.656z"/>
		</g>
		<g>
			<path fill="#4D4D4D" d="M117.112,29.716c1.839,0,3.487,0.314,4.941,0.942c1.453,0.629,2.678,1.519,3.676,2.67
				c0.998,1.151,1.757,2.541,2.284,4.166c0.524,1.626,0.786,3.445,0.786,5.457c0,2.014-0.262,3.827-0.786,5.445
				c-0.526,1.616-1.286,3.001-2.284,4.155c-0.999,1.149-2.223,2.035-3.676,2.655c-1.454,0.618-3.102,0.928-4.941,0.928
				c-1.841,0-3.488-0.31-4.941-0.928c-1.454-0.62-2.683-1.506-3.69-2.655c-1.006-1.154-1.771-2.539-2.297-4.155
				c-0.523-1.618-0.786-3.432-0.786-5.445c0-2.012,0.263-3.831,0.786-5.457c0.526-1.625,1.291-3.015,2.297-4.166
				c1.007-1.152,2.236-2.042,3.69-2.67C113.624,30.03,115.271,29.716,117.112,29.716z M117.112,54.2c1.53,0,2.867-0.262,4.012-0.787
				c1.142-0.522,2.097-1.276,2.862-2.258c0.766-0.978,1.339-2.163,1.716-3.546c0.377-1.385,0.567-2.937,0.567-4.658
				c0-1.701-0.189-3.252-0.567-4.644c-0.377-1.394-0.95-2.585-1.716-3.574c-0.765-0.989-1.72-1.749-2.862-2.283
				c-1.146-0.533-2.482-0.798-4.012-0.798c-1.532,0-2.868,0.266-4.012,0.798c-1.146,0.534-2.1,1.294-2.865,2.283
				c-0.766,0.989-1.341,2.181-1.729,3.574c-0.387,1.392-0.581,2.942-0.581,4.644c0,1.722,0.194,3.273,0.581,4.658
				c0.388,1.383,0.963,2.568,1.729,3.546c0.765,0.981,1.719,1.735,2.865,2.258C114.244,53.938,115.58,54.2,117.112,54.2z"/>
		</g>
	</g>
</g>
<g>
</g>
<g>
</g>
<g>
</g>
<g>
</g>
<g>
</g>
<g>
</g>
<g>
</g>
<g>
</g>
<g>
</g>
<g>
</g>
<g>
</g>
<g>
</g>
<g>
</g>
<g>
</g>
<g>
</g>
</svg>
