<?xml version="1.0" encoding="UTF-8" standalone="no"?>
<svg
   xmlns:dc="http://purl.org/dc/elements/1.1/"
   xmlns:cc="http://creativecommons.org/ns#"
   xmlns:rdf="http://www.w3.org/1999/02/22-rdf-syntax-ns#"
   xmlns:svg="http://www.w3.org/2000/svg"
   xmlns="http://www.w3.org/2000/svg"
   viewBox="0 0 749.22772 142.50549"
   id="svg25"
   height="142.50549"
   width="749.22772"
   version="1.1">
  <metadata
     id="metadata31">
    <rdf:RDF>
      <cc:Work
         rdf:about="">
        <dc:format>image/svg+xml</dc:format>
        <dc:type
           rdf:resource="http://purl.org/dc/dcmitype/StillImage" />
        <dc:title></dc:title>
      </cc:Work>
    </rdf:RDF>
  </metadata>
  <defs
     id="defs29" />
  <g
     transform="translate(-20.3971,-231.77)"
     id="Layer1000">
    <path
       id="path2"
       style="fill:#ea1b18;fill-rule:evenodd"
       d="M 186.0666,374.2755 H 20.3971 V 231.77 h 165.6695 z" />
    <path
       id="path4"
       style="fill:#ffffff;fill-rule:evenodd"
       d="m 56.8086,286.5658 c -2.0398,2.9983 -3.4005,6.2241 -4.0795,9.678 -0.6797,3.4535 -0.7011,6.8611 -0.0612,10.2191 0.6377,3.3584 1.9079,6.5213 3.8078,9.4828 1.8993,2.9642 4.349,5.4661 7.3466,7.5058 2.9976,2.0398 6.2236,3.4 9.6775,4.0797 3.454,0.6805 6.8593,0.6991 10.2195,0.0605 2.3985,-0.4559 4.728,-1.2713 6.992,-2.4476 l 8.2449,5.6104 -0.9049,0.6379 c -2.9399,1.8628 -6.072,3.2844 -9.3975,4.2563 -3.3272,0.9756 -6.6847,1.4588 -10.0714,1.45 -3.39,-0.009 -6.7782,-0.5145 -10.1697,-1.5158 -3.3904,-1.003 -6.6228,-2.5488 -9.6906,-4.6358 -4.0692,-2.7692 -7.3655,-6.1362 -9.8904,-10.0976 -2.5259,-3.9642 -4.2147,-8.195 -5.0697,-12.693 -0.856,-4.4986 -0.8371,-9.0531 0.0572,-13.6677 0.8927,-4.6136 2.7248,-8.9545 5.4933,-13.0237 2.7689,-4.0684 6.1334,-7.3645 10.0989,-9.8896 3.9628,-2.5244 8.1939,-4.2147 12.693,-5.0702 4.4975,-0.855 9.0515,-0.8356 13.6666,0.0576 4.6124,0.8941 8.9543,2.7257 13.0232,5.4946 3.0679,2.0872 5.6898,4.53 7.8636,7.3201 2.1729,2.7911 3.8821,5.7653 5.1287,8.9238 1.2445,3.1578 2.0194,6.4702 2.3259,9.9342 0.3065,3.4638 0.1252,6.9122 -0.5394,10.3447 l -0.1909,0.9733 -8.3524,-5.6831 c 0.2257,-2.4809 0.1501,-4.9033 -0.2234,-7.2683 -0.6268,-3.3776 -1.8857,-6.552 -3.777,-9.528 -1.8923,-2.9741 -4.3376,-5.4819 -7.3352,-7.5216 -2.9976,-2.0403 -6.2247,-3.3997 -9.6776,-4.0799 -3.4544,-0.678 -6.8623,-0.6994 -10.2195,-0.0607 -3.3593,0.6384 -6.5201,1.9069 -9.4834,3.8075 -2.9641,1.8991 -5.4649,4.3484 -7.505,7.3463 z" />
    <path
       id="path6"
       style="fill:#ffffff;fill-rule:evenodd"
       d="m 94.6223,308.8797 c 0.7037,3.6396 2.0623,6.9512 4.0778,9.9327 2.0141,2.9822 4.4703,5.453 7.3664,7.4083 2.8944,1.959 6.1028,3.3166 9.6209,4.0734 3.5184,0.7598 7.0978,0.7855 10.7368,0.0819 3.6398,-0.7037 6.9509,-2.0621 9.9324,-4.078 2.9825,-2.014 5.4515,-4.4696 7.4095,-7.3665 1.9555,-2.8938 3.3147,-6.102 4.0725,-9.6201 0.7578,-3.5184 0.7862,-7.0975 0.0826,-10.7371 -0.7036,-3.6395 -2.0646,-6.9509 -4.0788,-9.9326 -2.0149,-2.982 -4.4713,-5.4503 -7.3659,-7.4098 -2.8961,-1.9555 -6.1025,-3.3139 -9.6207,-4.0717 -3.5181,-0.7583 -7.0967,-0.786 -10.7375,-0.0823 -3.6398,0.7033 -6.9502,2.064 -9.9319,4.0784 -2.982,2.015 -5.453,4.4711 -7.409,7.365 -1.9581,2.8979 -3.3165,6.1037 -4.074,9.6214 -0.7585,3.5184 -0.785,7.0975 -0.0811,10.737 z m -9.1001,1.7594 c -0.9552,-4.9393 -0.9214,-9.7544 0.1053,-14.4499 1.0252,-4.6937 2.8488,-8.9805 5.4704,-12.8577 2.6218,-3.8786 5.9179,-7.1666 9.8919,-9.87 3.9727,-2.6999 8.4289,-4.5288 13.3694,-5.484 4.9398,-0.9552 9.7559,-0.9187 14.4494,0.105 4.6945,1.0275 8.9802,2.8493 12.8582,5.4712 3.8788,2.6206 7.1668,5.9186 9.8695,9.8918 2.7007,3.9745 4.529,8.43 5.4842,13.3693 l 6.3095,32.6291 -9.0993,1.7601 -1.6843,-8.7103 -1.1542,1.7067 c -2.5871,3.8274 -5.8662,7.0915 -9.8392,9.7922 -3.9747,2.6999 -8.4292,4.5292 -13.369,5.4842 -4.9405,0.9552 -9.7574,0.9187 -14.4501,-0.1048 -4.695,-1.0252 -8.9792,-2.85 -12.8582,-5.4698 -3.8783,-2.6237 -7.168,-5.9187 -9.869,-9.8944 -2.7024,-3.971 -4.5293,-8.4285 -5.4845,-13.3687 z" />
    <path
       id="path8"
       style="fill:#272626;fill-rule:evenodd"
       d="M 769.6248,373.1045 H 194.0163 V 232.9403 h 575.6085 z" />
    <path
       id="path10"
       style="fill:#ffffff;fill-rule:evenodd"
       d="m 256.7708,312.6809 c 0,3.7043 0.7044,7.2109 2.1162,10.5185 1.41,3.3073 3.3509,6.1974 5.8217,8.6664 2.4682,2.4698 5.3581,4.4109 8.6657,5.821 3.3086,1.4118 6.8142,2.1171 10.5189,2.1171 3.705,0 7.2103,-0.7053 10.5182,-2.1171 3.3076,-1.4101 6.1957,-3.3512 8.6664,-5.821 1.7627,-1.7636 3.2613,-3.7919 4.4981,-6.0866 h 10.1875 l -0.3969,1.0582 c -1.4118,3.2648 -3.2411,6.2642 -5.4905,8.9971 -2.2494,2.7344 -4.8083,5.0727 -7.6735,7.0121 -2.8676,1.9412 -6.0208,3.4605 -9.4607,4.5648 -3.4391,1.1015 -7.0577,1.6543 -10.8486,1.6543 -5.0274,0 -9.7478,-0.9496 -14.1569,-2.8447 -4.412,-1.8958 -8.2696,-4.4991 -11.5762,-7.8057 -3.3084,-3.3086 -5.9106,-7.166 -7.8067,-11.5779 -1.8976,-4.4094 -2.8447,-9.1291 -2.8447,-14.1565 2e-4,-5.0276 0.9471,-9.7453 2.8447,-14.1569 1.8961,-4.4097 4.4983,-8.2691 7.8067,-11.5769 3.3069,-3.3077 7.1642,-5.9084 11.5762,-7.8057 4.4094,-1.8958 9.1293,-2.845 14.1569,-2.845 3.7912,0 7.4095,0.5563 10.8486,1.6641 3.4401,1.1084 6.5928,2.638 9.4607,4.5895 2.8654,1.9517 5.4238,4.3044 7.6735,7.0537 2.2494,2.7495 4.0787,5.7658 5.4903,9.0464 l 0.3971,0.9323 h -10.3197 c -1.2358,-2.2244 -2.6921,-4.2273 -4.3659,-6.0095 -2.4705,-2.493 -5.359,-4.4507 -8.6664,-5.8774 -3.3076,-1.4241 -6.8134,-2.1373 -10.5182,-2.1373 -3.7045,0 -7.2103,0.7071 -10.5189,2.1169 -3.3074,1.4121 -6.1977,3.3527 -8.6657,5.8212 -2.4708,2.4703 -4.4119,5.3586 -5.8217,8.6665 -1.4118,3.3071 -2.1162,6.8136 -2.1162,10.5181 z" />
    <path
       id="path12"
       style="fill:#ffffff;fill-rule:evenodd"
       d="m 340.255,312.6809 c 0,3.7043 0.7052,7.2109 2.1169,10.5185 1.4101,3.3073 3.3512,6.1974 5.822,8.6664 2.468,2.4698 5.3581,4.4109 8.6657,5.821 3.3076,1.4118 6.8142,2.1171 10.5187,2.1171 3.704,0 7.2113,-0.7053 10.5182,-2.1171 3.3076,-1.4101 6.1949,-3.3512 8.6656,-5.821 2.4698,-2.469 4.4092,-5.3591 5.8217,-8.6664 1.4091,-3.3076 2.1172,-6.8142 2.1172,-10.5185 0,-3.7045 -0.7081,-7.2108 -2.1172,-10.5181 -1.4125,-3.3079 -3.3519,-6.196 -5.8217,-8.6665 -2.4705,-2.4685 -5.358,-4.4091 -8.6656,-5.8212 -3.3067,-1.4098 -6.8142,-2.1169 -10.5182,-2.1169 -3.7045,0 -7.2114,0.7071 -10.5187,2.1169 -3.3076,1.4121 -6.1977,3.3527 -8.6657,5.8212 -2.4708,2.4703 -4.4119,5.3586 -5.822,8.6665 -1.4115,3.3071 -2.1171,6.8136 -2.1169,10.5181 z m -9.2608,0 c 0,-5.0276 0.9459,-9.7453 2.8445,-14.1569 1.8951,-4.4097 4.4981,-8.2691 7.8057,-11.5769 3.3076,-3.3077 7.165,-5.9084 11.5769,-7.8057 4.4094,-1.8958 9.1286,-2.845 14.157,-2.845 5.0269,0 9.7443,0.9492 14.1572,2.845 4.4094,1.8973 8.2685,4.498 11.5751,7.8057 3.3094,3.3078 5.9089,7.1672 7.8075,11.5769 1.894,4.4116 2.8437,9.1293 2.8437,14.1569 l 2e-4,33.2094 h -9.261 v -8.8654 l -1.4558,1.4562 c -3.2641,3.264 -7.1006,5.8441 -11.5097,7.7399 -4.4129,1.8948 -9.1303,2.8447 -14.1572,2.8447 -5.0284,0 -9.7476,-0.9496 -14.157,-2.8447 -4.4117,-1.8958 -8.2693,-4.4991 -11.5769,-7.8057 -3.3076,-3.3086 -5.9109,-7.166 -7.8057,-11.5779 -1.8986,-4.4094 -2.8447,-9.1291 -2.8445,-14.1565 z" />
    <path
       id="path14"
       style="fill:#ffffff;fill-rule:evenodd"
       d="m 463.8282,286.4842 c -4.4119,0 -8.2917,1.0378 -11.6428,3.1092 -3.3537,2.0733 -6.1756,4.5874 -8.4685,7.5414 -2.2948,2.9561 -4.0138,6.1088 -5.1592,9.46 -1.1476,3.3527 -1.7208,6.307 -1.7208,8.8641 v 30.4314 h -9.2607 v -66.1538 h 9.2607 v 12.7013 c 0.8815,-1.41 2.1608,-3.0635 3.838,-4.9614 1.674,-1.8958 3.7252,-3.6592 6.1514,-5.2923 2.4254,-1.6312 5.1601,-3.0203 8.2038,-4.1677 3.0429,-1.1453 6.4163,-1.72 10.1208,-1.72 z" />
    <path
       id="path16"
       style="fill:#ffffff;fill-rule:evenodd"
       d="m 482.2178,312.6809 c 0,3.7043 0.7044,7.2109 2.117,10.5185 1.41,3.3073 3.3511,6.1974 5.8209,8.6664 2.468,2.4698 5.3588,4.4109 8.6664,5.821 3.3069,1.4118 6.8142,2.1171 10.5182,2.1171 3.7048,0 7.2111,-0.7053 10.518,-2.1171 3.3076,-1.4101 6.1959,-3.3512 8.6664,-5.821 2.469,-2.469 4.4094,-5.3591 5.8209,-8.6664 1.4103,-3.3076 2.1172,-6.8142 2.1172,-10.5185 0,-3.7045 -0.7071,-7.2108 -2.1172,-10.5181 -1.4115,-3.3079 -3.3519,-6.196 -5.8209,-8.6665 -2.4705,-2.4685 -5.3588,-4.4091 -8.6664,-5.8212 -3.3066,-1.4098 -6.8135,-2.1169 -10.518,-2.1169 -3.704,0 -7.2116,0.7071 -10.5182,2.1169 -3.3073,1.4121 -6.1984,3.3527 -8.6664,5.8212 -2.4698,2.4703 -4.4112,5.3586 -5.8209,8.6665 -1.4126,3.3071 -2.1172,6.8136 -2.117,10.5181 z m -9.262,0 c 0,-5.0276 0.9472,-9.7453 2.8455,-14.1569 1.8943,-4.4097 4.4973,-8.2691 7.8057,-11.5769 3.3071,-3.3077 7.1642,-5.9084 11.5761,-7.8057 4.4104,-1.8958 9.1296,-2.845 14.1572,-2.845 5.0274,0 9.7451,0.9492 14.157,2.845 4.4091,1.8973 8.2693,4.498 11.5762,7.8057 3.3083,3.3078 5.9088,7.1672 7.8064,11.5769 1.8953,4.4116 2.8447,9.1293 2.8447,14.1569 5e-4,5.0274 -0.9497,9.7471 -2.8447,14.1565 -1.8976,4.4119 -4.4981,8.2693 -7.8064,11.5779 -3.3069,3.3066 -7.1671,5.9099 -11.5762,7.8057 -4.4119,1.8948 -9.1296,2.8447 -14.157,2.8447 -5.0274,0 -9.747,-0.9496 -14.1572,-2.8447 -4.4117,-1.8958 -8.2693,-4.4991 -11.5761,-7.8057 -3.3082,-3.3086 -5.9114,-7.166 -7.8057,-11.5779 -1.8983,-4.4094 -2.8455,-9.1291 -2.8455,-14.1565 z" />
    <path
       id="path18"
       style="fill:#ffffff;fill-rule:evenodd"
       d="m 614.392,279.7365 h 9.2615 v 39.5597 c 0,4.0576 -0.7738,7.8948 -2.3161,11.5106 -1.5437,3.6177 -3.6612,6.7707 -6.3505,9.4608 -2.6919,2.6911 -5.8439,4.8287 -9.4598,6.4163 -3.6176,1.5875 -7.4541,2.3818 -11.5104,2.3818 -4.0583,0 -7.8956,-0.7943 -11.5114,-2.3818 -3.6171,-1.5876 -6.7696,-3.7252 -9.459,-6.4163 -2.6926,-2.6901 -4.8294,-5.8431 -6.417,-9.4608 -1.5873,-3.6158 -2.3819,-7.453 -2.3819,-11.5106 v -39.5597 h 9.527 v 39.5597 c 0,2.8236 0.5291,5.4704 1.587,7.9384 1.0585,2.4705 2.5134,4.6098 4.3659,6.417 1.8525,1.8087 3.9898,3.2419 6.417,4.2998 2.4247,1.059 5.0481,1.5876 7.8724,1.5876 2.8216,0 5.4674,-0.5286 7.9379,-1.5876 2.4682,-1.0579 4.6315,-2.4911 6.4838,-4.2998 1.8527,-1.8072 3.3066,-3.9465 4.3658,-6.417 1.058,-2.4683 1.5876,-5.1148 1.5876,-7.9384 z" />
    <path
       id="path20"
       style="fill:#ffffff;fill-rule:evenodd"
       d="m 684.3808,286.4842 c -4.4116,0 -8.2917,1.0378 -11.6429,3.1092 -3.3534,2.0733 -6.1755,4.5874 -8.4685,7.5414 -2.2944,2.9561 -4.0137,6.1088 -5.1591,9.46 -1.1476,3.3527 -1.7208,6.307 -1.7208,8.8641 l 5e-4,30.4314 h -9.2613 v -66.1538 h 9.2613 v 12.7013 c 0.8809,-1.41 2.16,-3.0635 3.8375,-4.9614 1.674,-1.8958 3.7252,-3.6592 6.1514,-5.2923 2.4254,-1.6312 5.1601,-3.0203 8.2038,-4.1677 3.0432,-1.1453 6.4163,-1.72 10.1208,-1.72 z" />
    <path
       id="path22"
       style="fill:#ffffff;fill-rule:evenodd"
       d="m 701.5792,279.7365 h 9.2605 v 66.1538 h -9.2605 z m -0.7935,-17.1997 c 0,-1.5878 0.5291,-2.9107 1.5873,-3.9692 1.0582,-1.0587 2.3819,-1.5878 3.9694,-1.5878 1.5879,0 2.9098,0.5294 3.9687,1.5878 1.0585,1.0583 1.5876,2.3814 1.5876,3.9692 0,1.5876 -0.5296,2.9108 -1.5876,3.9692 -1.0589,1.0585 -2.3811,1.5876 -3.9687,1.5876 -1.5873,0 -2.9112,-0.5291 -3.9694,-1.5876 -1.0577,-1.0584 -1.5876,-2.3816 -1.5873,-3.9692 z" />
  </g>
  <path
     id="path838"
     d="M 174.88765,71.11814 V 1.10119 h 286.55084 286.55085 v 70.01695 70.01694 H 461.43849 174.88765 Z m 106.29339,42.80294 c 7.97887,-4.12603 15.58796,-13.27589 15.58796,-18.74436 0,-4.69641 -10.22353,-4.12621 -12.06513,0.67292 -0.84121,2.19216 -5.03067,5.79628 -9.30991,8.00916 -20.72946,10.71962 -44.62371,-11.13852 -35.70732,-32.66459 6.71868,-16.22032 27.21851,-20.79087 41.05012,-9.15235 14.57259,12.26204 22.33512,5.71227 8.70568,-7.34556 -25.69634,-24.61865 -65.4507,-5.43794 -62.05146,29.93862 1.26428,13.15759 10.24439,26.02688 21.40345,30.67302 8.35553,3.47889 24.29742,2.79622 32.38661,-1.38686 z m 83.14047,-0.0814 c 4.38553,-2.26785 7.65088,-2.82123 7.65088,-1.29661 0,1.46289 2.91737,2.65981 6.48305,2.65981 6.35281,0 6.48305,-0.40035 6.48305,-19.92702 0,-33.29429 -13.08495,-50.95433 -37.75385,-50.95433 -28.49312,0 -46.75645,30.9494 -32.2771,54.69743 10.36895,17.00644 32.40585,23.61596 49.41397,14.82072 z m 142.41012,-0.58574 c 33.33826,-16.81778 20.02262,-69.0654 -17.60174,-69.0654 -21.26252,0 -36.76767,15.42004 -36.76767,36.56585 0,28.22625 28.76071,45.41809 54.36941,32.49955 z m 85.38966,-2.10757 c 9.68845,-8.15229 13.20758,-20.00996 13.22646,-44.56637 0.013,-18.32928 -0.14807,-18.80085 -6.46858,-18.80085 -6.42903,0 -6.48305,0.19203 -6.48305,23.0517 0,25.51289 -3.12203,32.36914 -16.14236,35.44993 -5.66413,1.34021 -8.62258,0.11545 -14.91101,-6.173 -7.51155,-7.51155 -7.84493,-8.79012 -7.84493,-30.08678 0,-20.51303 -0.40315,-22.24185 -5.18645,-22.24185 -4.80435,0 -5.18644,1.72882 -5.18644,23.46776 0,15.87495 1.26907,25.92188 3.92243,31.05291 8.27339,15.99896 31.22118,20.50286 45.07393,8.84655 z M 418.65036,94.1978 c 0,-20.43051 0.24117,-21.24627 8.81695,-29.82204 4.84932,-4.84932 10.68406,-8.81695 12.9661,-8.81695 2.72599,0 4.14915,-2.28363 4.14915,-6.6578 0,-5.67637 -0.86009,-6.40865 -5.83474,-4.96762 -3.20911,0.92961 -9.04386,3.96055 -12.96611,6.73544 -5.93136,4.19629 -7.13135,4.37765 -7.13135,1.07779 0,-2.50315 -2.39277,-3.96747 -6.48305,-3.96747 h -6.48305 v 33.71187 33.71186 h 6.48305 c 6.38167,0 6.48305,-0.32847 6.48305,-21.00508 z m 220.42373,0 c 0,-20.43051 0.24117,-21.24627 8.81695,-29.82204 4.84932,-4.84932 10.68406,-8.81695 12.9661,-8.81695 2.72599,0 4.14915,-2.28363 4.14915,-6.6578 0,-5.67637 -0.86009,-6.40865 -5.83475,-4.96762 -3.20911,0.92961 -9.04385,3.96055 -12.9661,6.73544 -5.93137,4.19629 -7.13135,4.37765 -7.13135,1.07779 0,-2.50315 -2.39277,-3.96747 -6.48305,-3.96747 h -6.48306 v 33.71187 33.71186 h 6.48306 c 6.38168,0 6.48305,-0.32847 6.48305,-21.00508 z m 51.8644,-12.70678 c 0,-31.98305 -0.26596,-33.71187 -5.18644,-33.71187 -4.92048,0 -5.18644,1.72882 -5.18644,33.71187 0,31.98305 0.26596,33.71186 5.18644,33.71186 4.92048,0 5.18644,-1.72881 5.18644,-33.71186 z m 0.63716,-47.32627 c 1.96597,-5.34602 -0.75344,-9.72458 -6.03969,-9.72458 -4.85796,0 -7.01189,7.46694 -3.24153,11.23729 2.81795,2.81796 7.99918,1.97349 9.28122,-1.51271 z"
     style="opacity:1;fill:#272626;fill-opacity:1;stroke-width:2.59322023" />
</svg>
