<?xml version="1.0" encoding="utf-8"?>
<!-- Generator: Adobe Illustrator 25.0.1, SVG Export Plug-In . SVG Version: 6.00 Build 0)  -->
<svg version="1.1" id="Layer_1" xmlns="http://www.w3.org/2000/svg" xmlns:xlink="http://www.w3.org/1999/xlink" x="0px" y="0px"
	 viewBox="0 0 571 133" style="enable-background:new 0 0 571 133;" xml:space="preserve">
<style type="text/css">
	.st0{fill:#ED1C24;stroke:#FFFFFF;stroke-width:0.216;stroke-miterlimit:22.9256;}
</style>
<g id="Guides_For_Artboard">
</g>
<g id="Layer_1_1_">
	<g>
		<path d="M143.8,83.5l-11,14.1H96.1c-9.6,0-17.5-2.6-23.8-7.9c-6.3-5.3-9.5-11.9-9.5-19.9s3.1-14.5,9.3-19.4c6.2-5,14.2-7.4,24-7.4
			h32.7l-11,14.2H96.1c-4.7,0-8.6,1.3-11.6,3.8c-3.1,2.5-4.6,5.7-4.6,9.6c0,3.8,1.5,7,4.6,9.4s6.9,3.6,11.6,3.6h47.7V83.5z"/>
		<path d="M210,69.7c0,8-3.2,14.6-9.5,19.9s-14.2,7.9-23.8,7.9h-16.6c-9.6,0-17.6-2.6-23.9-7.9c-6.3-5.3-9.5-11.9-9.5-19.9
			s3.1-14.5,9.4-19.4c6.3-5,14.2-7.4,24-7.4h16.6c9.7,0,17.7,2.5,24,7.4C206.9,55.3,210,61.7,210,69.7L210,69.7z M176.7,57.1h-16.6
			c-4.7,0-8.6,1.3-11.7,3.8c-3.1,2.5-4.6,5.7-4.6,9.6s1.5,7,4.6,9.4c3.1,2.4,7,3.6,11.7,3.6h16.6c4.7,0,8.6-1.2,11.7-3.6
			c3.1-2.4,4.6-5.6,4.6-9.4c0-3.9-1.5-7.1-4.6-9.6C185.3,58.3,181.4,57.1,176.7,57.1z"/>
		<path d="M274,90.5c0,5-2.3,7.4-6.8,7.4c-3.3,0-6.4-1.2-9.3-3.6l-32.3-26.8v30.1h-17.1V49.9c0-2,0.7-3.7,2-5s3.2-2,5.5-2
			c3.1,0,6,1.1,8.6,3.3l32.3,26.9V42.9H274L274,90.5L274,90.5z"/>
		<polygon points="341.9,42.9 330.8,57.1 314.2,57.1 314.2,97.6 297.1,97.6 297.1,57.1 261.6,57.1 272.6,42.9 		"/>
		<path d="M341.1,97.6l10.3-14.2h23l-14.3-19.7l-24.9,33.9H314l35.4-48.7c1.1-1.6,2.7-3,4.7-4.2c2.2-1.3,4.3-2,6.4-2s4.2,0.7,6.4,2
			c1.9,1.2,3.4,2.6,4.6,4.2L406,97.6h-21.7l-3.8-4.9l-3.8,4.9H341.1z"/>
		<polygon points="468.7,97.6 442.7,97.6 416.2,79.3 416.2,97.6 399.1,97.6 399.1,42.9 416.2,42.9 416.2,61.6 442.7,42.9 
			468.5,42.9 429.1,70.7 		"/>
		<polygon points="522.3,42.9 511.2,57.1 494.7,57.1 494.7,97.6 477.6,97.6 477.6,57.1 446,57.1 457.1,42.9 		"/>
		<path class="st0" d="M68.4,122.7c-4.7-1.3-9-3-13.1-5.2c-4-2.2-7.9-4.8-11.5-8l0,0c-6.2-5.4-10.9-11.6-14.1-18.6
			c-3.2-7-4.8-14.6-4.8-22.7s1.6-15.7,4.8-22.6c3.2-7,7.9-13,14.2-18.2c6-5,12.9-8.7,20.5-11.2c7.4-2.4,15.4-3.6,24.1-3.6h45h14.8
			l-19.4,27H96.1c-10.8,0-19.6,2.7-26.4,8.2c-6.9,5.5-10.3,12.6-10.3,21.4s3.5,16.2,10.4,22c4.7,3.9,10.1,6.5,16.4,7.8l-17.1,23.9
			L68.4,122.7z"/>
	</g>
</g>
</svg>
