<svg id="Component_1_1" data-name="Component 1 – 1" xmlns="http://www.w3.org/2000/svg" width="202" height="26.228" viewBox="0 0 202 26.228">
  <path id="Path_7" data-name="Path 7" d="M805.366,410.443H800.58V430.5h5.606a27.775,27.775,0,0,0,3.4-.161,8.027,8.027,0,0,0,2.591-.714,7.347,7.347,0,0,0,3.13-3.427,13.687,13.687,0,0,0,1.087-5.763,13.531,13.531,0,0,0-1.011-5.521,7.547,7.547,0,0,0-2.773-3.4,7.088,7.088,0,0,0-2.642-.926,24.639,24.639,0,0,0-3.211-.161Zm-2.973,18.4V412.1h3.78a29.718,29.718,0,0,1,3.045.106,5.266,5.266,0,0,1,2.344.764,5.677,5.677,0,0,1,2.179,2.8,13.3,13.3,0,0,1,.731,4.71,12.914,12.914,0,0,1-.76,4.79,5.623,5.623,0,0,1-2.285,2.837,5.828,5.828,0,0,1-2.179.6,22.671,22.671,0,0,1-2.884.132Zm24.784-.425v.212a2.031,2.031,0,0,0,.522,1.5,2.124,2.124,0,0,0,1.55.514,4.395,4.395,0,0,0,.459-.025l.735-.11V429.26h-.594a1.066,1.066,0,0,1-.93-.323,2.274,2.274,0,0,1-.132-.981v-7.878a4.028,4.028,0,0,0-1.363-3.3,5.982,5.982,0,0,0-3.92-1.087,6.477,6.477,0,0,0-4.192,1.274,4.247,4.247,0,0,0-1.55,3.4h1.682a3.036,3.036,0,0,1,1.087-2.425,4.882,4.882,0,0,1,2.994-.79,4.1,4.1,0,0,1,2.777.76,3.03,3.03,0,0,1,.815,2.4,1.482,1.482,0,0,1-.73,1.414,4.4,4.4,0,0,1-1.8.425l-.76.055c-1.053.076-1.834.153-2.34.246a7.092,7.092,0,0,0-2.1.624,3.628,3.628,0,0,0-1.741,1.414,3.977,3.977,0,0,0-.6,2.208,3.869,3.869,0,0,0,1.274,3.019,5.1,5.1,0,0,0,3.516,1.168,6.612,6.612,0,0,0,2.858-.629,8.494,8.494,0,0,0,2.5-1.847ZM827.1,422.9v2.043a4.11,4.11,0,0,1-1.414,3.266,5.389,5.389,0,0,1-3.652,1.2,3.648,3.648,0,0,1-2.421-.76,2.7,2.7,0,0,1-.055-3.92,4.285,4.285,0,0,1,2.548-1.036l1.7-.221c.849-.072,1.461-.144,1.826-.217a7.856,7.856,0,0,0,1.495-.353Zm5.134-.679a5.292,5.292,0,0,1,1.363-3.763,4.073,4.073,0,0,1,3.13-1.333,3.881,3.881,0,0,1,3.053,1.333,5.609,5.609,0,0,1,1.3,3.763Zm0,1.333h10.592v-.544a8.277,8.277,0,0,0-1.635-5.449,5.521,5.521,0,0,0-4.408-1.9,5.68,5.68,0,0,0-4.6,1.987,8.764,8.764,0,0,0-1.7,5.691,8.512,8.512,0,0,0,1.665,5.576,5.6,5.6,0,0,0,4.544,1.988,5.984,5.984,0,0,0,4-1.359,5.2,5.2,0,0,0,1.907-3.512h-1.66a3.823,3.823,0,0,1-1.389,2.48,4.2,4.2,0,0,1-2.722.9,4.047,4.047,0,0,1-3.321-1.55,6.665,6.665,0,0,1-1.274-4.3Zm23.952-13.123h-1.656v7.92a7.078,7.078,0,0,0-2.123-2.017,5.946,5.946,0,0,0-2.862-.675,5.546,5.546,0,0,0-4.71,2.365,9.631,9.631,0,0,0,0,10.481,5.521,5.521,0,0,0,4.71,2.4,5.607,5.607,0,0,0,2.939-.815,5.522,5.522,0,0,0,2.047-2.068v2.476h1.656V410.443Zm-6.37,6.693a4.247,4.247,0,0,1,3.644,1.907,7.059,7.059,0,0,1,1.227,4.221,7.131,7.131,0,0,1-1.227,4.221,4.247,4.247,0,0,1-3.644,1.932,4.175,4.175,0,0,1-3.623-1.932,8.015,8.015,0,0,1,0-8.443A4.187,4.187,0,0,1,849.813,417.123Zm17.654,11.3v.212a2.031,2.031,0,0,0,.522,1.5,2.123,2.123,0,0,0,1.55.514,4.374,4.374,0,0,0,.459-.025l.735-.11v-1.253h-.595a1.07,1.07,0,0,1-.93-.323,2.346,2.346,0,0,1-.132-.981v-7.882a4.029,4.029,0,0,0-1.363-3.3,5.982,5.982,0,0,0-3.92-1.087,6.457,6.457,0,0,0-4.187,1.274,4.247,4.247,0,0,0-1.554,3.4h1.661a3.037,3.037,0,0,1,1.087-2.425,4.879,4.879,0,0,1,2.994-.79,4.059,4.059,0,0,1,2.777.76,3.049,3.049,0,0,1,.82,2.4,1.478,1.478,0,0,1-.735,1.414,4.37,4.37,0,0,1-1.8.425l-.765.055c-1.053.076-1.835.153-2.34.246a7.023,7.023,0,0,0-2.1.624,3.618,3.618,0,0,0-1.745,1.414,3.974,3.974,0,0,0-.6,2.208,3.869,3.869,0,0,0,1.274,3.019,5.1,5.1,0,0,0,3.516,1.168,6.6,6.6,0,0,0,2.858-.629,8.393,8.393,0,0,0,2.5-1.847Zm-.076-5.521v2.043a4.115,4.115,0,0,1-1.418,3.266,5.39,5.39,0,0,1-3.652,1.2,3.627,3.627,0,0,1-2.417-.76,2.7,2.7,0,0,1-.059-3.92,4.312,4.312,0,0,1,2.548-1.036l1.7-.221q1.274-.11,1.822-.217a7.825,7.825,0,0,0,1.5-.352Zm4.073,7.593h1.66V410.443h-1.66V430.5ZM885.9,416.019h-1.66V424.6a5.029,5.029,0,0,1-1.193,3.512,3.958,3.958,0,0,1-3.083,1.3,2.978,2.978,0,0,1-2.548-1.007,5.017,5.017,0,0,1-.735-3.049v-9.343h-1.66v9.742a5.572,5.572,0,0,0,1.172,3.822,4.568,4.568,0,0,0,3.482,1.3,4.953,4.953,0,0,0,2.612-.684,5.811,5.811,0,0,0,2.017-2.064v2.34h1.605V416.027Zm1.193,9.959a4.706,4.706,0,0,0,1.55,3.567A5.9,5.9,0,0,0,892.7,430.9a6.243,6.243,0,0,0,4.03-1.2,3.615,3.615,0,0,0,1.495-2.973,3.351,3.351,0,0,0-1.062-2.667,8.185,8.185,0,0,0-3.347-1.414l-.654-.166a14.146,14.146,0,0,1-2.973-.922,2.124,2.124,0,0,1-1.036-1.962,2.158,2.158,0,0,1,.815-1.775,3.8,3.8,0,0,1,2.4-.7,4.171,4.171,0,0,1,2.7.82,3.258,3.258,0,0,1,1.087,2.315h1.7a4.621,4.621,0,0,0-1.605-3.4,5.771,5.771,0,0,0-3.865-1.223,5.414,5.414,0,0,0-3.618,1.168,3.822,3.822,0,0,0-1.359,3.02,3.07,3.07,0,0,0,1.3,2.671,12.5,12.5,0,0,0,3.92,1.469h.085a12.627,12.627,0,0,1,2.828.922,1.937,1.937,0,0,1,.981,1.8,2.289,2.289,0,0,1-1.011,1.937,4.808,4.808,0,0,1-2.854.76,3.9,3.9,0,0,1-2.756-.981,3.109,3.109,0,0,1-1.087-2.45Z" transform="translate(-766.932 -407.275)" fill="#1b3281"/>
  <path id="Path_8" data-name="Path 8" d="M735.033,413.519h-7.967c-3.028,0-5.716-2.077-5.716-5.258S724.038,403,727.066,403h13.216c3.185,0,5.257,2.688,5.257,5.716v14.8c0,3.028-2.077,5.712-5.257,5.712s-5.27-2.688-5.262-5.725l.034-9.984Zm1.822-1.818h-9.789c-2.017,0-3.9-1.274-3.9-3.44s1.881-3.44,3.9-3.444h13.216c2.166,0,3.44,1.877,3.44,3.9v14.8c0,2.017-1.274,3.894-3.44,3.894s-3.453-1.877-3.444-3.9l.038-11.806ZM723.5,424.99a5.151,5.151,0,0,1-1.516-3.274,5.831,5.831,0,0,1,1.729-4.489l3.712-3.708h2.569L725,418.514a4,4,0,0,0-1.2,3.066,3.321,3.321,0,0,0,.985,2.123c1.529,1.529,3.767,1.1,5.19-.323l5.045-5.045v2.578l-3.759,3.746c-2.123,2.123-5.521,2.569-7.759.323Zm136.7-8.774a11.727,11.727,0,0,0,2.4,7.729,7.7,7.7,0,0,0,6.234,2.854,7.927,7.927,0,0,0,6.4-2.854,11.846,11.846,0,0,0,2.446-7.729,11.529,11.529,0,0,0-2.446-7.759,7.876,7.876,0,0,0-6.4-2.8,7.717,7.717,0,0,0-6.234,2.8A11.765,11.765,0,0,0,860.2,416.216Zm1.826,0a10.339,10.339,0,0,1,1.932-6.587,5.912,5.912,0,0,1,4.871-2.34,6.141,6.141,0,0,1,5.058,2.34,10.166,10.166,0,0,1,1.962,6.587,10.021,10.021,0,0,1-1.962,6.583,6.107,6.107,0,0,1-5.058,2.365,5.907,5.907,0,0,1-4.9-2.365A10.4,10.4,0,0,1,862.026,416.216Zm16.732,10.014h1.656v-8.523a5.1,5.1,0,0,1,1.2-3.567,4.2,4.2,0,0,1,3.211-1.274,3.347,3.347,0,0,1,2.892,1.066,5.586,5.586,0,0,1,.7,3.266v9.033h1.656v-9.216a18.011,18.011,0,0,0-.081-2.038,4.079,4.079,0,0,0-.488-1.525,4.013,4.013,0,0,0-1.7-1.529,6.369,6.369,0,0,0-2.641-.514,5.7,5.7,0,0,0-2.778.654,5.521,5.521,0,0,0-1.983,2.013v-2.31h-1.652Zm13.016,0h1.661V406.168h-1.661Zm3.521,0h1.656V411.753h-1.631V426.23Zm0-17.531h1.656v-2.548h-1.631V408.7Zm3.4,17.531h1.661v-8.523a5.09,5.09,0,0,1,1.2-3.567,4.208,4.208,0,0,1,3.215-1.274,3.338,3.338,0,0,1,2.888,1.066,5.586,5.586,0,0,1,.705,3.266v9.033h1.66v-9.216a17.759,17.759,0,0,0-.085-2.038,4.077,4.077,0,0,0-.488-1.525,4.005,4.005,0,0,0-1.7-1.529,6.4,6.4,0,0,0-2.646-.514,5.7,5.7,0,0,0-2.778.654,5.521,5.521,0,0,0-1.983,2.013v-2.31h-1.635V426.23Zm14.078-8.273a5.292,5.292,0,0,1,1.359-3.763,4.077,4.077,0,0,1,3.13-1.333,3.873,3.873,0,0,1,3.053,1.333,5.611,5.611,0,0,1,1.3,3.763Zm0,1.333H923.35v-.544a8.277,8.277,0,0,0-1.635-5.449,5.521,5.521,0,0,0-4.408-1.9,5.676,5.676,0,0,0-4.6,1.987,8.766,8.766,0,0,0-1.7,5.691,8.527,8.527,0,0,0,1.661,5.576,5.6,5.6,0,0,0,4.544,1.987,6,6,0,0,0,4-1.359,5.211,5.211,0,0,0,1.9-3.512H921.46a3.822,3.822,0,0,1-1.384,2.48,4.217,4.217,0,0,1-2.722.9,4.038,4.038,0,0,1-3.321-1.55,6.665,6.665,0,0,1-1.274-4.3Z" transform="translate(-721.35 -403)" fill="#348b41" fill-rule="evenodd"/>
</svg>
