<?xml version="1.0" encoding="utf-8"?>
<!-- Generator: Adobe Illustrator 21.1.0, SVG Export Plug-In . SVG Version: 6.00 Build 0)  -->
<svg version="1.1" id="Layer_1" xmlns="http://www.w3.org/2000/svg" xmlns:xlink="http://www.w3.org/1999/xlink" x="0px" y="0px"
	 viewBox="0 0 515.9 191.6" style="enable-background:new 0 0 515.9 191.6;" xml:space="preserve">
<style type="text/css">
	.st0{fill-rule:evenodd;clip-rule:evenodd;fill:#BC2025;}
	.st1{fill-rule:evenodd;clip-rule:evenodd;fill:#FFFFFF;}
	.st2{opacity:0.15;fill-rule:evenodd;clip-rule:evenodd;fill:#FFFFFF;}
</style>
<g>
	<path class="st0" d="M306.3,0c1.7,0.3,3.4,0.5,5.1,0.8c15.4,2.9,28,15.7,30.5,31.2c3.1,18.6-6.8,36-24.4,42.9
		c-14.6,5.7-32,1.5-42.4-10.3c-7.3-8.2-10.5-17.9-9.8-28.9C266.5,18.8,279,4.5,295.5,1c1.7-0.4,3.5-0.5,5.3-0.8
		c0.2,0,0.5-0.1,0.7-0.2C303.1,0,304.7,0,306.3,0z"/>
	<path class="st0" d="M36.6,190.1c-1.4,0.4-2.8,0.6-4.3,0.8c-5.3,0.6-10.7,0.6-15.9-1c-8.3-2.5-13.2-8.2-15.4-16.5
		c-0.5-2-0.7-4-1-6.1c0-0.3-0.1-0.6-0.2-0.9c0-1.2,0-2.5,0-3.7c0.3-1.7,0.5-3.5,0.9-5.2c2.7-10.2,9.2-16.5,19.5-18.6
		c5.4-1.1,10.8-0.8,16,0.7c6.9,2,11.7,6.5,14.4,13.3c2.2,5.6,2.5,11.5,2.3,17.5c-11,0-21.9,0-32.9,0c0.3,2.6,0.8,5.1,3.1,6.5
		c2.4,1.5,5.1,1.3,7.5-0.1c1.1-0.7,2-1.9,3-2.8c0.2-0.2,0.6-0.5,0.9-0.5c5.9,0.6,11.8,1.2,17.8,1.8c0.2,0,0.3,0.1,0.6,0.1
		c-0.2,0.5-0.4,0.9-0.6,1.4C48.9,183.7,43.6,188.2,36.6,190.1 M33.7,158.4c-0.2-2.6-1-4.8-3.4-5.9c-2.4-1.1-4.9-1.2-7.2,0.5
		c-1.8,1.3-2.5,3.3-2.8,5.5C24.9,158.4,29.2,158.4,33.7,158.4z"/>
	<g>
		<path class="st0" d="M431.4,119c-26.7,0-48.4-21.7-48.3-48.5c0-26.8,21.7-48.3,48.7-48.3c26.4,0,48.2,21.9,48.1,48.4
			C479.7,97.4,458,119.1,431.4,119z"/>
	</g>
	<path class="st0" d="M191.3,152.1c0,6.3,0,12.7,0,19c0,6.3,0,12.7,0,19.1c-5.9,0-11.8,0-17.7,0c0-22.8,0-45.6,0-68.5
		c0.4,0,0.7,0,1,0c8.1,0,16.2,0,24.3,0c0.8,0,1.1,0.2,1.2,1c2.6,11,5.2,22,7.8,33c0.1,0.4,0.3,0.7,0.5,1.1c0.2-0.4,0.5-0.7,0.6-1.1
		c2.7-11,5.3-22.1,7.9-33.1c0.1-0.3,0.1-0.5,0.2-0.8c8.7,0,17.4,0,26.2,0c0,22.8,0,45.6,0,68.4c-5.7,0-11.5,0-17.5,0
		c0-13.1,0-26.2,0-39.3c-0.1,0-0.2,0-0.3,0c-0.1,0.5-0.3,1-0.4,1.5c-2.9,12.4-5.9,24.7-8.8,37.1c-0.2,0.7-0.4,0.8-1.1,0.8
		c-4.5,0-8.9,0-13.4,0c-1,0-1.3-0.2-1.5-1.2c-2.8-12.1-5.7-24.1-8.5-36.2c-0.1-0.3-0.2-0.6-0.2-0.9C191.6,152,191.5,152,191.3,152.1
		z"/>
	<path class="st0" d="M193.9,73.6c-18.8,0-33.9-15.2-33.8-34c0-18.6,15.1-33.7,33.9-33.8c18.7-0.1,33.9,15.3,33.9,34.1
		C227.8,58.5,212.5,73.6,193.9,73.6z"/>
	<path class="st0" d="M360.3,146.2c-0.2-0.5-0.3-1-0.4-1.4c-1.1-3.4-3.2-6-6.9-6.6c-4.1-0.7-7.7,0.3-10.3,3.8c-1.8,2.4-2.7,5.1-3,8
		c-0.7,5.4-0.6,10.7,0.8,16c0.3,1.1,0.8,2.2,1.3,3.2c1.8,3.4,4.6,5.1,8.5,5.4c3.6,0.2,6.8-0.7,9.7-2.8c0.4-0.3,0.8-0.5,1.3-0.6
		c0.9-0.1,1.1-0.6,1-1.4c-0.1-1,0-1.9,0-3c-4,0-7.9,0-11.9,0c0-5.5,0-10.9,0-16.3c10.1,0,20.3,0,30.5,0c0,1.9,0,3.6,0,5.4
		c0,7.8,0,15.7,0.1,23.5c0,0.6-0.2,1-0.7,1.4c-6.2,5.1-13.1,8.7-21.1,10.1c-10.3,1.8-19.9,0.3-28.7-5.6c-3-2-5-4.8-6.6-7.9
		c-7.3-13.8-7.4-27.8-0.5-41.7c3.4-6.9,9.3-10.8,16.5-12.9c5.5-1.6,11.1-1.7,16.8-1.3c3.5,0.3,7,0.9,10.2,2.4
		c5.8,2.6,9.6,7.1,11.8,13c0.6,1.6,1.1,3.3,1.7,5.1C373.5,143.3,366.9,144.7,360.3,146.2z"/>
	<path class="st0" d="M273.5,122.1c7.4,0,14.8,0,22.2,0c7.7,22.7,15.3,45.3,23,68c-7.3,0-14.5,0-21.8,0c-0.5-1.8-1-3.6-1.6-5.4
		c-0.4-1.5-0.9-3-1.3-4.6c-0.1-0.6-0.4-0.8-1-0.8c-5.8,0-11.5,0-17.3,0c-0.6,0-0.9,0.2-1,0.8c-0.9,3.3-1.7,6.6-2.6,10
		c-7.2,0-14.3,0-21.6,0C258.3,167.4,265.9,144.8,273.5,122.1z M289.4,162.5c-1.6-5.8-3.2-11.5-4.7-17.2c-0.1,0-0.2,0-0.3,0
		c-1.5,5.7-3.1,11.4-4.6,17.2C282.9,162.5,286.1,162.5,289.4,162.5z"/>
	<path class="st0" d="M133.4,61.9c-0.1,16.2-13.4,28.5-28.8,28.1c-15-0.3-27.6-12.7-27.5-28.2c0.1-15.8,12.7-28.3,28.7-28.1
		C121.1,33.9,133.4,46.4,133.4,61.9z"/>
	<path class="st0" d="M26.8,67c14.7,0,26.5,11.9,26.4,26.5c-0.1,14.8-11.9,26.4-26.9,26.3c-14.3,0-26-12-26-26.5
		C0.4,78.7,12.2,66.9,26.8,67z"/>
	<path class="st0" d="M112.3,164.9c0.2-5.3,1.2-10.3,4-14.8c3.5-5.7,8.6-9.1,15-10.7c6.8-1.6,13.5-1.1,19.9,2
		c6.5,3.2,10.7,8.4,12.3,15.5c1.5,6.5,1.1,12.9-1.2,19.1c-2.5,6.9-7.4,11.5-14.5,13.6c-6.8,2-13.6,1.9-20.2-0.6
		c-7.7-2.9-12.3-8.5-14.1-16.5C112.8,170.1,112.6,167.5,112.3,164.9z M131.1,164.7c0.1,1.2,0.2,2.4,0.4,3.5c0.5,2.6,1.3,5,3.3,6.9
		c2.2,2.1,5.5,2.1,7.7-0.1c1.2-1.1,1.9-2.5,2.3-4c0.9-3.1,1.1-6.2,0.7-9.3c-0.3-2.2-0.9-4.4-2.3-6.2c-1.5-1.9-3.4-2.9-5.8-2.3
		c-2,0.4-3.4,1.8-4.3,3.6C131.6,159.2,131.2,161.9,131.1,164.7z"/>
	<path class="st0" d="M93.1,139.4c-0.7,0-1,0.2-1.2,0.9c-2,6.6-4,13.2-5.9,19.8c-0.5,1.6-1,3.3-1.5,4.9c-0.1,0.2-0.3,0.4-0.5,0.6
		c-0.1-0.2-0.3-0.4-0.4-0.6c0-0.1,0-0.2-0.1-0.3c-0.4-1.6-0.8-3.2-1.3-4.7c-1.8-6.6-3.5-13.1-5.3-19.7c-0.2-0.7-0.4-0.9-1.1-0.9
		c-6.1,0-12.3,0-18.4,0c-0.3,0-0.5,0-0.9,0c0.1,0.4,0.2,0.8,0.4,1.1c6,16.3,12,32.6,18,48.9c0.2,0.7,0.6,0.9,1.3,0.9
		c5,0,9.9,0,14.9,0c0.8,0,1.1-0.2,1.3-0.9c6.4-16.3,12.8-32.6,19.2-49c0.1-0.3,0.2-0.6,0.3-0.9c-0.3,0-0.5,0-0.7,0
		C105.1,139.5,99.1,139.5,93.1,139.4z"/>
	<path class="st0" d="M481.9,172.6c-0.1,4.9-1.3,9.4-4.6,13.2c-7.3,8.4-20.8,7.1-26.3-2.8c-4-7.3-3.9-14.9,0.5-22.1
		c6-9.8,20.6-9.8,26.9-0.3C480.8,164.3,481.8,168.2,481.9,172.6z M473.4,173.5c0-4-0.5-6.7-1.7-8.7c-1.4-2.4-3.4-3.9-6.3-4
		c-3,0-5.2,1.3-6.5,3.9c-2.5,5.1-2.5,10.3,0.2,15.3c0.1,0.3,0.3,0.5,0.5,0.8c3.5,4.7,9.6,4.2,12.3-1
		C473,177.5,473.4,175.1,473.4,173.5z"/>
	<path class="st0" d="M412.8,190.2c-7.1,0-14.2,0-21.3,0c0-7.4,0-14.7,0-22.1c7.1,0,14.2,0,21.3,0
		C412.8,175.5,412.8,182.8,412.8,190.2z"/>
	<path class="st0" d="M425.2,154.3c2.4,0,4.7,0,7.2,0c0,0.7,0,1.4,0,2c0.1,0.1,0.2,0.1,0.3,0.2c0.1-0.2,0.2-0.4,0.4-0.6
		c2.1-2.3,4.6-2.8,7.5-1.9c1.4,0.5,2.7,1.2,4,1.9c0.2,0.1,0.4,0.6,0.4,0.8c-0.8,2.2-1.6,4.4-2.5,6.6c-0.7-0.4-1.3-0.8-1.9-1.1
		c-2.7-1.3-5.3-0.4-6.2,2.5c-0.6,1.9-0.9,4-0.9,6c-0.1,6,0,12,0.1,18.1c0,0.5,0,1,0,1.6c-2.8,0-5.5,0-8.3,0
		C425.2,178.4,425.2,166.4,425.2,154.3z"/>
	<path class="st0" d="M515.9,127.2c0,8.3-6.8,15.1-15,15.1c-8.3,0-15-6.8-15-15.1c0-8.3,6.7-15,15-15
		C509.1,112.2,515.9,118.9,515.9,127.2z M489.2,127.1c0,6.5,5.3,11.8,11.8,11.8c6.5,0,11.8-5.3,11.8-11.8c0-6.5-5.3-11.7-11.7-11.8
		C494.6,115.3,489.2,120.6,489.2,127.1z"/>
	<path class="st0" d="M498.6,129.1c0,1.9,0,3.8,0,5.8c-1.2,0-2.3,0-3.5,0c0-5,0-9.9,0-14.9c0.5-0.1,1-0.2,1.5-0.2
		c2.4-0.1,4.8-0.5,7.3,0.1c1.2,0.3,2.3,0.9,3,2c1.2,1.8,0.8,3.8-1,5c-0.4,0.3-0.9,0.5-1.5,0.8c1.8,0.8,2.4,2.4,2.7,4.1
		c0.2,1.1,0.6,2.2,0.9,3.3c-1.1,0-2.2,0-3.3,0c-0.2,0-0.5-0.4-0.6-0.6c-0.3-0.9-0.6-1.8-0.8-2.7c-0.5-2.1-1.3-2.7-3.4-2.6
		c-0.3,0-0.7,0-1,0C498.8,129,498.8,129.1,498.6,129.1z M498.6,122.3c0,1.5,0,2.8,0,4.4c1.2-0.1,2.4-0.1,3.5-0.4
		c1.1-0.3,1.6-1,1.5-2c-0.1-1-0.7-1.8-1.8-1.9C500.8,122.2,499.8,122.3,498.6,122.3z"/>
	<path class="st1" d="M92.8,190.1"/>
	<polygon class="st2" points="34.7,174 52.2,175.8 51.5,177.2 51.8,176 	"/>
</g>
</svg>
