<?xml version="1.0" encoding="UTF-8"?><svg id="Layer_1" xmlns="http://www.w3.org/2000/svg" xmlns:xlink="http://www.w3.org/1999/xlink" viewBox="0 0 200 40"><defs><clipPath id="clippath"><path d="m106.62,69.55h-27.62v42h27.62c7.94,0,14.38-6.44,14.38-14.38v-13.25c0-7.94-6.44-14.38-14.38-14.38Zm-13.72,35.37h-4.21v-8.41h4.21c2.32,0,4.21,1.88,4.21,4.21s-1.88,4.21-4.21,4.21Zm0-10.2h-4.21v-8.41h4.21c2.32,0,4.21,1.88,4.21,4.21s-1.88,4.21-4.21,4.21Zm0-10.2h-4.21v-8.41h4.21c2.32,0,4.21,1.88,4.21,4.21s-1.88,4.21-4.21,4.21Zm9.69,10.2h-4.21v-8.41h4.21c2.32,0,4.21,1.88,4.21,4.21s-1.88,4.21-4.21,4.21Zm4.33-10.2h-8.54v-8.41h8.54c2.32,0,4.21,1.88,4.21,4.21,0,2.32-1.89,4.21-4.21,4.21Z" fill="none"/></clipPath><linearGradient id="linear-gradient" x1="78.63" y1="6.74" x2="34.49" y2="108.92" gradientTransform="translate(0 40) scale(1 -1)" gradientUnits="userSpaceOnUse"><stop offset="0" stop-color="#b7d65d"/><stop offset="1" stop-color="#00aae9"/></linearGradient><clipPath id="clippath-1"><rect x="38.49" y="-25.09" width="110.09" height="185.67" fill="none"/></clipPath><linearGradient id="linear-gradient-2" x1="77.46" y1="-11.56" x2="94.34" y2="-47.84" gradientTransform="translate(0 40) scale(1 -1)" gradientUnits="userSpaceOnUse"><stop offset="0" stop-color="#00aae9"/><stop offset="1" stop-color="#b7d775"/></linearGradient><clipPath id="clippath-2"><path d="m122.09,2.06h-23.6v35.88h23.6c6.78,0,12.28-5.5,12.28-12.28v-11.32c0-6.78-5.5-12.28-12.28-12.28Zm-11.72,30.22h-3.59v-7.19h3.59c1.98,0,3.59,1.61,3.59,3.59s-1.61,3.59-3.59,3.59Zm0-8.71h-3.59v-7.19h3.59c1.98,0,3.59,1.61,3.59,3.59s-1.61,3.59-3.59,3.59Zm0-8.71h-3.59v-7.19h3.59c1.98,0,3.59,1.61,3.59,3.59s-1.61,3.59-3.59,3.59Zm8.28,8.71h-3.59v-7.19h3.59c1.98,0,3.59,1.61,3.59,3.59s-1.61,3.59-3.59,3.59Zm3.7-8.71h-7.3v-7.19h7.3c1.98,0,3.59,1.61,3.59,3.59,0,1.98-1.61,3.59-3.59,3.59Z" fill="none"/></clipPath><linearGradient id="linear-gradient-3" x1="98.18" y1="68.94" x2="60.46" y2="156.24" xlink:href="#linear-gradient"/><clipPath id="clippath-3"><rect x="63.88" y="-78.8" width="94.05" height="158.62" fill="none"/></clipPath><linearGradient id="linear-gradient-4" x1="97.17" y1="53.31" x2="111.6" y2="22.32" xlink:href="#linear-gradient-2"/><linearGradient id="linear-gradient-5" x1="97.21" y1="32.84" x2="111.39" y2="6.07" gradientTransform="translate(0 40) scale(1 -1)" gradientUnits="userSpaceOnUse"><stop offset="0" stop-color="#00aae9"/><stop offset="1" stop-color="#b7d775"/></linearGradient><linearGradient id="linear-gradient-6" x1="101.55" y1="19.95" x2="118.73" y2="-5.97" gradientTransform="translate(0 40) scale(1 -1)" gradientUnits="userSpaceOnUse"><stop offset="0" stop-color="#00aae9"/><stop offset="1" stop-color="#b7d775"/></linearGradient><linearGradient id="linear-gradient-7" x1="106.46" y1="-.11" x2="119.4" y2="-21.67" gradientTransform="translate(0 40) scale(1 -1)" gradientUnits="userSpaceOnUse"><stop offset="0" stop-color="#00aae9"/><stop offset="1" stop-color="#b7d775"/></linearGradient><linearGradient id="linear-gradient-8" x1="100.42" y1="-4.47" x2="130.51" y2="-48.63" gradientTransform="translate(0 40) scale(1 -1)" gradientUnits="userSpaceOnUse"><stop offset="0" stop-color="#00aae9"/><stop offset="1" stop-color="#b7d775"/></linearGradient><clipPath id="clippath-4"><path d="m122.38-67.26h-24.08V-30.64h24.08c6.93,0,12.54-5.61,12.54-12.54h0v-11.54c.01-6.91-5.59-12.53-12.5-12.54-.01,0-.03,0-.04,0Zm-11.96,30.84h-3.67v-7.34h3.67c2.03,0,3.67,1.64,3.67,3.67s-1.64,3.67-3.67,3.67Zm0-8.89h-3.67v-7.34h3.67c2.03,0,3.67,1.64,3.67,3.67s-1.64,3.67-3.67,3.67Zm0-8.89h-3.67v-7.34h3.67c2.03,0,3.67,1.64,3.67,3.67s-1.64,3.67-3.67,3.67Zm8.45,8.87h-3.67v-7.32h3.67c2.03,0,3.67,1.64,3.67,3.67s-1.64,3.67-3.67,3.67h0v-.02Zm3.79-8.89h-7.46v-7.32h7.46c2.03,0,3.67,1.64,3.67,3.67s-1.64,3.67-3.67,3.67v-.02Z" fill="none"/></clipPath><clipPath id="clippath-5"><rect x="73.15" y="-79.99" width="154.43" height="86.86" transform="translate(5.41 17.62) rotate(-6.83)" fill="none"/></clipPath><linearGradient id="linear-gradient-9" x1="70.84" y1="-3.25" x2="225.37" y2="-89.93" gradientTransform="translate(2.44 -83.05) scale(1 -1)" gradientUnits="userSpaceOnUse"><stop offset="0" stop-color="#d900f4"/><stop offset="1" stop-color="#faf652"/></linearGradient><linearGradient id="linear-gradient-10" x1="161.13" y1="-1.57" x2="128.19" y2="-93.26" gradientTransform="translate(-2.05 -65.13) rotate(-6.83) scale(1 -1)" gradientUnits="userSpaceOnUse"><stop offset="0" stop-color="#6900f9"/><stop offset="1" stop-color="#e90dfd"/></linearGradient><linearGradient id="linear-gradient-11" x1="64.86" y1="-47.16" x2="136.3" y2="-47.16" gradientTransform="translate(-2.05 -65.13) rotate(-6.83) scale(1 -1)" gradientUnits="userSpaceOnUse"><stop offset="0" stop-color="#6900f9"/><stop offset="1" stop-color="#7bd7fb"/></linearGradient><linearGradient id="linear-gradient-12" x1="226.36" y1="-61.09" x2="174.01" y2="-58.18" xlink:href="#linear-gradient-10"/></defs><g clip-path="url(#clippath)"><rect id="SVGID" x="38.49" y="-25.09" width="110.09" height="185.67" fill="url(#linear-gradient)"/><g clip-path="url(#clippath-1)"><path d="m152.74,166.27V5.45c-4.28,2.03-8.09,5.33-11.05,9.07-5.07,6.4-8.25,14.06-12.22,21.19-3.97,7.14-9.1,14.1-16.5,17.55-15.45,7.22-34.32-3.21-50.52,2.12-12.32,4.06-19.68,15.91-28.35,25.9v84.99h118.63Z" fill="url(#linear-gradient-2)" isolation="isolate" opacity=".71"/></g></g><g clip-path="url(#clippath-2)"><rect id="SVGID-2" x="63.88" y="-78.8" width="94.05" height="158.62" fill="url(#linear-gradient-3)"/><g clip-path="url(#clippath-3)"><path d="m161.49,84.69V-52.71c-3.65,1.73-6.91,4.55-9.44,7.75-4.33,5.47-7.05,12.01-10.44,18.11-3.39,6.1-7.77,12.04-14.1,15-13.2,6.17-29.32-2.74-43.16,1.81-10.53,3.47-16.81,13.59-24.22,22.13v72.61h101.35Z" fill="url(#linear-gradient-4)" isolation="isolate" opacity=".71"/><path d="m161.49,84.69V-19.03c-1.48,2.32-2.97,4.63-4.59,6.77-11.32,14.91-29.51,19.67-47.15,21.72-11.1,1.29-22.69.36-33.07,4.48-5.82,2.31-11.48,5.99-16.55,10.32v60.43h101.36Z" fill="url(#linear-gradient-5)" isolation="isolate" opacity=".71"/><path d="m161.49,84.69V-16.65c-7.57.63-14.95,2.28-21.56,5.48-11.49,5.57-18.91,16.52-24.77,27.45-5.61,10.48-13.27,18.52-24.66,23.25-9.56,3.97-19.9,4.04-30.36,3.57v41.59h101.36Z" fill="url(#linear-gradient-6)" isolation="isolate" opacity=".71"/><path d="m161.49,84.69V10.02c-5.21,7.92-12.05,14.78-21.06,17.05-7.08,1.79-14.87.54-21.5,3.6-9.42,4.34-13.36,15.78-21.69,21.96-10.31,7.64-23.85,5.41-37.1,5.12v26.95h101.35Z" fill="url(#linear-gradient-7)" isolation="isolate" opacity=".61"/><path d="m161.49,84.69v-49.94c-6.68,10.06-15.75,18.75-27,23-16.46,6.23-34.35,1.68-50.93,7.26-8.65,2.92-16.7,7.66-23.43,13.85v5.82h101.36Z" fill="url(#linear-gradient-8)" isolation="isolate" opacity=".71"/></g></g><path d="m170.94,25.6h-4.91l-.52,5.39h-2.82l1.7-17.95c.21-2.1.73-4.47,4.09-4.47s3.88,2.37,4.09,4.47l1.7,17.95h-2.82l-.52-5.39Zm-4.64-2.74h4.37l-.88-9.49c-.15-1.61-.49-2.01-1.3-2.01s-1.15.4-1.3,2.01l-.88,9.49Zm13.37,8.13v-9.28c-2.24-.55-2.79-2.53-2.97-4.32l-.79-8.37h2.85l.73,7.79c.15,1.61.54,2.13,1.64,2.13s1.49-.52,1.64-2.13l.73-7.79h2.85l-.79,8.37c-.18,1.8-.76,3.77-3,4.32v9.28h-2.88Zm19.92-5.11c0,3.07-1.61,5.57-5.43,5.57s-5.43-2.49-5.43-5.57v-.76h2.85v.43c0,1.77.73,3.1,2.58,3.1s2.55-1.34,2.55-3.1v-.15c0-1.61-.24-1.83-3.18-3.44l-2-1.1c-1.88-1.03-2.73-2.04-2.73-4.38v-2.34c0-3.07,1.61-5.57,5.4-5.57s5.4,2.5,5.4,5.57v2.56h-2.85v-2.22c0-1.77-.73-3.1-2.55-3.1s-2.52,1.34-2.52,3.1v1.13c0,1.61.06,1.98,2.82,3.44l1.82.97c1.97,1.06,3.27,2.07,3.27,4.35v1.52h0Zm-43.94-16.86h-6.09v21.97h6.09c2.33,0,4.22-1.89,4.22-4.22v-13.54c0-2.33-1.89-4.22-4.22-4.22Zm1.34,17.35c0,1.04-.84,1.88-1.88,1.88h-2.67V11.75h2.67c1.04,0,1.88.84,1.88,1.88v12.74Z"/><path d="m.1,30.98V9.02h8.12v2.74H2.98v7.94h4.79v2.74H2.98v8.55H.1Zm18.19-5.39h-4.91l-.51,5.38h-2.82l1.7-17.95c.21-2.1.73-4.47,4.09-4.47s3.88,2.37,4.09,4.47l1.7,17.95h-2.82l-.52-5.38Zm-4.64-2.74h4.36l-.88-9.49c-.15-1.61-.48-2.01-1.3-2.01s-1.15.4-1.3,2.01l-.88,9.49Zm20.95,3.01c0,3.07-1.61,5.57-5.43,5.57s-5.43-2.49-5.43-5.57v-.76h2.85v.43c0,1.76.73,3.1,2.58,3.1s2.55-1.34,2.55-3.1v-.15c0-1.61-.24-1.82-3.18-3.44l-2-1.1c-1.88-1.03-2.73-2.04-2.73-4.38v-2.34c0-3.07,1.61-5.57,5.39-5.57s5.4,2.5,5.4,5.57v2.56h-2.85v-2.22c0-1.76-.73-3.1-2.55-3.1s-2.52,1.34-2.52,3.1v1.13c0,1.61.06,1.98,2.82,3.44l1.82.97c1.97,1.06,3.27,2.07,3.27,4.35v1.52h0Zm11.22,5.11v-8.55h-5.15v8.55h-2.88V9.02h2.88v10.68h5.15v-10.68h2.88v21.96h-2.88Zm6.58,0V9.02h2.88v21.96h-2.88Zm17.19-5.11c0,3.07-1.61,5.57-5.43,5.57s-5.43-2.49-5.43-5.57v-11.74c0-3.07,1.61-5.57,5.43-5.57s5.43,2.5,5.43,5.57v11.74Zm-2.88-11.41c0-1.76-.73-3.1-2.55-3.1s-2.55,1.34-2.55,3.1v11.07c0,1.76.73,3.1,2.55,3.1s2.55-1.34,2.55-3.1v-11.07Zm14.25,16.52V14.47c0-1.76-.73-3.1-2.55-3.1s-2.55,1.34-2.55,3.1v16.52h-2.88V14.13c0-3.07,1.61-5.57,5.43-5.57s5.43,2.5,5.43,5.57v16.85h-2.88Z"/><g id="Layer_1-2"><g clip-path="url(#clippath-4)"><g clip-path="url(#clippath-5)"><rect x="73.15" y="-79.99" width="154.43" height="86.86" transform="translate(5.41 17.62) rotate(-6.83)" fill="url(#linear-gradient-9)"/><path d="m188.08,5.49c1.36-3.75-.98-7.97-4.15-10.37-3.17-2.39-7.08-3.65-10.57-5.58s-6.82-4.96-7.22-8.95c-.44-4.35,2.85-8.33,6.74-10.33s8.31-2.55,12.58-3.63c4.27-1.08,8.65-2.71,11.2-6.26,3.87-5.3,2.33-12.64.64-18.98l-7.36-27.53c-.37-2.52-1.62-4.82-3.53-6.5-2.23-1.13-4.78-1.45-7.22-.9l-17.5,1.99c-4.53.28-9.02,1.07-13.38,2.35-4.39,1.37-8.2,4.18-10.81,7.97-3.81,5.98-3.03,13.76-.62,20.42,2.41,6.66,6.3,12.7,8.53,19.46,2.23,6.76,2.55,14.71-1.75,20.34-4.96,6.42-14.15,7.58-22.29,7.58s-16.85-.92-23.92,3.15c-9.16,5.34-12.26,17.1-6.92,26.26,1.18,2.02,2.72,3.81,4.54,5.28l92.98-15.77Z" fill="url(#linear-gradient-10)"/><path d="m129.46-77.55c-3.39,3.41-3.99,8.87-2.59,13.48,1.63,4.53,4.09,8.73,7.26,12.36,3.16,3.63,5.71,7.73,7.58,12.16,1.84,4.53,1.26,9.69-1.54,13.7-3.04,3.25-7.29,5.09-11.74,5.06-4.39.26-8.79-.42-13.18-.2-17.97.92-31.79,16.23-30.87,34.2.12,2.36.5,4.69,1.12,6.97l-8.21-7.16-10.87-84.05,63.8-9.87-.76,3.35Z" fill="#fff"/><path d="m129.36-77.55c-3.18,3.72-4.15,8.85-2.55,13.48,1.62,4.54,4.07,8.73,7.24,12.36,3.16,3.63,5.71,7.73,7.58,12.16,1.84,4.53,1.26,9.69-1.54,13.7-3.04,3.25-7.29,5.09-11.74,5.06-4.39.26-8.79-.42-13.18-.2-17.97.9-31.81,16.19-30.91,34.16.12,2.37.5,4.72,1.12,7.01l-8.21-7.16-10.83-84.05,63.9-9.87-.88,3.35Z" fill="#fefefe"/><path d="m129.36-77.53c-3.2,3.7-4.19,8.83-2.59,13.46,1.63,4.53,4.08,8.72,7.24,12.36,3.16,3.62,5.72,7.73,7.58,12.16,1.85,4.53,1.28,9.68-1.52,13.7-3.04,3.26-7.31,5.09-11.76,5.06-4.39.26-8.77-.42-13.18-.2-17.97.89-31.82,16.17-30.93,34.14.12,2.38.49,4.73,1.12,7.03l-8.23-7.16-10.83-84.05,63.9-9.87-.8,3.37Z" fill="#fdfdfd"/><path d="m129.24-77.53c-3.2,3.7-4.19,8.83-2.59,13.46,1.63,4.53,4.08,8.72,7.24,12.36,3.16,3.62,5.72,7.73,7.58,12.16,1.85,4.53,1.28,9.68-1.52,13.7-3.04,3.26-7.31,5.09-11.76,5.06-4.39.26-8.77-.42-13.16-.2-17.97.9-31.81,16.19-30.91,34.16.12,2.37.5,4.72,1.12,7.01l-8.21-7.16-10.83-84.05,63.8-9.87-.76,3.37Z" fill="#fcfcfc"/><path d="m129.16-77.53c-3.2,3.7-4.19,8.83-2.59,13.46,1.63,4.54,4.09,8.73,7.26,12.36,3.13,3.63,5.66,7.74,7.5,12.16,1.57,4.53,1.48,9.97-1.54,13.7-3.04,3.25-7.29,5.09-11.74,5.06-4.39.26-8.79-.42-13.18-.2-17.97.94-31.77,16.27-30.83,34.24.12,2.34.5,4.67,1.12,6.93l-8.21-7.16-10.83-84.05,63.8-9.87-.76,3.37Z" fill="#fbfbfb"/><path d="m129.08-77.53c-3.39,3.39-3.99,8.85-2.59,13.48,1.63,4.53,4.09,8.71,7.26,12.34,3.16,3.63,5.71,7.73,7.58,12.16,1.84,4.54,1.26,9.7-1.54,13.72-3.04,3.24-7.3,5.07-11.74,5.04-4.39.26-8.79-.42-13.18-.2-17.97.9-31.81,16.19-30.91,34.16.12,2.37.5,4.72,1.12,7.01l-8.21-7.16-10.83-84.05,63.9-9.87-.86,3.37Z" fill="#fafafa"/><path d="m129.02-77.53c-3.39,3.39-3.99,8.85-2.59,13.48,1.62,4.53,4.07,8.72,7.24,12.34,3.18,3.62,5.77,7.73,7.66,12.16,1.84,4.53,1.27,9.69-1.52,13.72-3.06,3.23-7.31,5.06-11.76,5.04-4.39.26-8.79-.42-13.18-.2-17.96.85-31.83,16.1-30.98,34.06.11,2.4.49,4.79,1.13,7.11l-8.23-7.16-10.83-84.05,63.9-9.87-.84,3.37Z" fill="#f9f9f9"/><path d="m128.94-77.53c-3.39,3.39-3.99,8.85-2.59,13.48,1.63,4.53,4.08,8.71,7.24,12.34,3.16,3.62,5.72,7.73,7.58,12.16,1.84,4.53,1.27,9.69-1.52,13.72-3.05,3.24-7.31,5.06-11.76,5.04-4.39.26-8.77-.42-13.16-.2-17.97.9-31.81,16.19-30.91,34.16.12,2.37.5,4.72,1.12,7.01l-8.23-7.16-10.81-84.05,63.8-9.87-.76,3.37Z" fill="#f8f8f8"/><path d="m128.86-77.53c-3.39,3.39-3.99,8.87-2.59,13.48,1.63,4.53,4.08,8.71,7.24,12.34,3.16,3.62,5.72,7.73,7.58,12.16,1.84,4.53,1.27,9.69-1.52,13.72-3.05,3.24-7.31,5.06-11.76,5.04-4.39.26-8.77-.42-13.16-.2-17.97.9-31.81,16.19-30.91,34.16.12,2.37.5,4.72,1.12,7.01l-8.21-7.16-10.83-84.05,63.8-9.87-.76,3.37Z" fill="#f7f7f7"/><path d="m128.78-77.53c-3.39,3.39-3.99,8.87-2.59,13.48,1.63,4.53,4.09,8.72,7.26,12.34,3.16,3.63,5.71,7.73,7.58,12.16,1.84,4.54,1.26,9.7-1.54,13.72-3.04,3.24-7.3,5.07-11.74,5.04-4.39.26-8.79-.42-13.18-.2-17.97.9-31.81,16.19-30.91,34.16.12,2.37.5,4.72,1.12,7.01l-8.21-7.16-10.83-84.05,63.8-9.87-.76,3.37Z" fill="#f6f6f6"/><path d="m128.7-77.53c-3.39,3.39-3.99,8.87-2.57,13.48,1.61,4.53,4.05,8.72,7.22,12.34,3.16,3.63,5.71,7.73,7.58,12.16,1.82,4.55,1.22,9.71-1.59,13.72-3.04,3.24-7.3,5.07-11.74,5.04-4.39.26-8.79-.42-13.18-.2-17.97.94-31.77,16.27-30.83,34.24.12,2.34.5,4.67,1.12,6.93l-8.21-7.16-10.83-84.05,63.9-9.87-.86,3.37Z" fill="#f5f5f5"/><path d="m128.64-77.53c-3.39,3.39-3.99,8.87-2.59,13.48,1.64,4.53,4.11,8.72,7.3,12.34,3.16,3.62,5.72,7.73,7.58,12.16,1.82,4.55,1.22,9.71-1.59,13.72-3.06,3.23-7.31,5.06-11.76,5.04-4.39.26-8.79-.42-13.18-.2-17.96.91-31.78,16.2-30.88,34.15.12,2.37.5,4.72,1.13,7.01l-8.23-7.14-10.85-84.07,63.92-9.87-.84,3.37Z" fill="#f4f4f4"/><path d="m128.57-77.53c-3.39,3.39-3.99,8.87-2.59,13.48,1.63,4.53,4.08,8.71,7.24,12.34,3.16,3.62,5.72,7.73,7.58,12.16,1.86,4.52,1.32,9.68-1.46,13.72-3.05,3.24-7.31,5.06-11.76,5.04-4.39.26-8.77-.42-13.16-.2-17.97.87-31.84,16.14-30.97,34.11.12,2.39.49,4.76,1.13,7.06l-8.21-7.14-10.79-84.07,63.8-9.87-.8,3.37Z" fill="#f3f3f3"/><path d="m128.49-77.53c-3.39,3.39-3.99,8.87-2.59,13.48,1.63,4.53,4.08,8.71,7.24,12.34,3.17,3.62,5.73,7.73,7.6,12.16,1.83,4.54,1.25,9.69-1.54,13.72-3.07,3.25-7.35,5.08-11.82,5.04-4.37.26-8.77-.42-13.16-.18-17.96.92-31.77,16.22-30.85,34.18.12,2.36.5,4.69,1.12,6.97l-8.21-7.14-10.83-84.07,63.92-9.87-.88,3.37Z" fill="#f2f2f2"/><path d="m128.41-77.53c-3.39,3.39-3.99,8.87-2.59,13.48,1.63,4.53,4.09,8.72,7.26,12.34,3.16,3.63,5.71,7.73,7.58,12.16,1.84,4.54,1.26,9.7-1.54,13.72-3.04,3.24-7.3,5.07-11.74,5.04-4.39.26-8.79-.4-13.18-.18-17.96.89-31.8,16.16-30.91,34.12.12,2.38.49,4.73,1.13,7.03l-8.21-7.14-10.83-84.07,64-9.87-.96,3.37Z" fill="#f1f1f1"/><path d="m128.33-77.53c-3.37,3.39-3.99,8.87-2.57,13.48,1.61,4.53,4.07,8.72,7.24,12.34,3.16,3.63,5.71,7.73,7.58,12.16,1.84,4.54,1.26,9.7-1.54,13.72-3.02,3.22-7.24,5.05-11.66,5.04-4.39.26-8.79-.4-13.18-.18-17.96.84-31.84,16.09-30.99,34.05.11,2.4.49,4.78,1.13,7.1l-8.21-7.14-10.83-84.07,63.9-9.87-.86,3.37Z" fill="#f0f0f0"/><path d="m128.27-77.53c-3.39,3.39-3.99,8.87-2.59,13.48,1.63,4.53,4.08,8.71,7.24,12.34,3.16,3.62,5.72,7.73,7.58,12.16,1.85,4.53,1.28,9.69-1.52,13.72-3.05,3.24-7.31,5.06-11.76,5.04-4.39.26-8.77-.4-13.18-.18-17.96.9-31.79,16.18-30.89,34.14.12,2.37.5,4.72,1.12,7.01l-8.23-7.14-10.83-84.07,63.9-9.87-.84,3.37Z" fill="#efefef"/><path d="m128.19-77.53c-3.39,3.39-3.99,8.87-2.59,13.48,1.63,4.53,4.08,8.71,7.24,12.34,3.16,3.62,5.72,7.73,7.58,12.16,1.85,4.53,1.28,9.69-1.52,13.72-3.05,3.24-7.31,5.06-11.76,5.04-4.39.26-8.77-.4-13.16-.18-17.97.9-31.8,16.2-30.9,34.17.12,2.36.49,4.7,1.12,6.98l-8.21-7.14-10.83-84.07,63.8-9.87-.76,3.37Z" fill="#eee"/><path d="m128.11-77.53c-3.39,3.39-3.99,8.87-2.59,13.48,1.63,4.53,4.09,8.72,7.26,12.34,3.16,3.63,5.71,7.73,7.58,12.16,1.84,4.54,1.26,9.7-1.54,13.72-3.04,3.24-7.3,5.07-11.74,5.04-4.39.26-8.79-.4-13.18-.18-17.97.9-31.8,16.2-30.9,34.17.12,2.36.49,4.7,1.12,6.98l-8.21-7.14-10.83-84.07,63.8-9.87-.76,3.37Z" fill="#ededed"/><path d="m128.03-77.53c-3.39,3.39-3.99,8.87-2.59,13.48,1.63,4.53,4.09,8.72,7.26,12.34,3.16,3.63,5.72,7.74,7.58,12.18,1.84,4.53,1.26,9.68-1.54,13.7-3.04,3.24-7.3,5.07-11.74,5.04-4.39.26-8.79-.4-13.18-.18-17.97.9-31.8,16.2-30.9,34.17.12,2.36.49,4.7,1.12,6.98l-8.21-7.14-10.83-84.07,63.9-9.87-.86,3.37Z" fill="#ececec"/><path d="m127.97-77.53c-3.2,3.71-4.19,8.84-2.59,13.48,1.62,4.53,4.07,8.72,7.24,12.34,3.16,3.63,5.72,7.74,7.58,12.18,1.84,4.53,1.27,9.68-1.52,13.7-3.06,3.23-7.31,5.06-11.76,5.04-4.39.26-8.79-.4-13.18-.18-17.96.9-31.79,16.18-30.89,34.14.12,2.37.5,4.72,1.12,7.01l-8.23-7.14-10.83-84.07,63.9-9.87-.84,3.37Z" fill="#ebebeb"/><path d="m127.89-77.53c-3.18,3.73-4.13,8.86-2.51,13.48,1.6,4.52,4.03,8.7,7.16,12.34,3.17,3.62,5.73,7.74,7.58,12.18,1.84,4.53,1.27,9.68-1.52,13.7-3.05,3.24-7.31,5.06-11.76,5.04-4.39.26-8.77-.4-13.16-.18-17.97.9-31.8,16.2-30.9,34.17.12,2.36.49,4.7,1.12,6.98l-8.21-7.14-10.83-84.07,63.8-9.87-.76,3.37Z" fill="#eaeaea"/><path d="m127.81-77.53c-3.2,3.71-4.19,8.84-2.59,13.48,1.63,4.53,4.08,8.71,7.24,12.34,3.17,3.62,5.73,7.73,7.58,12.18,1.84,4.53,1.27,9.68-1.52,13.7-2.75,3.43-7.38,4.78-11.76,5.04-4.39.26-8.77-.4-13.16-.18-17.97.9-31.8,16.2-30.9,34.17.12,2.36.49,4.7,1.12,6.98l-8.27-7.14-10.77-84.07,63.8-9.87-.76,3.37Z" fill="#e9e9e9"/><path d="m127.73-77.53c-3.2,3.71-4.19,8.84-2.59,13.48,1.63,4.53,4.09,8.72,7.26,12.34,3.16,3.63,5.72,7.74,7.58,12.18,1.84,4.53,1.26,9.68-1.54,13.7-3.04,3.24-7.3,5.07-11.74,5.04-4.39.26-8.79-.4-13.18-.18-17.97.9-31.8,16.2-30.9,34.17.12,2.36.49,4.7,1.12,6.98l-8.19-7.14-10.85-84.07,63.8-9.87-.76,3.37Z" fill="#e8e8e8"/><path d="m127.65-77.53c-3.39,3.41-3.99,8.87-2.57,13.48,1.61,4.53,4.07,8.72,7.24,12.34,3.16,3.63,5.72,7.74,7.58,12.18,1.84,4.53,1.26,9.68-1.54,13.7-3.04,3.24-7.3,5.07-11.74,5.04-4.39.26-8.79-.4-13.18-.18-17.97.9-31.8,16.2-30.9,34.17.12,2.36.49,4.7,1.12,6.98l-8.11-7.14-10.93-84.07,63.8-9.85-.76,3.35Z" fill="#e7e7e7"/><path d="m127.59-77.53c-3.2,3.71-4.19,8.84-2.59,13.48,1.63,4.53,4.08,8.71,7.24,12.34,3.16,3.63,5.72,7.74,7.58,12.18,1.84,4.53,1.27,9.68-1.52,13.7-3.04,3.25-7.31,5.08-11.76,5.04-4.39.26-8.79-.4-13.18-.18-17.97.87-31.83,16.14-30.97,34.11.12,2.38.49,4.74,1.12,7.04l-8.23-7.14-10.75-84.07,63.9-9.85-.84,3.35Z" fill="#e6e6e6"/><path d="m127.51-77.53c-3.2,3.71-4.19,8.84-2.59,13.48,1.63,4.53,4.08,8.71,7.24,12.34,3.16,3.63,5.72,7.74,7.58,12.18,1.84,4.53,1.27,9.68-1.52,13.7-3.04,3.25-7.31,5.08-11.76,5.04-4.39.26-8.77-.4-13.16-.18-17.97.9-31.8,16.2-30.9,34.17.12,2.36.49,4.7,1.12,6.98l-8.21-7.14-10.83-84.07,63.8-9.85-.76,3.35Z" fill="#e5e5e5"/><path d="m127.37-77.53c-3.2,3.71-4.19,8.84-2.59,13.48,1.65,4.53,4.12,8.72,7.3,12.34,3.17,3.63,5.73,7.74,7.6,12.18,1.83,4.53,1.25,9.68-1.54,13.7-3.04,3.24-7.3,5.07-11.74,5.04-4.39.26-8.79-.4-13.18-.18-17.97.94-31.77,16.28-30.82,34.24.12,2.34.5,4.65,1.12,6.91l-8.21-7.14-10.91-84.07,63.8-9.85-.82,3.35Z" fill="#e4e4e4"/><path d="m127.37-77.53c-3.39,3.41-3.99,8.87-2.59,13.48,1.62,4.53,4.08,8.72,7.24,12.34,3.15,3.64,5.71,7.75,7.58,12.18,1.84,4.53,1.26,9.68-1.54,13.7-3.04,3.24-7.3,5.07-11.74,5.04-4.39.26-8.79-.4-13.18-.18-17.97.9-31.8,16.2-30.9,34.17.12,2.36.49,4.7,1.12,6.98l-8.21-7.14-10.83-84.07,63.9-9.85-.84,3.35Z" fill="#e3e3e3"/><path d="m127.37-77.53c-3.18,3.72-4.16,8.85-2.57,13.48,1.58,4.53,4,8.71,7.14,12.34,3.15,3.64,5.71,7.75,7.58,12.18,1.84,4.53,1.27,9.68-1.52,13.7-3.04,3.25-7.31,5.08-11.76,5.04-4.39.26-8.79-.4-13.18-.18-17.97.9-31.8,16.2-30.9,34.17.12,2.36.49,4.7,1.12,6.98l-8.21-7.14-10.83-84.07,63.9-9.85-.76,3.35Z" fill="#e2e2e2"/><path d="m127.21-77.53c-3.2,3.71-4.19,8.84-2.59,13.48,1.63,4.53,4.08,8.71,7.24,12.34,3.16,3.63,5.72,7.74,7.58,12.18,1.84,4.53,1.27,9.68-1.52,13.7-3.04,3.26-7.31,5.09-11.76,5.06-4.39.24-8.77-.42-13.18-.2-17.97.91-31.8,16.22-30.88,34.19.12,2.35.49,4.69,1.12,6.96l-8.23-7.14-10.81-84.07,63.8-9.85-.76,3.35Z" fill="#e1e1e1"/><path d="m127.13-77.53c-3.2,3.71-4.19,8.84-2.59,13.48,1.63,4.53,4.08,8.71,7.24,12.34,3.15,3.63,5.7,7.74,7.56,12.18,1.84,4.53,1.27,9.68-1.52,13.7-3.04,3.26-7.31,5.09-11.76,5.06-4.39.24-8.77-.42-13.16-.2-17.97.91-31.8,16.22-30.88,34.19.12,2.35.49,4.69,1.12,6.96l-8.21-7.14-10.83-84.07,63.8-9.85-.76,3.35Z" fill="#e0e0e0"/><path d="m127.05-77.53c-3.2,3.71-4.19,8.84-2.59,13.48,1.63,4.53,4.09,8.72,7.26,12.34,3.17,3.63,5.74,7.74,7.62,12.18,1.84,4.53,1.26,9.68-1.54,13.7-3.04,3.25-7.29,5.09-11.74,5.06-4.39.24-8.79-.42-13.18-.2-17.97.88-31.82,16.16-30.95,34.13.12,2.37.49,4.73,1.12,7.02l-8.21-7.14-10.83-84.07,63.8-9.85-.76,3.35Z" fill="#dfdfdf"/><path d="m126.97-77.53c-3.39,3.41-3.99,8.87-2.59,13.48,1.63,4.53,4.09,8.72,7.26,12.34,3.15,3.64,5.71,7.75,7.58,12.18,1.84,4.53,1.26,9.68-1.54,13.7-3.04,3.25-7.29,5.09-11.74,5.06-4.39.24-8.79-.42-13.18-.2-17.97.9-31.8,16.2-30.9,34.17.12,2.36.49,4.7,1.12,6.98l-8.21-7.14-10.83-84.07,63.9-9.85-.86,3.35Z" fill="#dedede"/><path d="m126.91-77.53c-3.2,3.71-4.19,8.84-2.59,13.48,1.62,4.53,4.07,8.72,7.24,12.34,3.16,3.63,5.72,7.74,7.58,12.18,1.84,4.53,1.27,9.68-1.52,13.7-3.05,3.24-7.31,5.08-11.76,5.06-4.39.24-8.79-.42-13.18-.2-17.96.9-31.79,16.18-30.89,34.14.12,2.37.5,4.72,1.12,7.01l-8.23-7.14-10.83-84.07,63.9-9.85-.84,3.35Z" fill="#ddd"/><path d="m126.83-77.53c-3.2,3.71-4.19,8.84-2.59,13.48,1.63,4.53,4.08,8.71,7.24,12.34,3.16,3.63,5.72,7.74,7.58,12.18,1.85,4.53,1.28,9.68-1.52,13.7-3.04,3.26-7.31,5.09-11.76,5.06-4.39.24-8.77-.42-13.16-.2-17.97.9-31.8,16.2-30.9,34.17.12,2.36.49,4.7,1.12,6.98l-8.21-7.14-10.83-84.07,63.8-9.85-.76,3.35Z" fill="#dcdcdc"/><path d="m126.75-77.53c-3.2,3.71-4.19,8.84-2.59,13.48,1.62,4.52,4.06,8.71,7.2,12.34,3.17,3.63,5.72,7.74,7.58,12.18,1.85,4.53,1.28,9.68-1.52,13.7-3.04,3.26-7.31,5.09-11.76,5.06-4.39.26-8.77-.42-13.16-.2-17.97.92-31.79,16.24-30.86,34.2.12,2.35.5,4.68,1.12,6.94l-8.21-7.14-10.83-84.07,63.8-9.85-.76,3.35Z" fill="#dbdbdb"/><path d="m126.67-77.53c-3.39,3.41-3.99,8.87-2.59,13.48,1.63,4.53,4.1,8.72,7.28,12.34,3.15,3.64,5.71,7.75,7.58,12.18,1.82,4.54,1.22,9.7-1.59,13.7-3.04,3.25-7.29,5.09-11.74,5.06-4.39.26-8.79-.42-13.18-.2-17.97.92-31.79,16.24-30.86,34.2.12,2.35.5,4.68,1.12,6.94l-8.21-7.14-10.89-84.07,63.8-9.85-.7,3.35Z" fill="#dadada"/><path d="m126.59-77.53c-3.18,3.72-4.16,8.85-2.57,13.48,1.64,4.54,4.13,8.73,7.34,12.34,3.15,3.64,5.71,7.75,7.58,12.18,1.82,4.54,1.22,9.7-1.59,13.7-3.04,3.25-7.29,5.09-11.74,5.06-4.39.26-8.79-.42-13.18-.2-17.97.88-31.82,16.16-30.95,34.13.12,2.37.49,4.73,1.12,7.02l-8.21-7.14-10.81-84.07,63.8-9.85-.78,3.35Z" fill="#d9d9d9"/><path d="m126.53-77.53c-3.2,3.71-4.19,8.84-2.59,13.48,1.63,4.53,4.08,8.71,7.24,12.34,3.16,3.63,5.72,7.74,7.58,12.18,1.88,4.51,1.34,9.66-1.42,13.7-3.04,3.26-7.31,5.09-11.76,5.06-4.39.26-8.77-.42-13.18-.2-17.97.86-31.84,16.12-30.99,34.09.11,2.39.49,4.75,1.12,7.06l-8.23-7.14-10.73-84.07,63.8-9.85-.84,3.35Z" fill="#d8d8d8"/><path d="m126.45-77.53c-3.2,3.71-4.19,8.84-2.59,13.48,1.63,4.53,4.08,8.71,7.24,12.34,3.16,3.63,5.72,7.74,7.58,12.18,1.85,4.53,1.28,9.68-1.52,13.7-3.05,3.26-7.32,5.1-11.78,5.06-4.39.26-8.77-.42-13.16-.2-17.97.91-31.8,16.22-30.88,34.19.12,2.35.49,4.69,1.12,6.96l-8.21-7.14-10.83-84.07,63.96-9.85-.92,3.35Z" fill="#d7d7d7"/><path d="m126.37-77.53c-3.2,3.71-4.19,8.84-2.59,13.48,1.63,4.53,4.09,8.73,7.26,12.36,3.16,3.63,5.71,7.73,7.58,12.16,1.57,4.53,1.48,9.97-1.54,13.7-3.03,3.24-7.27,5.08-11.7,5.06-4.39.26-8.79-.42-13.18-.2-17.97.88-31.82,16.16-30.95,34.13.12,2.37.49,4.73,1.12,7.02l-8.21-7.14-10.83-84.07,63.8-9.85-.76,3.35Z" fill="#d6d6d6"/><path d="m126.29-77.53c-3.39,3.41-3.99,8.87-2.59,13.48,1.63,4.53,4.09,8.73,7.26,12.36,3.16,3.63,5.71,7.73,7.58,12.16,1.84,4.53,1.26,9.69-1.54,13.7-3.04,3.25-7.29,5.09-11.74,5.06-4.39.26-8.79-.42-13.18-.2-17.97.9-31.8,16.2-30.9,34.17.12,2.36.49,4.7,1.12,6.98l-8.21-7.14-10.83-84.07,63.9-9.85-.86,3.35Z" fill="#d5d5d5"/><path d="m126.23-77.53c-3.2,3.71-4.19,8.84-2.59,13.48,1.62,4.54,4.07,8.73,7.24,12.36,3.16,3.63,5.71,7.73,7.58,12.16,1.85,4.53,1.28,9.68-1.52,13.7-3.05,3.24-7.31,5.08-11.76,5.06-4.39.26-8.79-.42-13.18-.2-17.96.9-31.79,16.18-30.89,34.14.12,2.37.5,4.72,1.12,7.01l-8.23-7.14-10.83-84.07,63.9-9.85-.84,3.35Z" fill="#d4d4d4"/><path d="m126.15-77.53c-3.2,3.71-4.19,8.84-2.59,13.48,1.63,4.53,4.08,8.72,7.24,12.36,3.16,3.62,5.72,7.73,7.58,12.16,1.85,4.53,1.28,9.68-1.52,13.7-3.04,3.26-7.31,5.09-11.76,5.06-4.39.26-8.77-.42-13.16-.2-17.97.9-31.8,16.2-30.9,34.17.12,2.36.49,4.7,1.12,6.98l-8.23-7.14-10.81-84.07,63.8-9.85-.76,3.35Z" fill="#d3d3d3"/><path d="m126.07-77.53c-3.2,3.71-4.19,8.84-2.59,13.48,1.63,4.53,4.08,8.72,7.24,12.36,3.17,3.61,5.73,7.72,7.58,12.16,1.85,4.53,1.28,9.68-1.52,13.7-3.04,3.26-7.31,5.09-11.76,5.06-4.39.26-8.77-.42-13.16-.2-17.97.9-31.8,16.2-30.9,34.17.12,2.36.49,4.7,1.12,6.98l-8.21-7.14-10.83-84.07,63.8-9.85-.76,3.35Z" fill="#d2d2d2"/><path d="m125.99-77.53c-3.21,3.71-4.21,8.84-2.61,13.48,1.63,4.53,4.09,8.73,7.26,12.36,3.16,3.63,5.71,7.73,7.58,12.16,1.84,4.53,1.26,9.69-1.54,13.7-3.04,3.25-7.29,5.09-11.74,5.06-4.39.26-8.79-.42-13.18-.2-17.97.91-31.8,16.22-30.88,34.19.12,2.35.49,4.69,1.12,6.96l-8.21-7.14-10.83-84.07,63.8-9.85-.76,3.35Z" fill="#d1d1d1"/><path d="m125.91-77.53c-3.39,3.41-3.93,8.87-2.53,13.48,1.62,4.54,4.07,8.73,7.24,12.36,3.16,3.63,5.71,7.73,7.58,12.16,1.84,4.53,1.26,9.69-1.54,13.7-3.04,3.25-7.29,5.09-11.74,5.06-4.39.26-8.79-.42-13.18-.2-17.97.88-31.82,16.16-30.95,34.13.12,2.37.49,4.73,1.12,7.02l-8.21-7.14-10.83-84.07,63.9-9.85-.86,3.35Z" fill="#d0d0d0"/><path d="m125.85-77.53c-3.2,3.71-4.19,8.84-2.59,13.48,1.62,4.53,4.08,8.73,7.24,12.36,3.16,3.62,5.72,7.73,7.58,12.16,1.85,4.53,1.28,9.68-1.52,13.7-3.05,3.24-7.31,5.08-11.76,5.06-4.39.26-8.79-.42-13.18-.2-17.96.9-31.79,16.18-30.89,34.14.12,2.37.5,4.72,1.12,7.01l-8.31-7.14-10.75-84.07,63.9-9.85-.84,3.35Z" fill="#cfcfcf"/><path d="m125.77-77.53c-3.2,3.71-4.19,8.84-2.59,13.48,1.63,4.53,4.08,8.72,7.24,12.36,3.16,3.62,5.72,7.73,7.58,12.16,1.85,4.53,1.28,9.68-1.52,13.7-3.04,3.26-7.31,5.09-11.76,5.06-4.39.26-8.77-.42-13.16-.2-17.97.9-31.8,16.2-30.9,34.17.12,2.36.49,4.7,1.12,6.98l-8.23-7.14-10.81-84.07,63.8-9.85-.76,3.35Z" fill="#cecece"/><path d="m125.69-77.53c-3.2,3.71-4.19,8.84-2.59,13.48,1.63,4.53,4.08,8.72,7.24,12.36,3.17,3.62,5.73,7.73,7.6,12.16,1.57,4.53,1.48,9.97-1.54,13.7-3.04,3.26-7.31,5.09-11.76,5.06-4.37.26-8.77-.42-13.16-.2-17.97.9-31.81,16.19-30.91,34.16.12,2.37.5,4.72,1.12,7.01l-8.15-7.16-10.89-84.05,63.8-9.87-.76,3.35Z" fill="#cdcdcd"/><path d="m125.61-77.53c-3.39,3.41-3.99,8.87-2.59,13.48,1.63,4.53,4.09,8.73,7.26,12.36,3.16,3.63,5.71,7.73,7.58,12.16,1.84,4.53,1.26,9.69-1.54,13.7-3.04,3.25-7.29,5.09-11.74,5.06-4.39.26-8.79-.42-13.18-.2-17.97.9-31.81,16.19-30.91,34.16.12,2.37.5,4.72,1.12,7.01l-8.21-7.16-10.83-84.05,63.9-9.87-.86,3.35Z" fill="#ccc"/><path d="m125.61-77.53c-3.39,3.41-3.99,8.87-2.59,13.48,1.63,4.53,4.09,8.73,7.26,12.36,3.16,3.63,5.71,7.73,7.58,12.16,1.84,4.53,1.26,9.69-1.54,13.7-3.04,3.25-7.29,5.09-11.74,5.06-4.39.26-8.79-.42-13.18-.2-17.97.9-31.81,16.19-30.91,34.16.12,2.37.5,4.72,1.12,7.01l-8.21-7.16-10.83-84.05,63.9-9.87-.86,3.35Z" fill="url(#linear-gradient-11)"/><path d="m223.7-61.04c-8.51,3.29-15.49,9.64-19.56,17.8-1.61,3.23-2.71,6.7-4.25,9.97-1.39,3.36-3.65,6.29-6.54,8.49-3.99,2.79-9.15,3.17-13.96,3.99-2.49.46-5.28,1.38-6.24,3.71-.64,2.04,0,4.26,1.63,5.64,1.62,1.33,3.57,2.19,5.64,2.47,2.05.31,4.09.73,6.1,1.26,3.35,1.23,6.27,3.43,8.37,6.32,2.09,2.88,3.85,5.98,5.24,9.25l35.61-4.27-12.06-64.63Z" fill="#fff"/><path d="m223.74-61.12c-8.51,3.29-15.48,9.63-19.56,17.78-1.61,3.23-2.73,6.7-4.25,9.97-1.4,3.36-3.65,6.3-6.54,8.51-3.99,2.77-9.15,3.15-13.96,3.99-2.49.46-5.28,1.38-6.24,3.73-.67,2.05-.03,4.31,1.61,5.7,1.62,1.32,3.57,2.19,5.64,2.49,2.07.29,4.11.71,6.12,1.26,3.34,1.21,6.25,3.37,8.37,6.22,2.09,2.87,3.84,5.98,5.22,9.25l35.61-4.27-12.04-64.63Z" fill="#fefefe"/><path d="m223.76-61.28c-8.52,3.34-15.5,9.74-19.56,17.94-1.59,3.25-2.71,6.7-4.25,9.97-1.38,3.36-3.63,6.29-6.52,8.49-3.99,2.77-9.15,3.15-13.96,3.99-2.49.48-5.3,1.38-6.24,3.73-.68,2.06-.04,4.32,1.61,5.72,1.62,1.32,3.57,2.17,5.64,2.47,2.06.3,4.09.72,6.1,1.26,3.35,1.21,6.27,3.38,8.39,6.24,2.09,2.87,3.84,5.96,5.22,9.23l35.61-4.25-12.06-64.79Z" fill="#fdfdfd"/><path d="m223.8-61.28c-8.5,3.31-15.47,9.65-19.56,17.8-1.59,3.25-2.71,6.72-4.25,9.97-1.38,3.36-3.63,6.29-6.52,8.49-3.99,2.77-9.17,3.17-13.96,3.99-2.47.46-5.28,1.38-6.22,3.71-.65,2.03,0,4.26,1.61,5.64,1.62,1.32,3.57,2.17,5.64,2.47,2.05.31,4.09.73,6.1,1.26,3.37,1.28,6.28,3.54,8.35,6.48,2.09,2.88,3.85,5.98,5.24,9.25l35.61-4.27-12.06-64.79Z" fill="#fcfcfc"/><path d="m223.84-61.28c-8.51,3.3-15.48,9.64-19.56,17.8-1.61,3.23-2.71,6.7-4.25,9.97-1.39,3.36-3.64,6.29-6.54,8.49-3.99,2.79-9.15,3.17-13.96,3.99-2.49.46-5.28,1.38-6.24,3.71-.64,2.04,0,4.26,1.63,5.64,1.62,1.33,3.57,2.19,5.64,2.49,2.06.29,4.1.71,6.1,1.26,3.39,1.21,6.35,3.41,8.47,6.32,2.09,2.88,3.85,5.98,5.24,9.25l35.61-4.27-12.16-64.65Z" fill="#fbfbfb"/><path d="m223.88-61.42c-8.51,3.29-15.48,9.64-19.56,17.8-1.61,3.25-2.73,6.7-4.25,9.97-1.4,3.36-3.65,6.28-6.54,8.49-3.99,2.77-9.15,3.15-13.96,3.99-2.49.46-5.28,1.38-6.24,3.73-.64,2.03,0,4.24,1.61,5.62,1.61,1.35,3.56,2.24,5.64,2.57,2.07.29,4.11.71,6.12,1.26,3.38,1.22,6.31,3.42,8.43,6.32,2.09,2.87,3.84,5.96,5.22,9.23l35.61-4.27-12.1-64.71Z" fill="#fafafa"/><path d="m223.9-61.5c-8.5,3.31-15.47,9.65-19.56,17.8-1.59,3.25-2.71,6.72-4.25,9.97-1.38,3.36-3.63,6.29-6.52,8.49-3.99,2.77-9.15,3.15-13.96,3.99-2.49.48-5.3,1.38-6.24,3.73-.65,2.03,0,4.26,1.61,5.64,1.62,1.32,3.57,2.17,5.64,2.47,2.06.3,4.09.72,6.1,1.26,3.38,1.25,6.31,3.48,8.41,6.4,2.09,2.87,3.84,5.97,5.22,9.23l35.61-4.27-12.08-64.71Z" fill="#f9f9f9"/><path d="m223.94-61.56c-8.51,3.29-15.49,9.64-19.56,17.8-1.59,3.23-2.71,6.7-4.25,9.97-1.38,3.36-3.63,6.29-6.52,8.49-3.99,2.79-9.17,3.17-13.96,3.99-2.47.46-5.28,1.38-6.22,3.71-.65,2.03-.01,4.26,1.61,5.64,1.61,1.34,3.55,2.21,5.62,2.51,2.05.31,4.09.73,6.1,1.26,3.36,1.24,6.27,3.46,8.37,6.36,2.09,2.88,3.85,5.98,5.24,9.25l35.61-4.27-12.06-64.71Z" fill="#f8f8f8"/><path d="m223.98-61.64c-8.51,3.3-15.48,9.64-19.56,17.8-1.61,3.23-2.71,6.7-4.25,9.97-1.39,3.35-3.65,6.28-6.54,8.47-3.99,2.77-9.15,3.15-13.96,3.99-2.49.46-5.28,1.38-6.24,3.73-.64,2.03,0,4.25,1.63,5.62,1.61,1.37,3.56,2.27,5.64,2.61,2.06.29,4.1.71,6.1,1.26,3.33,1.23,6.23,3.42,8.33,6.28,2.09,2.88,3.85,5.98,5.24,9.25l35.61-4.27-12.02-64.71Z" fill="#f7f7f7"/><path d="m224.02-61.72c-8.51,3.3-15.48,9.64-19.56,17.8-1.61,3.25-2.73,6.7-4.25,9.97-1.39,3.38-3.64,6.33-6.54,8.55-3.99,2.77-9.15,3.15-13.96,3.99-2.49.48-5.28,1.38-6.24,3.73-.64,2.03,0,4.25,1.61,5.64,1.61,1.36,3.56,2.26,5.64,2.59,2.06.3,4.11.72,6.12,1.26,3.31,1.22,6.2,3.38,8.29,6.22,2.09,2.87,3.84,5.96,5.22,9.23l35.61-4.27-11.96-64.71Z" fill="#f6f6f6"/><path d="m224.04-61.8c-8.5,3.31-15.48,9.66-19.56,17.82-1.59,3.23-2.71,6.7-4.25,9.97-1.38,3.36-3.63,6.29-6.52,8.49-3.99,2.79-9.15,3.17-13.96,3.99-2.49.46-5.3,1.38-6.24,3.71-.66,2.07,0,4.34,1.69,5.72,1.62,1.33,3.57,2.18,5.64,2.47,2.05.31,4.09.73,6.1,1.26,3.36,1.23,6.28,3.43,8.39,6.32,2.09,2.87,3.84,5.98,5.22,9.25l35.61-4.27-12.14-64.73Z" fill="#f5f5f5"/><path d="m224.08-61.86c-8.51,3.3-15.48,9.64-19.56,17.8-1.59,3.23-2.71,6.7-4.25,9.97-1.38,3.36-3.63,6.29-6.52,8.49-3.99,2.79-9.17,3.17-13.96,3.99-2.47.46-5.28,1.38-6.22,3.73-.68,2.06-.03,4.32,1.63,5.7,1.62,1.33,3.57,2.19,5.64,2.49,2.06.29,4.1.71,6.1,1.26,3.36,1.22,6.27,3.41,8.37,6.3,2.09,2.88,3.85,5.98,5.24,9.25l35.61-4.27-12.1-64.71Z" fill="#f4f4f4"/><path d="m224.12-61.94c-8.51,3.3-15.48,9.64-19.56,17.8-1.61,3.25-2.71,6.7-4.25,9.97-1.39,3.36-3.65,6.29-6.54,8.49-3.99,2.77-9.15,3.15-13.96,3.99-2.49.48-5.28,1.38-6.24,3.73-.68,2.06-.03,4.33,1.63,5.72,1.63,1.31,3.57,2.17,5.64,2.47,2.06.29,4.1.71,6.1,1.26,3.35,1.23,6.27,3.43,8.37,6.32,2.09,2.87,3.85,5.97,5.24,9.23l35.61-4.27-12.06-64.71Z" fill="#f3f3f3"/><path d="m224.16-62.02c-8.51,3.3-15.48,9.64-19.56,17.8-1.61,3.25-2.73,6.72-4.25,9.97-1.4,3.36-3.65,6.28-6.54,8.49-3.99,2.77-9.15,3.15-13.96,3.99-2.49.46-5.28,1.36-6.24,3.71-.69,2.06-.06,4.33,1.59,5.74,1.62,1.32,3.57,2.17,5.64,2.47,2.06.31,4.11.72,6.12,1.26,3.35,1.23,6.27,3.43,8.37,6.32,2.09,2.87,3.84,5.98,5.22,9.25l35.61-4.27-12.02-64.73Z" fill="#f2f2f2"/><path d="m224.18-62.08c-8.51,3.3-15.48,9.64-19.56,17.8-1.59,3.23-2.71,6.7-4.25,9.97-1.38,3.36-3.63,6.29-6.52,8.49-3.99,2.79-9.15,3.17-13.96,3.99-2.49.46-5.3,1.38-6.24,3.71-.7,2.05-.09,4.31,1.56,5.72,1.62,1.32,3.57,2.19,5.64,2.49,2.06.29,4.1.71,6.1,1.26,3.36,1.23,6.28,3.42,8.39,6.3,2.09,2.87,3.84,5.98,5.22,9.25l35.61-4.27-12-64.71Z" fill="#f1f1f1"/><path d="m224.22-62.16c-8.51,3.3-15.48,9.64-19.56,17.8-1.59,3.25-2.71,6.7-4.25,9.97-1.38,3.37-3.63,6.31-6.52,8.51-3.99,2.77-9.17,3.15-13.96,3.99-2.47.46-5.28,1.38-6.22,3.73-.65,2.03-.02,4.25,1.61,5.62,1.62,1.33,3.57,2.19,5.64,2.49,2.06.29,4.1.71,6.1,1.26,3.35,1.23,6.27,3.43,8.37,6.32,2.09,2.87,3.85,5.97,5.24,9.23l35.59-4.25-12.06-64.67Z" fill="#f0f0f0"/><path d="m224.26-62.24c-8.5,3.3-15.47,9.65-19.56,17.8-1.61,3.25-2.71,6.7-4.25,9.97-1.39,3.36-3.65,6.29-6.54,8.49-3.99,2.77-9.15,3.15-13.96,3.99-2.49.48-5.28,1.38-6.24,3.73-.64,2.04,0,4.26,1.63,5.64,1.62,1.32,3.57,2.18,5.64,2.47,2.06.3,4.09.72,6.1,1.26,3.35,1.23,6.27,3.43,8.37,6.32,2.08,2.87,3.84,5.97,5.24,9.23l35.61-4.15-12.06-64.75Z" fill="#efefef"/><path d="m224.3-62.3c-8.51,3.28-15.49,9.64-19.56,17.8-1.61,3.23-2.73,6.7-4.25,9.97-1.4,3.36-3.65,6.28-6.54,8.49-3.99,2.79-9.15,3.17-13.96,3.99-2.49.46-5.28,1.38-6.24,3.71-.64,2.03,0,4.25,1.61,5.64,1.62,1.33,3.57,2.18,5.64,2.47,2.06.31,4.11.72,6.12,1.26,3.35,1.23,6.27,3.43,8.37,6.32,2.09,2.87,3.84,5.98,5.22,9.25l35.61-4.09-12.04-64.81Z" fill="#eee"/><path d="m224.32-62.38c-8.5,3.3-15.47,9.65-19.56,17.8-1.59,3.23-2.71,6.7-4.25,9.97-1.38,3.36-3.63,6.3-6.52,8.51-3.99,2.77-9.15,3.15-13.96,3.99-2.49.46-5.3,1.38-6.24,3.73-.65,2.03-.01,4.25,1.61,5.62,1.62,1.32,3.57,2.19,5.64,2.49,2.06.29,4.1.71,6.1,1.26,3.36,1.23,6.27,3.42,8.39,6.3,2.09,2.87,3.84,5.98,5.22,9.25l35.61-4.27-12.06-64.65Z" fill="#ededed"/><path d="m224.36-62.46c-8.51,3.3-15.48,9.64-19.56,17.8-1.59,3.25-2.71,6.7-4.25,9.97-1.38,3.36-3.63,6.29-6.52,8.49-3.99,2.77-9.17,3.15-13.96,3.99-2.47.48-5.28,1.38-6.22,3.73-.65,2.03,0,4.26,1.61,5.64,1.63,1.36,3.61,2.25,5.72,2.55,2.06.3,4.09.72,6.1,1.26,3.35,1.23,6.27,3.43,8.37,6.32,2.05,2.87,3.78,5.96,5.14,9.21l35.61-4.27-12.06-64.69Z" fill="#ececec"/><path d="m224.4-62.54c-8.5,3.3-15.47,9.65-19.56,17.8-1.61,3.25-2.71,6.72-4.25,9.97-1.39,3.36-3.65,6.29-6.54,8.49-3.99,2.77-9.15,3.17-13.96,3.99-2.49.46-5.28,1.38-6.24,3.71-.64,2.04,0,4.26,1.63,5.64,1.63,1.37,3.6,2.26,5.7,2.57,2.05.31,4.09.73,6.1,1.26,3.35,1.23,6.27,3.43,8.37,6.32,2.07,2.89,3.81,6.01,5.18,9.29l35.61-4.27-12.06-64.77Z" fill="#ebebeb"/><path d="m224.44-62.6c-8.51,3.29-15.48,9.64-19.56,17.8-1.61,3.23-2.73,6.7-4.25,9.97-1.39,3.36-3.65,6.29-6.54,8.49-3.99,2.79-9.15,3.17-13.96,3.99-2.49.46-5.28,1.38-6.24,3.71-.64,2.03,0,4.25,1.61,5.64,1.62,1.36,3.59,2.25,5.68,2.57,2.07.29,4.11.71,6.12,1.26,3.36,1.22,6.27,3.41,8.37,6.3,2.09,2.87,3.84,5.98,5.22,9.25l35.61-4.27-12.08-64.71Z" fill="#eaeaea"/><path d="m224.46-62.68c-8.5,3.3-15.47,9.65-19.56,17.8-1.59,3.25-2.71,6.7-4.25,9.97-1.38,3.36-3.63,6.29-6.52,8.49-3.99,2.77-9.15,3.15-13.96,3.99-2.49.46-5.3,1.38-6.24,3.73-.65,2.03-.02,4.25,1.61,5.62,1.61,1.35,3.56,2.24,5.64,2.57,2.06.29,4.1.71,6.1,1.26,3.36,1.23,6.28,3.43,8.39,6.32,2.09,2.87,3.84,5.96,5.22,9.23l35.61-4.27-12.06-64.71Z" fill="#e9e9e9"/><path d="m224.5-62.76c-8.5,3.3-15.47,9.65-19.56,17.8-1.59,3.25-2.71,6.72-4.25,9.97-1.39,3.35-3.64,6.28-6.52,8.49-3.99,2.77-9.17,3.15-13.96,3.99-2.47.48-5.28,1.38-6.22,3.73-.65,2.03,0,4.26,1.61,5.64,1.59,1.34,3.52,2.22,5.58,2.55,2.06.3,4.09.72,6.1,1.26,3.35,1.23,6.27,3.43,8.37,6.32,2.08,2.87,3.84,5.97,5.24,9.23l35.61-4.27-12.02-64.71Z" fill="#e8e8e8"/><path d="m224.54-62.82c-8.51,3.29-15.49,9.64-19.56,17.8-1.61,3.23-2.71,6.7-4.25,9.97-1.39,3.36-3.65,6.29-6.54,8.49-3.99,2.79-9.15,3.17-13.96,3.99-2.49.46-5.28,1.38-6.24,3.71-.64,2.04,0,4.26,1.63,5.64,1.58,1.35,3.51,2.23,5.56,2.55,2.08.29,4.14.7,6.18,1.22,3.35,1.23,6.27,3.43,8.37,6.32,2.09,2.88,3.85,5.98,5.24,9.25l35.61-4.27-12.06-64.67Z" fill="#e7e7e7"/><path d="m224.58-62.9c-8.47,3.31-15.41,9.66-19.46,17.8-1.61,3.23-2.73,6.7-4.25,9.97-1.39,3.36-3.65,6.3-6.54,8.51-3.99,2.77-9.15,3.15-13.96,3.99-2.49.46-5.28,1.38-6.24,3.73-.64,2.03,0,4.24,1.61,5.62,1.62,1.32,3.57,2.19,5.64,2.49,2.07.29,4.11.71,6.12,1.26,3.35,1.23,6.26,3.42,8.37,6.3,2.09,2.87,3.84,5.98,5.22,9.25l35.61-4.27-12.14-64.65Z" fill="#e6e6e6"/><path d="m224.6-62.98c-8.47,3.32-15.41,9.67-19.48,17.8-1.59,3.25-2.71,6.7-4.25,9.97-1.38,3.36-3.63,6.29-6.52,8.49-3.99,2.77-9.15,3.15-13.96,3.99-2.49.48-5.3,1.38-6.24,3.73-.65,2.03,0,4.26,1.61,5.64,1.62,1.32,3.57,2.17,5.64,2.47,2.06.3,4.09.72,6.1,1.26,3.36,1.24,6.28,3.44,8.39,6.32,2.09,2.89,3.85,6.02,5.22,9.31l35.61-4.27-12.14-64.71Z" fill="#e5e5e5"/><path d="m224.64-63.05c-8.49,3.31-15.45,9.67-19.52,17.82-1.59,3.23-2.71,6.7-4.25,9.97-1.39,3.35-3.64,6.28-6.52,8.49-3.99,2.79-9.17,3.17-13.96,3.99-2.47.46-5.28,1.38-6.22,3.71-.66,2.02-.05,4.24,1.56,5.64,1.62,1.33,3.57,2.19,5.64,2.47,2.05.31,4.09.73,6.1,1.26,3.35,1.23,6.27,3.43,8.37,6.32,2.11,2.9,3.88,6.03,5.28,9.33l35.61-4.27-12.1-64.73Z" fill="#e4e4e4"/><path d="m224.68-63.11c-8.5,3.29-15.48,9.63-19.56,17.78-1.61,3.23-2.71,6.7-4.25,9.97-1.39,3.36-3.64,6.29-6.54,8.49-3.99,2.79-9.15,3.17-13.96,3.99-2.49.46-5.28,1.38-6.24,3.73-.69,2.06-.04,4.34,1.63,5.72,1.62,1.33,3.57,2.19,5.64,2.49,2.06.29,4.1.71,6.1,1.26,3.35,1.2,6.26,3.36,8.37,6.22,2.09,2.9,3.85,6.03,5.24,9.33l35.61-4.27-12.06-64.71Z" fill="#e3e3e3"/><path d="m224.72-63.27c-8.55,3.32-15.54,9.72-19.6,17.94-1.61,3.25-2.73,6.7-4.25,9.97-1.4,3.36-3.65,6.28-6.54,8.49-3.99,2.77-9.15,3.15-13.96,3.99-2.49.48-5.28,1.38-6.24,3.73-.67,2.07-.02,4.33,1.65,5.72,1.63,1.31,3.58,2.16,5.64,2.47,2.07.29,4.11.71,6.12,1.26,3.34,1.21,6.26,3.38,8.37,6.24,2.08,2.87,3.83,5.98,5.2,9.25l35.61-4.27-12.02-64.79Z" fill="#e2e2e2"/><path d="m224.74-63.27c-8.52,3.3-15.51,9.64-19.62,17.8-1.59,3.25-2.71,6.72-4.25,9.97-1.38,3.36-3.63,6.29-6.52,8.49-3.99,2.77-9.15,3.15-13.96,3.99-2.49.48-5.3,1.38-6.24,3.73-.65,2.03,0,4.26,1.61,5.64,1.62,1.32,3.57,2.17,5.64,2.47,2.05.31,4.09.73,6.1,1.26,3.4,1.27,6.34,3.51,8.45,6.46,2.06,2.86,3.8,5.94,5.16,9.19l35.61-4.27-12-64.73Z" fill="#e1e1e1"/><path d="m224.78-63.27c-8.51,3.29-15.49,9.64-19.56,17.8-1.59,3.23-2.71,6.7-4.25,9.97-1.39,3.35-3.64,6.28-6.52,8.49-3.99,2.79-9.17,3.17-13.96,3.99-2.47.46-5.28,1.38-6.22,3.71-.65,2.03-.01,4.26,1.61,5.64,1.62,1.33,3.57,2.19,5.64,2.49,2.06.29,4.1.71,6.1,1.26,3.36,1.22,6.27,3.41,8.37,6.3,2.09,2.88,3.85,5.98,5.24,9.25l35.61-4.27-12.08-64.63Z" fill="#e0e0e0"/><path d="m224.82-63.41c-8.51,3.3-15.48,9.64-19.56,17.8-1.61,3.25-2.71,6.7-4.25,9.97-1.38,3.37-3.64,6.31-6.54,8.51-3.99,2.77-9.15,3.15-13.96,3.99-2.49.46-5.28,1.38-6.24,3.73-.64,2.03,0,4.25,1.63,5.62,1.62,1.33,3.57,2.19,5.64,2.49,2.06.29,4.1.71,6.1,1.26,3.35,1.23,6.27,3.43,8.37,6.32,2.09,2.87,3.85,5.96,5.24,9.23l35.61-4.27-12.06-64.65Z" fill="#dfdfdf"/><path d="m224.86-63.49c-8.51,3.3-15.48,9.64-19.56,17.8-1.61,3.25-2.73,6.7-4.25,9.97-1.4,3.36-3.65,6.28-6.54,8.49-3.99,2.77-9.15,3.15-13.96,3.99-2.49.48-5.28,1.38-6.24,3.73-.65,2.03,0,4.26,1.61,5.64,1.62,1.32,3.57,2.17,5.64,2.47,2.06.3,4.11.72,6.12,1.26,3.35,1.23,6.27,3.43,8.37,6.32,2.09,2.87,3.84,5.97,5.22,9.23l35.61-4.27-12.04-64.63Z" fill="#dedede"/><path d="m224.88-63.55c-8.51,3.3-15.48,9.64-19.56,17.8-1.59,3.23-2.71,6.7-4.25,9.97-1.38,3.36-3.63,6.29-6.52,8.49-3.99,2.79-9.15,3.17-13.96,3.99-2.49.46-5.3,1.38-6.24,3.71-.65,2.03,0,4.26,1.61,5.64,1.61,1.34,3.57,2.21,5.64,2.51,2.05.31,4.09.73,6.1,1.26,3.36,1.24,6.28,3.44,8.39,6.32,2.09,2.87,3.84,5.98,5.22,9.25l35.69-4.23-12.14-64.71Z" fill="#ddd"/><path d="m224.92-63.63c-8.51,3.3-15.48,9.64-19.56,17.8-1.59,3.23-2.71,6.7-4.25,9.97-1.4,3.35-3.64,6.27-6.52,8.47-3.99,2.77-9.17,3.15-13.96,3.99-2.47.46-5.28,1.38-6.22,3.73-.65,2.03-.01,4.25,1.61,5.62,1.6,1.37,3.54,2.27,5.62,2.61,2.06.29,4.1.71,6.1,1.26,3.35,1.23,6.26,3.42,8.37,6.3,2.09,2.88,3.85,5.98,5.24,9.25l35.65-4.29-12.1-64.71Z" fill="#dcdcdc"/><path d="m225.06-63.71c-8.51,3.3-15.48,9.64-19.56,17.8-1.61,3.25-2.71,6.7-4.25,9.97-1.41,3.39-3.7,6.35-6.64,8.55-3.99,2.77-9.15,3.15-13.96,3.99-2.49.48-5.28,1.38-6.24,3.73-.64,2.04,0,4.26,1.63,5.64,1.6,1.37,3.56,2.27,5.64,2.59,2.06.3,4.09.72,6.1,1.26,3.35,1.23,6.27,3.43,8.37,6.32,2.09,2.87,3.85,5.97,5.24,9.23l35.61-4.37-11.96-64.71Z" fill="#dbdbdb"/><path d="m225.06-63.79c-8.51,3.3-15.48,9.64-19.56,17.8-1.61,3.25-2.73,6.72-4.25,9.97-1.4,3.36-3.65,6.28-6.54,8.49-3.99,2.77-9.15,3.17-13.96,3.99-2.49.46-5.28,1.36-6.24,3.71-.65,2.03,0,4.26,1.61,5.64,1.62,1.32,3.57,2.17,5.64,2.47,2.06.31,4.1.73,6.12,1.26,3.35,1.23,6.27,3.43,8.37,6.32,2.09,2.87,3.84,5.98,5.22,9.25L237.02.94l-11.96-64.73Z" fill="#dadada"/><path d="m225.06-63.85c-8.5,3.3-15.47,9.65-19.56,17.8-1.59,3.23-2.71,6.7-4.25,9.97-1.38,3.36-3.63,6.29-6.52,8.49-3.99,2.79-9.15,3.17-13.96,3.99-2.47.46-5.28,1.38-6.22,3.71-.65,2.03-.01,4.26,1.61,5.64,1.62,1.32,3.57,2.19,5.64,2.49,2.06.29,4.1.71,6.1,1.26,3.36,1.23,6.27,3.42,8.39,6.3,2.09,2.87,3.84,5.98,5.22,9.25L237.02.86l-11.96-64.71Z" fill="#d9d9d9"/><path d="m225.06-63.93c-8.51,3.3-15.48,9.64-19.56,17.8-1.59,3.25-2.71,6.7-4.25,9.97-1.39,3.35-3.64,6.28-6.52,8.49-3.99,2.77-9.17,3.15-13.96,3.99-2.47.46-5.28,1.38-6.22,3.73-.65,2.03-.02,4.25,1.61,5.62,1.62,1.33,3.57,2.19,5.64,2.49,2.06.29,4.1.71,6.1,1.26,3.35,1.23,6.27,3.43,8.37,6.32,2.09,2.87,3.85,5.97,5.24,9.23L237.14.7l-12.08-64.63Z" fill="#d8d8d8"/><path d="m225.06-64.01c-8.5,3.3-15.47,9.65-19.56,17.8-1.61,3.25-2.71,6.72-4.25,9.97-1.39,3.36-3.65,6.29-6.54,8.49-3.99,2.77-9.15,3.15-13.96,3.99-2.49.48-5.28,1.38-6.24,3.73-.64,2.04,0,4.26,1.63,5.64,1.62,1.33,3.57,2.18,5.64,2.47,2.06.3,4.09.72,6.1,1.26,3.35,1.23,6.27,3.43,8.37,6.32,2.08,2.87,3.84,5.97,5.24,9.23L237.12.62l-12.06-64.63Z" fill="#d7d7d7"/><path d="m225.06-64.07c-8.51,3.28-15.49,9.64-19.56,17.8-1.61,3.23-2.73,6.7-4.25,9.97-1.4,3.36-3.65,6.28-6.54,8.49-3.99,2.79-9.15,3.17-13.96,3.99-2.49.46-5.28,1.38-6.24,3.71-.65,2.03-.01,4.26,1.61,5.64,1.62,1.33,3.57,2.18,5.64,2.47,2.06.31,4.1.73,6.12,1.26,3.35,1.23,6.27,3.43,8.37,6.32,2.09,2.87,3.84,5.98,5.22,9.25L237.1.56l-12.04-64.63Z" fill="#d6d6d6"/><path d="m225.16-64.15c-8.5,3.3-15.47,9.65-19.56,17.8-1.59,3.23-2.71,6.7-4.25,9.97-1.38,3.37-3.63,6.31-6.52,8.51-3.99,2.77-9.15,3.15-13.96,3.99-2.47.46-5.28,1.38-6.22,3.73-.65,2.03-.01,4.25,1.61,5.62,1.62,1.32,3.57,2.19,5.64,2.49,2.06.29,4.1.71,6.1,1.26,3.35,1.24,6.27,3.43,8.39,6.3,2.09,2.87,3.84,5.98,5.22,9.25L237.22.52l-12.06-64.67Z" fill="#d5d5d5"/><path d="m225.2-64.23c-8.5,3.3-15.47,9.65-19.56,17.8-1.59,3.25-2.71,6.7-4.25,9.97-1.39,3.35-3.64,6.28-6.52,8.49-3.99,2.77-9.17,3.15-13.96,3.99-2.47.48-5.28,1.38-6.22,3.73-.65,2.03,0,4.26,1.61,5.64,1.62,1.32,3.57,2.18,5.64,2.47,2.06.3,4.09.72,6.1,1.26,3.35,1.23,6.27,3.43,8.37,6.32,2.09,2.87,3.85,5.97,5.24,9.23L237.26.52l-12.06-64.75Z" fill="#d4d4d4"/><path d="m225.24-64.31c-8.51,3.3-15.48,9.66-19.56,17.82-1.61,3.23-2.71,6.7-4.25,9.97-1.39,3.36-3.65,6.29-6.54,8.49-3.99,2.79-9.15,3.17-13.96,3.99-2.49.46-5.28,1.38-6.24,3.71-.64,2.04,0,4.26,1.63,5.64,1.62,1.33,3.57,2.18,5.64,2.47,2.05.31,4.09.73,6.1,1.26,3.35,1.23,6.27,3.43,8.37,6.32,2.09,2.88,3.85,5.98,5.24,9.25L237.3.52l-12.06-64.83Z" fill="#d3d3d3"/><path d="m225.28-64.37c-8.51,3.29-15.48,9.64-19.56,17.8-1.61,3.23-2.73,6.7-4.25,9.97-1.39,3.36-3.65,6.29-6.54,8.49-3.99,2.79-9.15,3.17-13.96,3.99-2.49.46-5.28,1.38-6.24,3.73-.65,2.03-.01,4.25,1.61,5.62,1.62,1.32,3.57,2.19,5.64,2.49,2.06.29,4.11.71,6.12,1.26,3.36,1.22,6.27,3.41,8.37,6.3,2.09,2.87,3.84,5.98,5.22,9.25L237.32.26l-12.04-64.63Z" fill="#d2d2d2"/><path d="m225.3-64.45c-8.5,3.3-15.47,9.65-19.56,17.8-1.59,3.25-2.71,6.7-4.25,9.97-1.38,3.36-3.63,6.29-6.52,8.49-3.99,2.77-9.15,3.15-13.96,3.99-2.47.48-5.28,1.38-6.22,3.73-.65,2.03,0,4.26,1.61,5.64,1.63,1.31,3.58,2.16,5.64,2.47,2.06.29,4.1.71,6.1,1.26,3.36,1.24,6.28,3.44,8.39,6.32,2.09,2.89,3.83,6,5.2,9.29L237.36.24l-12.06-64.69Z" fill="#d1d1d1"/><path d="m225.34-64.53c-8.5,3.3-15.47,9.65-19.56,17.8-1.59,3.25-2.71,6.72-4.25,9.97-1.39,3.35-3.64,6.28-6.52,8.49-3.99,2.77-9.17,3.15-13.96,3.99-2.47.48-5.28,1.38-6.22,3.73-.65,2.03,0,4.26,1.61,5.64,1.62,1.32,3.57,2.18,5.64,2.47,2.05.31,4.09.73,6.1,1.26,3.35,1.23,6.27,3.43,8.37,6.32,2.09,2.92,3.84,6.06,5.22,9.37L237.4.24l-12.06-64.77Z" fill="#d0d0d0"/><path d="m225.38-64.59c-8.51,3.29-15.49,9.64-19.56,17.8-1.61,3.23-2.71,6.7-4.25,9.97-1.39,3.36-3.65,6.29-6.54,8.49-3.99,2.79-9.15,3.17-13.96,3.99-2.49.46-5.28,1.38-6.24,3.71-.64,2.04,0,4.26,1.63,5.64,1.61,1.33,3.56,2.19,5.62,2.49,2.07.29,4.11.71,6.12,1.26,3.36,1.22,6.27,3.41,8.37,6.3,2.09,2.88,3.85,5.98,5.24,9.25L237.44.04l-12.06-64.63Z" fill="#cfcfcf"/><path d="m225.42-64.67c-8.51,3.29-15.48,9.64-19.56,17.8-1.61,3.25-2.73,6.7-4.25,9.97-1.37,3.36-3.6,6.29-6.46,8.51-3.99,2.77-9.15,3.15-13.96,3.99-2.49.46-5.28,1.38-6.24,3.73-.65,2.03-.01,4.25,1.61,5.62,1.62,1.32,3.57,2.19,5.64,2.49,2.06.29,4.11.71,6.12,1.26,3.35,1.23,6.27,3.43,8.37,6.32,2.09,2.86,3.85,5.96,5.22,9.23L237.54-.02l-12.12-64.65Z" fill="#cecece"/><path d="m225.44-64.75c-8.5,3.31-15.47,9.65-19.56,17.8-1.59,3.25-2.71,6.7-4.25,9.97-1.37,3.36-3.6,6.3-6.48,8.51-3.99,2.77-9.15,3.15-13.96,3.99-2.47.48-5.28,1.38-6.22,3.73-.65,2.03,0,4.26,1.61,5.64,1.62,1.32,3.57,2.17,5.64,2.47,2.06.3,4.09.72,6.1,1.26,3.36,1.24,6.28,3.44,8.39,6.32,2.09,2.87,3.84,5.96,5.22,9.23L237.56-.1l-12.12-64.65Z" fill="#cdcdcd"/><path d="m225.48-64.81c-8.51,3.29-15.49,9.64-19.56,17.8-1.59,3.23-2.71,6.7-4.25,9.97-1.39,3.35-3.64,6.28-6.52,8.49-3.99,2.79-9.17,3.17-13.96,3.99-2.47.46-5.28,1.38-6.22,3.71-.65,2.03,0,4.26,1.61,5.64,1.62,1.33,3.57,2.19,5.64,2.47,2.05.31,4.09.73,6.1,1.26,3.35,1.23,6.27,3.43,8.37,6.32,2.09,2.88,3.85,5.98,5.24,9.25L237.56-.17l-12.08-64.63Z" fill="#ccc"/><path d="m225.48-64.81c-8.51,3.29-15.49,9.64-19.56,17.8-1.59,3.23-2.71,6.7-4.25,9.97-1.39,3.35-3.64,6.28-6.52,8.49-3.99,2.79-9.17,3.17-13.96,3.99-2.47.46-5.28,1.38-6.22,3.71-.65,2.03,0,4.26,1.61,5.64,1.62,1.33,3.57,2.19,5.64,2.47,2.05.31,4.09.73,6.1,1.26,3.35,1.23,6.27,3.43,8.37,6.32,2.09,2.88,3.85,5.98,5.24,9.25L237.56-.17l-12.08-64.63Z" fill="url(#linear-gradient-12)"/></g></g></g></svg>