<?xml version="1.0" encoding="UTF-8" standalone="no"?>
<svg id="Layer_1" xmlns="http://www.w3.org/2000/svg" xml:space="preserve" viewBox="0 0 220 80" version="1.1" y="0px" x="0px" xmlns:xlink="http://www.w3.org/1999/xlink" enable-background="new 0 0 220 80">
<path id="lal" d="m191.4 55.2c3.2 3.3 9.9 4.2 16.8 2.1 0.8-0.2 1-1.6 0.8-3.7l9.2-2.8c1.1-0.3 1.7-1.5 1.4-2.5-0.4-1.1-1.6-1.6-2.7-1.3l-8.7 2.7c-0.2-0.8-0.5-1.5-0.7-2.3-0.3-0.8-0.6-1.6-0.9-2.3l8.7-2.7c1.1-0.3 1.8-1.5 1.4-2.5-0.4-1.1-1.6-1.6-2.7-1.3l-9.2 2.8c-1.1-1.8-2.2-2.7-3-2.5-6.8 2.1-11.6 6.5-12.1 10.8 0 0.4-0.4 0.8-0.8 0.9 0 0-37.6 7.4-86 7.2-58.4-0.2-85.7-11.4-100.2-15-0.9-0.2-1.8-0.2-2.2 0.6s0.1 1.5 0.9 1.9c0.5 0.2 37.5 21.1 101.4 21.1 44.4 0 72.5-7.3 87.5-11.4l0.2-0.1h0.4c0-0.1 0.2 0 0.5 0.3z" fill="#FFD900" clip-rule="evenodd" fill-rule="evenodd"/>
<path id="lil" d="m127.5 27.8c-0.3 1.9-0.6 4.3-0.6 4.3l-0.4 2.5-1.3-3.7c-0.9-2.5-2.9-8.5-3.8-13.7h-14.1c-0.1 0.3-4.8 28.6-4.9 29.1h9.5c0.1-0.3 1.8-10.3 2.1-12.2s0.9-5.9 0.9-5.9 0.9 3.5 1.3 4.8c0.4 1.3 1.8 6.3 2.3 7.7 2 5.6 4.7 6.3 10.1 6.3 1.7 0 3.5-0.2 5.4-0.5 0-0.3 4.8-28.7 4.9-29.1h-9.5c-0.1 0.1-1.6 8.5-1.9 10.4zm31.4-3.4c1.5 0 3.3 0.3 4.7 0.6 0.1-0.3 2.1-7.7 2.2-8.1-1.7-0.4-4-0.5-5.1-0.5-12.5 0-19.5 8.3-20.8 16-0.7 4.3 0.1 7.9 2.3 10.3 2.3 2.5 6.2 3.9 11.3 3.9 2.5 0 5.2-0.3 7.5-0.9 0-0.3 0.5-7.7 0.6-8.2-1.4 0.4-3 0.7-4.6 0.7-2.1 0-3.9-0.7-5-1.9s-1.6-3-1.2-5c0.8-4.7 4.7-6.9 8.1-6.9zm29.5 7.2c-0.6 5-4 6.8-7.1 6.8-1.6 0-3-0.5-4-1.5-1.2-1.2-1.7-3.1-1.4-5.4 0.5-4.6 3.9-6.6 6.9-6.6 1.7 0 3.1 0.5 4.1 1.6 1.3 1.1 1.8 2.9 1.5 5.1zm7.5-11c2.2 2.2 3.3 5.2 3.3 8.9l-0.1 1.6c-0.1 1.3-0.4 2.6-0.8 3.8-6.5 2.2-11.5 6.5-13.5 11.4-1.6 0.4-3.1 0.5-4.6 0.5-5 0-9.1-1.4-11.7-4-2.2-2.2-3.4-5.4-3.4-9.2l0.1-1.5c0.8-9.8 10.2-15.6 18.8-15.6 5.1 0 9.3 1.4 11.9 4.1zm-136.2-3.5h-9.9c-0.1 0.3-3.6 21.5-3.6 21.5l-0.3 2.6c0 1.5 0.3 2.6 1 3.4 1 1.1 2.8 1.6 5.6 1.6h10.5c0.1-0.3 1.4-8.1 1.4-8.5h-8.3c0.1 0 3.5-20.1 3.6-20.6zm-14.7 7.3h-11.4l-0.9 5.4h7.7c-0.1 0.4-1.1 6.7-1.2 7h-7.6s-1.4 8.4-1.5 8.8c-0.4-0.1-9.2-2.3-9.5-2.3 0.1-0.3 3-18.1 3-18.1 0.9-5.2 2.7-8.1 9.3-8.1h13.4c-0.1 0.4-1.3 7-1.3 7.3zm35.7 11.6l0.1-0.3 4.8-9.9 1.5 10.2h-6.4zm7.9-19.5c-4.5 0-7.3 0.8-9.3 4.7 0 0-12.9 24.4-13.2 24.9h9.8c0.1-0.2 1.8-3.7 1.8-3.7h10.6s0.5 3.4 0.6 3.7h11c-0.1-0.4-5.6-28.8-5.7-29.1-2-0.3-3.8-0.5-5.6-0.5z" fill="#003373" clip-rule="evenodd" fill-rule="evenodd"/>
<div class="logosor fallback"/>
</svg>
