<svg xmlns="http://www.w3.org/2000/svg" width="163" height="57" viewBox="0 0 51.234 17.89"><defs><clipPath id="a" clipPathUnits="userSpaceOnUse"><path d="M0 0h420.945v595.276H0Z"/></clipPath></defs><g clip-path="url(#a)" transform="matrix(.35278 0 0 -.35278 -69.731 199.5)"><path d="M0 0a1.706 1.706 0 0 1-2.412-2.41A1.71 1.71 0 0 1 0-2.41 1.707 1.707 0 0 1 0 0m4.524-4.524a1.706 1.706 0 1 1-2.41-2.412 1.706 1.706 0 0 1 2.41 2.412M-9.049 0a1.703 1.703 0 1 1-2.41-2.407A1.703 1.703 0 0 1-9.049 0m4.525-4.524a1.71 1.71 0 0 1-2.412 0 1.71 1.71 0 0 1 0-2.412 1.71 1.71 0 0 1 2.412 0 1.71 1.71 0 0 1 0 2.412M0-9.049a1.702 1.702 0 0 1-2.412 0 1.703 1.703 0 0 1 0-2.41 1.71 1.71 0 0 1 2.412 0 1.707 1.707 0 0 1 0 2.41m4.524-4.524a1.704 1.704 0 1 1-2.411-2.41 1.704 1.704 0 0 1 2.411 2.41m-18.097 9.049a1.706 1.706 0 1 1-2.408-2.412 1.706 1.706 0 0 1 2.408 2.412m4.524-4.525a1.7 1.7 0 0 1-2.41 0 1.707 1.707 0 0 1 0-2.41 1.703 1.703 0 1 1 2.41 2.41m4.525-4.524a1.706 1.706 0 1 1-2.412-2.412 1.706 1.706 0 0 1 2.412 2.412M0-18.096a1.706 1.706 0 0 1-2.412 0 1.7 1.7 0 0 1 0-2.408A1.704 1.704 0 0 1 0-18.096m-13.573 4.523a1.703 1.703 0 1 1-2.41-2.41 1.703 1.703 0 1 1 2.41 2.41m4.524-4.523a1.703 1.703 0 1 1-2.41-2.407 1.703 1.703 0 0 1 2.41 2.407M6.24-35.61a5.293 5.293 0 0 0-3.762 1.558l-8.208 8.206-8.146-8.141a5.277 5.277 0 0 0-3.762-1.559 5.272 5.272 0 0 0-3.759 1.559l-8.071 8.069a5.325 5.325 0 0 0 0 7.521l8.146 8.144-8.208 8.208a5.275 5.275 0 0 0-1.556 3.759 5.29 5.29 0 0 0 1.554 3.762l8.071 8.069a5.282 5.282 0 0 0 3.762 1.558 5.275 5.275 0 0 0 3.759-1.558l8.21-8.206 8.21 8.206a5.27 5.27 0 0 0 3.76 1.558 5.27 5.27 0 0 0 3.759-1.558l8.072-8.069a5.283 5.283 0 0 0 1.556-3.76 5.284 5.284 0 0 0-1.554-3.759l-8.211-8.21 8.209-8.208a5.283 5.283 0 0 0 1.556-3.76 5.276 5.276 0 0 0-1.554-3.759l-8.074-8.072A5.286 5.286 0 0 0 6.24-35.61m-1.9 3.42a2.669 2.669 0 0 1 1.9-.788c.717 0 1.392.28 1.898.788l8.071 8.069a2.69 2.69 0 0 1 0 3.798l-10.07 10.07L16.209-.184a2.687 2.687 0 0 1 0 3.798L8.14 11.683a2.664 2.664 0 0 1-1.9.786 2.663 2.663 0 0 1-1.9-.786L-5.73 1.614l-10.072 10.069a2.654 2.654 0 0 1-1.897.786 2.66 2.66 0 0 1-1.9-.786l-8.072-8.069a2.67 2.67 0 0 1-.785-1.9c0-.717.279-1.392.787-1.898l10.07-10.069-10.008-10.006a2.69 2.69 0 0 1 0-3.798l8.072-8.071a2.666 2.666 0 0 1 1.897-.786c.72 0 1.395.28 1.9.786L-5.73-22.12Z" style="fill:#f36e21;fill-opacity:1;fill-rule:nonzero;stroke:none" transform="translate(228.749 550.408)"/></g><path d="M110.892 79.41h1.3v11.184h-1.3z" style="fill:#f36e21;fill-opacity:1;fill-rule:nonzero;stroke:none;stroke-width:.352778" transform="translate(-80.754 -77.173)"/><path d="M0 0v-20.402L-5.503 0h-4.063v-31.705h3.683v20.401L-.38-31.705h4.062V0Z" style="fill:#f36e21;fill-opacity:1;fill-rule:nonzero;stroke:none" transform="matrix(.35278 0 0 -.35278 41.848 2.236)"/><path d="M0 0v-14.013h-4.368V0H-8.05v-31.705h3.682v14.01H0v-14.01h3.682V0Z" style="fill:#f36e21;fill-opacity:1;fill-rule:nonzero;stroke:none" transform="matrix(.35278 0 0 -.35278 22.967 2.236)"/><path d="M0 0v-1.661C.45-.986 1.347.361 3.503.361c3.1 0 3.548-2.652 3.548-4.312v-16.861c0-2.111-.63-4.895-3.682-4.895-1.571 0-2.605.762-3.369 2.02v-8.004h-3.638V0Zm3.458-5.209c0 1.168-.134 2.38-1.616 2.38C0-2.829 0-4.626 0-5.749v-14.57c0-.582 0-2.154 1.753-2.154 1.526 0 1.705 1.39 1.705 2.289z" style="fill:#f36e21;fill-opacity:1;fill-rule:nonzero;stroke:none" transform="matrix(.35278 0 0 -.35278 33.75 4.475)"/><path d="M0 0v3.053h2.246v6.34h3.593v-6.34H7.86V0H5.794v-18.092c0-1.257.627-1.526 1.571-1.526h.495v-2.739a7.877 7.877 0 0 0-1.842-.225c-3.145 0-3.862 1.032-3.862 3.773V0Z" style="fill:#f36e21;fill-opacity:1;fill-rule:nonzero;stroke:none" transform="matrix(.35278 0 0 -.35278 48.461 5.55)"/><path d="M0 0c0-3.951-1.661-6.018-5.478-6.018-2.786 0-5.211 1.123-5.211 5.489v15.615c0 2.639 1.618 5.019 5.391 5.019 3.232 0 5.298-1.616 5.298-5.433V5.561h-7.141v-6.729c0-.719.09-1.932 1.663-1.932 1.841 0 1.841 1.571 1.841 2.201V2.69H0Zm-3.637 14.941c0 1.168-.135 2.201-1.661 2.201-1.753 0-1.843-1.347-1.843-2.604V8.526h3.504z" style="fill:#f36e21;fill-opacity:1;fill-rule:nonzero;stroke:none" transform="matrix(.35278 0 0 -.35278 29.11 11.44)"/><path d="M0 0c0-3.951-1.661-6.018-5.48-6.018-2.784 0-5.209 1.123-5.209 5.489v15.615c0 2.639 1.618 5.019 5.388 5.019 3.235 0 5.301-1.616 5.301-5.433V5.561h-7.141v-6.729c0-.719.09-1.932 1.661-1.932 1.842 0 1.842 1.571 1.842 2.201V2.69H0Zm-3.638 14.941c0 1.168-.134 2.201-1.663 2.201-1.75 0-1.84-1.347-1.84-2.604V8.526h3.503z" style="fill:#f36e21;fill-opacity:1;fill-rule:nonzero;stroke:none" transform="matrix(.35278 0 0 -.35278 47.946 11.44)"/></svg>
