<svg xmlns="http://www.w3.org/2000/svg" viewBox="0 0 1494.15 378.69"><defs><style>.cls-1{fill:#363736;}</style></defs><g id="Layer_2" data-name="Layer 2"><g id="Layer_1-2" data-name="Layer 1"><polygon class="cls-1" points="61.76 0 0 0 0 374.43 254.05 374.43 254.05 314.27 61.76 314.27 61.76 0"/><path class="cls-1" d="M804.51,96.38A119.27,119.27,0,0,0,747.41,82c-23.66,0-43.56,5.06-59.15,15a148.39,148.39,0,0,0-18.36,13.86V86.29H608.14V374.43H669.9V210.12c0-13.92,3.15-26.3,9.39-36.78a65.73,65.73,0,0,1,25-24.55,71.15,71.15,0,0,1,35.16-8.73c19.05,0,34.05,6.1,45.85,18.66,12,12.76,17.82,29.4,17.82,50.86V374.43h61.76V208.52c0-27.06-5.61-50.33-16.69-69.18S822.38,106,804.51,96.38Z"/><path class="cls-1" d="M1105.52,215.42a262.77,262.77,0,0,0-44.74-13.07c-14.85-3-29.1-6.15-42.38-9.47-12.2-3-22.17-7.11-29.62-12.08-5.48-3.65-7.92-8.41-7.92-15.43,0-7.5,0-27.44,52.48-27.44,19.36,0,33.61,3.35,41.21,9.71s11.88,13.68,13,22.28l1.2,9.55H1151l-1.31-12.08a92,92,0,0,0-15.38-41.66c-8.68-12.9-21.39-23.55-37.78-31.66-16.19-8-37.08-12-62.08-12-36.72,0-65.19,7.46-84.62,22.19-20.36,15.42-30.69,37.25-30.69,64.88,0,19.05,5.25,34.51,15.6,45.94,9.66,10.66,22.18,19,37.22,24.7a298,298,0,0,0,44.51,13c14.83,3.14,29.13,6.43,42.49,9.77,12.13,3,22,7.22,29.37,12.43,5.66,4,8.19,9.16,8.19,16.67,0,6.21-1.56,11-4.76,14.66a35.36,35.36,0,0,1-14.14,9.81,87.94,87.94,0,0,1-20.15,5.21,141,141,0,0,1-18.23,1.5c-15.32,0-27.7-2.23-36.81-6.64-8.7-4.2-15.15-9.63-19.17-16.15a52.71,52.71,0,0,1-7.77-21.4L974.3,269H911.41l.79,11.65a99,99,0,0,0,16.72,48.71c9.93,14.9,24.37,27,42.94,36,18.28,8.86,40.76,13.35,66.81,13.35,35.14,0,63.84-7.56,85.31-22.45,22.73-15.76,34.25-38.76,34.25-68.36,0-19.31-5.2-35.07-15.47-46.85C1133.12,230,1120.59,221.37,1105.52,215.42Z"/><path class="cls-1" d="M493.24,102.05c-21.37-13.29-47.06-20-76.34-20-28.91,0-54.49,6.72-76,20a134.47,134.47,0,0,0-49.8,53.85c-11.4,22.23-17.18,47.3-17.18,74.49,0,26.91,6.08,51.93,18.06,74.38a138.62,138.62,0,0,0,51.12,54C365,372,390.69,378.69,419.57,378.69c33.87,0,62.15-8.36,84.05-24.83a142,142,0,0,0,47.56-63.09l1.66-4.3h-68a77.74,77.74,0,0,1-23.33,23.45c-10.91,7.12-24.85,10.74-41.44,10.74-15.78,0-29.74-3.38-41.51-10a76.74,76.74,0,0,1-28.31-27.13,96.26,96.26,0,0,1-11.2-26.25H559.91V230.36c0-27.19-5.78-52.26-17.19-74.49A134.93,134.93,0,0,0,493.24,102.05Zm-153.17,96.1a88.51,88.51,0,0,1,23-38.34c13.45-13.29,31.06-19.75,53.85-19.75s40.53,6.47,54.17,19.79a85.42,85.42,0,0,1,22.86,38.3Z"/><path class="cls-1" d="M1478,340.51V86.29h-61.75v25.42a122.08,122.08,0,0,0-22.54-15.59C1376.37,86.77,1355.55,82,1331.81,82c-27.9,0-52.71,6.75-73.74,20.06a136.32,136.32,0,0,0-48.88,53.78c-11.4,22.23-17.18,47.3-17.18,74.49,0,26.83,5.77,51.79,17.16,74.18a135.79,135.79,0,0,0,48.9,54.08c21,13.32,45.84,20.07,73.74,20.07,23.75,0,44.57-4.74,61.91-14.1a125.53,125.53,0,0,0,22.54-15.47v25.31h77.89V340.51Zm-69.28-64.37a76.71,76.71,0,0,1-27.36,32.54c-11.76,7.95-26.65,12-44.23,12-17.31,0-32.33-4.07-44.66-12.09A78.28,78.28,0,0,1,1263.87,276a103.83,103.83,0,0,1-10.11-45.59c0-16.71,3.4-32.12,10.08-45.82a79,79,0,0,1,28.64-32.39c12.34-8,27.37-12.09,44.66-12.09,12.68,0,23.95,2.11,33.67,6.26a50,50,0,1,0,47.53,87.35A107.88,107.88,0,0,1,1408.73,276.14Z"/></g></g></svg>