<svg xmlns="http://www.w3.org/2000/svg" xmlns:xlink="http://www.w3.org/1999/xlink" viewBox="0 0 603.58 592.65">
  <defs>
    <radialGradient id="a" cx="301.79" cy="231.71" r="375.39" fx="301.79" fy="231.71" gradientUnits="userSpaceOnUse">
      <stop offset="0" stop-color="#565759"/>
      <stop offset="1"/>
    </radialGradient>
    <radialGradient xlink:href="#a" id="b" cx="302.07" cy="543.13" r="219.46" fx="302.07" fy="543.13"/>
  </defs>
  <path fill="url(#a)" d="M483.08 463.41c-74.82-.19-148.79-.21-211.27-.21l-149.15.02c-3.94 0-6.63-.69-7.97-2.06-1.37-1.39-2.07-4.16-2.07-8.23v-13.82c.03-29.35.05-59.7.2-89.54.03-6.38-2.62-10.5-8.36-12.96-23.1-9.91-43.45-23.96-60.48-41.76-19.84-20.73-33.22-44.78-39.77-71.48-5.68-29.07-5.61-53.86.2-78.01 6.53-29.93 18.71-53.65 37.29-72.65C65.28 48.6 96.45 34.19 137 28.66c10.09-1.38 20.47-2.07 30.86-2.07 23.15 0 46.74 3.31 72.12 10.12 35.88 9.63 71.07 24.33 104.58 43.7 3.98 2.3 8.29 3.52 12.47 3.52 7.58 0 14.27-3.98 17.91-10.66 5.75-10.55 1.65-22.78-9.76-29.07-7.72-4.26-15.96-8.78-24.46-13.1-5.15-2.62-6.12-5.07-6-8.18.05-1.33.18-4.88 7.1-7.11 23.07-7.45 42.4-12.14 60.82-14.77 2.07-.3 13.07-1.01 28.03-1.01 17.93 0 43.6 1.01 64.13 5.82 28.54 7.26 53.48 21.93 72 42.4 18.51 20.47 30.7 46.85 35.26 76.28.07.46 6.89 46.24-8.84 94-17.78 40.44-47.82 69.75-91.84 89.61-6.33 2.85-9.14 7.12-9.11 13.83.07 17.52.07 35.04.06 52.56 0 26.03-.01 52.94.23 79.42.03 2.69-.91 5.12-2.63 6.86-1.69 1.71-4.05 2.62-6.82 2.62h-.03Z"/>
  <path fill="url(#b)" d="M154.64 592.65c-.68-.17-1.35-.35-2.03-.52-2.01-.51-4.03-.8-5.89-1.36-20.55-6.18-34.88-25.7-35.03-47.19-.1-14.47-.03-29.05.04-41.58.03-5.56 2.91-8.38 8.56-8.38 59.92-.01 119.86-.02 179.79-.02s122.32 0 183.48.02c2.02 0 4.8.38 6.59 2.21 1.34 1.36 2 3.38 1.97 6.01-.08 5.53.05 11.09.18 16.47.26 11.15.5 21.67-.91 32.16-2.84 21.18-18.56 37.77-40.23 41.76-.97.18-1.34.34-2.55.42H154.64Z"/>
  <path fill="#fff" d="M387.61 247.52c12.83-.26 23.86-4.59 32.32-14.11 16.72-18.81 33.1-37.93 49.62-56.93 5.79-6.66 11.65-13.27 17.31-20.04 2.97-3.55 2.72-7.92-.17-10.62-2.87-2.68-7.83-2.33-11.04.81-.7.68-1.31 1.46-1.96 2.19-17.02 19.21-34.04 38.41-51.06 57.62-4.16 4.7-9.43 5.49-13.27 1.98-3.89-3.56-3.56-8.67.82-13.35 17.88-19.09 35.76-38.19 53.63-57.29 4.2-4.49 4.78-9.72 1.48-13.04-3.28-3.29-8.65-2.68-13.06 1.52-1.18 1.13-2.32 2.3-3.5 3.44-17.84 17.3-35.66 34.62-53.53 51.89-4.22 4.08-9.69 4.06-12.98.18-3.26-3.85-2.53-8.7 1.66-12.55 19.49-17.92 38.95-35.88 58.39-53.85 3.98-3.68 4.54-8.44 1.59-11.66-2.87-3.13-7.62-2.92-11.77.79-24.36 21.81-48.72 43.61-72.98 65.53-13.19 11.91-17.42 26.8-13.75 44.02 1.83 8.57.33 16.32-5.62 22.83-2.63 2.87-6.11 4.97-8.74 7.84-3.32 3.62-5.86 3.32-9.25-.02-19.48-19.24-39.73-37.67-59.99-56.09-21.03-19.11-42.66-37.41-66.33-53.18-18.71-12.47-38.37-23.04-60.04-29.5-1.32-.39-2.57-.93-3.52.42-.81 1.16.05 2.15.64 3.12 2.35 3.92 4.5 7.98 7.07 11.76 11.45 16.87 24.01 32.85 37.51 48.16 14.76 16.74 29.97 33.05 45.35 49.2 19.66 20.64 39.75 40.86 59.69 61.23 2.54 2.59 2.81 4.59-.23 7.23-10.73 9.32-21.3 18.84-31.84 28.38-16.24 14.7-32.61 29.25-48.24 44.6-6.31 6.2-10.15 13.5-11.01 22.35-1.18 12.13 9.24 22.67 21.66 21.38 10.28-1.06 17.81-6.53 24.51-13.86 23.5-25.69 46.33-51.98 69.03-78.37 2.34-2.72 3.88-2.74 6.26-.27 13.1 13.6 26.29 27.13 39.45 40.68 13.97 14.39 27.48 29.25 42.05 43 11.3 10.67 21.7 9.94 28.84-2.44 2.81-4.87 3.65-10.66 3.51-16.57-.2-8.27-2.67-13.65-10.62-15.49-12.73-2.96-20.66-11.56-28.8-20.64-11-12.26-22.88-23.66-36.07-33.64-6.5-4.92-12.92-9.96-19.31-15.04-3.36-2.68-3.83-5.3-.66-8.98 7.35-8.54 14.27-17.46 21.25-26.3 6.6-8.36 15.06-11.6 25.53-9.79 3.37.58 6.78.98 10.17 1.46ZM197.93 550.39c0-5.72.13-11.45-.03-17.16-.25-9.16-4.78-14.57-13.66-16.59-3.88-.88-7.89-1.1-11.66-.01-4.05 1.17-7.73.97-11.83.04-14.74-3.35-25.19 3.89-25.48 17.5-.23 11.11.03 22.23-.1 33.34-.03 2.75.82 3.57 3.6 3.66 13.05.39 13.05.48 13.05-12.71 0-8.01-.02-16.02.01-24.03 0-2.32.06-5.12 2.98-5.35 3.52-.28 3.19 2.99 3.63 5.27.18.95.04 1.96.04 2.94v22.56c0 11.34 0 11.17 11.53 11.35 3.86.06 5-1.04 4.91-4.89-.24-10.46-.17-20.92 0-31.38.04-2.41-.31-6 3.49-5.83 3.4.15 2.88 3.41 2.9 5.77.07 7.85.03 15.69.03 23.54 0 13.58 0 13.52 13.57 12.76 2.32-.13 3.12-.77 3.07-3.1-.13-5.88-.04-11.77-.05-17.65Zm207.49.24h-.03c0-5.72.25-11.46-.05-17.16-.63-12.06-7.35-17.58-20.72-17.38-11.81.17-18.49 6.44-18.78 17.98-.2 8.17-.04 16.35-.04 24.52 0 12.81 0 12.71 12.79 12.57 2.95-.03 3.94-.73 3.88-3.82-.19-10.46-.08-20.93-.06-31.39 0-1.46 0-2.97.35-4.37.36-1.45 1.21-2.73 3.05-2.65 1.57.07 2.36 1.09 2.6 2.47.32 1.75.61 3.54.62 5.32.07 7.36.03 14.72.03 22.07 0 12.64 0 12.55 12.47 12.35 2.94-.04 4.05-.81 3.94-3.85-.2-5.55-.06-11.12-.06-16.68Zm53.3-14.41c10.05 0 10.66-1.06 6.36-9.45-2.42-4.72-6.15-7.99-11.15-9.73-6.34-2.19-12.76-2.36-19.2-.44-11.76 3.5-18.35 13.55-18.17 27.6.17 13.25 7.51 23.71 18.83 26.82 13.45 3.7 27.01-2.53 31.13-14.29 2.37-6.78 2.01-7.28-5.2-7.29-1.8 0-3.6.11-5.39-.03-2.69-.2-4.57.2-5.35 3.42-.8 3.28-3.41 5.08-6.83 5.42-3.64.36-6.29-1.3-8.25-4.23-3.32-4.97-3.3-16.16.02-21.14 3.29-4.95 10.89-6.13 13.68-1.32 2.72 4.68 6.04 5.15 9.53 4.66Zm-162.55 9.8c6.62-5.66 8.65-12.13 6.13-18.87-2.31-6.18-7.89-9.52-16.09-9.56-6.7-.03-13.4.15-20.09-.07-3.48-.12-4.43 1.14-4.38 4.5.17 12.08.07 24.17.07 36.26 0 13.54 0 13.45 13.44 12.88 2.7-.12 3.28-1.07 3.2-3.48-.14-4.24.08-8.5-.08-12.74-.11-2.9 1.06-3.31 3.55-2.57 4.08 1.22 4.87 4.51 5.15 8.01.23 2.92.1 5.88.1 8.82 0 1.96 1.39 2.03 2.7 1.85 4.35-.6 10.11 2.29 12.81-1.4 3.75-5.13-.76-18.95-6.49-23.63Zm-15.83-5.34c-2.71.43-2.19-2.16-1.84-3.83.48-2.26-2.18-5.97 1.84-6.59 3.11-.48 6.32.92 6.4 5.01.07 3.69-2.42 5.02-6.41 5.41Zm-30.93 9.76c0-5.22.1-10.45-.02-15.66-.31-12.87-6.82-18.8-20.38-18.7-12.49.1-19.09 6.58-19.21 18.99-.08 7.83-.01 15.66-.01 23.5 0 13.07 0 12.97 13.22 12.6 2.95-.08 3.53-1.14 3.43-3.74-.17-4.4.05-8.81-.08-13.21-.08-2.47.23-3.86 3.32-3.83 3 .02 3.62 1.26 3.41 3.82-.14 1.62-.02 3.26-.02 4.89 0 12.48 0 12.4 12.71 12.06 2.68-.07 3.77-.75 3.69-3.57-.17-5.71-.05-11.42-.05-17.13Zm-20.04-12.6c-2.93.26-3.14-1.38-2.99-3.58.16-2.31.17-5.14 3.11-5.2 3.79-.08 2.94 3.51 3.34 4.77.69 4.19-1.46 3.83-3.47 4.01Zm124.05 12.6c0-5.22.11-10.45-.02-15.66-.31-12.87-6.82-18.8-20.38-18.7-12.49.1-19.09 6.58-19.21 18.99-.08 7.83-.01 15.66-.01 23.5 0 13.08 0 12.97 13.22 12.6 2.95-.08 3.53-1.14 3.43-3.74-.17-4.4.05-8.81-.08-13.21-.08-2.47.23-3.86 3.32-3.83 3 .02 3.62 1.26 3.41 3.82-.14 1.62-.02 3.26-.02 4.89 0 12.48 0 12.4 12.71 12.06 2.68-.07 3.77-.75 3.69-3.57-.17-5.71-.05-11.42-.05-17.13Zm-20.11-12.61c-3.01.3-3.05-1.52-2.91-3.64.15-2.31.2-5.14 3.17-5.14 3.77 0 2.88 3.58 3.31 4.93.63 4.17-1.62 3.66-3.56 3.85Z"/>
</svg>
