<?xml version="1.0" encoding="utf-8"?>
<!-- Generator: Adobe Illustrator 27.0.1, SVG Export Plug-In . SVG Version: 6.00 Build 0)  -->
<svg version="1.1" id="Layer_1" xmlns="http://www.w3.org/2000/svg" xmlns:xlink="http://www.w3.org/1999/xlink" x="0px" y="0px"
	 viewBox="0 0 150 37.3" style="enable-background:new 0 0 150 37.3;" xml:space="preserve">
<style type="text/css">
	.st0{fill:#214AFF;}
	.st1{fill:#21B9FF;}
</style>
<g id="Group_334" transform="translate(-260.001 -21)">
	<g id="Group_2" transform="translate(349.635 21)">
		<path id="Path_2" class="st0" d="M7.5,37.3H1.1l0-25.1h6.4L7.5,37.3z"/>
		<path id="Path_3" class="st0" d="M8.2,5.9c0.2-0.5,0.4-1.1,0.4-1.7c0-0.6-0.1-1.1-0.3-1.6C8,2.1,7.7,1.6,7.3,1.3
			C6.9,0.9,6.5,0.6,6,0.4C5.4,0.1,4.9,0,4.3,0C3.7,0,3.1,0.1,2.6,0.4c-0.5,0.2-1,0.5-1.4,0.9C0.9,1.7,0.5,2.1,0.3,2.6
			C0.1,3.1,0,3.7,0,4.3c0,0.6,0.1,1.1,0.3,1.7c0.2,0.5,0.5,1,0.9,1.4C1.6,7.7,2.1,8,2.6,8.2c0.5,0.2,1.1,0.3,1.7,0.3
			c0.6,0,1.1-0.1,1.7-0.3c0.5-0.2,1-0.5,1.4-0.9C7.7,6.9,8,6.4,8.2,5.9z"/>
	</g>
	<path id="Path_5" class="st0" d="M348.3,44.8c0,1.9-0.3,3.8-1,5.5c-0.6,1.6-1.6,3-2.7,4.3c-1.2,1.2-2.5,2.1-4.1,2.8
		c-1.6,0.7-3.3,1-5,1c-1.7,0-3.4-0.3-5-1c-1.5-0.7-2.9-1.6-4.1-2.8c-1.2-1.2-2.1-2.7-2.7-4.3c-0.7-1.7-1-3.6-1-5.5l0-22.8h6.4l0,12
		c0.4-0.5,0.8-0.9,1.2-1.2c0.5-0.3,1-0.6,1.6-0.9c0.6-0.2,1.2-0.4,1.8-0.5c0.6-0.1,1.2-0.2,1.8-0.2c3.4,0,6.7,1.4,9.1,3.9
		c1.2,1.3,2.1,2.7,2.7,4.3C348,41.1,348.4,42.9,348.3,44.8z M341.9,44.8c0-0.9-0.2-1.9-0.5-2.8c-0.3-0.8-0.8-1.6-1.4-2.2
		c-0.6-0.6-1.3-1.1-2-1.5c-0.8-0.4-1.6-0.5-2.5-0.5c-0.9,0-1.7,0.2-2.5,0.6c-0.8,0.4-1.4,0.9-2,1.6c-0.6,0.7-1,1.4-1.4,2.2
		c-0.3,0.8-0.5,1.7-0.5,2.6c0,0.9,0.2,1.9,0.5,2.8c0.3,0.8,0.8,1.6,1.4,2.2c0.6,0.6,1.3,1.1,2,1.5c0.8,0.4,1.6,0.5,2.5,0.5
		c0.8,0,1.7-0.2,2.5-0.5c0.8-0.4,1.5-0.9,2-1.5c0.6-0.6,1.1-1.4,1.4-2.2C341.7,46.6,341.9,45.7,341.9,44.8L341.9,44.8z"/>
	<path id="Path_6" class="st0" d="M365.9,58.3l-6.4,0l-0.1-25.1h1.5l2.1,2.4c2.1-1.9,4.8-2.9,7.6-2.9c1.5,0,3,0.3,4.3,0.9
		c1.3,0.6,2.5,1.4,3.6,2.4c1,1,1.8,2.2,2.4,3.6c0.6,1.4,0.9,2.9,0.9,4.4l0,14.3l-6.4,0l0-14.3c0-0.6-0.1-1.3-0.4-1.8
		c-0.2-0.6-0.6-1.1-1-1.5c-0.4-0.4-1-0.8-1.5-1c-0.6-0.2-1.2-0.4-1.8-0.4c-2,0-3.7,1.1-4.5,3c-0.2,0.6-0.4,1.2-0.4,1.8L365.9,58.3z"
		/>
	<g id="Group_3" transform="translate(294.525 32.094)">
		<path id="Path_7" class="st1" d="M6.1,12.3C6.6,8.6,9.9,6,13.6,6.5c3,0.4,5.4,2.8,5.8,5.8h6.1C25.2,5.2,19.3-0.3,12.3,0
			C5.6,0.2,0.2,5.6,0,12.3L6.1,12.3z"/>
		<path id="Path_8" class="st1" d="M19.3,13.9c-0.4,3.6-3.8,6.2-7.4,5.8c-3-0.4-5.4-2.8-5.8-5.8H0c0.3,7,6.2,12.5,13.2,12.3
			c6.7-0.2,12-5.6,12.3-12.3L19.3,13.9z"/>
	</g>
	<g id="Group_4" transform="translate(384.463 32.189)">
		<path id="Path_9" class="st1" d="M12,19.7c-3.6-0.4-6.2-3.8-5.8-7.4c0.4-3,2.8-5.4,5.8-5.8V0C4.7,0.6-0.6,7,0,14.2
			c0.6,6.3,5.6,11.4,11.9,11.9L12,19.7z"/>
		<path id="Path_10" class="st1" d="M13.6,0v6.5c3.6,0.4,6.2,3.8,5.8,7.4c-0.4,3-2.8,5.4-5.8,5.8v6.5c7.2-0.6,12.6-7,11.9-14.2
			C24.9,5.6,19.9,0.6,13.6,0L13.6,0z"/>
	</g>
	<path id="Path_29" class="st0" d="M291.9,58.3h-6.4l0-15.9c0-1.8-1.4-3.2-3.2-3.2c-0.4,0-0.9,0.1-1.3,0.3c-0.4,0.2-0.7,0.4-1,0.7
		c-0.3,0.3-0.5,0.6-0.7,1c-0.2,0.4-0.2,0.8-0.2,1.2l0,15.9h-6.4l0-15.9c0-1.3-0.8-2.5-2-3c-0.8-0.3-1.7-0.3-2.5,0
		c-0.4,0.2-0.7,0.4-1,0.7c-0.3,0.3-0.5,0.6-0.7,1c-0.2,0.4-0.2,0.8-0.2,1.2l0,15.9H260l0-25.1h1.5l1.7,1.9c0.9-0.7,1.9-1.3,2.9-1.7
		c1.1-0.4,2.2-0.6,3.3-0.6c1.2,0,2.3,0.2,3.4,0.7c1.2,0.5,2.2,1.3,2.9,2.3c0.4-0.5,0.8-1,1.3-1.4c1-0.7,2.1-1.2,3.3-1.4
		c0.6-0.1,1.2-0.2,1.8-0.2c3.8,0,7.3,2.3,8.8,5.9c0.5,1.2,0.8,2.5,0.7,3.7L291.9,58.3z"/>
</g>
</svg>
