<svg xmlns="http://www.w3.org/2000/svg" width="103.997" height="48" viewBox="0 0 103.997 48">
  <g id="Group_1725" data-name="Group 1725" transform="translate(-262.158 -349)">
    <path id="Path_3947" data-name="Path 3947" d="M291,349a13.577,13.577,0,0,0,.976,3.536c1.178,3.185,3.037,6.586,6.01,8.4,2.27,1.385,4.956,2,7.332.571a9.335,9.335,0,0,0-1.866-3.191,22.942,22.942,0,0,0-5.121-5.064,13.627,13.627,0,0,0-2.415-1.491,6.851,6.851,0,0,1,2.415,1.224,22.994,22.994,0,0,1,5.808,5.159,17.26,17.26,0,0,0,1.869,2.5c1.026-2.5-.039-4.955-1.714-6.9a11.917,11.917,0,0,0-4.928-3.228A23.568,23.568,0,0,0,291,349m16.733,11.472h.172a22.091,22.091,0,0,1,5.779-5.664,13.1,13.1,0,0,1,2.933-1.581c-1.314.935-2.734,1.63-3.968,2.7a19.408,19.408,0,0,0-3.45,3.857c-.224.334-.958,1.112-.713,1.537.234.406.9.582,1.317.693a6.668,6.668,0,0,0,4.226-.531c3.005-1.376,4.83-4.143,6.191-7.046a11.235,11.235,0,0,0,1.226-3.623c-3.978,0-8.767.595-11.73,3.537C308.073,355.981,307,358.163,307.733,360.472Z" transform="translate(-26.354 0)" fill="#63993d"/>
    <path id="Path_3948" data-name="Path 3948" d="M342,377l.086.086L342,377m.173.086a.978.978,0,0,0,.345.173.978.978,0,0,0-.345-.173m21.65,1.38.086.086-.086-.086m-.173.086.086.086-.086-.086m-.431.172a.654.654,0,0,0,.345,0A.654.654,0,0,0,363.219,378.725Z" transform="translate(-72.955 -25.585)" fill="#63993d"/>
    <path id="Path_3949" data-name="Path 3949" d="M1375.973,521.541a4.142,4.142,0,0,0-1.553-.2,4.492,4.492,0,0,0-1.984.57,4.321,4.321,0,0,0-.69,6.793,4.461,4.461,0,0,0,3.537,1.035,3.892,3.892,0,0,0,1.38-.444A4.3,4.3,0,0,0,1375.973,521.541Zm1.229,5.714a3.114,3.114,0,0,1-.8.825,3,3,0,0,1-1.121.5,3.12,3.12,0,0,1-3.459-4.341,3.166,3.166,0,0,1,.871-1.093,2.843,2.843,0,0,1,1.207-.587A3.117,3.117,0,0,1,1377.2,527.255Z" transform="translate(-1012.651 -157.468)" fill="#63993d"/>
    <path id="Path_3950" data-name="Path 3950" d="M1403.587,548.837a1.359,1.359,0,0,0,.341-2.354c-.708-.5-2.1-.233-2.929-.233V550.3h.863V549.01c.929.011,1.024.81,1.74,1.205a2.216,2.216,0,0,0,1.021.089C1404.4,549.733,1403.891,549.363,1403.587,548.837Zm-.35-.705a3.088,3.088,0,0,1-1.375.1v-1.208a3.112,3.112,0,0,1,1.446.1A.585.585,0,0,1,1403.237,548.132Z" transform="translate(-1040.612 -180.171)" fill="#63993d"/>
    <path id="Path_3951" data-name="Path 3951" d="M1031,604v25.445h6.469V607.45a3.715,3.715,0,0,0-.731-2.648,3.594,3.594,0,0,0-2.806-.8Z" transform="translate(-702.526 -233.005)" fill="#63993d"/>
    <path id="Path_3952" data-name="Path 3952" d="M743.232,528.841a10.1,10.1,0,0,0-10.782-1.581,6.307,6.307,0,0,0-3.019,2.867,8.926,8.926,0,0,1-.086-2.415v-4.658c0-1.566-.431-3.037-2.156-3.406a21.049,21.049,0,0,0-4.313-.131v18.113c0,3.588-.263,7.428,1.709,10.609,2.652,4.278,8.615,4.808,13.127,4.061a11.011,11.011,0,0,0,4.658-1.832,10.126,10.126,0,0,0,3.7-5.679,18.223,18.223,0,0,0,.534-4.054C746.775,536.719,746.357,531.782,743.232,528.841Zm-3.274,11.637c-.107,2.433-.766,5.1-3.194,6.183a4.805,4.805,0,0,1-1.294.335,6.135,6.135,0,0,1-1.811-.028,5.073,5.073,0,0,1-1.466-.436c-3.03-1.519-3.087-6.015-2.685-8.9.353-2.532,1.569-4.966,4.324-5.4a6.2,6.2,0,0,1,1.811,0,4.67,4.67,0,0,1,1.294.375C739.792,533.971,740.08,537.719,739.957,540.478Z" transform="translate(-420.968 -155.768)" fill="#63993d"/>
    <path id="Path_3953" data-name="Path 3953" d="M294.885,521.725a8.007,8.007,0,0,0-1.861-1.751,9.247,9.247,0,0,0-5-1.182c-2.738,0-5.461.583-8.194.516-1.838-.045-3.685-.312-5.52-.438a14.012,14.012,0,0,0-2.76-.042,10.176,10.176,0,0,0-3.968,1.074,7.875,7.875,0,0,0-2.186,2.081,15.44,15.44,0,0,0-2.719,5.865,21.324,21.324,0,0,0-.45,6.469c.333,4.863,1.51,9.738,4.618,13.628a9.679,9.679,0,0,0,2.463,2.376,9.882,9.882,0,0,0,5.693.991c2.078-.091,4.125-.358,6.21-.348,2.482.012,4.928.664,7.418.308,3.85-.551,6.273-4.017,7.713-7.381a27.042,27.042,0,0,0,2.041-8.884C298.7,530.343,297.929,525.446,294.885,521.725Zm-7.274,20.1a8.578,8.578,0,0,1-3.817,4.026,8.258,8.258,0,0,1-2.588.693,7.85,7.85,0,0,1-1.984-.05c-4.178-.582-6.342-4.361-7.278-8.119a18.449,18.449,0,0,1-.493-3.105c-.269-3.675.087-8.084,3.458-10.343a10.708,10.708,0,0,1,4.917-1.437,7.116,7.116,0,0,1,1.294.046,8.045,8.045,0,0,1,7.467,5.179,13.171,13.171,0,0,1,.73,4.14A18.473,18.473,0,0,1,287.611,541.822Z" transform="translate(0 -155.129)" fill="#63993d"/>
    <path id="Path_3954" data-name="Path 3954" d="M1031,521v5h6.469c0-1.216.244-2.8-.431-3.881s-1.888-1.121-3.02-1.121H1031" transform="translate(-702.526 -157.164)" fill="#63993d"/>
    <path id="Path_3955" data-name="Path 3955" d="M1168.089,611.665c-.13-2.955-.717-6.135-2.7-8.453-2.184-2.548-5.369-3.364-8.6-3.364a15.159,15.159,0,0,0-1.984.037,9.5,9.5,0,0,0-9.131,7.726,23.379,23.379,0,0,0-.537,7.332c.2,2.964.938,6.051,3.041,8.277,2.646,2.8,7.051,3.288,10.681,2.825a11.367,11.367,0,0,0,3.278-.864,9.061,9.061,0,0,0,2.156-1.293C1167.808,620.877,1168.278,615.987,1168.089,611.665Zm-6.739,2.674a10.875,10.875,0,0,1-.362,2.156c-.546,1.949-1.659,3.514-3.77,3.844a4.476,4.476,0,0,1-4.983-3.067,13.966,13.966,0,0,1-.2-8.022,4.613,4.613,0,0,1,3.633-3.671,7.115,7.115,0,0,1,1.553-.03c3.524.247,4.23,4.417,4.227,7.238C1161.443,613.3,1161.385,613.824,1161.35,614.339Z" transform="translate(-806.748 -229.199)" fill="#63993d"/>
  </g>
</svg>
