<?xml version="1.0" encoding="utf-8"?>
<!-- Generator: Adobe Illustrator 22.0.1, SVG Export Plug-In . SVG Version: 6.00 Build 0)  -->
<svg version="1.1" id="Layer_1" xmlns="http://www.w3.org/2000/svg" xmlns:xlink="http://www.w3.org/1999/xlink" x="0px" y="0px"
	 viewBox="0 0 500 100" style="enable-background:new 0 0 500 100;" xml:space="preserve">
<style type="text/css">
	.st0{fill:#009245;}
	.st1{enable-background:new    ;}
</style>
<g>
	<path class="st0" d="M40.4,36.8L40.4,36.8L40.4,36.8L40.4,36.8L40.4,36.8L40.4,36.8z"/>
	<path class="st0" d="M40.4,36.8L40.4,36.8L40.4,36.8L40.4,36.8L40.4,36.8C40.3,36.8,40.3,36.8,40.4,36.8L40.4,36.8L40.4,36.8
		L40.4,36.8L40.4,36.8z"/>
	<polygon class="st0" points="40.4,36.8 40.4,36.8 40.4,36.8 40.4,36.8 40.4,36.8 40.4,36.8 40.4,36.8 	"/>
	<path class="st0" d="M38.5,12.4C17.8,12.4,1,29.2,1,50s16.8,37.5,37.5,37.5S76.1,70.7,76.1,50C76.1,29.3,59.3,12.4,38.5,12.4z
		 M57.4,42.9c-0.1,0.7-0.2,1.5-0.4,2.2c-0.1,0.4-0.1,0.7-0.2,1.1c-0.1,0.4-0.2,0.7-0.4,1.1c-0.1,0.4-0.2,0.7-0.4,1.1
		c-0.1,0.4-0.2,0.7-0.4,1.1c-0.1,0.4-0.2,0.7-0.4,1.1c-0.1,0.4-0.2,0.7-0.5,1.1L54.7,52l-0.1,0.2l0,0l0,0l0,0v0.1l-0.1,0.1L54,53.4
		l-0.2,0.5c-0.1,0.1-0.1,0.4-0.2,0.5L53,55.4l-0.2,0.5l-0.1,0.6l-0.1,0.2l-0.6,0.9c-0.1,0.1-0.2,0.4-0.4,0.5l-0.4,0.5l0,0l2.5,2
		c0.5,0.4,0.6,1.1,0.2,1.6c-0.1,0.2-0.2,0.4-0.5,0.4l0,0c-0.7,0.2-1.4,0.5-2.1,0.7c-0.7,0.2-1.4,0.5-2.1,0.7
		c-1.4,0.5-2.8,0.8-4.2,1.2c-1.4,0.4-2.8,0.7-4.3,0.8c-0.7,0.1-1.5,0.2-2.2,0.2c-0.4,0-0.8,0-1.2,0c-0.5,0-0.8-0.1-1.4-0.2
		c-0.2-0.1-0.5-0.2-0.8-0.4c-0.1,0-0.1-0.1-0.2-0.1l-0.1-0.1l0,0l0,0c0,0,0,0-0.1-0.1l0,0l-0.1-0.1c0,0,0,0-0.1-0.1l0.1-0.1
		l-0.1-0.1l-0.1-0.1c0-0.1-0.1-0.1-0.1-0.2C34,64.3,34,64.1,33.8,64c-0.1-0.2-0.2-0.5-0.4-0.7c-0.1-0.5-0.2-0.9-0.2-1.3
		c-0.1-0.5-0.1-0.8-0.1-1.2c0-0.8,0-1.5,0.1-2.3c0.1-0.7,0.1-1.5,0.2-2.2c0.2-1.4,0.5-2.9,0.8-4.3c0.1-0.7,0.4-1.4,0.5-2.1l0.2-1.1
		c0.1-0.4,0.2-0.7,0.4-1.1c0.2-0.8,1.2-1.3,2-1.1c0.2,0.1,0.4,0.1,0.6,0.2l0,0l1.4,1.2c0.1-0.6,0.2-1.1,0.4-1.6
		c0.2-1.4,0.6-2.7,0.7-4.1c0.1-0.7,0.1-1.3,0.2-2c0-0.7,0.1-1.3,0-1.9c0-0.4,0-0.6-0.1-0.8c0-0.2-0.1-0.5-0.1-0.7
		c0-0.1-0.1-0.1-0.1-0.2l0,0h-0.1c-0.1,0-0.4-0.1-0.6-0.1s-0.6,0-0.8,0c-0.6,0-1.3,0.1-1.9,0.1c-1.3,0.2-2.7,0.5-4,0.8
		c-1.3,0.4-2.7,0.7-4,1.1c-0.1,0-0.2,0-0.2,0.1l0.2,0.2c0.8,0.7,1.1,2,0.4,2.9l0,0l-0.6,0.8L28.3,43c-0.1,0.1-0.2,0.2-0.2,0.5
		l-0.6,0.8l-0.1,0.2l-0.2,0.4l-0.2,0.5l-0.6,0.9c-0.1,0.4-0.4,0.6-0.5,0.9l-0.5,0.9l-0.1,0.2l-0.1,0.2l-0.2,0.5L24.5,50
		c-0.1,0.4-0.2,0.6-0.4,0.9c-0.1,0.4-0.2,0.7-0.4,0.9c-0.1,0.4-0.2,0.7-0.4,0.9c0,0.1-0.1,0.4-0.1,0.5l-0.1,0.5
		c-0.1,0.4-0.2,0.7-0.2,0.9c-0.1,0.7-0.4,1.3-0.5,2c-0.1,0.7-0.1,1.3-0.2,2c0,0.7,0,1.3,0,2c0.1,0.7,0.1,1.3,0.4,1.9
		c0.1,0.6,0.4,1.2,0.7,1.8c0.2,0.6,0.6,1.1,1.1,1.6c0.4,0.5,0.8,0.9,1.4,1.4l0.4,0.4l0,0l0,0l0,0l0,0l0.1,0.1l0.2,0.1l0.5,0.4
		l0.5,0.2c0.2,0.2,0.6,0.4,0.9,0.6c0.4,0.1,0.6,0.4,0.9,0.5l0.6,0.2c0.2,0.1,0.5,0.1,0.7,0.2l0.7,0.2c0.2,0.1,0.5,0.1,0.7,0.2
		l0.7,0.1c0.2,0,0.5,0.1,0.7,0.1l0.7,0.1c0.2,0,0.5,0.1,0.7,0.1h0.8c0.2,0,0.5,0,0.8,0h0.8c0.2,0,0.5,0,0.8,0h0.8c0.2,0,0.5,0,0.8,0
		c0.5,0,1.1-0.1,1.5-0.1l0.1,0.4c-0.5,0.1-1.1,0.2-1.5,0.5c-0.2,0.1-0.5,0.1-0.8,0.1l-0.8,0.1c-0.2,0-0.5,0.1-0.8,0.1l-0.8,0.1
		c-0.2,0-0.6,0-0.8,0.1h-0.8c-0.1,0-0.2,0-0.4,0h-0.4h-0.8c-0.2,0-0.6,0-0.8,0l-0.8-0.1c-0.2,0-0.6-0.1-0.8-0.1l-0.8-0.1
		c-0.2,0-0.6-0.1-0.8-0.1l-0.8-0.2l0,0l0,0c-0.4-0.1-0.7-0.2-1.1-0.5c-0.4-0.1-0.7-0.4-1.1-0.5l-0.6-0.2l-0.5-0.2L25,70l-0.1-0.1
		l0,0l0,0l0,0l0,0h-0.1l-0.5-0.4c-0.7-0.5-1.3-0.9-1.9-1.5c-0.6-0.6-1.1-1.3-1.5-2s-0.8-1.5-1.1-2.2c-0.2-0.8-0.5-1.6-0.6-2.3
		c-0.1-0.8-0.2-1.6-0.2-2.5c0-0.8,0-1.6,0.1-2.3c0.1-0.8,0.2-1.5,0.4-2.3c0.1-0.4,0.1-0.8,0.2-1.2s0.2-0.7,0.4-1.2
		c0.1-0.4,0.2-0.7,0.4-1.1c0.1-0.4,0.2-0.7,0.4-1.1c0.1-0.4,0.2-0.7,0.4-1.1c0.1-0.4,0.2-0.7,0.5-1.1l0.2-0.5L22,47l0,0l0,0v-0.1
		l0.1-0.1l0.5-1.1c0.1-0.4,0.4-0.7,0.5-1.1l0.6-1.1l0.2-0.5l0.1-0.2l0.1-0.2l0.6-1.1c0-0.1,0.1-0.1,0.1-0.2l-0.1-0.1L23.1,40
		c-0.9-0.7-1.1-2.1-0.4-2.9c0.2-0.4,0.6-0.6,0.9-0.7l0,0c0.4-0.1,0.7-0.2,1.1-0.4c0.4-0.1,0.7-0.2,1.1-0.4c0.7-0.2,1.4-0.5,2.1-0.6
		c1.4-0.4,2.8-0.7,4.2-1.1c0.7-0.1,1.4-0.4,2.2-0.5c0.7-0.1,1.5-0.2,2.2-0.4c0.8-0.1,1.5-0.1,2.3-0.1c0.5,0,0.8,0,1.3,0.1
		c0.5,0,0.9,0.1,1.5,0.4c0.1,0,0.1,0,0.2,0.1c0.1,0,0.1,0,0.2,0.1l0.2,0.1c0,0,0.1,0,0.1,0.1l0.1,0.1l0.1,0.1l0,0l0,0l0,0l0,0l0,0
		l0,0l0,0c0.1,0.1,0,0,0.1,0.1l0,0c0.1,0.1,0.1,0.1,0.2,0.2s0.1,0.1,0.2,0.2l0.1,0.1l0.1,0.1c0,0.1,0.1,0.1,0.1,0.2
		c0.1,0.1,0.1,0.2,0.2,0.5s0.2,0.6,0.4,0.8c0.1,0.5,0.2,0.9,0.2,1.4s0.1,0.8,0.1,1.3c0,0.8,0,1.6-0.1,2.3c-0.1,0.7-0.2,1.5-0.4,2.2
		c-0.2,1.4-0.6,2.9-0.9,4.3c-0.2,0.7-0.4,1.4-0.6,2.1l-0.4,1.1c-0.1,0.4-0.2,0.7-0.4,1.1l0,0c-0.2,0.8-1.2,1.4-2.1,1.1
		c-0.2-0.1-0.4-0.2-0.6-0.4l-1.5-1.3c-0.1,0.6-0.4,1.1-0.5,1.6c-0.4,1.4-0.6,2.7-0.8,4.1c-0.1,0.7-0.2,1.4-0.2,2
		c-0.1,0.7-0.1,1.3-0.1,2c0,0.6,0.1,1.3,0.2,1.8c0,0.1,0.1,0.2,0.1,0.2v0.1l0,0l0,0l0,0l0,0l0,0l0.1,0.1l0,0c0,0,0.1,0.1,0.2,0.1
		C37,64,37.2,64,37.5,64c0.2,0,0.6,0,0.9,0c0.6,0,1.3,0,2-0.1c1.3-0.1,2.7-0.4,4.1-0.7c1.4-0.2,2.7-0.6,4.1-1.1
		c0.7-0.2,1.4-0.4,2-0.6l0,0l-1.5-1.9c-0.5-0.4-0.5-1.1-0.1-1.5l0,0l0.6-0.8l0.4-0.5c0.1-0.1,0.2-0.4,0.4-0.5l0.6-0.9l0.1-0.2
		l0.1-0.2l0.2-0.5l0.6-0.9c0.1-0.1,0.1-0.4,0.2-0.5l0.2-0.5l0.5-0.9l0.1-0.1v-0.1l0,0l0,0l0,0l0.1-0.2l0.2-0.5l0.5-0.9
		c0.1-0.4,0.2-0.7,0.5-0.9c0.1-0.4,0.2-0.7,0.4-1.1c0.1-0.4,0.2-0.7,0.4-1.1c0.1-0.4,0.2-0.7,0.4-1.1c0.1-0.4,0.2-0.7,0.2-1.1
		c0.1-0.7,0.4-1.4,0.4-2.1c0.1-0.7,0.1-1.4,0.2-2.1c0-0.7,0-1.4-0.1-2.1c-0.1-0.7-0.2-1.4-0.5-2c-0.2-0.7-0.5-1.3-0.8-1.9
		s-0.7-1.2-1.2-1.6c-0.5-0.5-0.9-1.1-1.5-1.4l-0.5-0.4l0,0l0,0l0,0l0,0L51.4,31l-0.2-0.1c-0.1-0.1-0.4-0.2-0.5-0.2l-0.5-0.4
		c-0.4-0.2-0.6-0.4-0.9-0.5c-0.4-0.1-0.6-0.4-0.9-0.5l-0.7-0.2C47.4,29,47.2,29,47,28.8l-0.7-0.1c-0.2,0-0.5-0.1-0.7-0.1l-0.7-0.1
		c-0.2,0-0.5-0.1-0.8-0.1l-0.8-0.1c-0.2,0-0.5,0-0.8-0.1h-0.8c-0.2,0-0.5,0-0.8,0h-0.8c-0.2,0-0.5,0-0.8,0l-0.8,0.1
		c-0.2,0-0.5,0-0.8,0.1l-1.3,0.2l-0.1-0.4l1.5-0.4c0.2,0,0.5-0.1,0.8-0.1l0.8-0.1c0.2,0,0.6,0,0.8-0.1l0.8-0.1c0.2,0,0.6,0,0.8,0
		h0.8c0.2,0,0.6,0,0.8,0h0.8c0.2,0,0.6,0,0.8,0.1l0.8,0.1c0.2,0,0.5,0.1,0.8,0.1l0.8,0.1c0.2,0.1,0.5,0.1,0.8,0.2l0.8,0.2l0,0l0,0
		c0.4,0.1,0.7,0.2,1.1,0.5c0.4,0.1,0.7,0.4,1.1,0.5l0.5,0.2c0.1,0.1,0.4,0.2,0.5,0.2l0.2,0.1l0.1,0.1l0,0l0,0l0,0l0,0l0,0l0.5,0.4
		c0.7,0.5,1.2,0.9,1.8,1.5s1.1,1.2,1.4,1.9c0.8,1.3,1.3,2.8,1.5,4.3c0.1,0.8,0.2,1.5,0.2,2.3C57.5,41.4,57.5,42.1,57.4,42.9z"/>
</g>
<g class="st1">
	<path d="M91.2,76.6v-28c0-2.3,0.4-4.4,1.3-6.4c0.8-2,2-3.8,3.5-5.2c1.5-1.5,3.2-2.6,5.2-3.5c2-0.9,4.1-1.3,6.4-1.3v9.3
		c-2,0-3.6,0.7-5,2.1c-1.4,1.4-2.1,3.1-2.1,5.1v28H91.2z"/>
	<path d="M132.4,41.5c-1.9,0-3.6,0.3-5.2,1c-1.6,0.7-3,1.7-4.3,2.9c-1.2,1.2-2.2,2.6-2.9,4.2c-0.7,1.6-1.1,3.3-1.1,5.2
		c0,1.8,0.4,3.6,1.1,5.2c0.7,1.6,1.7,3,2.9,4.2c1.2,1.2,2.7,2.2,4.3,2.9c1.6,0.7,3.3,1,5.2,1c1.9,0,3.7-0.4,5.4-1.1
		c1.7-0.7,3.1-1.7,4.3-3l6.8,6.4c-2.1,2.2-4.5,4-7.4,5.2c-2.8,1.3-5.9,1.9-9.1,1.9c-3.2,0-6.1-0.6-8.8-1.8c-2.7-1.2-5.1-2.8-7.2-4.9
		c-2.1-2.1-3.7-4.5-4.9-7.2c-1.2-2.8-1.8-5.7-1.8-8.9c0-3.1,0.6-6,1.8-8.8c1.2-2.8,2.8-5.2,4.9-7.3c2.1-2.1,4.5-3.7,7.2-4.9
		c2.7-1.2,5.7-1.8,8.8-1.8c1.7,0,3.5,0.2,5.3,0.6c1.8,0.4,3.5,1,5.2,1.9c1.7,0.8,3.3,2,4.8,3.3c1.5,1.4,2.9,3.1,4.1,5.1l-20.9,21.1
		l-6.8-6.4l14.6-14.7C136.5,42,134.4,41.5,132.4,41.5z"/>
	<path d="M167.1,26.8c-0.3,0-0.5,0.1-0.7,0.3c-0.2,0.2-0.3,0.4-0.3,0.7V33h7.1v9.3h-7.1v34.3h-9.3V26.9c0-1.3,0.3-2.5,0.8-3.7
		c0.5-1.2,1.2-2.2,2-3c0.8-0.8,1.8-1.5,3-2c1.2-0.5,2.4-0.8,3.7-0.8h6.9v9.4H167.1z"/>
	<path d="M177.5,33h9.3v22.6c0,1.7,0.3,3.3,1,4.8c0.6,1.5,1.5,2.9,2.7,4c1.1,1.2,2.4,2,4,2.7c1.5,0.6,3.1,1,4.8,1s3.3-0.3,4.8-1
		c1.5-0.6,2.9-1.5,4-2.7c1.2-1.2,2.1-2.5,2.7-4c0.6-1.5,1-3.1,1-4.8V33h9.3v22.6c0,3-0.6,5.8-1.7,8.4c-1.2,2.6-2.7,5-4.7,6.9
		c-2,2-4.3,3.5-6.9,4.7c-2.6,1.2-5.5,1.7-8.4,1.7c-3,0-5.8-0.6-8.4-1.7c-2.6-1.2-5-2.7-6.9-4.7c-2-2-3.5-4.3-4.6-6.9
		c-1.1-2.6-1.7-5.5-1.7-8.4V33z"/>
	<path d="M227.7,76.6v-28c0-2.3,0.4-4.4,1.3-6.4c0.8-2,2-3.8,3.5-5.2c1.5-1.5,3.2-2.6,5.2-3.5c2-0.9,4.1-1.3,6.4-1.3v9.3
		c-2,0-3.6,0.7-5,2.1c-1.4,1.4-2.1,3.1-2.1,5.1v28H227.7z"/>
	<path d="M258.6,35.6c3.7-2.3,7.7-3.4,12-3.4c3.1,0,6,0.6,8.8,1.8c2.8,1.2,5.2,2.8,7.3,4.9c2.1,2.1,3.7,4.5,4.9,7.2
		c1.2,2.8,1.8,5.7,1.8,8.9c0,3.2-0.6,6.1-1.8,8.8c-1.2,2.7-2.8,5.1-4.9,7.2c-2.1,2.1-4.5,3.7-7.3,4.9c-2.8,1.2-5.7,1.8-8.8,1.8
		c-3.2,0-6.1-0.6-8.8-1.8c-2.7-1.2-5.1-2.8-7.2-4.9c-2.1-2.1-3.7-4.5-4.9-7.2c-1.2-2.7-1.8-5.7-1.8-8.8V17.5h9.3v37.3
		c0,1.9,0.4,3.6,1.1,5.2s1.7,3,2.9,4.3c1.2,1.2,2.7,2.2,4.3,2.9c1.6,0.7,3.3,1.1,5.2,1.1c1.9,0,3.6-0.3,5.2-1s3-1.7,4.3-2.9
		c1.2-1.2,2.2-2.6,2.9-4.2c0.7-1.6,1.1-3.3,1.1-5.2c0-1.8-0.4-3.6-1.1-5.2c-0.7-1.6-1.7-3-2.9-4.2c-1.2-1.2-2.7-2.2-4.3-2.9
		c-1.6-0.7-3.3-1-5.2-1c-1.2,0-2.4,0.2-3.5,0.5c-1.1,0.3-2.2,0.7-3.2,1.3L258.6,35.6z"/>
	<path d="M298.7,24.6c0-1.3,0.5-2.4,1.5-3.4c1-1,2.2-1.4,3.5-1.4c1.3,0,2.4,0.5,3.4,1.4c1,1,1.4,2.1,1.4,3.4c0,1.3-0.5,2.4-1.4,3.5
		c-1,1-2.1,1.5-3.4,1.5c-1.3,0-2.4-0.5-3.5-1.5C299.2,27.1,298.7,25.9,298.7,24.6z M299.3,33h9.3v43.6h-9.3V33z"/>
	<path d="M322.5,56.8c-1.3-0.3-2.5-0.9-3.5-1.6c-1-0.7-1.9-1.6-2.7-2.6s-1.4-2.1-1.8-3.4c-0.4-1.3-0.6-2.6-0.6-3.9
		c0-1.7,0.3-3.3,1-4.8c0.6-1.5,1.5-2.8,2.7-3.9c1.1-1.1,2.4-2,3.9-2.6c1.5-0.6,3-1,4.7-1H350v9.4h-24.2c-0.8,0.1-1.4,0.5-1.9,1
		s-0.8,1.2-0.8,1.9c0,0.6,0.2,1.2,0.5,1.7c0.4,0.5,0.8,0.8,1.4,0.9l17.8,4.5c1.4,0.3,2.7,0.8,4,1.5c1.2,0.7,2.3,1.6,3.2,2.7
		c0.9,1.1,1.6,2.3,2.2,3.6c0.5,1.3,0.8,2.8,0.8,4.3c0,1.7-0.3,3.3-1,4.7c-0.6,1.5-1.5,2.7-2.6,3.8c-1.1,1.1-2.4,2-3.8,2.6
		c-1.5,0.6-3,0.9-4.6,0.9h-24.3v-9.4h24.7c0.7-0.1,1.3-0.4,1.7-0.9c0.5-0.5,0.7-1.1,0.7-1.9c0-0.7-0.2-1.4-0.7-1.9
		c-0.5-0.5-1-0.9-1.6-1L322.5,56.8z"/>
	<path d="M368.2,17.5v18.7c1.7-1.3,3.7-2.3,5.7-3c2.1-0.7,4.3-1,6.7-1c3,0,5.8,0.6,8.4,1.7c2.6,1.2,5,2.7,6.9,4.7
		c2,2,3.5,4.3,4.7,6.9c1.2,2.6,1.7,5.5,1.7,8.4v22.6h-9.3V54c0-1.7-0.3-3.3-1-4.8c-0.6-1.5-1.5-2.9-2.7-4c-1.2-1.2-2.5-2-4-2.7
		c-1.5-0.6-3.1-1-4.8-1c-1.7,0-3.3,0.3-4.8,0.9c-1.5,0.6-2.8,1.5-3.9,2.6c-1.1,1.1-2,2.4-2.7,3.8c-0.7,1.5-1,3-1,4.6v23.1H359V17.5
		H368.2z"/>
	<path d="M429.8,41.5c-1.9,0-3.6,0.3-5.2,1c-1.6,0.7-3,1.7-4.3,2.9c-1.2,1.2-2.2,2.6-2.9,4.2c-0.7,1.6-1.1,3.3-1.1,5.2
		c0,1.8,0.4,3.6,1.1,5.2c0.7,1.6,1.7,3,2.9,4.2c1.2,1.2,2.7,2.2,4.3,2.9s3.3,1,5.2,1c1.9,0,3.7-0.4,5.4-1.1c1.7-0.7,3.1-1.7,4.3-3
		l6.8,6.4c-2.1,2.2-4.5,4-7.4,5.2c-2.8,1.3-5.9,1.9-9.1,1.9c-3.2,0-6.1-0.6-8.8-1.8c-2.7-1.2-5.1-2.8-7.2-4.9
		c-2.1-2.1-3.7-4.5-4.9-7.2c-1.2-2.8-1.8-5.7-1.8-8.9c0-3.1,0.6-6,1.8-8.8c1.2-2.8,2.8-5.2,4.9-7.3c2.1-2.1,4.5-3.7,7.2-4.9
		c2.7-1.2,5.7-1.8,8.8-1.8c1.7,0,3.5,0.2,5.3,0.6c1.8,0.4,3.5,1,5.2,1.9c1.7,0.8,3.3,2,4.8,3.3c1.5,1.4,2.9,3.1,4.1,5.1l-20.9,21.1
		l-6.8-6.4l14.6-14.7C433.9,42,431.8,41.5,429.8,41.5z"/>
	<path d="M481.7,43.3c-1-0.6-2.1-1-3.2-1.3c-1.1-0.3-2.3-0.5-3.5-0.5c-1.9,0-3.6,0.3-5.2,1c-1.6,0.7-3,1.7-4.3,2.9
		c-1.2,1.2-2.2,2.6-2.9,4.2c-0.7,1.6-1.1,3.4-1.1,5.2c0,1.8,0.4,3.6,1.1,5.2c0.7,1.6,1.7,3,2.9,4.2c1.2,1.2,2.7,2.2,4.3,2.9
		s3.3,1,5.2,1c1.9,0,3.6-0.4,5.2-1.1c1.6-0.7,3-1.7,4.3-2.9c1.2-1.2,2.2-2.7,2.9-4.3c0.7-1.6,1.1-3.3,1.1-5.2V17.5h9.3v37.4
		c0,3.2-0.6,6.1-1.8,8.8c-1.2,2.7-2.8,5.1-4.9,7.2c-2.1,2.1-4.5,3.7-7.3,4.9c-2.8,1.2-5.7,1.8-8.8,1.8c-3.2,0-6.1-0.6-8.8-1.8
		c-2.7-1.2-5.1-2.8-7.2-4.9c-2.1-2.1-3.7-4.5-4.9-7.2c-1.2-2.7-1.8-5.7-1.8-8.8c0-3.2,0.6-6.1,1.8-8.9c1.2-2.8,2.8-5.2,4.9-7.2
		c2.1-2.1,4.5-3.7,7.2-4.9c2.7-1.2,5.7-1.8,8.8-1.8c4.3,0,8.3,1.1,12,3.4L481.7,43.3z"/>
</g>
</svg>
