<?xml version="1.0" encoding="utf-8"?>
<!-- Generator: Adobe Illustrator 27.5.0, SVG Export Plug-In . SVG Version: 6.00 Build 0)  -->
<svg version="1.1" id="Layer_1" xmlns="http://www.w3.org/2000/svg" xmlns:xlink="http://www.w3.org/1999/xlink" x="0px" y="0px"
	 viewBox="0 0 1806 585" enable-background="new 0 0 1806 585" xml:space="preserve">
<g>
	<path d="M899.31,140.514c-2.817-11.805-7.043-22.67-12.744-32.596c-5.768-9.995-13.012-18.647-21.731-26.092
		c-8.719-7.378-18.981-13.146-30.853-17.238c-11.804-4.091-25.286-6.17-40.309-6.237c-16.165,0.067-30.92,3.019-44.335,8.853
		c-13.414,5.836-24.951,13.884-34.743,24.214c-9.792,10.395-17.304,22.469-22.67,36.219c-5.366,13.75-8.049,28.64-8.115,44.602
		v0.805c0.066,16.969,2.951,32.329,8.584,46.212c5.702,13.816,13.75,25.688,24.146,35.682c10.329,9.994,22.67,17.639,36.89,23.005
		c14.219,5.433,29.913,8.115,47.084,8.183c14.487-0.067,27.498-1.945,39.169-5.567c11.67-3.689,22.066-8.786,31.255-15.426
		c9.121-6.573,17.17-14.353,24.145-23.274l-42.254-35.011c-7.714,7.579-15.494,13.213-23.208,16.768
		c-7.78,3.622-16.097,5.366-25.084,5.366c-11.939,0-22-3.019-30.183-8.988c-8.115-6.037-13.749-14.956-16.901-26.828h145.679
		c0.201-2.615,0.336-5.299,0.336-7.982c0.067-2.683,0.067-5.299,0.067-7.714C903.535,164.592,902.126,152.318,899.31,140.514z
		 M756.246,154.128c1.341-7.98,3.756-14.89,7.11-20.792c3.419-5.902,7.712-10.463,12.877-13.683
		c5.165-3.286,11.134-4.896,17.841-4.963c6.975,0.067,13.146,1.677,18.512,4.828c5.299,3.22,9.591,7.781,12.878,13.684
		c3.354,5.834,5.499,12.81,6.439,20.925H756.246z"/>
	<path d="M1389.955,114.088c-3.688-11.469-9.658-21.195-17.84-29.176c-8.585-8.652-19.653-15.293-33.268-19.786
		c-13.616-4.494-30.182-6.775-49.632-6.775c-12.409,0-23.744,0.739-34.006,2.147c-10.262,1.409-19.853,3.354-28.707,5.902
		c-8.786,2.548-17.304,5.5-25.42,8.853l15.696,53.926c6.371-2.548,12.743-4.762,19.048-6.506c6.305-1.811,12.743-3.219,19.45-4.158
		c6.707-0.94,13.883-1.409,21.462-1.409c14.689,0.068,25.555,3.152,32.731,9.256c7.176,6.103,10.731,14.823,10.731,26.157v3.622
		c-4.225-1.475-9.054-2.884-14.621-4.158c-5.567-1.274-11.536-2.281-17.976-3.086c-6.371-0.804-12.944-1.207-19.719-1.207
		c-17.169,0-32.059,2.616-44.803,7.712c-12.744,5.166-22.671,12.812-29.78,22.94c-7.043,10.128-10.598,22.737-10.731,37.761v0.805
		c0.066,10.866,1.945,20.456,5.634,28.84c3.688,8.317,8.853,15.359,15.426,21.06c6.639,5.702,14.353,9.994,23.274,12.945
		c8.853,2.884,18.511,4.359,28.907,4.359c14.219-0.133,26.627-2.616,37.157-7.511c10.463-4.896,19.451-11.469,26.829-19.854v22.537
		h75.657V154.129C1395.522,138.837,1393.712,125.489,1389.955,114.088z M1321.006,200.409c-0.067,7.31-1.677,13.615-4.896,18.913
		c-3.219,5.366-7.646,9.524-13.28,12.475c-5.7,2.885-12.207,4.36-19.652,4.428c-5.299,0-9.927-0.939-13.951-2.818
		c-4.024-1.878-7.244-4.628-9.524-8.183c-2.281-3.487-3.42-7.78-3.488-12.743v-0.805c0-5.433,1.409-10.128,4.158-14.152
		c2.75-4.024,6.708-7.177,11.939-9.389c5.232-2.281,11.536-3.354,18.913-3.421c5.702,0,11.135,0.537,16.232,1.611
		c5.164,1.005,9.659,2.346,13.549,4.023V200.409z"/>
	<path d="M1517.394,280.117c10.663-0.067,20.523-1.141,29.444-3.354c8.921-2.214,16.835-5.231,23.676-9.122v-59.961
		c-4.628,2.213-9.322,4.023-14.152,5.299c-4.829,1.274-9.792,1.945-14.823,1.945c-7.042,0.066-12.273-1.677-15.762-5.165
		c-3.42-3.42-5.164-8.987-5.164-16.566v-73.644l0,0l50.706-61.572h-50.706V2.843h-76.462v55.133h-25.755v61.572h25.755v88.533
		c0.068,17.238,3.019,31.122,8.787,41.719c5.835,10.596,14.152,18.377,25.084,23.206
		C1488.888,277.835,1502.034,280.183,1517.394,280.117L1517.394,280.117z"/>
	<path d="M1800.837,114.088c-3.688-11.469-9.657-21.195-17.84-29.176c-8.585-8.652-19.652-15.293-33.267-19.786
		c-13.616-4.494-30.183-6.775-49.633-6.775c-12.409,0-23.743,0.739-34.005,2.147c-10.263,1.409-19.854,3.354-28.707,5.902
		c-8.786,2.548-17.304,5.5-25.42,8.853l15.696,53.926c6.371-2.548,12.743-4.762,19.048-6.506c6.305-1.811,12.744-3.219,19.451-4.158
		c6.706-0.94,13.883-1.409,21.462-1.409c14.69,0.068,25.555,3.152,32.731,9.256c7.176,6.103,10.731,14.823,10.731,26.157v3.622
		c-4.225-1.475-9.054-2.884-14.62-4.158c-5.567-1.274-11.536-2.281-17.976-3.086c-6.371-0.804-12.944-1.207-19.719-1.207
		c-17.169,0-32.059,2.616-44.802,7.712c-12.745,5.166-22.671,12.812-29.781,22.94c-7.043,10.128-10.597,22.737-10.731,37.761v0.805
		c0.066,10.866,1.945,20.456,5.634,28.84c3.688,8.317,8.853,15.359,15.426,21.06c6.639,5.702,14.353,9.994,23.274,12.945
		c8.854,2.884,18.512,4.359,28.907,4.359c14.219-0.133,26.628-2.616,37.157-7.511c10.463-4.896,19.451-11.469,26.829-19.854v22.537
		h75.656V154.129C1806.404,138.837,1804.594,125.489,1800.837,114.088z M1731.888,200.409c-0.067,7.31-1.676,13.615-4.896,18.913
		c-3.219,5.366-7.646,9.524-13.281,12.475c-5.7,2.885-12.207,4.36-19.651,4.428c-5.299,0-9.927-0.939-13.952-2.818
		c-4.024-1.878-7.244-4.628-9.524-8.183c-2.28-3.487-3.42-7.78-3.487-12.743v-0.805c0-5.433,1.409-10.128,4.158-14.152
		c2.75-4.024,6.708-7.177,11.938-9.389c5.232-2.281,11.536-3.354,18.914-3.421c5.702,0,11.135,0.537,16.232,1.611
		c5.164,1.005,9.658,2.346,13.548,4.023V200.409z"/>
	<path fill-rule="evenodd" clip-rule="evenodd" d="M1039.146,122.033c23.193,0,41.994,17.662,41.994,39.449
		c0,21.787-18.801,39.449-41.994,39.449c-23.193,0-41.994-17.662-41.994-39.449C997.151,139.695,1015.953,122.033,1039.146,122.033
		L1039.146,122.033z M1150.721,57.45c5.565-5.341,5.369-5.307,5.149-5.271c-0.22,0.036-0.469,0.077-13.545,2.244
		c-13.076,2.168-38.985,6.463-52.13,8.559c-13.146,2.097-13.532,1.996-14.774,1.465c-1.244-0.531-3.345-1.494-7.155-2.494
		c-3.809-1-9.329-2.039-15.69-2.657c-6.361-0.619-13.565-0.821-19.219-0.871c-5.653-0.05-9.756,0.051-14.308,0.55
		c-4.553,0.5-9.557,1.402-15.309,2.902c-5.753,1.501-12.259,3.602-18.011,6.153c-5.753,2.552-10.758,5.554-15.61,9.005
		c-4.852,3.453-9.555,7.357-13.807,11.709c-4.252,4.352-8.056,9.156-11.858,14.909c-3.801,5.754-7.605,12.458-10.406,19.11
		c-2.801,6.654-4.602,13.259-5.703,19.462c-1.101,6.204-1.501,12.008-1.701,16.96c-0.201,4.954-0.201,9.056,0.099,13.057
		c0.3,4.003,0.902,7.907,1.801,12.008c0.901,4.102,2.103,8.406,3.903,12.958c1.8,4.553,4.203,9.357,6.254,13.109
		c2.051,3.752,3.753,6.453,6.054,9.605c2.301,3.151,5.204,6.754,7.886,9.654c2.682,2.901,5.148,5.1,6.456,6.267
		c1.309,1.169,1.465,1.308,1.487,1.43c0.021,0.121-0.092,0.228,1.376,1.854c1.468,1.626,4.518,4.772,6.384,6.698
		c1.866,1.928,2.554,2.637,0.529,5.119s-6.762,6.74-9.309,9.03c-2.548,2.291-2.91,2.615-2.906,2.741
		c0.005,0.127,0.375,0.056,3.937-0.468c3.562-0.524,10.319-1.503,17.928-2.019c7.609-0.518,16.073-0.574,22.638-0.303
		c6.566,0.272,11.234,0.874,15.73,1.57c4.497,0.698,8.825,1.494,12.742,2.343c3.917,0.851,7.427,1.756,11.581,3.434
		c4.156,1.678,8.96,4.131,12.646,7.243c3.686,3.112,6.255,6.888,7.966,10.174c1.712,3.288,2.569,6.089,2.072,9.553
		c-0.498,3.465-2.351,7.592-4.739,10.782c-2.388,3.189-5.316,5.441-8.04,7.455c-2.724,2.015-5.248,3.795-7.899,5.078
		c-2.651,1.284-5.432,2.075-8.447,2.78c-3.015,0.707-6.265,1.332-9.351,1.817c-3.087,0.484-6.014,0.832-10.054,1.102
		c-4.04,0.271-9.195,0.466-14.009,0.447c-4.814-0.019-9.288-0.255-14.564-1.008c-5.278-0.753-11.362-2.025-15.89-3.118
		c-4.53-1.092-7.509-2.006-9.127-2.501c-1.617-0.497-1.876-0.576-2.299-0.225c-0.423,0.352-1.01,1.136-4.036,5.627
		c-3.028,4.492-8.497,12.693-13.727,21.433c-5.23,8.741-10.221,18.023-12.941,23.084c-2.722,5.06-3.174,5.902-3.188,6.413
		c-0.014,0.51,0.411,0.693,1.811,1.293c1.401,0.6,3.78,1.619,10.671,4.229c6.892,2.61,18.3,6.813,28.906,9.514
		c10.607,2.701,20.413,3.903,31.319,5.103c10.906,1.2,22.914,2.402,36.821,2.001c13.908-0.4,29.719-2.402,44.021-5.888
		c14.302-3.487,27.098-8.462,36.916-14.127c9.818-5.665,16.659-12.021,21.73-17.751c5.072-5.729,8.374-10.833,11.325-16.986
		c2.952-6.154,5.554-13.359,6.809-21.064c1.256-7.704,1.165-15.911,0.664-22.502c-0.501-6.592-1.415-11.571-3.522-17.273
		c-2.107-5.703-5.41-12.131-9.433-17.785c-4.023-5.655-8.768-10.539-13.017-14.305c-4.25-3.766-8.004-6.417-10.109-7.902
		c-2.106-1.487-2.563-1.808-2.542-2.149c0.023-0.34,0.523-0.701,2.124-1.85c1.601-1.15,4.304-3.094,8.08-6.516
		c3.777-3.421,8.63-8.325,12.858-14.077c4.227-5.753,7.829-12.359,11.036-20.421c3.206-8.063,6.018-17.586,7.274-25.799
		c1.256-8.214,0.955-15.119-0.245-21.923c-1.2-6.804-3.303-13.508-5.454-19.211c-2.151-5.703-4.354-10.407-7.019-14.801
		c-2.666-4.394-5.8-8.48-9.163-12.278c-3.364-3.799-6.962-7.314-9.513-9.882c-2.552-2.567-4.058-4.191-4.934-5.034
		c-0.877-0.845-1.123-0.909-1.101-1.079c0.024-0.171,0.318-0.449,6.125-5.944C1133.831,73.504,1145.156,62.79,1150.721,57.45z"/>
	<path d="M602.654,183.14c11.738-4.963,21.932-11.469,30.585-19.45c8.653-8.049,15.359-17.64,20.122-28.841
		c4.762-11.134,7.177-23.877,7.243-38.231v-0.804c0-13.884-2.079-26.292-6.305-37.157c-4.159-10.933-10.397-20.39-18.645-28.439
		c-9.391-9.725-21.665-17.236-36.823-22.535c-15.158-5.299-33.469-7.982-54.931-8.049H410.696l-0.027,285.6l78.046,14.484
		l0.053-103.699h33.401h0.805l84.307,126.432l104.768,20.088L602.654,183.14z M582.13,101.448
		c-0.067,10.395-3.755,18.51-10.933,24.413c-7.243,5.903-17.572,8.854-30.919,8.988h-51.51V67.242h51.108
		c8.786,0,16.298,1.274,22.603,3.756c6.305,2.482,11.134,6.17,14.488,11.134c3.419,4.963,5.096,11.135,5.164,18.512V101.448z"/>
	<g>
		<polygon fill="#F16623" points="113.025,46.915 395.994,108.069 393.441,273.798 69.321,211.066 		"/>
		<polygon fill="#F16623" points="64.511,230.722 392.809,294.033 386.331,515.111 3.66,451.332 		"/>
		<polygon fill="#F16623" points="411.523,298.264 409.432,519.502 754.463,575.543 713.582,356.449 		"/>
	</g>
	<g>
		<path fill="#F16623" d="M817.78,537.512c-3.811,4-7.389,6.813-10.736,8.44c-3.345,1.627-6.739,2.442-10.177,2.442
			c-5.391,0-9.863-1.93-13.419-5.79c-3.555-3.859-5.331-9.114-5.331-15.765c0-4.743,1.044-8.882,3.134-12.416
			c2.091-3.534,5.024-6.244,8.802-8.127c3.777-1.883,9.18-2.988,16.212-3.313c5.938-0.325,10.011-0.673,12.22-1.047
			c2.208-0.371,4.097-0.93,5.666-1.674c0.991-3.533,1.489-6.418,1.489-8.65c0-3.094-1.174-5.577-3.52-7.448
			c-2.347-1.87-5.745-2.806-10.196-2.806c-8.95,0-14.755,4.464-17.415,13.393l-10.464-1.047c4.525-15.159,14.027-22.74,28.506-22.74
			c7.145,0,12.813,1.871,17.005,5.614c4.191,3.744,6.287,8.451,6.287,14.123c0,3.889-0.554,8.45-1.661,13.681l-3.983,18.335
			c-1.273,5.833-1.91,10.557-1.91,14.167c0,2.487,0.395,5.767,1.186,9.837h-10.63C818.333,544.395,817.977,541.326,817.78,537.512z
			 M822.331,509.19c-2.605,1.21-7.011,2.139-13.216,2.791c-6.348,0.652-10.706,1.489-13.074,2.51
			c-2.369,1.024-4.216,2.581-5.541,4.675c-1.327,2.092-1.99,4.511-1.99,7.254c0,3.768,1.056,6.744,3.168,8.929
			c2.112,2.187,4.929,3.279,8.45,3.279c3.332,0,6.547-1.023,9.644-3.069c3.098-2.045,5.62-4.999,7.568-8.859
			C819.288,522.84,820.95,517.003,822.331,509.19z"/>
		<path fill="#F16623" d="M841.176,546.72l17.509-102.265h10.403l-17.51,102.265H841.176z"/>
		<path fill="#F16623" d="M912.609,521.538l10.116,1.255c-1.676,7.209-5.566,13.487-11.666,18.834
			c-5.075,4.512-10.734,6.767-16.973,6.767c-4.424,0-8.453-1.198-12.085-3.593c-3.631-2.395-6.519-5.976-8.66-10.743
			c-2.143-4.766-3.214-10.451-3.214-17.056c0-8.696,1.64-16.812,4.919-24.345c3.279-7.534,7.289-13.033,12.033-16.498
			c4.743-3.464,9.882-5.197,15.417-5.197c7.021,0,12.753,2.675,17.195,8.022c4.44,5.348,6.662,12.905,6.662,22.672
			c0,3.627-0.254,7.348-0.762,11.161H880.73c-0.141,1.484-0.211,2.805-0.211,3.965c0,6.957,1.331,12.232,3.994,15.826
			c2.662,3.595,5.862,5.391,9.599,5.391c3.549,0,7.041-1.412,10.474-4.237C908.02,530.938,910.693,526.863,912.609,521.538z
			 M882.411,503.191h34.174v-2.589c0-6.625-1.304-11.594-3.914-14.906c-2.609-3.311-5.94-4.968-9.993-4.968
			c-4.38,0-8.398,1.866-12.056,5.597C886.966,490.059,884.228,495.681,882.411,503.191z"/>
		<path fill="#F16623" d="M932.629,553.417l10.464,1.185v1.674c0,3.209,0.903,5.626,2.713,7.255
			c1.808,1.627,4.637,2.442,8.485,2.442c5.982,0,10.364-1.838,13.146-5.511c1.946-2.698,3.709-8.604,5.287-17.719l0.953-6.068
			c-5.371,6.696-11.064,10.045-17.082,10.045c-5.972,0-11.052-2.708-15.241-8.126c-4.19-5.417-6.283-13.265-6.283-23.543
			c0-8.092,1.579-15.707,4.74-22.846c3.161-7.138,6.98-12.462,11.459-15.974c4.48-3.511,8.994-5.267,13.542-5.267
			c7.775,0,13.779,4.603,18.007,13.808l1.906-12.134h9.422l-11.035,71.487c-1.858,10.793-4.665,18.564-8.426,23.31
			c-4.736,5.955-11.165,8.933-19.29,8.933c-7.705,0-13.474-1.71-17.304-5.127c-3.83-3.418-5.744-8.105-5.744-14.056
			C932.35,556.067,932.443,554.812,932.629,553.417z M945.465,513.892c0,5.527,0.581,9.848,1.744,12.958
			c1.162,3.113,2.76,5.47,4.788,7.072c2.03,1.602,4.185,2.403,6.465,2.403c3.057,0,6.157-1.289,9.304-3.866
			c3.146-2.578,5.861-6.874,8.141-12.89c2.28-6.014,3.422-12.18,3.422-18.497c0-6.224-1.38-11.1-4.14-14.631
			c-2.76-3.529-6.078-5.295-9.954-5.295c-3.147,0-6.26,1.429-9.339,4.285c-3.078,2.857-5.587,7.224-7.525,13.098
			C946.433,504.406,945.465,509.527,945.465,513.892z"/>
		<path fill="#F16623" d="M1042.915,521.538l10.116,1.255c-1.676,7.209-5.566,13.487-11.666,18.834
			c-5.075,4.512-10.734,6.767-16.973,6.767c-4.424,0-8.453-1.198-12.085-3.593c-3.631-2.395-6.519-5.976-8.66-10.743
			c-2.143-4.766-3.214-10.451-3.214-17.056c0-8.696,1.64-16.812,4.919-24.345c3.279-7.534,7.289-13.033,12.033-16.498
			c4.743-3.464,9.882-5.197,15.417-5.197c7.021,0,12.753,2.675,17.195,8.022c4.44,5.348,6.662,12.905,6.662,22.672
			c0,3.627-0.254,7.348-0.762,11.161h-44.859c-0.141,1.484-0.211,2.805-0.211,3.965c0,6.957,1.331,12.232,3.994,15.826
			c2.662,3.595,5.862,5.391,9.598,5.391c3.549,0,7.041-1.412,10.474-4.237C1038.327,530.938,1041,526.863,1042.915,521.538z
			 M1012.717,503.191h34.174v-2.589c0-6.625-1.304-11.594-3.914-14.906c-2.609-3.311-5.94-4.968-9.993-4.968
			c-4.38,0-8.399,1.866-12.056,5.597C1017.272,490.059,1014.534,495.681,1012.717,503.191z"/>
		<path fill="#F16623" d="M1090.984,575.11l17.545-102.473h9.694l-1.816,10.322c3.657-4.65,6.874-7.811,9.652-9.485
			c2.777-1.674,5.694-2.511,8.749-2.511c5.601,0,10.335,2.535,14.2,7.603c3.866,5.07,5.798,12.487,5.798,22.254
			c0,9.208-1.564,17.603-4.691,25.182c-3.129,7.58-7.265,13.44-12.409,17.579c-3.986,3.209-8.156,4.813-12.511,4.813
			c-7.277,0-12.907-4.532-16.892-13.599l-6.916,40.315H1090.984z M1111.447,518.841c0,6.224,1.26,10.974,3.782,14.248
			c2.522,3.275,5.68,4.911,9.474,4.911c3.007,0,5.644-0.999,7.912-2.996c3.238-2.879,6.037-7.629,8.396-14.247
			c2.36-6.618,3.54-13.295,3.54-20.031c0-6.317-1.26-11.158-3.783-14.526c-2.522-3.367-5.587-5.052-9.195-5.052
			c-2.868,0-5.784,1.29-8.745,3.868c-2.961,2.577-5.598,7.118-7.912,13.621C1112.603,505.139,1111.447,511.873,1111.447,518.841z"/>
		<path fill="#F16623" d="M1205.799,521.538l10.116,1.255c-1.676,7.209-5.566,13.487-11.666,18.834
			c-5.075,4.512-10.734,6.767-16.973,6.767c-4.424,0-8.453-1.198-12.085-3.593c-3.631-2.395-6.519-5.976-8.66-10.743
			c-2.143-4.766-3.214-10.451-3.214-17.056c0-8.696,1.64-16.812,4.919-24.345c3.279-7.534,7.289-13.033,12.033-16.498
			c4.744-3.464,9.882-5.197,15.417-5.197c7.021,0,12.753,2.675,17.195,8.022c4.44,5.348,6.662,12.905,6.662,22.672
			c0,3.627-0.254,7.348-0.762,11.161h-44.859c-0.141,1.484-0.211,2.805-0.211,3.965c0,6.957,1.331,12.232,3.994,15.826
			c2.661,3.595,5.862,5.391,9.598,5.391c3.549,0,7.041-1.412,10.474-4.237C1201.211,530.938,1203.884,526.863,1205.799,521.538z
			 M1175.601,503.191h34.174v-2.589c0-6.625-1.304-11.594-3.914-14.906c-2.609-3.311-5.94-4.968-9.993-4.968
			c-4.38,0-8.399,1.866-12.056,5.597C1180.156,490.059,1177.419,495.681,1175.601,503.191z"/>
		<path fill="#F16623" d="M1226.307,546.72l12.684-74.082h9.483l-2.189,12.91c4.418-5.489,8.437-9.292,12.056-11.408
			c3.619-2.117,7.119-3.176,10.503-3.176c4.745,0,8.588,1.588,11.525,4.763c2.938,3.174,4.407,7.681,4.407,13.517
			c0,2.601-0.539,6.827-1.616,12.68l-8.084,44.796h-10.402l8.532-46.947c0.833-4.604,1.251-7.998,1.251-10.184
			c0-2.557-0.742-4.569-2.225-6.034c-1.484-1.465-3.497-2.198-6.038-2.198c-5.274,0-10.019,2.303-14.233,6.908
			c-4.214,4.606-7.309,12.606-9.286,24.003l-5.965,34.452H1226.307z"/>
		<path fill="#F16623" d="M1314.621,536.465l-1.762,10.324c-2.398,0.79-4.726,1.185-6.985,1.185c-3.753,0-6.725-1.023-8.917-3.069
			c-2.193-2.045-3.289-4.789-3.289-8.231c0-1.627,0.508-5.401,1.521-11.322l7.354-42.95h-8.162l1.674-9.766h8.16l3.045-17.788
			l11.894-8.72l-4.538,26.508h10.115l-1.674,9.766h-10.112l-6.997,40.871c-0.884,5.284-1.325,8.394-1.325,9.329
			c0,1.637,0.361,2.829,1.083,3.577c0.721,0.747,1.795,1.122,3.219,1.122C1311.04,537.302,1312.939,537.023,1314.621,536.465z"/>
		<path fill="#F16623" d="M1324.164,546.72l12.684-74.082h9.199l-2.591,15.137c6.068-11.207,12.162-16.812,18.278-16.812
			c2.084,0,4.633,0.907,7.645,2.721l-4.249,11.719c-1.808-1.58-3.707-2.372-5.698-2.372c-3.8,0-7.587,2.5-11.362,7.499
			c-3.776,5-6.739,13.824-8.885,26.473l-5.183,29.717H1324.164z"/>
		<path fill="#F16623" d="M1404.475,533.262c-7.287,10.088-14.737,15.132-22.349,15.132c-4.41,0-8.111-1.581-11.104-4.743
			c-2.994-3.162-4.491-7.231-4.491-12.208c0-3.162,0.649-8.51,1.949-16.044l7.307-42.761h10.403l-8.082,47.377
			c-0.698,3.954-1.046,6.993-1.046,9.118c0,2.91,0.72,5.115,2.162,6.616c1.441,1.502,3.464,2.252,6.07,2.252
			c3.673,0,7.335-1.475,10.985-4.424c3.651-2.949,6.324-6.643,8.022-11.079c1.697-4.437,3.213-10.395,4.55-17.875l5.86-31.984
			h10.402l-13.462,74.082h-9.625L1404.475,533.262z"/>
		<path fill="#F16623" d="M1501.752,537.512c-3.811,4-7.389,6.813-10.736,8.44c-3.345,1.627-6.739,2.442-10.177,2.442
			c-5.391,0-9.863-1.93-13.419-5.79c-3.555-3.859-5.331-9.114-5.331-15.765c0-4.743,1.044-8.882,3.134-12.416
			c2.091-3.534,5.024-6.244,8.802-8.127c3.777-1.883,9.18-2.988,16.212-3.313c5.938-0.325,10.011-0.673,12.22-1.047
			c2.208-0.371,4.097-0.93,5.666-1.674c0.991-3.533,1.489-6.418,1.489-8.65c0-3.094-1.174-5.577-3.52-7.448
			c-2.347-1.87-5.745-2.806-10.196-2.806c-8.95,0-14.755,4.464-17.415,13.393l-10.464-1.047c4.524-15.159,14.027-22.74,28.505-22.74
			c7.145,0,12.812,1.871,17.005,5.614c4.191,3.744,6.287,8.451,6.287,14.123c0,3.889-0.554,8.45-1.661,13.681l-3.984,18.335
			c-1.273,5.833-1.91,10.557-1.91,14.167c0,2.487,0.395,5.767,1.186,9.837h-10.63
			C1502.305,544.395,1501.949,541.326,1501.752,537.512z M1506.303,509.19c-2.605,1.21-7.011,2.139-13.216,2.791
			c-6.348,0.652-10.706,1.489-13.074,2.51c-2.369,1.024-4.216,2.581-5.541,4.675c-1.327,2.092-1.99,4.511-1.99,7.254
			c0,3.768,1.056,6.744,3.168,8.929c2.112,2.187,4.929,3.279,8.45,3.279c3.332,0,6.547-1.023,9.644-3.069
			c3.098-2.045,5.62-4.999,7.568-8.859C1503.26,522.84,1504.922,517.003,1506.303,509.19z"/>
		<path fill="#F16623" d="M1567.911,519.724l10.324,1.325c-2.605,9.255-6.326,16.126-11.161,20.614
			c-4.837,4.488-10.232,6.732-16.184,6.732c-6.418,0-11.731-2.534-15.94-7.604c-4.209-5.068-6.312-12.416-6.312-22.043
			c0-9.44,1.545-18.02,4.638-25.741c3.093-7.719,7-13.323,11.72-16.812c4.719-3.487,9.963-5.231,15.731-5.231
			c6.231,0,11.323,2.186,15.276,6.557c3.952,4.371,5.906,10.371,5.86,17.997l-10.184,0.837c0-4.836-1.13-8.546-3.391-11.126
			c-2.26-2.581-5.044-3.872-8.354-3.872c-3.681,0-7.003,1.221-9.961,3.662c-2.96,2.442-5.523,6.953-7.691,13.533
			c-2.166,6.581-3.25,13.871-3.25,21.869c0,5.954,1.179,10.475,3.539,13.567c2.359,3.094,5.175,4.639,8.447,4.639
			c3.364,0,6.589-1.558,9.674-4.674C1563.776,530.839,1566.182,526.095,1567.911,519.724z"/>
		<path fill="#F16623" d="M1625.502,537.512c-3.811,4-7.389,6.813-10.736,8.44c-3.345,1.627-6.739,2.442-10.177,2.442
			c-5.391,0-9.863-1.93-13.419-5.79c-3.555-3.859-5.331-9.114-5.331-15.765c0-4.743,1.044-8.882,3.134-12.416
			c2.091-3.534,5.024-6.244,8.802-8.127c3.777-1.883,9.18-2.988,16.212-3.313c5.938-0.325,10.011-0.673,12.22-1.047
			c2.208-0.371,4.097-0.93,5.666-1.674c0.991-3.533,1.489-6.418,1.489-8.65c0-3.094-1.174-5.577-3.52-7.448
			c-2.347-1.87-5.745-2.806-10.196-2.806c-8.95,0-14.755,4.464-17.415,13.393l-10.464-1.047c4.524-15.159,14.027-22.74,28.505-22.74
			c7.145,0,12.812,1.871,17.005,5.614c4.191,3.744,6.287,8.451,6.287,14.123c0,3.889-0.554,8.45-1.661,13.681l-3.984,18.335
			c-1.273,5.833-1.91,10.557-1.91,14.167c0,2.487,0.395,5.767,1.186,9.837h-10.63
			C1626.055,544.395,1625.699,541.326,1625.502,537.512z M1630.053,509.19c-2.605,1.21-7.011,2.139-13.216,2.791
			c-6.348,0.652-10.706,1.489-13.074,2.51c-2.369,1.024-4.216,2.581-5.541,4.675c-1.327,2.092-1.99,4.511-1.99,7.254
			c0,3.768,1.056,6.744,3.168,8.929c2.112,2.187,4.929,3.279,8.45,3.279c3.332,0,6.547-1.023,9.644-3.069
			c3.098-2.045,5.62-4.999,7.568-8.859C1627.01,522.84,1628.672,517.003,1630.053,509.19z"/>
		<path fill="#F16623" d="M1650.293,521.398l10.324-0.767c-0.047,6.046,1.279,10.558,3.976,13.533
			c2.697,2.976,6.371,4.464,11.023,4.464c4.23,0,7.579-1.057,10.045-3.173c2.464-2.116,3.697-4.825,3.697-8.127
			c0-2.372-0.767-4.51-2.302-6.418c-1.582-1.906-4.999-4.231-10.254-6.976c-6.046-3.162-10.034-5.591-11.963-7.289
			c-1.931-1.697-3.431-3.768-4.5-6.208c-1.071-2.442-1.604-5.173-1.604-8.197c0-6.184,1.998-11.277,5.999-15.277
			c3.999-3.998,9.254-5.999,15.766-5.999c7.207,0,12.904,2.058,17.09,6.174c4.186,4.116,6.371,9.871,6.557,17.265l-10.184,0.837
			c-0.14-4.651-1.477-8.232-4.012-10.743c-2.535-2.511-5.941-3.767-10.22-3.767c-3.348,0-6.068,0.941-8.161,2.825
			c-2.093,1.883-3.139,4.057-3.139,6.522c0,2.139,0.628,3.976,1.883,5.511c1.256,1.582,4.442,3.696,9.559,6.344
			c7.862,4.136,12.86,7.435,15,9.901c3.252,3.861,4.879,8.56,4.879,14.095c0,6.14-2.17,11.421-6.514,15.839
			c-4.342,4.419-10.367,6.628-18.075,6.628c-7.756,0-13.839-2.232-18.251-6.697c-4.413-4.464-6.618-10.765-6.618-18.904V521.398z"/>
		<path fill="#F16623" d="M1749.252,537.512c-3.811,4-7.389,6.813-10.736,8.44c-3.345,1.627-6.739,2.442-10.177,2.442
			c-5.391,0-9.863-1.93-13.419-5.79c-3.555-3.859-5.331-9.114-5.331-15.765c0-4.743,1.044-8.882,3.134-12.416
			c2.091-3.534,5.024-6.244,8.802-8.127c3.777-1.883,9.18-2.988,16.212-3.313c5.938-0.325,10.011-0.673,12.22-1.047
			c2.208-0.371,4.097-0.93,5.666-1.674c0.991-3.533,1.489-6.418,1.489-8.65c0-3.094-1.174-5.577-3.52-7.448
			c-2.347-1.87-5.745-2.806-10.196-2.806c-8.95,0-14.755,4.464-17.415,13.393l-10.464-1.047c4.524-15.159,14.027-22.74,28.505-22.74
			c7.145,0,12.812,1.871,17.005,5.614c4.191,3.744,6.287,8.451,6.287,14.123c0,3.889-0.554,8.45-1.661,13.681l-3.984,18.335
			c-1.273,5.833-1.91,10.557-1.91,14.167c0,2.487,0.395,5.767,1.186,9.837h-10.63
			C1749.805,544.395,1749.449,541.326,1749.252,537.512z M1753.803,509.19c-2.605,1.21-7.011,2.139-13.216,2.791
			c-6.348,0.652-10.706,1.489-13.074,2.51c-2.369,1.024-4.216,2.581-5.541,4.675c-1.327,2.092-1.99,4.511-1.99,7.254
			c0,3.768,1.056,6.744,3.168,8.929c2.112,2.187,4.929,3.279,8.45,3.279c3.332,0,6.547-1.023,9.644-3.069
			c3.098-2.045,5.62-4.999,7.568-8.859C1750.76,522.84,1752.422,517.003,1753.803,509.19z M1730.794,447.454h6.766
			c0.743,6.512,3.721,9.766,8.929,9.766c2.651,0,4.999-0.848,7.045-2.546c2.046-1.697,3.604-4.103,4.675-7.22h6.836
			c-1.349,5.696-3.744,10.154-7.185,13.375c-3.442,3.221-7.349,4.832-11.719,4.832c-4.325,0-7.906-1.599-10.743-4.798
			C1732.561,457.667,1731.027,453.196,1730.794,447.454z"/>
		<path fill="#F16623" d="M1776.067,546.72l2.59-14.3h11.734l-2.577,14.3H1776.067z M1782.624,520.909l7.136-55.404l3.817-21.051
			h12.667l-4.112,22.818l-13.09,53.637H1782.624z"/>
	</g>
</g>
</svg>
