<?xml version="1.0" encoding="UTF-8"?>
<svg width="83px" height="48px" viewBox="0 0 83 48" version="1.1" xmlns="http://www.w3.org/2000/svg" xmlns:xlink="http://www.w3.org/1999/xlink">
    <!-- Generator: Sketch 47.1 (45422) - http://www.bohemiancoding.com/sketch -->
    <title>Icons/Logo Copy</title>
    <desc>Created with Sketch.</desc>
    <defs></defs>
    <g id="Symbols" stroke="none" stroke-width="1" fill="none" fill-rule="evenodd">
        <g id="Icons/Logo-Copy" fill-rule="nonzero" fill="#000000">
            <g id="Sole_logo" transform="translate(0.000000, 16.000000)">
                <path d="M2.25641026,3.7374359 C2.25641026,1.48102564 5.90564103,0.89025641 8.28923077,0.89025641 C10.8594872,0.89025641 13.6020513,1.42358974 15.36,3.29641026 L15.4707692,3.29641026 L15.4707692,1.02974359 C13.1161031,0.37141007 10.6784721,0.0577239977 8.23384615,0.0984615385 C3.98358974,0.0984615385 0.0861538462,1.82358974 0.0861538462,5.07076923 C0.0861538462,11.8092308 14.1333333,7.41333333 14.1333333,12.0758974 C14.1333333,14.4164103 10.9846154,15.2389744 8.4225641,15.2389744 C5.39487179,15.2389744 2.37948718,14.5128205 0.270769231,12.3548718 L0.121025641,12.3548718 L0.145641026,14.6112821 C2.69538462,15.5569231 4.96820513,15.9876923 8.39794872,15.9876923 C13.9630769,15.9876923 16.5825641,13.0830769 16.5825641,10.6297436 C16.5846154,3.68 2.25641026,7.97538462 2.25641026,3.7374359 Z" id="Shape"></path>
                <path d="M31.2348718,0.17025641 C25.0153846,0.17025641 21.3210256,3.84205128 21.3210256,8.05948718 C21.3210256,12.2769231 25.0133333,15.9487179 31.2348718,15.9487179 C37.4564103,15.9487179 41.1487179,12.2769231 41.1487179,8.05948718 C41.1487179,3.84205128 37.454359,0.17025641 31.2348718,0.17025641 Z M31.2348718,15.3620513 C27.7312821,15.3620513 25.4051282,12.705641 25.4051282,8.0574359 C25.4051282,3.40923077 27.7312821,0.754871795 31.2348718,0.754871795 C34.7384615,0.754871795 37.0646154,3.41128205 37.0646154,8.05948718 C37.0646154,12.7076923 34.7405128,15.3641026 31.2348718,15.3641026 L31.2348718,15.3620513 Z" id="Shape"></path>
                <path d="M51.0584615,8.12307692 C51.0584615,4.70358974 51.2041026,0.438974359 51.2041026,0.438974359 L46.9948718,0.438974359 C46.9948718,0.438974359 47.1405128,3.99589744 47.1405128,8.24820513 C47.1405128,12.5005128 46.9948718,15.6882051 46.9948718,15.6882051 L61.9446154,15.6882051 L61.9446154,14.6625641 L51.1774359,14.8676923 C51.1364103,13.5015385 51.0584615,10.6215385 51.0584615,8.12307692 Z" id="Shape"></path>
                <path d="M71.105641,8.30358974 L80.4471795,8.41846154 L80.4471795,7.39282051 L71.1076923,7.50769231 C71.1179487,5.13641026 71.1876923,2.51692308 71.2266667,1.23076923 L82.0451282,1.43589744 L82.0451282,0.41025641 L67.0420513,0.41025641 C67.0420513,0.41025641 67.1876923,3.96717949 67.1876923,8.21948718 C67.1876923,12.4717949 67.0420513,15.6882051 67.0420513,15.6882051 L82.8369231,15.6882051 L82.8369231,14.6625641 L71.2205128,14.8676923 C71.185641,13.5425641 71.1097436,10.7651282 71.105641,8.30358974 Z" id="Shape"></path>
            </g>
        </g>
    </g>
</svg>