<?xml version="1.0" encoding="utf-8"?>
<!-- Generator: Adobe Illustrator 16.0.3, SVG Export Plug-In . SVG Version: 6.00 Build 0)  -->
<!DOCTYPE svg PUBLIC "-//W3C//DTD SVG 1.1//EN" "http://www.w3.org/Graphics/SVG/1.1/DTD/svg11.dtd">
<svg version="1.1" id="Layer_1" xmlns="http://www.w3.org/2000/svg" xmlns:xlink="http://www.w3.org/1999/xlink" x="0px" y="0px"
	 width="150px" height="47px" viewBox="0 0 150 47" enable-background="new 0 0 150 47" xml:space="preserve">
<g>
	<g>
		<path fill-rule="evenodd" clip-rule="evenodd" fill="#1A1A18" d="M133.687,34.845c0,1.037-0.343,1.92-1.027,2.657
			c-0.737,0.765-1.667,1.148-2.79,1.148h-11.686V35.77h11.686c0.438,0,0.659-0.309,0.659-0.925c0-0.617-0.221-0.925-0.659-0.925
			h-8.501c-1.123,0-2.053-0.385-2.79-1.152c-0.702-0.722-1.053-1.603-1.053-2.643c0-1.041,0.359-1.936,1.079-2.69
			c0.72-0.751,1.641-1.128,2.764-1.128h11.686v2.882h-11.712c-0.438,0-0.658,0.312-0.658,0.937c0,0.608,0.221,0.913,0.658,0.913
			h8.519c1.128,0,2.058,0.384,2.799,1.148C133.344,32.919,133.687,33.807,133.687,34.845z"/>
		<path fill-rule="evenodd" clip-rule="evenodd" fill="#1A1A18" d="M98.387,34.745c0,1.116-0.431,2.048-1.289,2.792
			c-0.86,0.74-1.905,1.113-3.133,1.113h-7.948c-1.229,0-2.271-0.373-3.132-1.113c-0.86-0.744-1.289-1.676-1.289-2.792v-4.533
			c0-1.115,0.429-2.047,1.289-2.793c0.86-0.74,1.903-1.112,3.132-1.112h7.948c1.228,0,2.272,0.372,3.133,1.112
			c0.858,0.746,1.289,1.678,1.289,2.793V34.745L98.387,34.745z M95.229,34.74v-4.524c0-0.683-0.422-1.027-1.264-1.027h-7.948
			c-0.843,0-1.264,0.345-1.264,1.027v4.524c0,0.685,0.421,1.029,1.264,1.029h7.948C94.807,35.77,95.229,35.425,95.229,34.74z"/>
		<polygon fill-rule="evenodd" clip-rule="evenodd" fill="#1A1A18" points="79.425,38.65 76.267,38.65 76.267,33.92 68.134,33.92 
			68.134,38.65 64.975,38.65 64.975,26.307 68.134,26.307 68.134,31.038 76.267,31.038 76.267,26.307 79.425,26.307 		"/>
		<polygon fill-rule="evenodd" clip-rule="evenodd" fill="#1A1A18" points="149.438,29.188 138.147,29.188 138.147,31.038 
			148.701,31.038 148.701,33.92 138.147,33.92 138.147,35.77 149.412,35.77 149.412,38.65 134.989,38.65 134.989,26.307 
			149.438,26.307 		"/>
	</g>
	<g>
		<path fill-rule="evenodd" clip-rule="evenodd" fill="#FFCB00" d="M149.833,19.375c0,1.117-0.426,2.049-1.275,2.794
			c-0.853,0.74-1.892,1.112-3.118,1.112h-10.45V15.5h3.158v4.899h7.313c0.812,0,1.215-0.344,1.215-1.028v-4.523
			c0-0.685-0.403-1.029-1.215-1.029h-10.471v-2.881h10.45c1.227,0,2.266,0.373,3.118,1.113c0.85,0.744,1.275,1.677,1.275,2.793
			V19.375z"/>
		<polygon fill-rule="evenodd" clip-rule="evenodd" fill="#1A1A18" points="132.831,23.281 129.673,23.281 121.54,14.972 
			121.54,23.281 118.382,23.281 118.382,10.937 121.54,10.937 129.673,19.199 129.673,10.937 132.831,10.937 		"/>
		<path fill-rule="evenodd" clip-rule="evenodd" fill="#1A1A18" d="M116.336,34.885c0,1.041-0.359,1.938-1.079,2.69
			c-0.72,0.752-1.641,1.128-2.764,1.128h-8.949c-1.141,0-2.064-0.376-2.775-1.128c-0.711-0.753-1.065-1.649-1.065-2.69V10.937h3.158
			v23.948c0,0.625,0.228,0.937,0.683,0.937h8.976c0.438,0,0.659-0.312,0.659-0.937V10.937h3.157V34.885z"/>
		<path fill-rule="evenodd" clip-rule="evenodd" fill="#1A1A18" d="M98.387,19.375c0,1.117-0.431,2.049-1.291,2.794
			c-0.858,0.74-1.903,1.112-3.131,1.112h-7.948c-1.229,0-2.271-0.372-3.132-1.112c-0.86-0.745-1.289-1.677-1.289-2.794v-4.531
			c0-1.116,0.429-2.049,1.289-2.793c0.86-0.741,1.903-1.113,3.132-1.113h7.948c1.228,0,2.272,0.373,3.131,1.113
			c0.86,0.744,1.291,1.677,1.291,2.793V19.375L98.387,19.375z M95.229,19.371v-4.523c0-0.685-0.422-1.029-1.264-1.029h-7.948
			c-0.843,0-1.264,0.344-1.264,1.029v4.523c0,0.684,0.421,1.028,1.264,1.028h7.948C94.807,20.399,95.229,20.055,95.229,19.371z"/>
		<path fill-rule="evenodd" clip-rule="evenodd" fill="#1A1A18" d="M80.279,19.475c0,1.037-0.342,1.921-1.027,2.657
			c-0.734,0.765-1.666,1.149-2.789,1.149H64.778v-2.882h11.685c0.439,0,0.658-0.308,0.658-0.924c0-0.616-0.219-0.925-0.658-0.925
			h-8.5c-1.124,0-2.053-0.384-2.79-1.152c-0.702-0.721-1.053-1.602-1.053-2.642c0-1.04,0.36-1.937,1.079-2.689
			c0.72-0.753,1.64-1.129,2.764-1.129h11.686v2.881H67.937c-0.439,0-0.658,0.313-0.658,0.937c0,0.608,0.219,0.913,0.658,0.913h8.518
			c1.128,0,2.058,0.384,2.798,1.149C79.938,17.549,80.279,18.438,80.279,19.475z"/>
	</g>
	<path fill-rule="evenodd" clip-rule="evenodd" fill="#FFCB00" d="M7.061,46.689c-3.707,0-6.731-3.024-6.731-6.731V23.017
		c0-3.642,2.801-5.349,5.782-6.546l24.162-9.715l23.682,9.721c2.966,1.218,5.765,2.896,5.765,6.541v16.941
		c0,3.707-3.024,6.731-6.731,6.731H7.061L7.061,46.689z M7.061,44.145h45.928c2.301,0,4.186-1.884,4.186-4.187V23.017
		c0-2.301-2.056-3.311-4.186-4.186L30.264,9.502L7.061,18.831c-2.136,0.859-4.186,1.885-4.186,4.186v16.941
		C2.875,42.261,4.758,44.145,7.061,44.145z"/>
	<path fill-rule="evenodd" clip-rule="evenodd" fill="#1A1A18" d="M64.976,43.401l1.028,3.276h0.563l0.548-1.56
		c0.12-0.348,0.225-0.693,0.309-1.086h0.015c0.084,0.386,0.182,0.711,0.302,1.079l0.514,1.566h0.563l1.104-3.276h-0.612
		l-0.485,1.641c-0.112,0.388-0.205,0.733-0.26,1.072h-0.021c-0.078-0.339-0.184-0.691-0.303-1.072l-0.527-1.641h-0.515l-0.563,1.668
		c-0.119,0.354-0.232,0.706-0.302,1.045h-0.021c-0.07-0.339-0.148-0.691-0.254-1.052l-0.457-1.661H64.976L64.976,43.401z
		 M71.992,43.326c-0.922,0-1.696,0.624-1.696,1.723c0,1.061,0.726,1.703,1.619,1.703c0.788,0,1.71-0.502,1.71-1.717
		C73.625,43.985,72.942,43.326,71.992,43.326L71.992,43.326z M71.958,43.768c0.767,0,1.041,0.704,1.041,1.274
		c0,0.665-0.366,1.262-1.041,1.262c-0.69,0-1.035-0.597-1.035-1.255C70.922,44.467,71.197,43.768,71.958,43.768L71.958,43.768z
		 M74.406,46.678h0.612V44.92c0-0.087,0.007-0.189,0.028-0.271c0.085-0.449,0.388-0.767,0.831-0.767
		c0.085,0,0.147,0.005,0.205,0.021v-0.564c-0.051-0.013-0.099-0.013-0.17-0.013c-0.407,0-0.788,0.278-0.949,0.718h-0.021
		l-0.021-0.643h-0.543c0.015,0.306,0.028,0.631,0.028,1.017V46.678L74.406,46.678z M76.708,46.678h0.611v-4.816h-0.611V46.678
		L76.708,46.678z M80.685,41.861v1.96h-0.014c-0.155-0.264-0.508-0.495-1.027-0.495c-0.831,0-1.535,0.666-1.528,1.765
		c0,0.99,0.633,1.661,1.464,1.661c0.549,0,0.965-0.271,1.147-0.643h0.021l0.027,0.568h0.55c-0.014-0.231-0.028-0.557-0.028-0.842
		v-3.975H80.685L80.685,41.861z M80.685,45.299c0,0.098-0.007,0.178-0.028,0.259c-0.119,0.447-0.493,0.72-0.908,0.72
		c-0.668,0-1.014-0.558-1.014-1.222c0-0.727,0.388-1.262,1.029-1.262c0.464,0,0.801,0.306,0.9,0.685
		c0.014,0.076,0.021,0.178,0.021,0.252V45.299L80.685,45.299z M83.83,45.836c0,0.285-0.014,0.617-0.027,0.842h0.533l0.03-0.536
		h0.014c0.259,0.426,0.653,0.61,1.146,0.61c0.753,0,1.535-0.584,1.535-1.757c0-0.991-0.6-1.669-1.444-1.669
		c-0.549,0-0.942,0.231-1.161,0.597h-0.014v-2.062H83.83V45.836L83.83,45.836z M84.442,44.771c0-0.094,0.021-0.17,0.034-0.243
		c0.127-0.455,0.521-0.733,0.938-0.733c0.669,0,1.021,0.563,1.021,1.222c0,0.753-0.381,1.262-1.034,1.262
		c-0.443,0-0.811-0.279-0.931-0.698c-0.021-0.068-0.027-0.145-0.027-0.218V44.771L84.442,44.771z M87.842,46.678h0.612V44.92
		c0-0.087,0.007-0.189,0.029-0.271c0.083-0.449,0.386-0.767,0.829-0.767c0.085,0,0.147,0.005,0.205,0.021v-0.564
		c-0.051-0.013-0.1-0.013-0.17-0.013c-0.407,0-0.788,0.278-0.949,0.718h-0.022l-0.021-0.643h-0.54
		c0.014,0.306,0.027,0.631,0.027,1.017V46.678L87.842,46.678z M92.535,44.67c0-0.657-0.252-1.344-1.293-1.344
		c-0.423,0-0.838,0.109-1.12,0.285l0.141,0.393c0.231-0.147,0.57-0.245,0.887-0.245c0.69,0,0.773,0.49,0.773,0.762v0.074
		c-1.315-0.014-2.047,0.421-2.047,1.215c0,0.468,0.359,0.942,1.042,0.942c0.485,0,0.851-0.236,1.042-0.488h0.014l0.056,0.414h0.556
		c-0.034-0.225-0.05-0.503-0.05-0.788V44.67L92.535,44.67z M91.938,45.572c0,0.061-0.016,0.121-0.029,0.189
		c-0.104,0.277-0.379,0.549-0.829,0.549c-0.312,0-0.586-0.176-0.586-0.57c0-0.636,0.769-0.752,1.444-0.731V45.572L91.938,45.572z
		 M93.536,46.678h0.611v-1.975c0-0.103,0.021-0.203,0.049-0.278c0.113-0.332,0.423-0.61,0.831-0.61c0.584,0,0.787,0.441,0.787,0.978
		v1.886h0.613v-1.961c0-1.119-0.731-1.391-1.197-1.391c-0.563,0-0.956,0.305-1.124,0.61h-0.022l-0.028-0.535h-0.548
		c0.015,0.264,0.028,0.542,0.028,0.883V46.678L93.536,46.678z M99.764,41.861v1.96H99.75c-0.155-0.264-0.506-0.495-1.027-0.495
		c-0.831,0-1.535,0.666-1.528,1.765c0,0.99,0.635,1.661,1.464,1.661c0.549,0,0.965-0.271,1.147-0.643h0.021l0.029,0.568h0.548
		c-0.013-0.231-0.028-0.557-0.028-0.842v-3.975H99.764L99.764,41.861z M99.764,45.299c0,0.098-0.007,0.178-0.028,0.259
		c-0.119,0.447-0.491,0.72-0.908,0.72c-0.668,0-1.012-0.558-1.012-1.222c0-0.727,0.386-1.262,1.027-1.262
		c0.464,0,0.801,0.306,0.9,0.685c0.014,0.076,0.021,0.178,0.021,0.252V45.299L99.764,45.299z M101.172,46.522
		c0.239,0.136,0.584,0.229,0.957,0.229c0.809,0,1.274-0.413,1.274-0.99c0-0.496-0.312-0.773-0.896-0.984
		c-0.45-0.17-0.646-0.292-0.646-0.563c0-0.244,0.203-0.456,0.563-0.456c0.323,0,0.57,0.124,0.704,0.198l0.154-0.435
		c-0.191-0.107-0.493-0.196-0.838-0.196c-0.731,0-1.175,0.433-1.175,0.958c0,0.393,0.288,0.718,0.9,0.935
		c0.457,0.164,0.633,0.313,0.633,0.599c0,0.271-0.211,0.486-0.661,0.486c-0.309,0-0.634-0.122-0.816-0.236L101.172,46.522
		L101.172,46.522z M108.568,46.678c-0.014-0.265-0.027-0.55-0.027-0.896v-2.381h-0.613v2.009c0,0.101-0.021,0.216-0.056,0.31
		c-0.093,0.245-0.381,0.544-0.831,0.544c-0.535,0-0.746-0.414-0.746-1.052v-1.811h-0.618v1.911c0,1.054,0.506,1.439,1.168,1.439
		c0.633,0,0.979-0.357,1.133-0.61h0.015l0.034,0.536H108.568L108.568,46.678z M109.568,46.678h0.611v-1.975
		c0-0.103,0.021-0.203,0.049-0.278c0.113-0.332,0.423-0.61,0.831-0.61c0.584,0,0.789,0.441,0.789,0.978v1.886h0.611v-1.961
		c0-1.119-0.731-1.391-1.197-1.391c-0.562,0-0.956,0.305-1.124,0.61h-0.023l-0.027-0.535h-0.549
		c0.016,0.264,0.029,0.542,0.029,0.883V46.678L109.568,46.678z M115.796,41.861v1.96h-0.014c-0.155-0.264-0.506-0.495-1.027-0.495
		c-0.831,0-1.535,0.666-1.528,1.765c0,0.99,0.635,1.661,1.464,1.661c0.549,0,0.965-0.271,1.147-0.643h0.022l0.027,0.568h0.55
		c-0.016-0.231-0.03-0.557-0.03-0.842v-3.975H115.796L115.796,41.861z M115.796,45.299c0,0.098-0.007,0.178-0.028,0.259
		c-0.119,0.447-0.491,0.72-0.907,0.72c-0.669,0-1.013-0.558-1.013-1.222c0-0.727,0.386-1.262,1.027-1.262
		c0.464,0,0.801,0.306,0.9,0.685c0.014,0.076,0.021,0.178,0.021,0.252V45.299L115.796,45.299z M120.174,45.145
		c0.015-0.061,0.028-0.156,0.028-0.278c0-0.604-0.296-1.54-1.401-1.54c-0.999,0-1.604,0.773-1.604,1.771
		c0,0.983,0.626,1.654,1.676,1.654c0.542,0,0.921-0.114,1.134-0.21l-0.106-0.428c-0.226,0.096-0.501,0.169-0.943,0.169
		c-0.626,0-1.154-0.331-1.168-1.139H120.174L120.174,45.145z M117.795,44.717c0.049-0.414,0.323-0.963,0.95-0.963
		c0.697,0,0.866,0.589,0.858,0.963H117.795L117.795,44.717z M120.969,46.678h0.613V44.92c0-0.087,0.007-0.189,0.027-0.271
		c0.086-0.449,0.388-0.767,0.831-0.767c0.084,0,0.147,0.005,0.203,0.021v-0.564c-0.048-0.013-0.099-0.013-0.168-0.013
		c-0.409,0-0.789,0.278-0.951,0.718h-0.021l-0.021-0.643h-0.542c0.014,0.306,0.028,0.631,0.028,1.017V46.678L120.969,46.678z
		 M126.219,43.326c-0.921,0-1.696,0.624-1.696,1.723c0,1.061,0.726,1.703,1.62,1.703c0.787,0,1.709-0.502,1.709-1.717
		C127.852,43.985,127.17,43.326,126.219,43.326L126.219,43.326z M126.185,43.768c0.767,0,1.041,0.704,1.041,1.274
		c0,0.665-0.365,1.262-1.041,1.262c-0.69,0-1.034-0.597-1.034-1.255C125.15,44.467,125.423,43.768,126.185,43.768L126.185,43.768z
		 M128.634,46.678h0.611v-1.975c0-0.103,0.021-0.203,0.051-0.278c0.111-0.332,0.422-0.61,0.829-0.61
		c0.586,0,0.789,0.441,0.789,0.978v1.886h0.611v-1.961c0-1.119-0.731-1.391-1.195-1.391c-0.563,0-0.958,0.305-1.127,0.61h-0.021
		l-0.027-0.535h-0.55c0.014,0.264,0.028,0.542,0.028,0.883V46.678L128.634,46.678z M135.27,45.145
		c0.014-0.061,0.029-0.156,0.029-0.278c0-0.604-0.295-1.54-1.4-1.54c-1,0-1.606,0.773-1.606,1.771c0,0.983,0.628,1.654,1.676,1.654
		c0.542,0,0.923-0.114,1.133-0.21l-0.105-0.428c-0.225,0.096-0.499,0.169-0.942,0.169c-0.627,0-1.154-0.331-1.168-1.139H135.27
		L135.27,45.145z M132.892,44.717c0.049-0.414,0.323-0.963,0.949-0.963c0.697,0,0.865,0.589,0.858,0.963H132.892L132.892,44.717z
		 M137.563,46.678h0.614V44.92c0-0.087,0.007-0.189,0.027-0.271c0.085-0.449,0.386-0.767,0.831-0.767
		c0.083,0,0.147,0.005,0.203,0.021v-0.564c-0.049-0.013-0.098-0.013-0.169-0.013c-0.408,0-0.787,0.278-0.95,0.718h-0.021
		l-0.021-0.643h-0.542c0.014,0.306,0.027,0.631,0.027,1.017V46.678L137.563,46.678z M141.316,43.326
		c-0.923,0-1.696,0.624-1.696,1.723c0,1.061,0.725,1.703,1.618,1.703c0.789,0,1.71-0.502,1.71-1.717
		C142.948,43.985,142.266,43.326,141.316,43.326L141.316,43.326z M141.28,43.768c0.768,0,1.042,0.704,1.042,1.274
		c0,0.665-0.366,1.262-1.042,1.262c-0.69,0-1.034-0.597-1.034-1.255C140.246,44.467,140.521,43.768,141.28,43.768L141.28,43.768z
		 M145.18,43.326c-0.923,0-1.696,0.624-1.696,1.723c0,1.061,0.726,1.703,1.618,1.703c0.789,0,1.711-0.502,1.711-1.717
		C146.813,43.985,146.129,43.326,145.18,43.326L145.18,43.326z M145.144,43.768c0.769,0,1.043,0.704,1.043,1.274
		c0,0.665-0.367,1.262-1.043,1.262c-0.688,0-1.034-0.597-1.034-1.255C144.109,44.467,144.384,43.768,145.144,43.768L145.144,43.768z
		 M148.269,46.678V43.85h0.824v-0.448h-0.824v-0.185c0-0.508,0.134-0.956,0.655-0.956c0.169,0,0.281,0.042,0.381,0.082l0.104-0.454
		c-0.104-0.056-0.31-0.103-0.534-0.103c-0.281,0-0.591,0.089-0.823,0.305c-0.289,0.266-0.395,0.685-0.395,1.146v0.164h-0.479v0.448
		h0.479v2.828H148.269z"/>
	<path fill-rule="evenodd" clip-rule="evenodd" fill="#1A1A18" d="M36.008,23.134V5.645V0.646V0.489l23.711,9.692v5.155L40.28,7.39
		l0.225,16.179l0.118,5.402v0.134h-0.001c-0.032,3.027-2.177,6.321-5.803,8.367c-5.011,2.827-10.954,2.202-13.27-1.396
		c-2.315-3.599-0.129-8.806,4.879-11.636C29.64,22.631,33.232,22.237,36.008,23.134z"/>
</g>
</svg>
