<svg width="176" height="24" viewBox="0 0 176 24" fill="none" xmlns="http://www.w3.org/2000/svg">
<g clip-path="url(#clip0_24642_365762)">
<path d="M57.6997 10.0522C58.1022 8.94066 57.9632 7.77599 57.3198 6.85782C56.6877 5.95662 55.67 5.43873 54.5302 5.43873L46.0914 5.42969C45.2581 5.42969 44.4077 5.71803 43.6976 6.2427C43.0226 6.74023 42.5002 7.43111 42.2265 8.18872L40.2172 13.709L40.1267 13.9578C39.7242 15.0693 39.8633 16.234 40.5067 17.1522C41.1387 18.0534 42.1564 18.5713 43.2962 18.5713H51.7384C52.5718 18.5713 53.4221 18.2829 54.1322 17.7582C54.8072 17.2607 55.3297 16.5698 55.6033 15.8122L57.7008 10.0511L57.6997 10.0522ZM54.987 9.0707L52.8895 14.8319C52.721 15.2955 52.193 15.6878 51.7361 15.6878H43.2951C43.1051 15.6878 42.9536 15.62 42.8665 15.4967C42.7704 15.3588 42.7591 15.1564 42.8371 14.9404L44.9369 9.17134C45.1054 8.70773 45.6335 8.31536 46.0903 8.31536L54.5291 8.32441C54.7191 8.32441 54.8706 8.39225 54.9576 8.5155C55.0537 8.65345 55.0651 8.85586 54.987 9.07183V9.0707Z" fill="black"/>
<path d="M17.3887 15.1722C17.7912 14.0607 17.6521 12.896 17.0087 11.9779C16.3755 11.0755 15.359 10.5588 14.2192 10.5588H6.71552C6.52555 10.5588 6.37403 10.4909 6.28697 10.3677C6.18972 10.2297 6.17954 10.0273 6.25757 9.81134L6.48937 9.17021C6.65785 8.7066 7.18591 8.31423 7.64273 8.31423H19.8842L20.9347 5.42969H7.64386C6.8105 5.42969 5.96018 5.71916 5.25007 6.2427C4.57501 6.74023 4.05261 7.43111 3.77896 8.18872L3.54716 8.82985C3.14461 9.94138 3.2837 11.106 3.92709 12.0242C4.55918 12.9254 5.57686 13.4433 6.71665 13.4433H14.2192C14.4091 13.4433 14.5607 13.5112 14.6477 13.6344C14.7438 13.7724 14.7551 13.9748 14.6771 14.1907L14.4453 14.8319C14.2768 15.2955 13.7488 15.6878 13.292 15.6878H1.05047L0 18.5713H13.292C14.1253 18.5713 14.9756 18.2829 15.6858 17.7582C16.3608 17.2607 16.8832 16.5698 17.1569 15.8122L17.3887 15.1711V15.1722Z" fill="black"/>
<path d="M35.3092 5.42969H26.8682C26.0348 5.42969 25.1845 5.71803 24.4744 6.2427C23.7993 6.74023 23.2769 7.43111 23.0033 8.18872L17.3574 23.7003H20.4274L22.2943 18.5724H32.514C33.3473 18.5724 34.1977 18.284 34.9078 17.7594C35.5828 17.2618 36.1052 16.571 36.3789 15.8134L38.4798 10.0443C38.8824 8.93275 38.7433 7.76808 38.0999 6.84991C37.4678 5.9487 36.4501 5.43082 35.3103 5.43082L35.3092 5.42969ZM35.7672 9.06165L33.6662 14.8307C33.4977 15.2943 32.9697 15.6867 32.5129 15.6867H23.3436L25.7148 9.17021C25.8833 8.7066 26.4113 8.31423 26.8682 8.31423H35.3092C35.4992 8.31423 35.6507 8.38207 35.7378 8.50533C35.8339 8.64328 35.8452 8.84568 35.7672 9.06165V9.06165Z" fill="black"/>
<path d="M116.895 5.42969H108.439C107.605 5.42969 106.755 5.71803 106.045 6.2427C105.37 6.74023 104.848 7.43111 104.574 8.18872L100.795 18.5713H103.865L107.287 9.17021C107.455 8.7066 107.983 8.31423 108.44 8.31423H116.895C117.084 8.31423 117.236 8.38207 117.323 8.50533C117.419 8.64328 117.43 8.84568 117.352 9.06165L113.878 18.5713H116.964L120.065 10.0431C120.468 8.93162 120.329 7.76695 119.685 6.84878C119.053 5.94644 118.035 5.42969 116.896 5.42969H116.895Z" fill="black"/>
<path d="M100.433 6.84878C99.8005 5.94644 98.7828 5.42969 97.643 5.42969H86.3253L85.2748 8.31423H97.643C97.8329 8.31423 97.9845 8.38207 98.0715 8.50533C98.1676 8.64328 98.179 8.84568 98.1009 9.06165L97.5435 10.5588H87.3328C86.4994 10.5588 85.6491 10.8471 84.939 11.3718C84.264 11.8693 83.7415 12.5602 83.4679 13.3178L83.2361 13.9589C82.8336 15.0705 82.9726 16.2351 83.616 17.1533C84.2481 18.0545 85.2658 18.5724 86.4056 18.5724H94.8512C95.6845 18.5724 96.5348 18.2829 97.245 17.7594C97.92 17.2618 98.4424 16.571 98.7161 15.8134L100.812 10.0443C101.215 8.93275 101.076 7.76808 100.433 6.84991V6.84878ZM96.0045 14.8307C95.836 15.2943 95.308 15.6867 94.8512 15.6867H86.4056C86.2156 15.6867 86.0641 15.6189 85.977 15.4956C85.8809 15.3577 85.8696 15.1553 85.9476 14.9393L86.1794 14.2982C86.3479 13.8345 86.876 13.4422 87.3328 13.4422H96.5066L96.0045 14.8296V14.8307Z" fill="black"/>
<path d="M83.2388 5.42873H78.6005L80.4674 0.300781H77.3996L75.5328 5.42873H72.447L71.3965 8.31327H74.4823L72.439 13.9568C72.0365 15.0684 72.1756 16.233 72.819 17.1512C73.4522 18.0535 74.4552 18.5703 75.5961 18.5703H78.4546L79.5051 15.6858H75.5972C75.4073 15.6858 75.2557 15.6179 75.1687 15.4947C75.0726 15.3567 75.0612 15.1543 75.1393 14.9383L77.5512 8.31327H82.1895L83.24 5.42873H83.2388Z" fill="black"/>
<path d="M64.1585 9.17021C64.327 8.7066 64.855 8.31423 65.3118 8.31423H69.862L70.9124 5.42969H65.3118C64.4785 5.42969 63.6281 5.71803 62.918 6.2427C62.243 6.74023 61.7206 7.43111 61.4469 8.18872L57.668 18.5713H60.738L64.1596 9.17021H64.1585Z" fill="black"/>
<path d="M151.444 9.17021C151.612 8.7066 152.14 8.31423 152.597 8.31423H157.147L158.198 5.42969H152.597C151.764 5.42969 150.913 5.71803 150.203 6.2427C149.528 6.74023 149.006 7.43111 148.732 8.18872L144.953 18.5713H148.023L151.445 9.17021H151.444Z" fill="black"/>
<path d="M139.288 10.0483C139.69 8.93676 139.551 7.77209 138.908 6.85392C138.276 5.95271 137.258 5.43483 136.118 5.43483L127.679 5.42578C126.846 5.42578 125.996 5.71412 125.286 6.23879C124.61 6.73632 124.088 7.42721 123.814 8.18481L121.805 13.7051L121.715 13.9539C121.312 15.0654 121.451 16.2301 122.095 17.1483C122.727 18.0495 123.744 18.5674 124.884 18.5674H133.326C134.16 18.5674 135.01 18.279 135.72 17.7543C136.395 17.2568 136.918 16.5659 137.191 15.8083L139.289 10.0472L139.288 10.0483ZM136.575 9.06679L134.477 14.828C134.309 15.2916 133.781 15.6839 133.324 15.6839H124.883C124.693 15.6839 124.541 15.6161 124.454 15.4928C124.358 15.3549 124.347 15.1525 124.425 14.9365L126.525 9.16743C126.693 8.70382 127.221 8.31145 127.678 8.31145L136.117 8.3205C136.307 8.3205 136.458 8.38834 136.546 8.5116C136.642 8.64955 136.653 8.85195 136.575 9.06792V9.06679Z" fill="black"/>
<path d="M175.774 10.0483C176.176 8.93676 176.037 7.77209 175.394 6.85392C174.762 5.95271 173.744 5.43483 172.604 5.43483L164.166 5.42578C163.332 5.42578 162.482 5.71412 161.772 6.23879C161.097 6.73632 160.574 7.42721 160.301 8.18481L158.291 13.7051L158.201 13.9539C157.798 15.0654 157.937 16.2301 158.581 17.1483C159.213 18.0495 160.231 18.5674 161.37 18.5674H169.813C170.646 18.5674 171.496 18.279 172.206 17.7543C172.881 17.2568 173.404 16.5659 173.678 15.8083L175.775 10.0472L175.774 10.0483ZM173.061 9.06679L170.964 14.828C170.795 15.2916 170.267 15.6839 169.81 15.6839H161.369C161.179 15.6839 161.028 15.6161 160.941 15.4928C160.845 15.3549 160.833 15.1525 160.911 14.9365L163.011 9.16743C163.18 8.70382 163.708 8.31145 164.165 8.31145L172.603 8.3205C172.793 8.3205 172.945 8.38834 173.032 8.5116C173.128 8.64955 173.139 8.85195 173.061 9.06792V9.06679Z" fill="black"/>
<path d="M142.974 15.6836H139.988L138.939 18.5636L141.922 18.5704L142.974 15.6836Z" fill="black"/>
</g>
<defs>
<clipPath id="clip0_24642_365762">
<rect width="176" height="23.3986" fill="white" transform="translate(0 0.300781)"/>
</clipPath>
</defs>
</svg>
