<svg xmlns="http://www.w3.org/2000/svg" width="231" height="66.28" viewBox="0 0 231 66.28"><path d="M70.851,43.447H67.595c-13.731,0-15.025-6.819-15.025-13.6,0-11.118,7.179-13.527,11.73-13.527a36.141,36.141,0,0,1,6.552.593Zm0,31.354c0,2.372-.157,2.705-2.354,2.705-19.458,0-20.635-9.08-20.635-16.01,0-7.375,1.844-16.937,22.989-14.713ZM27.422,46.041c5.845-.741,13.064-3.3,15.535-10.748,2.315,6.671,8.278,8.746,11.652,9.821-5.806,1.52-12.358,4.6-15.1,10.081C36.485,49.525,31.306,46.411,27.422,46.041ZM18.36,43.558h-3.3V16.985c7.062-1.408,18.282-1.334,18.282,12.971C33.346,36.7,32.091,43.558,18.36,43.558ZM80.815,16.911l5.139-.667V15.058l-20.988-.63c-9.572-.259-19.145,1.7-22.048,9.525-2.9-7.746-12.436-9.673-21.969-9.414L0,15.169v1.186l5.139.63c.667.074.667.556.667,1.927V75.06c0,1.334,0,1.816-.667,1.89L0,77.58V78.8H20.871V77.58l-5.139-.63c-.667-.074-.667-.556-.667-1.89V46.6a20.65,20.65,0,0,1,5.218,0c13.064,2.446,10.71,15.64,12.475,22.311,1.922,7.338,7.807,14.157,25.5,9.9l.2-.371a46.462,46.462,0,0,0,5.257.259H85.955V77.506l-5.139-.667c-.667-.074-.667-.556-.667-1.89V18.8C80.148,17.467,80.148,16.985,80.815,16.911Z" transform="translate(0 -13.841)"/><path d="M3358.907,1185a.506.506,0,0,0-.471.471v8.945h-10.945v-8.945a.477.477,0,0,0-.471-.471h-.549a.477.477,0,0,0-.471.471v20.518a.486.486,0,0,0,.471.51h.549a.486.486,0,0,0,.471-.51v-10.043h10.945v10.043a.514.514,0,0,0,.471.51h.549a.519.519,0,0,0,.51-.51v-20.518a.514.514,0,0,0-.51-.471Z" transform="translate(-3222.372 -1142.359)"/><path d="M4185.024,1185a11.043,11.043,0,1,0,11.063,11.024A11.034,11.034,0,0,0,4185.024,1185Zm0,1.53a9.513,9.513,0,1,1,0,19.027,9.513,9.513,0,1,1,0-19.027Z" transform="translate(-4020.126 -1142.359)"/><path d="M5210.569,1193.53h7.61a.514.514,0,0,0,.51-.471v-.549a.519.519,0,0,0-.51-.51h-8.67a.519.519,0,0,0-.51.51v20.479a.494.494,0,0,0,.51.51h8.67a.5.5,0,0,0,.51-.51v-.51a.519.519,0,0,0-.51-.51h-7.61v-9.337h7.61a.519.519,0,0,0,.51-.51v-.51a.519.519,0,0,0-.51-.51h-7.61Z" transform="translate(-5018.055 -1149.084)"/><path d="M5939.063,1180.609a.478.478,0,0,0,.2-.667l-.079-.118a6.516,6.516,0,0,0-5.414-2.825,5.563,5.563,0,0,0-5.767,5.688c0,2.432.9,4.315,5.3,6.12,4.315,1.8,5.021,2.825,5.021,4.825,0,2.236-1.922,3.923-4.511,3.923a6.928,6.928,0,0,1-4.433-2.158c-.353-.275-.549-.275-.745-.078l-.432.353c-.274.2-.2.549.039.785a8.427,8.427,0,0,0,5.571,2.628c3.3,0,6.042-2.236,6.042-5.453,0-3.374-2.04-4.59-5.963-6.238-2.9-1.216-4.315-2.236-4.315-4.708a3.943,3.943,0,0,1,4.2-4.119,4.707,4.707,0,0,1,4.159,2.158.472.472,0,0,0,.588.157Z" transform="translate(-5708.848 -1134.673)"/><path d="M2582.063,1188.57a.437.437,0,0,0,.2-.628l-.079-.118a6.421,6.421,0,0,0-5.414-2.825,5.556,5.556,0,0,0-5.767,5.649c0,2.432.9,4.355,5.335,6.159,4.315,1.765,4.982,2.785,4.982,4.825,0,2.2-1.922,3.884-4.511,3.884a7.022,7.022,0,0,1-4.433-2.119c-.314-.275-.51-.275-.745-.118l-.431.392a.483.483,0,0,0,.039.745,8.355,8.355,0,0,0,5.571,2.668c3.3,0,6.081-2.275,6.081-5.453,0-3.413-2.04-4.59-5.963-6.277-2.942-1.216-4.355-2.2-4.355-4.708a3.943,3.943,0,0,1,4.2-4.119,4.685,4.685,0,0,1,4.158,2.2.506.506,0,0,0,.628.118Z" transform="translate(-2475.954 -1142.359)"/><path d="M3418.5,60.171,3406.415,46.95c7.219-1.216,11.024-5.492,11.024-11.769,0-8.121-5.688-11.181-13.182-11.181H3399.9a.88.88,0,0,0-.9.863V60.72a.921.921,0,0,0,.9.942h.9a.921.921,0,0,0,.9-.942V26.668h2.55c4.9,0,10.514,1.255,10.514,8.513,0,6.552-5.414,9.376-12.083,9.376a.956.956,0,0,0-.745,1.53l13.888,15.222a1.119,1.119,0,0,0,.745.353h1.295a.877.877,0,0,0,.706-1.452Z" transform="translate(-3273.615 -23.058)"/><path d="M4091.9,24a.88.88,0,0,0-.9.863V60.72a.921.921,0,0,0,.9.942h4.433c8.435,0,12.71-4.9,12.71-10.867a10.556,10.556,0,0,0-5.806-9.455,8.75,8.75,0,0,0,4.551-8.042c0-5.532-3.883-9.3-10.318-9.3Zm1.8,34.915V42.635l4.2-.078c5.3.235,8.4,4.08,8.4,8.238,0,5.257-3.805,8.121-9.964,8.121Zm0-18.988V26.668h3.766c4.59,0,7.572,2.393,7.572,6.63,0,4.08-2.55,6.395-7.14,6.63Z" transform="translate(-3940.013 -23.058)"/><path d="M4750.561,0h-.2a.926.926,0,0,0-.745.667l-11.73,36.8a.884.884,0,0,0,.824,1.138h1.02a.985.985,0,0,0,.824-.628l2.668-8.552h14.555l2.667,8.552a.983.983,0,0,0,.785.628h1.02a.872.872,0,0,0,.863-1.138l-11.73-36.8A.93.93,0,0,0,4750.561,0Zm6.355,26.716h-12.868l6.434-20.2Z" transform="translate(-4565.383)"/><path d="M5594.088.942a.879.879,0,0,0-.9.863V32.993L5571.569.353a.865.865,0,0,0-.628-.353h-.2a.878.878,0,0,0-.745.824V37.662a.912.912,0,0,0,.824.942h.981a.915.915,0,0,0,.863-.942V6.708l21.655,32.483a.862.862,0,0,0,1.059.314.888.888,0,0,0,.51-.824V1.8a.88.88,0,0,0-.9-.863Z" transform="translate(-5364.893)"/><path d="M2594.3,24a.934.934,0,0,0-.9.863V49.578a9.725,9.725,0,0,1-9.808,9.847,9.93,9.93,0,0,1-9.847-9.847V24.863a.88.88,0,0,0-.9-.863h-.941a.88.88,0,0,0-.9.863V49.578a12.574,12.574,0,1,0,25.147,0V24.863a.88.88,0,0,0-.9-.863Z" transform="translate(-2476.306 -23.058)"/></svg>