<?xml version="1.0" encoding="UTF-8"?> <svg xmlns="http://www.w3.org/2000/svg" xmlns:xlink="http://www.w3.org/1999/xlink" width="107.549" height="71.88" viewBox="0 0 107.549 71.88"><defs><linearGradient id="linear-gradient" y1="0.5" x2="1" y2="0.5" gradientUnits="objectBoundingBox"><stop offset="0" stop-color="#5c4d29"></stop><stop offset="0.428" stop-color="#836b38"></stop><stop offset="0.787" stop-color="#9e8042"></stop><stop offset="1" stop-color="#a88846"></stop></linearGradient><linearGradient id="linear-gradient-2" y1="0.5" x2="1" y2="0.5" gradientUnits="objectBoundingBox"><stop offset="0" stop-color="#5c4d29"></stop><stop offset="0.169" stop-color="#5c4d29"></stop><stop offset="0.308" stop-color="#6e5b2f"></stop><stop offset="0.594" stop-color="#8d733b"></stop><stop offset="0.834" stop-color="#a18243"></stop><stop offset="1" stop-color="#a88846"></stop></linearGradient><linearGradient id="linear-gradient-3" y1="0.5" x2="1" y2="0.5" gradientUnits="objectBoundingBox"><stop offset="0" stop-color="#5c4d29"></stop><stop offset="0.258" stop-color="#796434"></stop><stop offset="0.54" stop-color="#93773e"></stop><stop offset="0.796" stop-color="#a28343"></stop><stop offset="1" stop-color="#a88846"></stop></linearGradient><linearGradient id="linear-gradient-4" y1="0.5" x2="1" y2="0.5" gradientUnits="objectBoundingBox"><stop offset="0" stop-color="#5c4d29"></stop><stop offset="1" stop-color="#a88846"></stop></linearGradient><linearGradient id="linear-gradient-5" y1="0.5" x2="1" y2="0.5" gradientUnits="objectBoundingBox"><stop offset="0" stop-color="#a88846"></stop><stop offset="0.901" stop-color="#63532b"></stop><stop offset="1" stop-color="#5c4d29"></stop></linearGradient><linearGradient id="linear-gradient-6" y1="0.5" x2="1" y2="0.5" gradientUnits="objectBoundingBox"><stop offset="0" stop-color="#5c4d29"></stop><stop offset="0.34" stop-color="#7a6434"></stop><stop offset="0.766" stop-color="#9b7e41"></stop><stop offset="1" stop-color="#a88846"></stop></linearGradient></defs><g id="Group_32908" data-name="Group 32908" transform="translate(-45.185 -68.589)"><g id="Group_32907" data-name="Group 32907" transform="translate(45.185 68.589)"><g id="Group_32905" data-name="Group 32905" transform="translate(58.093 33.409)"><g id="Group_32904" data-name="Group 32904"><path id="Path_53707" data-name="Path 53707" d="M81.007,97.124h.016l-.007-.013Z" transform="translate(-81.007 -97.111)"></path><path id="Path_53708" data-name="Path 53708" d="M81.015,97.111l-.009.013h.016l-.007-.013Z" transform="translate(-81.007 -97.111)"></path></g></g><path id="Path_53709" data-name="Path 53709" d="M89.106,91.017" transform="translate(-21.526 -64.746)" stroke="#000" stroke-miterlimit="10" stroke-width="0.34"></path><g id="Group_32906" data-name="Group 32906" transform="translate(0 39.335)"><path id="Path_53710" data-name="Path 53710" d="M67.276,119.2l-.082-.24.057-.283.021-.071.251-.089h.025a.371.371,0,0,1,.424.4l-.088.288-.313.107Z" transform="translate(-25.28 -99.369)" fill="#170f0b"></path><path id="Path_53711" data-name="Path 53711" d="M67.553,119.132l.193-.066.057-.172c0-.173-.082-.259-.251-.259l-.18.066-.059.193.059.172Z" transform="translate(-25.259 -99.349)" fill="#170f0b"></path><path id="Path_53712" data-name="Path 53712" d="M55.006,130.293a13.237,13.237,0,0,1-3.235-.391,12.185,12.185,0,0,1-2.822-1.046,10.294,10.294,0,0,1-2.283-1.633,8.464,8.464,0,0,1-1.567-2h-.153a12.143,12.143,0,0,1-3-.37,9.234,9.234,0,0,1-2.439-.993,5.315,5.315,0,0,1-1.639-1.541,3.273,3.273,0,0,1,.029-3.872,5.6,5.6,0,0,1,1.722-1.525,9.393,9.393,0,0,1,2.513-1.023,12.421,12.421,0,0,1,3.071-.375l1.793.141a11.555,11.555,0,0,1,1.748-1.408c.333-.214.678-.411,1.034-.6s.723-.349,1.1-.5.765-.283,1.168-.405.813-.214,1.233-.3l2.6-.247,2.808.307,2.627.784,2.411,1.014,2.206,1.01s.757.316,1.009.417.47.186.7.269l.249.093.281.078.43-.118a.468.468,0,0,1,.494.3c.163.016.326.029.485.029l.44-.014.354-.048.327-.1.526-.223.137.244-.084.152a3.523,3.523,0,0,1-.8.354l-.9.062a4.165,4.165,0,0,1-.5-.029,2.437,2.437,0,0,1-.3.527l-.916,1.062-1.447,1.355-1.9,1.476c-.349.246-.707.492-1.088.727s-.772.47-1.175.7a23.892,23.892,0,0,1-2.619,1.286l-.466.494a1.176,1.176,0,0,0-.11.2l.095.071c.008-.03.245-.075.816-.29a5.186,5.186,0,0,0,.711-.32c.245-.131.506-.278.781-.452l.039-.166.194-.269.272-.2.372-.11.228.258-.132.237-.239.23-.242.186-.135.086a.341.341,0,0,0,.114.252.49.49,0,0,0,.328.11l.246-.042.836-.3.615-.265.34-.182.378-.216.426-.269c.144-.088.3-.194.472-.315l.171-.3.244-.151.1-.054.244.279-.375.457.068.381.035.331-.275.317-.506.36-.367.271-.041.069.061.035.568-.145,1.178-.395,1.272-.46,1.385-.575.145.233-.076.158-.415.258-.329.233-.438.363-.2.234-.013.08a.5.5,0,0,1,.091,0l.791-.125,1.223-.395.859-.286.964-.411.843-.272.614-.123c.5,0,.548.28.548.4l-.093.217-.22.128-.06.025-.185-.086-.143-.224-.453.1-.678.353-.555.421c-.13.114-.179.2-.179.249l.013.022.259.036.984-.094a11.59,11.59,0,0,0,1.693-.458l2.4-.78.835-.214.939-.08.655.146.136-.084.313.276-.914.6-.439.346-.2.233,0,.019.138.074.457-.141,1.153-.421.187.123-.018.167-.066.1-1.158.463-.635.117c-.484,0-.533-.262-.533-.376l.061-.223q-.146.07-.281.13a3.891,3.891,0,0,1-.65.254l-.937.163-.428-.071-.18-.32.168-.382-.9.3a16.856,16.856,0,0,1-1.693.439l-1.123.124a.785.785,0,0,1-.5-.123l-.182-.329.15-.41.012-.015-.876.313-1.235.371-.884.128c-.454,0-.52-.227-.52-.363l.17-.451c.011-.014.021-.028.033-.042l-.439.149-.553.207-1.187.388-.744.112-.348-.056-.122-.28.189-.38.652-.5.317-.221.08-.114-.014-.155-.041-.175-.736.462-.722.4-.641.275-.609.24-.565.124h-.022a1.1,1.1,0,0,1-.558-.143.643.643,0,0,1-.283-.383,7.588,7.588,0,0,1-1.358.679,3.2,3.2,0,0,1-1.032.262c-.391,0-.433-.247-.433-.354l.129-.384.077-.1-.2.08-.663.224-1.08.405-.637.117c-.465,0-.531-.235-.531-.376l.059-.221c-.1.046-.187.09-.278.129a4.185,4.185,0,0,1-.65.254l-.945.163-.418-.071-.186-.319.165-.382-.976.33-.163-.159.022-.167.028-.033.105-.091,2.391-.78.838-.214.937-.08.656.146.132-.088.306.282-.905.6-.437.346-.2.233-.006.02.137.073.457-.142,2.68-.968,2.315-2.176,2.154-1.948,1.838-1.608,1.293-1.03c.2-.135.371-.248.527-.344-.267-.095-.508-.185-.751-.285l-1.014-.422L63.607,114.7,61.215,113.7l-2.584-.76a12.237,12.237,0,0,0-2.736-.312,12.9,12.9,0,0,0-4.814.9,11.929,11.929,0,0,0-3.556,2.235,7.632,7.632,0,0,1,1.517.465,5.719,5.719,0,0,1,1.437.778,4.653,4.653,0,0,1,.96,1,2.225,2.225,0,0,1,.362,1.2c0,.513-.271.568-.387.568l-.29-.1-.1-.233.115-.782a1.24,1.24,0,0,0-.275-.72,3.693,3.693,0,0,0-.823-.75,7.665,7.665,0,0,0-1.28-.641,10.672,10.672,0,0,0-1.6-.422,9.232,9.232,0,0,0-1.825,2.661,7.8,7.8,0,0,0-.657,3.2,6.44,6.44,0,0,0,.285,1.909l1.71-.327c.6-.175,1.222-.383,1.825-.616a15.081,15.081,0,0,0,1.731-.882c.275-.171.535-.344.778-.52.139-.1.275-.2.406-.31H45.867l.094-.418h5.968l.273-.267,1.529-1.7,1-.957.927-.59.473-.189a3.2,3.2,0,0,1,.514-.1l.127-.015.075.276-.135.109a3.426,3.426,0,0,0-.936.322,4.614,4.614,0,0,0-.867.6l-.87.919-1.308,1.59h1.828l.4-.117.308.337-.207.258-.346.212-.341.23-.344.481-.353-.1.022-.13a1.8,1.8,0,0,1,.206-.553l.155-.2H52.383l-1.406,1.553a8.709,8.709,0,0,1-1.563,1.25,6.8,6.8,0,0,1-1.825.83,9.3,9.3,0,0,1-2.009.335,8.787,8.787,0,0,0,.553.809,8.617,8.617,0,0,0,.86.935,9.885,9.885,0,0,0,2.186,1.546c.422.218.859.412,1.3.59a11.6,11.6,0,0,0,1.423.432c.5.11,1.013.2,1.529.269a13.284,13.284,0,0,0,1.571.091l2.048-.145,2.036-.456a9.735,9.735,0,0,0,3.623-1.927l.111-.095.273.312-.111.1a7.877,7.877,0,0,1-.848.65,11.114,11.114,0,0,1-2.908,1.376,10.776,10.776,0,0,1-1.048.273c-.341.071-.7.136-1.067.194l-2.1.144Zm20.73-5.722.525-.061.658-.206.881-.387.857-.469-.136,0-1.059.142-.965.33-.685.419a.591.591,0,0,0-.2.23h.009C75.645,124.566,75.681,124.571,75.736,124.571Zm-21.869,0,.529-.061.657-.206.879-.387.859-.469-.135,0-1.059.142-.966.33-.686.419a.549.549,0,0,0-.191.23h.009C53.781,124.567,53.815,124.571,53.867,124.571ZM45.2,115.946a11.889,11.889,0,0,0-2.946.344,8.734,8.734,0,0,0-2.385.976,5.331,5.331,0,0,0-1.592,1.409,2.909,2.909,0,0,0-.559,1.7,2.512,2.512,0,0,0,.439,1.4,3.851,3.851,0,0,0,1.229,1.153,5.464,5.464,0,0,0,.852.436,8.818,8.818,0,0,0,1,.33,9.033,9.033,0,0,0,2.3.281l.586-.021.417-.027a6.858,6.858,0,0,1-.287-1.96,8.234,8.234,0,0,1,.686-3.332,9.681,9.681,0,0,1,1.691-2.6l-.553-.063Zm22.893.664a7.185,7.185,0,0,0-.8.5l-1.26,1.035-1.855,1.626-2.1,1.9-1.436,1.319a21.757,21.757,0,0,0,2.771-1.57c.555-.361,1.064-.713,1.534-1.064.454-.329.888-.676,1.29-1.028a19.589,19.589,0,0,0,1.843-1.806,4.362,4.362,0,0,0,.563-.807c-.164-.03-.331-.069-.5-.112Z" transform="translate(-30.411 -100.452)" fill="#170f0b"></path><path id="Path_53713" data-name="Path 53713" d="M78.65,124.617l-.559.128-.239-.128.063-.193.223-.251.449-.353.753-.5-.086-.075-.094.057-.67-.155-.914.075-.827.211-2.394.78a11.768,11.768,0,0,1-1.725.465l-1.02.093-.333-.047-.063-.159a.557.557,0,0,1,.237-.365l.576-.435.713-.367.644-.144-.023.066v.062l.07.149.128.059.144-.059.076-.149c0-.17-.124-.255-.378-.255l-.59.118-.832.268-.559.239-.417.176-.384.127-.476.159-1.245.4-.813.128c-.163,0-.244-.045-.244-.128l.054-.193.22-.251.445-.369.337-.239.415-.259-.049-.08-1.276.529-1.277.462-1.2.4-.669.128-.191-.11.158-.241.369-.273.478-.334.234-.269-.028-.259-.078-.445.223-.273.115-.141-.084-.1-.186.1-.21.344c-.171.124-.334.231-.48.321l-.431.272-.383.218-.351.186-.623.269-.59.207-.271.1-.272.045a.633.633,0,0,1-.417-.141.529.529,0,0,1-.176-.449l.2-.124.232-.177.211-.192.08-.145-.1-.11-.238.066-.239.163-.176.237-.1.235c-.279.176-.541.324-.789.458a5.525,5.525,0,0,1-.73.328,3.509,3.509,0,0,1-.958.268l-.171-.13a.849.849,0,0,1,.171-.362l.514-.527a23.738,23.738,0,0,0,2.6-1.278c.4-.234.8-.47,1.173-.7s.734-.477,1.075-.718l1.888-1.467,1.434-1.344.907-1.05a1.717,1.717,0,0,0,.312-.608,4.122,4.122,0,0,0,.6.046l.862-.059a3.337,3.337,0,0,0,.765-.339l-.045-.08-.417.176-.351.11-.37.05-.444.013a5.331,5.331,0,0,1-.6-.041.312.312,0,0,0-.353-.294l-.492.118-.294-.083c-.3-.115-.624-.225-.946-.363s-.662-.272-1.017-.421l-2.2-1.006-2.4-1.009-2.6-.779-2.778-.307-2.584.244c-.417.088-.818.184-1.221.3s-.786.252-1.155.4-.738.314-1.088.5-.695.376-1.021.587a11.374,11.374,0,0,0-1.773,1.437l-1.85-.144a12.226,12.226,0,0,0-3.035.369,9.245,9.245,0,0,0-2.473,1.007,5.438,5.438,0,0,0-1.679,1.483,3.124,3.124,0,0,0-.621,1.848,3.158,3.158,0,0,0,.594,1.857,5.127,5.127,0,0,0,1.593,1.5,9.07,9.07,0,0,0,2.4.977,11.918,11.918,0,0,0,2.962.367h.241a8.216,8.216,0,0,0,1.581,2.044,10.125,10.125,0,0,0,2.249,1.609,12.03,12.03,0,0,0,2.79,1.034,13.012,13.012,0,0,0,3.2.387l2.084-.143c.365-.057.72-.121,1.061-.193s.693-.165,1.035-.268a9.7,9.7,0,0,0,1.963-.816,9.861,9.861,0,0,0,.907-.542,7.752,7.752,0,0,0,.83-.638l-.08-.09a9.824,9.824,0,0,1-1.737,1.176,10.171,10.171,0,0,1-1.948.784l-2.059.458L54.984,130a13.533,13.533,0,0,1-1.591-.094c-.518-.067-1.031-.159-1.543-.273a11.838,11.838,0,0,1-1.444-.437c-.45-.18-.891-.377-1.317-.6a9.9,9.9,0,0,1-2.219-1.57,8.8,8.8,0,0,1-.877-.952,9.36,9.36,0,0,1-.686-1.034,9.421,9.421,0,0,0,2.219-.341,6.691,6.691,0,0,0,1.789-.815,8.692,8.692,0,0,0,1.532-1.224l1.45-1.6h2.044l-.333.413a1.66,1.66,0,0,0-.19.507l.127.039.32-.432.348-.237.306-.176.128-.16-.162-.176-.35.1H52.393l.241-.292.238-.289,1.037-1.258.88-.929a4.832,4.832,0,0,1,.9-.62,3.528,3.528,0,0,1,.976-.336l-.021-.078a2.961,2.961,0,0,0-.477.094l-.45.176-.9.572-.991.949-1.232,1.369-.3.334-.315.309H46.057l-.028.123H51.8c-.233.2-.473.394-.727.576s-.51.355-.788.528a15.168,15.168,0,0,1-1.755.894c-.6.231-1.215.44-1.851.623l-1.838.351a6.5,6.5,0,0,1-.331-2.079,7.9,7.9,0,0,1,.67-3.256,9.331,9.331,0,0,1,1.91-2.76,10.6,10.6,0,0,1,1.7.445,7.64,7.64,0,0,1,1.307.655,3.859,3.859,0,0,1,.861.784,1.389,1.389,0,0,1,.3.83l-.062.411-.063.289.076.176.18.066c.156,0,.239-.141.239-.419a2.079,2.079,0,0,0-.336-1.115,4.492,4.492,0,0,0-.928-.962,5.6,5.6,0,0,0-1.406-.76,7.523,7.523,0,0,0-1.772-.506A11.886,11.886,0,0,1,51,113.362a12.952,12.952,0,0,1,4.869-.907,12.294,12.294,0,0,1,2.778.316l2.6.766,2.4,1.007,2.2,1.011c.355.145.688.287,1.017.422s.643.248.946.357l.108.028a8.953,8.953,0,0,0-.8.5l-1.287,1.025L64,119.49l-2.152,1.947-2.366,2.208-.8.287-.8.286-1.1.4-.56.128-.24-.128.069-.193.22-.251.446-.353.748-.5-.082-.075-.088.057-.674-.155-.912.075-.828.211-2.392.78-.063.078.063.062.889-.3.691-.238.014.011-.5.372-.158.365.112.2.3.057.928-.158a4.046,4.046,0,0,0,.634-.248c.241-.105.508-.241.8-.387l.013.015-.315.33-.077.269c0,.156.114.231.363.231l.6-.11,1.086-.408.654-.22.688-.273-.369.484-.121.334c0,.138.089.206.286.206a3.073,3.073,0,0,0,.982-.254,7.88,7.88,0,0,0,1.519-.782.575.575,0,0,0,.244.5.964.964,0,0,0,.476.128l.542-.118.607-.238.625-.268.716-.4.911-.572.091.4.019.21-.148.193-.315.22-.606.45-.16.316.064.145.223.041.719-.107,1.18-.387.556-.207.416-.141.374-.145.375-.159.022.015a2.488,2.488,0,0,0-.593.518l-.16.4c0,.145.118.217.356.217l.859-.123,1.228-.37.282-.1.193-.071.324-.117.271-.093.3-.128.014.013-.334.387-.128.351.11.22a.655.655,0,0,0,.4.094l1.1-.124a16.048,16.048,0,0,0,1.673-.435l.894-.3.686-.238.016.011-.494.372-.16.365.11.2.307.057.921-.158a3.8,3.8,0,0,0,.634-.248c.241-.105.508-.241.808-.387l.014.015-.316.33-.078.269c0,.156.121.231.364.231l.6-.11,1.087-.408.066-.1-.066-.043Zm-33.6-5.94a8.027,8.027,0,0,0-.675,3.274,6.624,6.624,0,0,0,.337,2.094l-.61.04-.59.022a8.717,8.717,0,0,1-3.355-.622,5.616,5.616,0,0,1-.874-.447,4,4,0,0,1-1.276-1.2,2.637,2.637,0,0,1-.463-1.486,3.06,3.06,0,0,1,.588-1.786,5.4,5.4,0,0,1,1.633-1.449,8.863,8.863,0,0,1,2.426-.993,12.037,12.037,0,0,1,2.985-.348l.891.027.846.1A9.569,9.569,0,0,0,45.054,118.677ZM68.577,116.3l.193.042.026.1-.437-.086Zm-6.623,5.232,2.1-1.9,1.859-1.628,1.27-1.042a6.6,6.6,0,0,1,.848-.525l.083-.02a6.64,6.64,0,0,0,.693.149,2.882,2.882,0,0,1-.644,1.021,20.165,20.165,0,0,1-1.857,1.82c-.39.341-.823.69-1.3,1.034s-.984.707-1.54,1.069a22.772,22.772,0,0,1-3.639,1.967ZM55.97,124.03l-.894.394-.686.211-.545.063c-.178,0-.266-.046-.266-.129,0-.1.088-.238.266-.38l.717-.433.993-.336,1.069-.144.289.016.239.094Zm21.867,0-.895.394-.686.211-.541.063c-.18,0-.272-.046-.272-.129,0-.1.091-.238.272-.38l.715-.433.992-.336,1.069-.144.29.016.238.094Z" transform="translate(-30.389 -100.43)" fill="#170f0b"></path><path id="Path_53714" data-name="Path 53714" d="M82.246,123.972l-.151-.33.049-.121-.121.039-.014-.011-1.392.36-1.245.146-.378-.1-.108-.223.028-.249a5.235,5.235,0,0,1-.86.347l-1.032.163c-.5,0-.549-.28-.549-.4l.15-.382-.979.34-.168-.159.026-.169.027-.032.1-.091,1.182-.4,1.073-.335.886-.239,1-.1.306.013.226.066,1.151-1.081,1.176-1.116,1.021-1.016.806-.847H86.7l-.1.37-.064.028a5.439,5.439,0,0,0-.5.267c-.2.1-.411.231-.637.376l-1.516.993-1.641,1.113L80.763,122.3l-1.064.9a1.645,1.645,0,0,0-.369.429s.046,0,.083,0l1.128-.148c.239-.04.484-.1.738-.165s.5-.142.738-.227l.071-.025.021.014.158-.039.2-.081a4.458,4.458,0,0,1,.92-.7,1.888,1.888,0,0,1,.83-.261l.3.066.162.289-.22.286-.463.262-.624.232-.7.21-.1.172-.022.087.242.043,1.057-.159,1.187-.4.167.151-.023.166-.027.035-.107.094-1.13.369-1.189.171Zm-5.171-.385a4.444,4.444,0,0,0,1.235-.31,8.086,8.086,0,0,0,1.533-.823l-.056-.007-1.053.141-.945.329-.674.419a.723.723,0,0,0-.17.182Z" transform="translate(-23.861 -99.45)" fill="#170f0b"></path><path id="Path_53715" data-name="Path 53715" d="M83.736,118.974l-1.024,1.017-1.176,1.117-1.214,1.14-.272-.083-.285-.014-.972.1-.881.237-1.071.335-1.182.4-.066.078.066.062,1.007-.348.572-.19.018.011-.5.372-.157.365c0,.169.134.254.383.254l1.009-.158a6.515,6.515,0,0,0,1.387-.635l.014.015-.349.4-.045.2.08.165.255.078,1.226-.144,1.456-.376.011.007.193-.062.158-.053-.144.356.095.206.382.083,1.139-.162,1.13-.369.064-.08-.064-.057-1.13.378-1.1.158-.321-.057-.046-.135.046-.159.13-.22.751-.224.606-.224.413-.221.162-.211-.081-.145-.2-.048a1.747,1.747,0,0,0-.756.241,5.022,5.022,0,0,0-.941.713l-.223.088-.223.055-.014-.011c-.244.086-.494.162-.75.231s-.507.126-.756.169l-1.148.149c-.16,0-.238-.048-.238-.131,0-.1.145-.293.428-.562l1.072-.907,1.488-1.119,1.642-1.113,1.517-.994c.231-.149.445-.276.642-.38a5.42,5.42,0,0,1,.511-.273l.03-.116H84.5Zm-.24,3.511a1.445,1.445,0,0,1,.689-.237l.158.075-.479.3a5.685,5.685,0,0,1-1.117.383A5.253,5.253,0,0,1,83.5,122.484Zm-5.154.908a3.862,3.862,0,0,1-1.358.3l-.237-.129c0-.1.09-.238.268-.38l.7-.433.973-.336,1.073-.144.46.061A8.873,8.873,0,0,1,78.342,123.392Z" transform="translate(-23.84 -99.429)" fill="#170f0b"></path><path id="Path_53716" data-name="Path 53716" d="M116.94,119.2l-.09-.234.064-.294.022-.066.235-.09h.028c.287,0,.429.15.429.4l-.089.289-.317.105Z" transform="translate(-16.772 -99.369)" fill="#170f0b"></path><path id="Path_53717" data-name="Path 53717" d="M117.2,118.635l-.171.066-.066.193.066.172.171.066.2-.066.059-.172A.227.227,0,0,0,117.2,118.635Z" transform="translate(-16.752 -99.349)" fill="#170f0b"></path><path id="Path_53718" data-name="Path 53718" d="M101.1,124.332l1.3-1.011c.365-.282.376-.388.376-.395a.285.285,0,0,0-.105-.013l-.444.109-.672.254-.772.329-1.877.757-.636.117c-.464,0-.528-.235-.528-.376l.057-.223c-.1.047-.19.09-.278.13a4.133,4.133,0,0,1-.649.254l-.946.163-.424-.071-.176-.321.164-.381-.894.3-.763.214-.741.159-.624.115-.464.036c-.432,0-.494-.213-.494-.341l.238-.5.122-.13-.266.114-.934.331-.561.122h-.021a1.1,1.1,0,0,1-.556-.143.647.647,0,0,1-.282-.384,7.531,7.531,0,0,1-1.359.681,3.126,3.126,0,0,1-1.035.262c-.392,0-.435-.247-.435-.354l.136-.387.077-.1-.2.08-.751.254-.157-.16.021-.166.026-.032.1-.093,1.6-.573,2.312-2.176,2.155-1.948,1.838-1.608,1.3-1.03a7.421,7.421,0,0,1,.909-.556l.636-.157a.475.475,0,0,1,.533.512c0,.1-.035.283-.348.739l-.916,1.062-1.448,1.355-1.9,1.476c-.349.246-.709.492-1.089.726s-.766.471-1.177.706a23.387,23.387,0,0,1-2.613,1.285l-.465.494a1.238,1.238,0,0,0-.114.2l.095.071c-.006-.029.22-.062.815-.289a4.834,4.834,0,0,0,.711-.319c.249-.134.507-.279.78-.452l.041-.169.192-.267.274-.2.377-.11.217.259-.119.233-.24.232-.253.187-.13.083a.347.347,0,0,0,.115.253l.374.118.2-.05,1.267-.457c.1-.045.527-.22.527-.22a4.953,4.953,0,0,0,.488-.234l2.681-2.562.753-.7.573-.545L98.36,117.3l1.318-1.046.956-.583.677-.178a.476.476,0,0,1,.538.512c0,.1-.04.292-.384.73l-.966,1.031-1.463,1.286q-.416.351-.876.7l-.951.707-2.074,1.379c-.387.228-.765.443-1.135.65s-.757.408-1.14.59l-.7.734-.145.245.071.033.344-.052.607-.108.727-.158.741-.237,2.393-.78.836-.214.938-.08.656.148.142-.087.293.282-.9.6-.436.346-.2.233-.021.077a.535.535,0,0,1,.081,0l.527-.124,1.065-.385,1.56-.659.706-.274.539-.121c.488,0,.539.259.539.369l-.15.372.194-.089c.314-.143.6-.259.871-.356a4.1,4.1,0,0,1,1.217-.3c.45,0,.5.248.5.355l-.209.409-.454.378-.394.319-.074.107.086.05.732-.149,1.205-.4,1.326-.471,1.447-.587.141.226-.068.16-.734.5-.456.363-.184.228-.006.023.136.074.624-.143.429-.144c.17-.071.309-.13.458-.2l1.007-.474,1.1-.625.151.242-.07.16-.753.5-.431.36-.211.237-.011.077a.065.065,0,0,1,.029-.006l.062,0,.741-.125,1.178-.395.592-.206.606-.265.344-.182.377-.216L115,122.4c.148-.088.306-.194.473-.315l.17-.3.247-.151.105-.054.237.281-.375.454.07.38.039.334-.286.319-.5.357-.365.271-.045.07.059.034.567-.145,1.182-.395,1.273-.46,1.388-.576.139.235-.075.157-.413.258-.334.234-.433.362-.206.235-.012.078a.645.645,0,0,1,.091,0l.793-.125,1.285-.416.184.121-.018.168-.066.1-1.306.429-.889.128c-.469,0-.517-.253-.517-.363l.172-.452c.011-.013.02-.027.032-.041l-.443.15-.548.206-1.187.388-.741.112-.346-.056-.13-.278.191-.382.649-.5.322-.221.081-.114-.014-.153-.042-.176-.737.462-.722.4-.641.275-.608.24-1.175.389-.861.112c-.466,0-.532-.227-.532-.363a.588.588,0,0,1,.036-.2l-.059.028-.621.255-.647.2-.641.081c-.449,0-.5-.253-.5-.363l.169-.451.087-.08-.117.045-.452.143-.587.207-1.23.417-.931.137c-.432,0-.477-.234-.477-.335l.206-.429.429-.39.426-.312.073-.1h-.034l-.561.111-.884.328-1.123.506-1.437.767Zm-5.2-.324.529-.061.661-.206.876-.387.856-.469-.131,0-1.06.142-.965.329-.69.42a.581.581,0,0,0-.192.23H95.8C95.815,124,95.851,124.007,95.9,124.007Zm.007-7.962a6.856,6.856,0,0,0-.8.5l-1.272,1.037L92,119.209l-2.106,1.9-1.437,1.319a21.774,21.774,0,0,0,2.771-1.568c.556-.362,1.065-.715,1.534-1.065s.9-.682,1.291-1.028a19.132,19.132,0,0,0,1.841-1.805c.589-.715.618-.922.618-.957l-.02-.07-.075-.016Zm4.868.015a6.415,6.415,0,0,0-.846.522l-1.285,1.032-1.748,1.6-.575.54-.715.7-1.585,1.5,1.184-.659,2-1.351,1.715-1.339,1.334-1.2.867-.951c.268-.348.279-.45.279-.454l-.02-.07-.067-.014Z" transform="translate(-22.139 -99.888)" fill="#170f0b"></path><path id="Path_53719" data-name="Path 53719" d="M120.034,123.655l-1.24.4-.815.128c-.162,0-.241-.045-.241-.128l.05-.193.223-.251.445-.369.339-.239.413-.259-.048-.08-1.276.529-1.277.462-1.2.4-.668.128-.2-.11.165-.241.368-.273.474-.334.239-.269-.028-.259-.083-.445.224-.273.116-.141-.081-.1-.19.1-.209.344q-.258.186-.481.321l-.431.272-.381.218-.355.186-.616.269-.594.207-1.2.4-.766.128c-.158,0-.241-.045-.241-.128l.049-.193.227-.251.444-.369.753-.5-.049-.08-.99.56-1.007.474c-.17.081-.327.145-.473.209l-.451.148-.719.128-.237-.128.062-.193.207-.251.465-.369.733-.5-.049-.08-1.339.542-1.31.449-.019.023-1.228.4-.83.13-.221-.13.192-.269.394-.317.418-.337.19-.335c0-.135-.114-.207-.353-.207a4,4,0,0,0-1.165.289c-.262.1-.551.211-.86.353s-.641.3-1.006.476v-.013l.594-.514.158-.367c0-.148-.121-.224-.369-.224l-.507.114-.7.273-.785.334-.765.3-.019.025-1.082.389-.56.128c-.158,0-.238-.045-.238-.128l.067-.193.223-.251.445-.353.748-.5-.078-.075-.1.057-.668-.155-.915.075-.826.211-2.394.78v0l-.754.241-.733.158-.62.111-.417.037-.224-.1.252-.413.738-.766c.381-.182.759-.375,1.132-.586s.746-.422,1.126-.645l2.069-1.373c.33-.245.645-.48.949-.706s.6-.466.869-.7l1.451-1.276.959-1.021a1.379,1.379,0,0,0,.353-.638.326.326,0,0,0-.365-.369l-.624.162-.941.574-1.31,1.038L96.7,119l-.574.545-.751.7-1.087,1.037-1.627,1.546a4.609,4.609,0,0,1-.5.241c-.178.076-.355.144-.534.225l-1.021.365-.272.1-.272.045-.415-.141a.523.523,0,0,1-.177-.449l.193-.124.241-.177.207-.192.076-.145-.094-.11-.241.066-.238.163-.176.237-.1.235c-.276.176-.538.324-.789.458a5.086,5.086,0,0,1-.73.328,3.5,3.5,0,0,1-.955.268l-.176-.13a.879.879,0,0,1,.176-.362l.514-.527a23.254,23.254,0,0,0,2.6-1.278c.409-.234.8-.47,1.174-.7s.734-.477,1.076-.718l1.887-1.467,1.437-1.344.907-1.049a1.55,1.55,0,0,0,.321-.656.324.324,0,0,0-.361-.369l-.6.145a7.692,7.692,0,0,0-.882.541l-1.291,1.025-1.837,1.606-2.153,1.947L87.3,123.082l-.8.287-.8.286-.062.078.062.062.656-.22.69-.273-.369.484-.128.334c0,.138.093.206.286.206a3,3,0,0,0,.985-.254,7.846,7.846,0,0,0,1.519-.782.584.584,0,0,0,.245.5.969.969,0,0,0,.474.128l.544-.118.924-.328.911-.385-.577.607-.223.431c0,.128.109.193.337.193l.447-.035.62-.112.733-.159.754-.211h0l.89-.3.689-.238.014.011-.493.372-.159.365.108.2.3.057.929-.158a3.934,3.934,0,0,0,.63-.248c.239-.105.508-.241.808-.387l.013.015-.316.33-.076.269c0,.156.116.231.362.231l.6-.11,1.088-.408.028-.042.753-.306.778-.331.692-.259.477-.114c.17,0,.254.053.254.162s-.144.288-.433.512l-1.192.927.063.1,1.327-.707,1.133-.51.908-.335.589-.115c.158,0,.241.042.241.115l-.193.254-.416.3-.395.348-.189.36c0,.123.1.189.31.189l.9-.131,1.228-.417.592-.207.445-.141.384-.145.4-.159.018.015-.58.518-.159.4c0,.145.111.217.331.217l.615-.076.633-.192.611-.252.525-.259.015.013a.872.872,0,0,0-.3.549c0,.145.123.217.369.217l.828-.107,1.169-.387.6-.238.626-.268.716-.4.912-.572.091.4.02.21-.148.193-.319.22-.606.45-.158.316.067.145.221.041.718-.107,1.181-.387.553-.207.418-.141.367-.145.387-.159.014.015a2.542,2.542,0,0,0-.59.518l-.162.4c0,.145.119.217.351.217l.863-.123,1.226-.37.066-.1Zm-25.549-2.378,1-.941.718-.709.575-.54,1.756-1.608,1.292-1.038a6.241,6.241,0,0,1,.893-.545l.576-.156.187.042.052.2a1.326,1.326,0,0,1-.319.553l-.876.962L99,118.7l-1.724,1.346-2.011,1.356-2.2,1.228Zm-4.712-.3,2.107-1.9,1.85-1.628,1.281-1.042a6.366,6.366,0,0,1,.843-.525l.539-.141.2.042.048.2a2.594,2.594,0,0,1-.654,1.053,19.441,19.441,0,0,1-1.857,1.82c-.388.341-.823.69-1.3,1.034s-.982.707-1.54,1.069a22.56,22.56,0,0,1-3.638,1.967Zm8.238,2.494-.893.394-.689.211-.545.063c-.179,0-.268-.046-.268-.129,0-.1.089-.238.268-.38l.719-.433.992-.336,1.072-.144.286.016.235.094Z" transform="translate(-22.119 -99.867)" fill="#170f0b"></path><path id="Path_53720" data-name="Path 53720" d="M96.715,121.187l-.483-.124-.015-.5.642.172.533.052.323-.05.562-.223-.1.463-.062.033a1.945,1.945,0,0,1-.836.231h-.009Z" transform="translate(-20.307 -99.026)" fill="#170f0b"></path><path id="Path_53721" data-name="Path 53721" d="M96.8,120.847l-.449-.121.006.186.351.093.551.055a1.745,1.745,0,0,0,.772-.213l.026-.128-.342.132-.358.05Z" transform="translate(-20.284 -98.992)" fill="#170f0b"></path><path id="Path_53722" data-name="Path 53722" d="M72.254,127.58l-.609.29-.057-.08,1.057-.867.148-.1.054.115v2.9l.049.289.452.211.138.052-.121.039c-.266,0-.538-.015-.811-.015s-.547.015-.82.015l-.121-.039.139-.052.452-.211.049-.289Z" transform="translate(-24.527 -97.946)" fill="#170f0b"></path><path id="Path_53723" data-name="Path 53723" d="M74.387,130.394c1.027-.276,2.26-.97,2.26-2.21a1.047,1.047,0,0,0-1.079-1.162,1.021,1.021,0,0,0-1.091.907.908.908,0,0,0,1,.907,1.708,1.708,0,0,0,.74-.166l.053.083a1.968,1.968,0,0,1-1.025.294c-.741,0-1.49-.415-1.49-1.1s.9-1.124,1.8-1.124c1.244,0,1.824.649,1.824,1.325,0,1.346-1.752,2.127-2.966,2.343Z" transform="translate(-24.156 -97.946)" fill="#170f0b"></path><path id="Path_53724" data-name="Path 53724" d="M77.9,130.394c1.028-.276,2.26-.97,2.26-2.21a1.049,1.049,0,0,0-1.08-1.162,1.023,1.023,0,0,0-1.093.907.909.909,0,0,0,1,.907,1.711,1.711,0,0,0,.743-.166l.05.083a1.94,1.94,0,0,1-1.021.294c-.74,0-1.491-.415-1.491-1.1s.9-1.124,1.8-1.124c1.244,0,1.82.649,1.82,1.325,0,1.346-1.751,2.127-2.962,2.343Z" transform="translate(-23.554 -97.946)" fill="#170f0b"></path><path id="Path_53725" data-name="Path 53725" d="M83.527,129.508v.238a.832.832,0,0,0,.05.385c.139.255.594.187.594.262l-.125.039c-.268,0-.547-.015-.813-.015s-.539.015-.816.015l-.121-.039.138-.052c.254-.007.49-.078.5-.5v-.334H80.877c-.206,0-.3,0-.3-.056,0-.041.075-.117.272-.3l2.064-1.915c.361-.336.5-.472.565-.426s.046.248.046.558V129.1h.424a.524.524,0,0,0,.362-.228l.055.022-.278.61Zm-.592-1.933L81.3,129.1h1.631Z" transform="translate(-22.986 -97.949)" fill="#170f0b"></path><path id="Path_53726" data-name="Path 53726" d="M70.951,128.453a.5.5,0,1,1-1.007,0,.5.5,0,0,1,1.007,0Z" transform="translate(-24.809 -97.752)" fill="#170f0b"></path><path id="Path_53727" data-name="Path 53727" d="M85.1,128.453a.5.5,0,1,1-.5-.5A.506.506,0,0,1,85.1,128.453Z" transform="translate(-22.385 -97.752)" fill="#170f0b"></path><path id="Path_53728" data-name="Path 53728" d="M36.858,108.141l2.483-3.737,2.446,3.737H36.858m2.6-5.827H37.319c-.206,0-.343.069-.343.156s.137.172.36.172a1.726,1.726,0,0,1,1.336.649l-4.264,6.236c-1.1,1.59-1.612,2-2.655,2.017-.221,0-.342.087-.342.156,0,.087.121.172.342.172.72,0,1.454-.034,2.176-.034.684,0,1.386.034,2.1.034.223,0,.343-.086.343-.172s-.138-.156-.362-.156c-.614,0-.8-.237-.8-.531a2.638,2.638,0,0,1,.513-1.144l.6-.908h6.012l.6.908c.48.7.566.958.566,1.162,0,.432-.463.513-.821.513-.224,0-.326.108-.326.173,0,.1.1.155.326.155.907,0,1.8-.034,2.686-.034s1.661.034,2.536.034c.223,0,.343-.052.343-.137,0-.1-.121-.191-.343-.191-.875,0-1.814-1.3-2.363-2.1l-4.1-6.164a1.986,1.986,0,0,0-1.987-.963" transform="translate(-31.411 -102.145)" fill="#170f0b"></path><path id="Path_53729" data-name="Path 53729" d="M51.373,111.244c-1.577,0-2.332-.8-2.332-1.882a3.27,3.27,0,0,1,.517-1.646,14.474,14.474,0,0,0,3.953,2.725,3.524,3.524,0,0,1-2.138.8m.873-9.074a7.269,7.269,0,0,0-.891.035c-1.8.153-3.411.836-3.411,2.258a3.669,3.669,0,0,0,.5,1.779c-1.491.942-2.175,1.971-2.175,2.915,0,1.708,2.209,2.907,5.171,2.907a9.242,9.242,0,0,0,3.99-.821,10.053,10.053,0,0,0,3.136.652c.549,0,.306-.241.086-.328a20.438,20.438,0,0,1-2.193-1.007,3.242,3.242,0,0,0,1.1-2.452c0-1.488-.4-1.591-1.7-1.591-.463,0-1.4.032-1.4.429l.1.445a4.215,4.215,0,0,1,.138.668,2.4,2.4,0,0,1-.29,1.287c-1.97-1.338-3.564-3.07-3.564-4.954a1.443,1.443,0,0,1,1.543-1.4,2.383,2.383,0,0,1,2.584,2.022c.011.16.084.233.158.233l.153-.165c.049-.189.064-.357.1-.566l.172-1.231c.062-.484.027-.587-.042-.587l-.093.028-.105.027-.067-.02a8.881,8.881,0,0,0-3-.562" transform="translate(-28.865 -102.17)" fill="#170f0b"></path><path id="Path_53730" data-name="Path 53730" d="M63.6,108.141l2.483-3.737,2.449,3.737H63.6m2.6-5.827H64.065c-.208,0-.342.069-.342.156s.134.172.358.172a1.718,1.718,0,0,1,1.334.649l-4.263,6.236c-1.1,1.59-1.608,2-2.655,2.017-.221,0-.342.087-.342.156,0,.087.121.172.342.172.718,0,1.456-.034,2.175-.034.686,0,1.388.034,2.108.034.223,0,.342-.086.342-.172s-.138-.156-.361-.156c-.616,0-.8-.237-.8-.531a2.649,2.649,0,0,1,.511-1.144l.6-.908h6.012l.6.908c.483.7.568.958.568,1.162,0,.432-.464.513-.822.513-.225,0-.327.108-.327.173,0,.1.1.155.327.155.907,0,1.8-.034,2.688-.034.875,0,1.661.034,2.535.034.221,0,.343-.052.343-.137,0-.1-.122-.191-.343-.191-.874,0-1.816-1.3-2.364-2.1l-4.091-6.164a1.99,1.99,0,0,0-1.987-.963" transform="translate(-26.828 -102.145)" fill="#170f0b"></path><path id="Path_53731" data-name="Path 53731" d="M89.18,102.314c-.7,0-1.422.035-2.125.035s-1.3-.035-2-.035c-.224,0-.344.087-.344.173,0,.1.156.168.376.168.976,0,.925.622.5,1.253l-3.409,5.037-3.322-5.072a1.374,1.374,0,0,1-.273-.7c0-.38.343-.518.787-.518.239,0,.362-.1.362-.185,0-.1-.123-.156-.362-.156-.873,0-1.764.035-2.653.035-.874,0-1.748-.035-2.621-.035-.24,0-.375.053-.375.138,0,.121.135.2.375.2,1.028,0,1.935,1.339,2.433,2.094l4.606,6.933c.155.242.241.358.324.358s.171-.116.343-.358l4.916-7.139c1.1-1.594,1.472-1.888,2.466-1.888.223,0,.358-.1.358-.185s-.121-.156-.358-.156" transform="translate(-24.162 -102.145)" fill="#170f0b"></path><path id="Path_53732" data-name="Path 53732" d="M99.306,102.17a3.168,3.168,0,0,1-1.182.169h-4.76c-.754,0-1.7.035-2.33.035-1.318,0-2.087-.035-2.774-.035-.241,0-.358.069-.358.156,0,.1.117.172.358.172.376,0,1.08.138,1.3.531a1.709,1.709,0,0,1,.138.8v6.251a1.682,1.682,0,0,1-.138.786c-.22.4-.924.531-1.3.531-.241,0-.358.069-.358.173,0,.087.117.155.358.155.686,0,1.456-.034,2.756-.034,1.1,0,2.279.034,2.657.034h4.588c.924,0,1.01-.052,1.235-1.217l.307-1.573c.05-.19-.035-.275-.138-.275l-.2.189c-.5,1.711-1.541,1.97-3,1.97H93.69c-1.269,0-1.321-.207-1.321-1.387v-2.038c0-.156.036-.242.259-.242h3.184a1.347,1.347,0,0,1,1.149.994c0,.22.086.323.172.323s.152-.1.152-.323c0-.428-.035-.942-.035-1.422s.035-1.011.035-1.421c0-.224-.067-.328-.152-.328s-.172.1-.172.328a1.344,1.344,0,0,1-1.149.994H92.627c-.206,0-.259-.053-.259-.244V103.8c0-.413.207-.547.432-.547h3.68c1.524,0,2.176,0,2.431,1.456.018.169.088.22.155.22s.153-.052.17-.22l.275-2.126c.053-.342,0-.41-.2-.41" transform="translate(-21.732 -102.17)" fill="#170f0b"></path><path id="Path_53733" data-name="Path 53733" d="M104.867,102.17c-2.469,0-5.107.786-5.107,3,0,4.315,7.98,2.514,7.98,4.452,0,1.37-1.764,1.763-3.39,1.763-1.868,0-4.47-.582-4.832-2.76l-.186-.22-.171.22.258,2.385c.016.511.135.548.22.548l.331-.166.1.028a12.142,12.142,0,0,0,4.265.685c2.5,0,5.634-.753,5.634-3.117,0-4.315-7.965-2.623-7.965-4.557,0-1.318,1.663-1.541,3.016-1.541,1.266,0,3.269.465,3.477,2.21l.189.238c.083,0,.171-.1.171-.272l.05-1.814c.018-.532-.035-.635-.138-.635l-.316.137-.11-.02a11.3,11.3,0,0,0-3.473-.562" transform="translate(-19.803 -102.17)" fill="#170f0b"></path><path id="Path_53734" data-name="Path 53734" d="M114.3,108.141l2.483-3.737,2.447,3.737H114.3m2.6-5.827h-2.141c-.206,0-.343.069-.343.156s.137.172.36.172a1.723,1.723,0,0,1,1.338.649l-4.265,6.236c-1.1,1.59-1.609,2-2.654,2.017-.224,0-.343.087-.343.156,0,.087.119.172.343.172.718,0,1.456-.034,2.175-.034.684,0,1.388.034,2.106.034.224,0,.341-.086.341-.172s-.136-.156-.358-.156c-.618,0-.806-.237-.806-.531a2.613,2.613,0,0,1,.515-1.144l.6-.908h6.014l.6.908c.48.7.566.958.566,1.162,0,.432-.464.513-.825.513-.22,0-.323.108-.323.173,0,.1.1.155.323.155.909,0,1.8-.034,2.691-.034.873,0,1.661.034,2.536.034.22,0,.341-.052.341-.137,0-.1-.121-.191-.341-.191-.875,0-1.817-1.3-2.365-2.1l-4.091-6.164a1.991,1.991,0,0,0-1.988-.963" transform="translate(-18.142 -102.145)" fill="#170f0b"></path></g><path id="Path_53735" data-name="Path 53735" d="M75.276,101.772h9.087L66.914,71.547l-.9-1.565-4.542,7.873Z" transform="translate(-26.261 -68.35)" fill="url(#linear-gradient)"></path><path id="Path_53736" data-name="Path 53736" d="M71.785,98.162l-4.118-7.123H52.18l-4.111,7.123Z" transform="translate(-28.557 -64.743)" fill="url(#linear-gradient-2)"></path><path id="Path_53737" data-name="Path 53737" d="M68.034,68.589H58.948l-1.844,3.2L44.09,94.338l1.681,2.921,2.739,4.749h.241l4.111-7.123L63.5,76.459h0Z" transform="translate(-29.239 -68.589)" fill="url(#linear-gradient-3)"></path><path id="Path_53738" data-name="Path 53738" d="M82.33,101.772H73.242L90.687,71.547l.9-1.565,4.553,7.873Z" transform="translate(-24.244 -68.35)" fill="url(#linear-gradient-4)"></path><path id="Path_53739" data-name="Path 53739" d="M85.937,98.164l4.117-7.126h15.484l4.115,7.126Z" transform="translate(-22.069 -64.743)" fill="url(#linear-gradient-5)"></path><path id="Path_53740" data-name="Path 53740" d="M100.65,71.786l-1.841-3.2H89.719l4.54,7.867h0L104.89,94.885,109,102.011h.241l2.742-4.752,1.683-2.921Z" transform="translate(-21.42 -68.589)" fill="url(#linear-gradient-6)"></path></g></g></svg> 