<?xml version="1.0" encoding="utf-8"?>
<!-- Generator: Adobe Illustrator 23.0.4, SVG Export Plug-In . SVG Version: 6.00 Build 0)  -->
<svg version="1.1" id="Layer_1" xmlns="http://www.w3.org/2000/svg" xmlns:xlink="http://www.w3.org/1999/xlink" x="0px" y="0px"
	 viewBox="0 0 207.8 51" style="enable-background:new 0 0 207.8 51;" xml:space="preserve">
<path d="M45.6,0H14.8c1.1,8.5,3.4,16.6,6.7,24.2C28,14.7,36.2,6.5,45.6,0"/>
<path d="M4.9,51h30.8c-1-8.4-3.2-16.4-6.3-24C22.8,36.5,14.5,44.6,4.9,51"/>
<path d="M26.1,29.7c-9-0.7-17.7-2.8-26.1-6V51h3.4C12.3,45.1,19.9,37.8,26.1,29.7"/>
<path d="M13.8,0H0v22.6c7.2,2.8,14.7,4.6,22.1,5.5C17.9,19.2,15.1,9.7,13.8,0"/>
<path d="M24.7,21.3c9,0.7,17.9,2.8,26.3,6V0h-3.6C38.4,5.9,30.8,13.2,24.7,21.3"/>
<path d="M51,28.5c-7.3-2.9-14.8-4.8-22.3-5.8c4.2,8.9,6.9,18.5,8.1,28.3H51V28.5z"/>
<path d="M61.8,22.7c3.4-0.3,3.7-1,4.1-2h-1L60.5,6.1h6l1.2,6.8c0.2,1.2,0.3,2.9,0.3,3.7l0,0c0.1-0.9,0.1-2.6,0.3-3.7l1.2-6.8h5.6
	L71,21c-1.2,4.3-2.8,5.6-8.2,6L61.8,22.7z"/>
<path d="M83.7,17.3c1.3,0,2.6-0.5,3.3-0.9l1.7,3.6c-1.1,0.7-2.8,1.5-5.5,1.5c-5.3,0-7.6-2.4-7.6-8c0-5.7,3-7.8,6.9-7.8
	c4.6,0,6.5,2.3,6.5,8.6v1.1h-7.5C81.6,17,82.1,17.3,83.7,17.3 M83.7,12.2c-0.1-1.5,0-2.6-1.1-2.6c-1,0-1.2,0.6-1.2,2.6
	C81.4,12.2,83.7,12.2,83.7,12.2z"/>
<path d="M90.9,16.2V0h5.6v16.3c0,0.9,0.2,1,0.8,1h0.5l0.4,3.5c-0.4,0.3-1.5,0.7-2.9,0.7C91.9,21.5,90.9,19.8,90.9,16.2"/>
<path d="M99.8,16.2V0h5.6v16.3c0,0.9,0.2,1,0.8,1h0.5l0.4,3.5c-0.4,0.3-1.5,0.7-2.9,0.7C100.7,21.5,99.8,19.8,99.8,16.2"/>
<path d="M108,13.5c0-5.4,2.4-7.8,6.9-7.8c4.6,0,6.9,2.6,6.9,8s-2.4,7.8-7,7.8C110.2,21.5,108,18.9,108,13.5 M116,13.5
	c0-3.3-0.2-3.8-1.1-3.8s-1.1,0.6-1.1,4c0,3.1,0.2,3.8,1.1,3.8S116,16.6,116,13.5"/>
<path d="M122.2,6.1h5.8l0.7,3.8c0.3,1.6,0.4,3.5,0.4,5.2l0,0c0.1-1.7,0.3-3.4,0.6-4.8l0.8-4.3h4.5l0.8,4.3c0.3,1.4,0.5,3,0.6,4.8
	l0,0c0.1-1.9,0.1-3.9,0.4-5.2l0.6-3.8h5.5l-3.8,15.1h-5.3l-0.7-4.7c-0.3-1.5-0.3-3.1-0.4-4.1l0,0c-0.1,1-0.2,2.6-0.5,4.1l-0.8,4.7
	h-5.5L122.2,6.1z"/>
<path d="M60.5,44.1L62,40c0.8,0.5,2.2,1.1,3.7,1.1c1,0,1.3-0.2,1.3-0.7c0-0.6-1.4-0.5-3-1.2c-1.8-0.7-2.8-2.2-2.8-4.6
	c0-3.8,2.5-5.2,5.9-5.2c2.4,0,3.8,0.3,5.3,0.9L71,34.5c-0.8-0.4-2-0.8-3.3-0.8c-0.8,0-1.1,0.2-1.1,0.6c0,0.5,0.6,0.6,2.1,0.9
	c2.4,0.5,3.9,1.8,3.9,4.7c0,3.5-2.2,5.3-6.4,5.3C63.6,45.2,61.8,44.7,60.5,44.1"/>
<path d="M73.5,33.9v-4.1h1.3v-3.3l5.7-0.9v4.2h2.4v4.1h-2.4V40c0,0.8,0.2,1,0.8,1c0.4,0,0.9-0.1,1.2-0.3l0.6,3.7
	c-0.6,0.3-1.7,0.7-3.4,0.7c-3.1,0-4.9-0.9-4.9-4.4v-6.9h-1.3V33.9z"/>
<path d="M84.4,37.2c0-5.4,2.4-7.8,6.9-7.8c4.6,0,6.9,2.6,6.9,8s-2.4,7.8-7,7.8C86.6,45.2,84.4,42.6,84.4,37.2 M92.3,37.2
	c0-3.3-0.2-3.8-1.1-3.8s-1.1,0.6-1.1,4c0,3.1,0.2,3.8,1.1,3.8C92.2,41.2,92.3,40.3,92.3,37.2"/>
<path d="M100.1,29.8h4.7l0.3,1.3c0.8-0.9,1.9-1.5,3.2-1.5c0.7,0,1.3,0.1,1.6,0.2l-0.9,5.3c-0.4-0.3-1.1-0.6-1.8-0.6
	c-0.8,0-1.2,0.2-1.4,0.3v10h-5.7C100.1,44.8,100.1,29.8,100.1,29.8z"/>
<path d="M118.6,41.1c1.3,0,2.6-0.5,3.3-0.9l1.7,3.6c-1.1,0.7-2.8,1.5-5.5,1.5c-5.3,0-7.6-2.4-7.6-8c0-5.7,3-7.8,6.9-7.8
	c4.6,0,6.5,2.3,6.5,8.6v1.1h-7.5C116.5,40.8,117.1,41.1,118.6,41.1 M118.7,35.9c-0.1-1.5,0-2.6-1.1-2.6c-1,0-1.2,0.6-1.2,2.6H118.7z
	"/>
<path d="M125,32.7c0-2,1.2-3.3,2.9-3.3s2.9,1.3,2.9,3.3s-1.2,3.3-2.9,3.3S125,34.7,125,32.7 M129.9,32.7c0-1.7-0.6-2.6-2-2.6
	c-1.4,0-2,0.9-2,2.6s0.6,2.5,2,2.5C129.3,35.2,129.9,34.4,129.9,32.7 M126.8,31.2h1.1c0.9,0,1.2,0.3,1.2,0.9c0,0.5-0.2,0.7-0.5,0.8
	c0.2,0.1,0.3,0.2,0.4,0.5l0.1,0.9h-0.9l-0.1-0.9c0-0.2-0.1-0.3-0.2-0.3h-0.1v1.1h-0.9v-3H126.8z M127.9,32.3c0.2,0,0.2-0.1,0.2-0.3
	s-0.1-0.3-0.2-0.3h-0.2v0.6H127.9z"/>
<g>
	<path d="M160.3,18.7c0-1.2,0.5-2.8,1.1-3.6c0.7-0.9,1.6-1.3,2.6-1.3c1.5,0,2.3,0.8,2.3,2c0,2.1-2.3,2.6-4.4,2.6c0,0.2,0,0.4,0,0.5
		c0,1,0.4,1.4,1.2,1.4s1.4-0.3,2-0.7l0.3,1.2c-0.7,0.5-1.5,0.8-2.5,0.8C161.3,21.5,160.3,20.5,160.3,18.7z M162.2,17.2
		c1.2,0,2.6-0.2,2.6-1.4c0-0.6-0.2-0.9-0.8-0.9c-0.5,0-1,0.2-1.3,0.9C162.5,16.2,162.3,16.7,162.2,17.2z"/>
	<path d="M169.2,17.3L168,14h1.8l0.2,1c0.1,0.6,0.2,1,0.3,1.4l0,0c0.2-0.3,0.4-0.8,0.8-1.3l0.7-1.1h1.9l-2.6,3.5l1.3,3.8h-1.7
		l-0.4-1.4c-0.2-0.6-0.3-1-0.3-1.3l0,0c-0.2,0.4-0.4,0.7-0.8,1.3l-1,1.5h-1.9L169.2,17.3z"/>
	<path d="M173.7,18.7c0-1.3,0.4-2.9,1.1-3.7c0.6-0.9,1.5-1.2,2.6-1.2c0.9,0,1.5,0.3,1.9,0.7l-0.7,1.1c-0.4-0.3-0.8-0.5-1.3-0.5
		c-0.6,0-1,0.2-1.3,0.9s-0.6,2-0.6,2.9c0,1,0.3,1.4,1.1,1.4c0.6,0,1.1-0.3,1.6-0.7l0.4,1.1c-0.6,0.5-1.3,0.8-2.2,0.8
		C174.6,21.5,173.7,20.5,173.7,18.7z"/>
	<path d="M181.6,19.7c0,0.1,0,0.2,0,0.2c0,0.2,0.1,0.3,0.4,0.3c0.2,0,0.4-0.1,0.4-0.1v1c-0.2,0.1-0.5,0.2-1,0.2
		c-0.9,0-1.3-0.5-1.3-1.4c0-0.2,0-0.5,0.1-0.9l1.8-8.5h1.6L181.6,19.7z"/>
	<path d="M184,19.9c0-0.2,0-0.4,0.1-0.7l1.1-5.2h1.6l-1.1,5.1c0,0.2-0.1,0.3-0.1,0.4c0,0.4,0.2,0.6,0.6,0.6c0.5,0,1-0.3,1.5-0.7
		l1.2-5.5h1.6l-1.2,5.5c-0.1,0.6-0.2,1.2-0.2,1.9h-1.4v-0.9c-0.6,0.6-1.4,1.1-2.3,1.1C184.6,21.5,184,20.9,184,19.9z"/>
	<path d="M190.8,20.7l0.5-1.2c0.5,0.3,1.2,0.7,1.9,0.7s1.2-0.3,1.2-1c0-0.6-0.3-0.8-1.1-1.1c-0.7-0.4-1.5-0.8-1.5-2.1
		c0-1.5,1.1-2.2,2.4-2.2c1,0,1.6,0.2,2.1,0.6l-0.4,1.2c-0.4-0.3-1-0.5-1.6-0.5s-0.9,0.3-0.9,0.9c0,0.5,0.3,0.7,1,1.1
		c0.8,0.4,1.5,0.9,1.5,2.1c0,1.6-1,2.4-2.7,2.4C192.1,21.5,191.3,21.1,190.8,20.7z"/>
	<path d="M198.5,15.2l-0.8-0.2l0.2-1h2.5l-1.5,7.3h-1.6L198.5,15.2z M199,11.8c0-0.6,0.4-1,1-1s1,0.4,1,1s-0.4,1-1,1
		S199,12.4,199,11.8z"/>
	<path d="M201.7,14h1.6l0.2,3.3c0.1,0.8,0.1,1.7,0.1,2.4l0,0c0.2-0.7,0.5-1.5,0.8-2.2l1.7-3.5h1.7l-3.8,7.3h-1.5L201.7,14z"/>
</g>
<g>
	<path d="M162.4,28.6h1.6l1.3,5.3c0.2,0.8,0.3,1.7,0.4,2.4l0,0c0.1-0.7,0.2-1.8,0.4-2.8l1-4.9h1.5l-2.1,10h-1.7l-1.1-5
		c-0.3-1.1-0.4-1.9-0.4-2.6l0,0c-0.1,0.6-0.2,1.8-0.4,3l-1,4.6h-1.6L162.4,28.6z"/>
	<path d="M170.3,32.6l-0.8-0.2l0.2-1h2.5l-1.5,7.3H169L170.3,32.6z M170.8,29.2c0-0.6,0.4-1,1-1s1,0.4,1,1s-0.4,1-1,1
		C171.3,30.2,170.8,29.8,170.8,29.2z"/>
	<path d="M175,28.1h1.6l-2.2,10.5h-1.6L175,28.1z M175.3,34.5l2.6-3.2h1.8l-2.8,3.3l1.6,4.1h-1.6L175.3,34.5z"/>
	<path d="M179.7,36c0-1.3,0.5-2.9,1.1-3.6c0.7-0.9,1.5-1.2,2.5-1.2c1.7,0,2.6,1,2.7,2.8c0,1.3-0.5,2.9-1,3.7
		c-0.6,0.9-1.5,1.2-2.5,1.2C180.7,38.8,179.7,37.9,179.7,36z M183.7,36.7c0.3-0.7,0.6-2.2,0.6-3.1c0-0.9-0.4-1.3-1.1-1.3
		c-0.6,0-0.9,0.2-1.3,0.9c-0.3,0.6-0.6,2.2-0.6,3c0,1,0.4,1.3,1.1,1.3C183,37.6,183.3,37.5,183.7,36.7z"/>
	<path d="M192,38.7h-1.6l1.1-5.1c0-0.2,0.1-0.3,0.1-0.4c0-0.4-0.2-0.6-0.6-0.6c-0.5,0-1,0.2-1.5,0.7l-1.2,5.5h-1.6l1.2-5.8
		c0.1-0.5,0.1-1,0.1-1.5h1.4v0.9c0.7-0.6,1.5-1.1,2.3-1.1c0.9,0,1.5,0.6,1.5,1.6c0,0.2,0,0.4-0.1,0.7L192,38.7z"/>
</g>
<rect x="151.3" width="0.8" height="51"/>
</svg>
